# This file uses centimeters as units for non-parametric coordinates.

g default
v 1.000000 2.200000 -0.000000
v 1.000000 2.200000 -1.000000
v 0.000000 2.200000 -1.000000
v 0.000000 2.200000 0.000000
v 1.000000 0.000000 -0.000000
v 1.000000 0.000000 -1.000000
v 0.000000 0.000000 -1.000000
v 0.000000 0.000000 0.000000
v 0.200000 1.000000 -1.000000
v 0.200000 2.000000 -1.000000
v 0.800000 2.000000 -1.000000
v 0.800000 1.000000 -1.000000
v 0.200000 1.000000 -5.000000
v 0.800000 1.000000 -5.000000
v 0.200000 2.000000 -5.000000
v 0.000000 2.200000 -5.000000
v 0.000000 0.000000 -5.000000
v 1.000000 0.000000 -5.000000
v 1.000000 2.200000 -5.000000
v 1.000000 2.200000 -6.000000
v 1.000000 0.000000 -6.000000
v 0.000000 2.200000 -6.000000
v 0.000000 0.000000 -6.000000
v 0.800000 2.000000 -5.000000
vt 0.490024 0.463593
vt 0.490024 0.485676
vt 0.411795 0.485676
vt 0.411795 0.463593
vt 0.422025 0.164232
vt 0.473051 0.164232
vt 0.473051 0.387576
vt 0.422025 0.387576
vt 0.411795 0.485676
vt 0.411795 0.463593
vt 0.462846 0.265752
vt 0.422025 0.164232
vt 0.473051 0.387576
vt 0.422025 0.387576
vt 0.462846 0.367272
vt 0.432230 0.367272
vt 0.471451 0.211454
vt 0.434823 0.321975
vt 0.434823 0.211453
vt 0.434823 0.358816
vt 0.434823 0.174613
vt 0.471451 0.358815
vt 0.432230 0.265752
vt 0.432230 0.367272
vt 0.462846 0.265752
vt 0.473051 0.387576
vt 0.422024 0.387576
vt 0.422024 0.164232
vt 0.473051 0.164232
vt 0.411795 0.485677
vt 0.411795 0.463593
vt 0.490024 0.463593
vt 0.490024 0.485677
vt 0.422024 0.164232
vt 0.473051 0.164232
vt 0.473051 0.387576
vt 0.422024 0.387576
vt 0.411795 0.463593
vt 0.411795 0.485677
vt 0.462846 0.367272
vt 0.434823 0.358815
vt 0.471451 0.174613
vt 0.471451 0.358815
vt 0.434823 0.321975
vt 0.434823 0.211453
vt 0.490024 0.485676
vt 0.490024 0.463593
vt 0.473051 0.164232
vt 0.473051 0.387576
vt 0.422025 0.164232
vt 0.473051 0.164232
vt 0.422025 0.164232
vt 0.473051 0.164232
vt 0.473051 0.387576
vt 0.422025 0.387576
vt 0.422025 0.387576
vt 0.471451 0.174613
vt 0.422025 0.387576
vt 0.422025 0.164232
vt 0.473051 0.164232
vt 0.473051 0.387576
vt 0.490024 0.463593
vt 0.490024 0.485677
vt 0.422025 0.164232
vt 0.473051 0.164232
vt 0.473051 0.387576
vt 0.422025 0.387576
vt 0.434823 0.174613
vt 0.471451 0.211453
vt 0.471451 0.321975
vt 0.471451 0.321975
vt 0.432230 0.265752
vn 0.000000 1.000000 0.000000
vn 0.000000 1.000000 0.000000
vn 0.000000 1.000000 0.000000
vn 0.000000 1.000000 0.000000
vn 1.000000 0.000000 0.000000
vn 1.000000 0.000000 0.000000
vn 1.000000 0.000000 0.000000
vn 1.000000 0.000000 0.000000
vn 0.000000 -1.000000 0.000000
vn 0.000000 -1.000000 0.000000
vn 0.000000 -1.000000 0.000000
vn 0.000000 -1.000000 0.000000
vn 0.000000 0.000000 -1.000000
vn 0.000000 0.000000 -1.000000
vn 0.000000 0.000000 -1.000000
vn 0.000000 0.000000 -1.000000
vn 0.000000 0.000000 -1.000000
vn 0.000000 0.000000 -1.000000
vn -1.000000 0.000000 -0.000000
vn -1.000000 0.000000 -0.000000
vn -1.000000 0.000000 -0.000000
vn -1.000000 0.000000 -0.000000
vn 0.000000 0.000000 1.000000
vn 0.000000 0.000000 1.000000
vn 0.000000 0.000000 1.000000
vn 0.000000 0.000000 1.000000
vn 0.000000 0.000000 -1.000000
vn 0.000000 0.000000 -1.000000
vn 0.000000 0.000000 -1.000000
vn 0.000000 0.000000 -1.000000
vn 0.000000 0.000000 -1.000000
vn 0.000000 0.000000 -1.000000
vn 0.000000 0.000000 -1.000000
vn 0.000000 0.000000 -1.000000
vn 0.000000 0.000000 -1.000000
vn 0.000000 0.000000 -1.000000
vn 0.000000 0.000000 -1.000000
vn 0.000000 0.000000 -1.000000
vn 0.000000 0.000000 -1.000000
vn 0.000000 0.000000 -1.000000
vn 0.000000 0.000000 -1.000000
vn 0.000000 0.000000 -1.000000
vn 0.000000 0.000000 -1.000000
vn 0.000000 0.000000 -1.000000
vn 0.000000 -1.000000 0.000000
vn 0.000000 -1.000000 0.000000
vn 0.000000 -1.000000 0.000000
vn 0.000000 -1.000000 0.000000
vn -1.000000 0.000000 -0.000000
vn -1.000000 0.000000 -0.000000
vn -1.000000 0.000000 -0.000000
vn -1.000000 0.000000 -0.000000
vn 0.000000 0.000000 1.000000
vn 0.000000 0.000000 1.000000
vn 0.000000 0.000000 1.000000
vn 0.000000 0.000000 1.000000
vn 0.000000 0.000000 1.000000
vn 0.000000 0.000000 1.000000
vn 0.000000 0.000000 1.000000
vn 0.000000 0.000000 1.000000
vn 0.000000 0.000000 1.000000
vn 0.000000 0.000000 1.000000
vn 0.000000 0.000000 1.000000
vn 0.000000 0.000000 1.000000
vn 0.000000 0.000000 1.000000
vn 0.000000 0.000000 1.000000
vn 0.000000 0.000000 1.000000
vn 1.000000 0.000000 0.000000
vn 1.000000 0.000000 0.000000
vn 1.000000 0.000000 0.000000
vn 1.000000 0.000000 0.000000
vn 0.000000 1.000000 0.000000
vn 0.000000 1.000000 0.000000
vn 0.000000 1.000000 0.000000
vn 0.000000 1.000000 0.000000
vn -1.000000 0.000000 -0.000000
vn -1.000000 0.000000 -0.000000
vn -1.000000 0.000000 -0.000000
vn -1.000000 0.000000 -0.000000
vn 0.000000 -1.000000 0.000000
vn 0.000000 -1.000000 0.000000
vn 0.000000 -1.000000 0.000000
vn 0.000000 -1.000000 0.000000
vn 0.000000 0.000000 -1.000000
vn 0.000000 0.000000 -1.000000
vn 0.000000 0.000000 -1.000000
vn 0.000000 0.000000 -1.000000
vn 0.000000 0.000000 1.000000
vn 0.000000 0.000000 1.000000
vn 0.000000 0.000000 1.000000
vn 0.000000 0.000000 1.000000
vn 0.000000 0.000000 1.000000
vn 0.000000 0.000000 1.000000
vn 0.000000 0.000000 1.000000
vn 0.000000 0.000000 1.000000
vn 0.000000 0.000000 1.000000
vn 1.000000 0.000000 0.000000
vn 1.000000 0.000000 0.000000
vn 1.000000 0.000000 0.000000
vn 1.000000 0.000000 0.000000
vn 0.000000 1.000000 0.000000
vn 0.000000 1.000000 0.000000
vn 0.000000 1.000000 0.000000
vn 0.000000 1.000000 0.000000
s off
g Wood_Fence_01:Mesh1Wood_FenceModel landscape_pack
f 1/1/1 2/2/2 3/3/3 4/4/4
f 5/5/5 6/6/6 2/7/7 1/8/8
f 7/46/9 6/9/10 5/10/11 8/47/12
f 7/48/13 9/11/14 6/12/15
f 9/11/16 7/48/17 3/13/18
f 4/49/19 3/14/20 7/50/21 8/51/22
f 8/52/23 5/53/24 1/54/25 4/55/26
f 9/11/27 3/13/28 10/15/29
f 10/15/30 3/13/31 11/16/32
f 2/56/33 11/16/34 3/13/35
f 2/56/36 12/72/37 11/16/38
f 6/12/39 12/72/40 2/56/41
f 12/72/42 6/12/43 9/11/44
f 9/71/45 13/18/46 14/19/47 12/17/48
f 15/20/49 13/21/50 9/57/51 10/22/52
f 16/58/53 13/23/54 15/24/55
f 17/59/56 13/23/57 16/58/58
f 13/23/59 17/59/60 14/25/61
f 18/60/62 14/25/63 17/59/64
f 14/25/65 18/60/66 19/61/67
f 20/26/68 19/27/69 18/28/70 21/29/71
f 22/30/72 16/31/73 19/32/74 20/33/75
f 23/34/76 17/35/77 16/36/78 22/37/79
f 18/38/80 17/62/81 23/63/82 21/39/83
f 21/64/84 23/65/85 22/66/86 20/67/87
f 16/58/88 15/24/89 19/61/90
f 24/40/91 19/61/92 15/24/93
f 14/25/94 19/61/95 24/40/96
f 11/41/97 12/68/98 14/42/99 24/43/100
f 24/44/101 15/45/102 10/69/103 11/70/104
