# This file uses centimeters as units for non-parametric coordinates.

g Fence_default1
v 1.949546 0.707073 -0.016349
v 1.949546 0.707073 -1.889635
v 1.896902 0.707073 -0.016349
v 1.896902 0.707073 -1.889635
v 1.896902 0.501856 -0.015406
v 1.896902 0.501856 -1.889635
v 1.949546 0.501856 -0.015406
v 1.949546 0.501856 -1.883891
v 1.949546 0.406042 -0.016349
v 1.949546 0.406042 -1.883891
v 1.896902 0.406042 -0.016349
v 1.896902 0.406042 -1.889635
v 1.896902 0.200825 -0.015406
v 1.896902 0.200824 -1.889635
v 1.949546 0.200825 -0.015406
v 1.949546 0.200824 -1.883891
v 1.695456 0.799533 -0.098971
v 1.896902 0.799533 -0.098971
v 1.695456 0.799533 -0.296715
v 1.896902 0.799533 -0.296715
v 1.695371 0.000000 -0.296715
v 1.896902 0.000000 -0.296715
v 1.695371 0.000000 -0.098971
v 1.896902 0.000000 -0.098971
v 1.695456 0.799533 -1.693209
v 1.896902 0.799533 -1.693209
v 1.695456 0.799533 -1.889635
v 1.896902 0.799533 -1.889635
v 1.695371 0.000000 -1.889635
v 1.896902 0.000000 -1.889635
v 1.695371 0.000000 -1.693209
v 1.896902 0.000000 -1.693209
vt 0.116059 0.306060
vt 0.181337 0.306060
vt 0.181337 0.460736
vt 0.116059 0.460736
vt 0.116970 0.460084
vt 0.116970 0.306711
vt 0.180426 0.306711
vt 0.180426 0.460084
vt 0.116059 0.306060
vt 0.181337 0.306060
vt 0.181337 0.460736
vt 0.116059 0.460736
vt 0.116970 0.460084
vt 0.116970 0.306711
vt 0.180426 0.306711
vt 0.180426 0.460084
vt 0.116059 0.306060
vt 0.181337 0.306060
vt 0.181337 0.460736
vt 0.116059 0.460736
vt 0.116059 0.306060
vt 0.181337 0.306060
vt 0.181337 0.460736
vt 0.116059 0.460736
vt 0.116059 0.306060
vt 0.181337 0.306060
vt 0.181337 0.460736
vt 0.116059 0.460736
vt 0.116970 0.460084
vt 0.116970 0.306711
vt 0.180426 0.306711
vt 0.180426 0.460084
vt 0.116059 0.306060
vt 0.181337 0.306060
vt 0.181337 0.460736
vt 0.116059 0.460736
vt 0.116970 0.460084
vt 0.116970 0.306711
vt 0.180426 0.306711
vt 0.180426 0.460084
vt 0.116059 0.306060
vt 0.181337 0.306060
vt 0.181337 0.460736
vt 0.116059 0.460736
vt 0.116059 0.306060
vt 0.181337 0.306060
vt 0.181337 0.460736
vt 0.116059 0.460736
vt 0.116059 0.306060
vt 0.181337 0.306060
vt 0.181337 0.460736
vt 0.116059 0.460736
vt 0.116970 0.460084
vt 0.116970 0.306711
vt 0.180426 0.306711
vt 0.180426 0.460084
vt 0.116059 0.306060
vt 0.181337 0.306060
vt 0.181337 0.460736
vt 0.116059 0.460736
vt 0.116970 0.460084
vt 0.116970 0.306711
vt 0.180426 0.306711
vt 0.180426 0.460084
vt 0.116059 0.306060
vt 0.181337 0.306060
vt 0.181337 0.460736
vt 0.116059 0.460736
vt 0.116059 0.306060
vt 0.181337 0.306060
vt 0.181337 0.460736
vt 0.116059 0.460736
vt 0.116059 0.306060
vt 0.181337 0.306060
vt 0.181337 0.460736
vt 0.116059 0.460736
vt 0.116970 0.460084
vt 0.116970 0.306711
vt 0.180426 0.306711
vt 0.180426 0.460084
vt 0.116059 0.306060
vt 0.181337 0.306060
vt 0.181337 0.460736
vt 0.116059 0.460736
vt 0.116970 0.460084
vt 0.116970 0.306711
vt 0.180426 0.306711
vt 0.180426 0.460084
vt 0.116059 0.306060
vt 0.181337 0.306060
vt 0.181337 0.460736
vt 0.116059 0.460736
vt 0.116059 0.306060
vt 0.181337 0.306060
vt 0.181337 0.460736
vt 0.116059 0.460736
vn 0.000000 1.000000 0.000000
vn 0.000000 1.000000 0.000000
vn 0.000000 1.000000 0.000000
vn 0.000000 1.000000 0.000000
vn -1.000000 0.000000 0.000000
vn -1.000000 0.000000 0.000000
vn -1.000000 0.000000 0.000000
vn -1.000000 0.000000 0.000000
vn 0.000000 -1.000000 0.000000
vn 0.000000 -1.000000 0.000000
vn 0.000000 -1.000000 0.000000
vn 0.000000 -1.000000 0.000000
vn 1.000000 -0.000000 0.000000
vn 1.000000 -0.000000 0.000000
vn 1.000000 -0.000000 0.000000
vn 1.000000 -0.000000 0.000000
vn 0.054475 -0.013974 -0.998417
vn 0.054475 -0.013974 -0.998417
vn 0.054475 -0.013974 -0.998417
vn 0.054475 -0.013974 -0.998417
vn 0.000000 0.004594 0.999990
vn 0.000000 0.004594 0.999990
vn 0.000000 0.004594 0.999990
vn 0.000000 0.004594 0.999990
vn 0.000000 1.000000 0.000000
vn 0.000000 1.000000 0.000000
vn 0.000000 1.000000 0.000000
vn 0.000000 1.000000 0.000000
vn -1.000000 0.000000 0.000000
vn -1.000000 0.000000 0.000000
vn -1.000000 0.000000 0.000000
vn -1.000000 0.000000 0.000000
vn 0.000000 -1.000000 0.000000
vn 0.000000 -1.000000 0.000000
vn 0.000000 -1.000000 0.000000
vn 0.000000 -1.000000 0.000000
vn 1.000000 -0.000000 0.000000
vn 1.000000 -0.000000 0.000000
vn 1.000000 -0.000000 0.000000
vn 1.000000 -0.000000 0.000000
vn 0.108477 0.000000 -0.994099
vn 0.108477 0.000000 -0.994099
vn 0.108477 0.000000 -0.994099
vn 0.108477 0.000000 -0.994099
vn 0.000000 0.004594 0.999990
vn 0.000000 0.004594 0.999990
vn 0.000000 0.004594 0.999990
vn 0.000000 0.004594 0.999990
vn 0.000000 1.000000 0.000000
vn 0.000000 1.000000 0.000000
vn 0.000000 1.000000 0.000000
vn 0.000000 1.000000 0.000000
vn 0.000000 0.000000 -1.000000
vn 0.000000 0.000000 -1.000000
vn 0.000000 0.000000 -1.000000
vn 0.000000 0.000000 -1.000000
vn 0.000000 -1.000000 0.000000
vn 0.000000 -1.000000 0.000000
vn 0.000000 -1.000000 0.000000
vn 0.000000 -1.000000 0.000000
vn 0.000000 0.000000 1.000000
vn 0.000000 0.000000 1.000000
vn 0.000000 0.000000 1.000000
vn 0.000000 0.000000 1.000000
vn 1.000000 0.000000 0.000000
vn 1.000000 0.000000 0.000000
vn 1.000000 0.000000 0.000000
vn 1.000000 0.000000 0.000000
vn -1.000000 0.000106 0.000000
vn -1.000000 0.000106 0.000000
vn -1.000000 0.000106 0.000000
vn -1.000000 0.000106 0.000000
vn 0.000000 1.000000 0.000000
vn 0.000000 1.000000 0.000000
vn 0.000000 1.000000 0.000000
vn 0.000000 1.000000 0.000000
vn 0.000000 0.000000 -1.000000
vn 0.000000 0.000000 -1.000000
vn 0.000000 0.000000 -1.000000
vn 0.000000 0.000000 -1.000000
vn 0.000000 -1.000000 0.000000
vn 0.000000 -1.000000 0.000000
vn 0.000000 -1.000000 0.000000
vn 0.000000 -1.000000 0.000000
vn 0.000000 0.000000 1.000000
vn 0.000000 0.000000 1.000000
vn 0.000000 0.000000 1.000000
vn 0.000000 0.000000 1.000000
vn 1.000000 0.000000 0.000000
vn 1.000000 0.000000 0.000000
vn 1.000000 0.000000 0.000000
vn 1.000000 0.000000 0.000000
vn -1.000000 0.000106 0.000000
vn -1.000000 0.000106 0.000000
vn -1.000000 0.000106 0.000000
vn -1.000000 0.000106 0.000000
s off
g Fence_platformer fence Fence
f 1/1/1 2/2/2 4/3/3 3/4/4
f 3/5/5 4/6/6 6/7/7 5/8/8
f 5/9/9 6/10/10 8/11/11 7/12/12
f 7/13/13 8/14/14 2/15/15 1/16/16
f 2/17/17 8/18/18 6/19/19 4/20/20
f 7/21/21 1/22/22 3/23/23 5/24/24
f 9/25/25 10/26/26 12/27/27 11/28/28
f 11/29/29 12/30/30 14/31/31 13/32/32
f 13/33/33 14/34/34 16/35/35 15/36/36
f 15/37/37 16/38/38 10/39/39 9/40/40
f 10/41/41 16/42/42 14/43/43 12/44/44
f 15/45/45 9/46/46 11/47/47 13/48/48
f 17/49/49 18/50/50 20/51/51 19/52/52
f 19/53/53 20/54/54 22/55/55 21/56/56
f 21/57/57 22/58/58 24/59/59 23/60/60
f 23/61/61 24/62/62 18/63/63 17/64/64
f 18/65/65 24/66/66 22/67/67 20/68/68
f 23/69/69 17/70/70 19/71/71 21/72/72
f 25/73/73 26/74/74 28/75/75 27/76/76
f 27/77/77 28/78/78 30/79/79 29/80/80
f 29/81/81 30/82/82 32/83/83 31/84/84
f 31/85/85 32/86/86 26/87/87 25/88/88
f 26/89/89 32/90/90 30/91/91 28/92/92
f 31/93/93 25/94/94 27/95/95 29/96/96
