# This file uses centimeters as units for non-parametric coordinates.

g default
v 6.000000 0.000000 1.000000
v 6.000000 0.000000 -0.560000
v 6.000000 4.400000 -0.560000
v 6.000000 4.400000 1.000000
v 1.402062 0.000000 -0.560000
v 1.517396 0.000000 -0.487116
v 1.517396 0.000000 -0.767116
v 2.549840 0.000000 -0.114682
v 3.848640 0.000000 -0.840000
v 4.482600 0.000000 -0.639798
v 4.482600 0.000000 -0.359798
v 4.774380 0.000000 -0.267658
v 0.000000 0.000000 1.000000
v 0.000000 0.000000 -0.560000
v 0.743728 0.000000 -0.322100
v 1.402062 4.400000 -0.560000
v 1.517396 4.400000 -0.487116
v 4.774380 4.400000 -0.267658
v 4.482600 4.400000 -0.359798
v 4.482600 4.400000 -0.639798
v 3.848640 4.400000 -0.840000
v 2.549840 4.400000 -0.114682
v 1.517396 4.400000 -0.767116
v 0.743728 4.400000 -0.322100
v 0.000000 4.400000 -0.560000
v 0.000000 4.400000 1.000000
vt 0.412426 0.030793
vt 0.412148 0.004533
vt 0.488112 0.004669
vt 0.488390 0.030929
vt 0.472643 0.024974
vt 0.471178 0.024040
vt 0.471178 0.027630
vt 0.458064 0.019265
vt 0.441566 0.028564
vt 0.433514 0.025998
vt 0.433514 0.022408
vt 0.429807 0.021227
vt 0.414240 0.024974
vt 0.414240 0.004975
vt 0.490451 0.004975
vt 0.490451 0.024974
vt 0.481005 0.021925
vt 0.491377 0.015176
vt 0.491401 0.017473
vt 0.415437 0.017337
vt 0.415413 0.015040
vt 0.476647 0.021227
vt 0.472941 0.022408
vt 0.472941 0.025998
vt 0.464888 0.028564
vt 0.448391 0.019265
vt 0.435277 0.027630
vt 0.435277 0.024040
vt 0.433812 0.024974
vt 0.425450 0.021925
vt 0.416003 0.024974
vt 0.416003 0.004975
vt 0.492215 0.004975
vt 0.492215 0.024974
vt 0.415452 0.018764
vt 0.415398 0.013613
vt 0.491362 0.013749
vt 0.491416 0.018900
vt 0.586031 0.017549
vt 0.515740 0.017625
vt 0.515734 0.014097
vt 0.586024 0.014021
vt 0.515730 0.011672
vt 0.586020 0.011596
vt 0.586035 0.019974
vt 0.515744 0.020050
vt 0.515721 0.006488
vt 0.586011 0.006412
vt 0.586044 0.025158
vt 0.515753 0.025234
vt 0.515723 0.008166
vt 0.586014 0.008090
vt 0.586041 0.023481
vt 0.515750 0.023556
vt 0.515734 0.014097
vt 0.586024 0.014021
vt 0.586031 0.017549
vt 0.515740 0.017625
vt 0.491277 0.005719
vt 0.491501 0.026930
vt 0.415537 0.026794
vt 0.415313 0.005583
vt 0.491327 0.010433
vt 0.491451 0.022217
vt 0.415487 0.022080
vt 0.415363 0.010297
vt 0.491319 0.009753
vt 0.491458 0.022897
vt 0.415494 0.022761
vt 0.415355 0.009616
vt 0.412426 0.030793
vt 0.412148 0.004533
vt 0.488112 0.004669
vt 0.488390 0.030929
vt 0.491903 0.005876
vt 0.492166 0.030695
vt 0.416202 0.030558
vt 0.415939 0.005740
vn 1.000000 0.000000 -0.000000
vn 1.000000 0.000000 -0.000000
vn 1.000000 0.000000 -0.000000
vn 1.000000 0.000000 -0.000000
vn 0.000000 -1.000000 0.000000
vn 0.000000 -1.000000 0.000000
vn 0.000000 -1.000000 0.000000
vn 0.000000 -1.000000 0.000000
vn 0.534208 0.000000 -0.845353
vn 0.534208 0.000000 -0.845353
vn 0.534208 0.000000 -0.845353
vn 0.534208 0.000000 -0.845353
vn -0.000000 1.000000 -0.000000
vn -0.000000 1.000000 -0.000000
vn -0.000000 1.000000 -0.000000
vn 0.301130 -0.000000 -0.953583
vn 0.301130 -0.000000 -0.953583
vn 0.301130 -0.000000 -0.953583
vn 0.301130 -0.000000 -0.953583
vn 1.000000 0.000000 0.000000
vn 1.000000 0.000000 0.000000
vn 1.000000 0.000000 0.000000
vn 1.000000 0.000000 0.000000
vn 0.301130 -0.000000 -0.953583
vn 0.301130 -0.000000 -0.953583
vn 0.301130 -0.000000 -0.953583
vn 0.301130 -0.000000 -0.953583
vn -0.487576 0.000000 -0.873080
vn -0.487576 0.000000 -0.873080
vn -0.487576 0.000000 -0.873080
vn -0.487576 0.000000 -0.873080
vn 0.534208 -0.000000 -0.845353
vn 0.534208 -0.000000 -0.845353
vn 0.534208 -0.000000 -0.845353
vn 0.534208 -0.000000 -0.845353
vn -1.000000 0.000000 0.000000
vn -1.000000 0.000000 0.000000
vn -1.000000 0.000000 0.000000
vn -1.000000 0.000000 0.000000
vn -0.232017 0.000000 -0.972712
vn -0.232017 0.000000 -0.972712
vn -0.232017 0.000000 -0.972712
vn -0.232017 0.000000 -0.972712
vn -0.339857 -0.000000 -0.940477
vn -0.339857 -0.000000 -0.940477
vn -0.339857 -0.000000 -0.940477
vn -0.339857 -0.000000 -0.940477
vn 0.304668 -0.000000 -0.952459
vn 0.304668 -0.000000 -0.952459
vn 0.304668 -0.000000 -0.952459
vn 0.304668 -0.000000 -0.952459
vn -1.000000 0.000000 0.000000
vn -1.000000 0.000000 0.000000
vn -1.000000 0.000000 0.000000
vn -1.000000 0.000000 0.000000
vn 0.000000 0.000000 1.000000
vn 0.000000 0.000000 1.000000
vn 0.000000 0.000000 1.000000
vn 0.000000 0.000000 1.000000
vn -0.000000 1.000000 -0.000000
vn -0.000000 1.000000 -0.000000
vn -0.000000 1.000000 -0.000000
vn -0.000000 1.000000 -0.000000
vn -0.000000 1.000000 -0.000000
vn -0.000000 1.000000 -0.000000
vn -0.000000 1.000000 -0.000000
vn -0.000000 1.000000 -0.000000
vn -0.000000 1.000000 -0.000000
vn -0.000000 1.000000 -0.000000
vn 0.000000 -1.000000 0.000000
vn 0.000000 -1.000000 0.000000
vn 0.000000 -1.000000 0.000000
vn 0.000000 -1.000000 0.000000
vn 0.000000 -1.000000 0.000000
vn 0.000000 -1.000000 0.000000
vn 0.000000 -1.000000 0.000000
vn 0.000000 -1.000000 0.000000
vn 0.000000 -1.000000 0.000000
s off
g Brown_Waterfall_01:Mesh1Brown_WaterfallModel landscape_pack
f 1/1/1 2/2/2 3/3/3 4/4/4
s 1
f 11/11/5 8/8/6 9/9/7 10/10/8
s off
f 16/18/9 17/19/10 6/20/11 5/21/12
s 2
f 18/22/13 4/33/14 3/34/15
s off
f 12/35/16 11/36/17 19/37/18 18/38/19
f 19/39/20 11/40/21 10/41/22 20/42/23
f 9/43/24 21/44/25 20/45/26 10/46/27
f 8/47/28 22/48/29 21/49/30 9/50/31
f 7/51/32 23/52/33 22/53/34 8/54/35
f 6/55/36 17/56/37 23/57/38 7/58/39
f 18/59/40 3/60/41 2/61/42 12/62/43
f 24/63/44 16/64/45 5/65/46 15/66/47
f 25/67/48 24/68/49 15/69/50 14/70/51
f 14/71/52 13/72/53 26/73/54 25/74/55
f 4/75/56 26/76/57 13/77/58 1/78/59
s 2
f 18/22/13 19/23/60 4/33/14
f 24/30/61 17/28/62 16/29/63
f 22/26/64 19/23/60 20/24/65 21/25/66
f 17/28/62 22/26/64 23/27/67
f 4/33/14 19/23/60 22/26/64
f 26/32/68 17/28/62 24/30/61
f 26/32/68 22/26/64 17/28/62
f 4/33/14 22/26/64 26/32/68
f 26/32/68 24/30/61 25/31/69
s 1
f 8/8/6 6/6/70 7/7/71
f 5/5/72 6/6/70 15/17/73
f 15/17/73 13/15/74 14/16/75
f 15/17/73 6/6/70 13/15/74
f 13/15/74 6/6/70 8/8/6
f 13/15/74 8/8/6 1/14/76
f 1/14/76 12/12/77 2/13/78
f 1/14/76 8/8/6 11/11/5 12/12/77
