# This file uses centimeters as units for non-parametric coordinates.

g default
v 0.000000 0.000000 0.000000
v 6.000000 0.000000 0.000000
v 6.000000 0.600000 0.000000
v 4.482600 0.600000 0.000000
v 4.482600 0.300000 0.000000
v 1.517396 0.300000 0.000000
v 1.517396 0.600000 0.000000
v 0.000000 0.600000 0.000000
v 6.000000 0.000000 -6.000000
v 0.000000 0.000000 -6.000000
v 6.000000 0.600000 -6.000000
v 0.000000 0.600000 -6.000000
v 1.517396 0.600000 -6.000000
v 1.517396 0.300000 -6.000000
v 4.482600 0.300000 -6.000000
v 4.482600 0.600000 -6.000000
v 1.755296 0.600000 -0.743728
v 1.517396 0.600000 -1.402062
v 2.242720 0.600000 -2.549840
v 1.517396 0.600000 -3.848640
v 1.809738 0.600000 -4.774380
v 1.755296 0.300000 -0.743728
v 1.517396 0.300000 -1.402062
v 5.207920 0.300000 -2.549840
v 4.482600 0.300000 -3.848640
v 4.774940 0.300000 -4.774380
v 1.809738 0.300000 -4.774380
v 1.517396 0.300000 -3.848640
v 2.242720 0.300000 -2.549840
v 4.720500 0.300000 -0.743728
v 4.482600 0.300000 -1.402062
v 5.207920 0.600000 -2.549840
v 4.482600 0.600000 -3.848640
v 4.482600 0.600000 -1.402062
v 4.720500 0.600000 -0.743728
v 4.774940 0.600000 -4.774380
vt 0.428514 0.005915
vt 0.471241 0.005915
vt 0.471241 0.021654
vt 0.460435 0.021654
vt 0.460435 0.013784
vt 0.439319 0.013784
vt 0.439319 0.021654
vt 0.428514 0.021654
vt 0.407552 0.022091
vt 0.407552 0.005478
vt 0.492203 0.022091
vt 0.428514 0.005915
vt 0.471241 0.005915
vt 0.471241 0.021654
vt 0.460435 0.021654
vt 0.460435 0.013784
vt 0.439320 0.013784
vt 0.439320 0.021654
vt 0.428514 0.021654
vt 0.315832 0.007389
vt 0.325358 0.009342
vt 0.341698 0.002943
vt 0.360553 0.008998
vt 0.373801 0.006353
vt 0.391501 0.008695
vt 0.305189 0.009539
vt 0.470410 0.022584
vt 0.429345 0.022584
vt 0.429345 0.004985
vt 0.470410 0.004985
vt 0.472782 0.022584
vt 0.426973 0.022584
vt 0.426973 0.004985
vt 0.472782 0.004985
vt 0.544657 0.001304
vt 0.563004 0.005238
vt 0.576142 0.003693
vt 0.593484 0.005298
vt 0.508479 0.005129
vt 0.519033 0.003872
vt 0.528342 0.005169
vt 0.493513 0.022584
vt 0.406242 0.022584
vt 0.406242 0.004985
vt 0.493513 0.004985
vt 0.392917 0.008614
vt 0.489704 0.022584
vt 0.410051 0.022584
vt 0.410051 0.004985
vt 0.489704 0.004985
vt 0.470410 0.022584
vt 0.429345 0.022584
vt 0.429345 0.004985
vt 0.470410 0.004985
vt 0.472782 0.022584
vt 0.426973 0.022584
vt 0.426973 0.004985
vt 0.472782 0.004985
vt 0.486836 0.022584
vt 0.412918 0.022584
vt 0.412918 0.004985
vt 0.486836 0.004985
vt 0.478354 0.022584
vt 0.421401 0.022584
vt 0.421401 0.004985
vt 0.478354 0.004985
vt 0.486836 0.022584
vt 0.412918 0.022584
vt 0.412918 0.004985
vt 0.486836 0.004985
vt 0.478354 0.022584
vt 0.421400 0.022584
vt 0.421400 0.004985
vt 0.478354 0.004985
vt 0.493513 0.022584
vt 0.406242 0.022584
vt 0.406242 0.004985
vt 0.493513 0.004985
vt 0.489704 0.022584
vt 0.410051 0.022584
vt 0.410051 0.004985
vt 0.489704 0.004985
vt 0.428514 0.005915
vt 0.471241 0.005915
vt 0.471241 0.021654
vt 0.428514 0.021654
vt 0.428514 0.005915
vt 0.428514 0.021654
vt 0.391858 0.021745
vt 0.305546 0.022589
vt 0.593264 0.021232
vt 0.575922 0.019627
vt 0.562784 0.021172
vt 0.544437 0.017237
vt 0.528122 0.021103
vt 0.518813 0.019806
vt 0.508258 0.021063
vt 0.343471 0.015911
vt 0.327130 0.022311
vt 0.317604 0.020357
vt 0.306961 0.022508
vt 0.306604 0.009458
vt 0.393274 0.021664
vt 0.375574 0.019322
vt 0.362325 0.021966
vt 0.471241 0.021654
vt 0.492203 0.005478
vt 0.471241 0.005915
vn 0.000000 0.000000 1.000000
vn 0.000000 0.000000 1.000000
vn 0.000000 0.000000 1.000000
vn 0.000000 0.000000 1.000000
vn 0.000000 -1.000000 0.000000
vn 0.000000 -1.000000 0.000000
vn 0.000000 -1.000000 0.000000
vn 0.000000 -1.000000 0.000000
vn 1.000000 0.000000 0.000000
vn 1.000000 0.000000 0.000000
vn 1.000000 0.000000 0.000000
vn 1.000000 0.000000 0.000000
vn -0.000000 0.000000 -1.000000
vn -0.000000 0.000000 -1.000000
vn -0.000000 0.000000 -1.000000
vn -0.000000 0.000000 -1.000000
vn -1.000000 0.000000 -0.000000
vn -1.000000 0.000000 -0.000000
vn -1.000000 0.000000 -0.000000
vn -1.000000 0.000000 -0.000000
vn 0.000000 1.000000 0.000000
vn 0.000000 1.000000 0.000000
vn 0.000000 1.000000 0.000000
vn 0.000000 1.000000 0.000000
vn 0.940477 0.000000 -0.339857
vn 0.940477 0.000000 -0.339857
vn 0.940477 0.000000 -0.339857
vn 0.940477 0.000000 -0.339857
vn 0.952459 0.000000 0.304668
vn 0.952459 0.000000 0.304668
vn 0.952459 0.000000 0.304668
vn 0.952459 0.000000 0.304668
vn 0.000000 1.000000 0.000000
vn 0.000000 1.000000 0.000000
vn 0.000000 1.000000 0.000000
vn 0.000000 1.000000 0.000000
vn -0.873080 0.000000 0.487576
vn -0.873080 0.000000 0.487576
vn -0.873080 0.000000 0.487576
vn -0.873080 0.000000 0.487576
vn 0.000000 1.000000 0.000000
vn 0.000000 1.000000 0.000000
vn 0.000000 1.000000 0.000000
vn -0.845353 0.000000 -0.534208
vn -0.845353 0.000000 -0.534208
vn -0.845353 0.000000 -0.534208
vn -0.845353 0.000000 -0.534208
vn -0.940477 0.000000 0.339857
vn -0.940477 0.000000 0.339857
vn -0.940477 0.000000 0.339857
vn -0.940477 0.000000 0.339857
vn -0.952459 0.000000 -0.304668
vn -0.952459 0.000000 -0.304668
vn -0.952459 0.000000 -0.304668
vn -0.952459 0.000000 -0.304668
vn -0.972712 0.000000 0.232017
vn -0.972712 0.000000 0.232017
vn -0.972712 0.000000 0.232017
vn -0.972712 0.000000 0.232017
vn -0.953583 0.000000 -0.301130
vn -0.953583 0.000000 -0.301130
vn -0.953583 0.000000 -0.301130
vn -0.953583 0.000000 -0.301130
vn 0.972712 0.000000 -0.232017
vn 0.972712 0.000000 -0.232017
vn 0.972712 0.000000 -0.232017
vn 0.972712 0.000000 -0.232017
vn 0.953583 0.000000 0.301130
vn 0.953583 0.000000 0.301130
vn 0.953583 0.000000 0.301130
vn 0.953583 0.000000 0.301130
vn 0.873080 0.000000 -0.487576
vn 0.873080 0.000000 -0.487576
vn 0.873080 0.000000 -0.487576
vn 0.873080 0.000000 -0.487576
vn 0.845353 0.000000 0.534208
vn 0.845353 0.000000 0.534208
vn 0.845353 0.000000 0.534208
vn 0.845353 0.000000 0.534208
vn 0.000000 1.000000 0.000000
vn 0.000000 1.000000 0.000000
vn 0.000000 1.000000 0.000000
vn 0.000000 1.000000 0.000000
vn 0.000000 1.000000 0.000000
vn 0.000000 1.000000 0.000000
vn -0.000000 0.000000 -1.000000
vn -0.000000 0.000000 -1.000000
vn -0.000000 0.000000 -1.000000
vn -0.000000 0.000000 -1.000000
vn 0.000000 0.000000 1.000000
vn 0.000000 0.000000 1.000000
vn 0.000000 0.000000 1.000000
vn 0.000000 0.000000 1.000000
vn 0.000000 1.000000 0.000000
vn 0.000000 1.000000 0.000000
vn 0.000000 1.000000 0.000000
vn 0.000000 1.000000 0.000000
vn 0.000000 1.000000 0.000000
vn 0.000000 1.000000 0.000000
vn 0.000000 1.000000 0.000000
vn 0.000000 1.000000 0.000000
vn 0.000000 1.000000 0.000000
vn 0.000000 1.000000 0.000000
vn 0.000000 1.000000 0.000000
vn 0.000000 1.000000 0.000000
vn 0.000000 1.000000 0.000000
vn 0.000000 1.000000 0.000000
vn 0.000000 1.000000 0.000000
s 1
g Plate_River_Dirt_01:Mesh1Plate_River_DirtModel landscape_pack
f 1/1/1 6/6/2 7/7/3 8/8/4
s off
f 9/9/5 2/10/6 1/107/7 10/11/8
f 2/83/9 9/84/10 11/85/11 3/86/12
s 2
f 9/12/13 15/17/14 16/18/15 11/19/16
s off
f 10/87/17 1/108/18 8/106/19 12/88/20
s 3
f 17/20/21 18/21/22 8/90/23 7/26/24
s off
f 18/27/25 17/28/26 22/29/27 23/30/28
f 17/31/29 7/32/30 6/33/31 22/34/32
s 4
f 31/41/33 23/95/34 22/96/35 30/40/36
s off
f 32/42/37 33/43/38 25/44/39 24/45/40
s 5
f 36/104/41 11/46/42 16/103/43
s off
f 34/47/44 32/48/45 24/49/46 31/50/47
f 35/51/48 34/52/49 31/53/50 30/54/51
f 4/55/52 35/56/53 30/57/54 5/58/55
f 36/59/56 16/60/57 15/61/58 26/62/59
f 33/63/60 36/64/61 26/65/62 25/66/63
f 13/67/64 21/68/65 27/69/66 14/70/67
f 21/71/68 20/72/69 28/73/70 27/74/71
f 20/75/72 19/76/73 29/77/74 28/78/75
f 19/79/76 18/80/77 23/81/78 29/82/79
s 5
f 3/102/80 35/100/81 4/101/82
f 32/98/83 34/99/84 35/100/81 3/102/80
f 32/98/83 3/102/80 11/46/42
f 32/98/83 11/46/42 36/104/41 33/105/85
s 2
f 14/16/86 10/13/87 12/14/88 13/15/89
f 9/12/13 10/13/87 14/16/86 15/17/14
s 1
f 5/5/90 2/2/91 3/3/92 4/4/93
f 1/1/1 2/2/91 5/5/90 6/6/2
s 3
f 12/89/94 20/23/95 21/24/96 13/25/97
f 8/90/23 18/21/22 19/22/98
f 8/90/23 19/22/98 20/23/95 12/89/94
s 4
f 30/40/36 22/96/35 6/97/99 5/39/100
f 28/93/101 25/36/102 26/37/103 27/92/104
f 24/35/105 29/94/106 23/95/34 31/41/33
f 24/35/105 25/36/102 28/93/101 29/94/106
f 27/92/104 26/37/103 15/38/107 14/91/108
