# This file uses centimeters as units for non-parametric coordinates.

g default
v -2.000000 0.135925 4.000000
v -1.578339 0.310583 4.000000
v -1.403679 0.732245 4.000000
v -1.578339 1.153906 4.000000
v -2.000000 1.328567 4.000000
v -2.421661 0.310583 4.000000
v -2.596321 0.732245 4.000000
v -2.421661 1.153906 4.000000
v -2.000000 -0.000000 4.000000
v -1.482216 0.214469 4.000000
v -1.267754 0.732245 4.000000
v -1.482216 1.250020 4.000000
v -2.000000 1.464489 4.000000
v -2.517777 0.214469 4.000000
v -2.732246 0.732245 4.000000
v -2.517777 1.250020 4.000000
v -2.000000 0.135925 0.000000
v -2.421661 0.310583 0.000000
v -2.596321 0.732245 0.000000
v -2.421661 1.153906 0.000000
v -2.000000 1.328567 0.000000
v -1.578339 0.310583 0.000000
v -1.403679 0.732245 0.000000
v -1.578339 1.153906 0.000000
v -2.000000 -0.000000 0.000000
v -2.517777 0.214469 0.000000
v -2.732246 0.732245 0.000000
v -2.517777 1.250020 0.000000
v -2.000000 1.464489 0.000000
v -1.482216 0.214469 0.000000
v -1.267754 0.732245 0.000000
v -1.482216 1.250020 0.000000
vt 0.847368 0.415944
vt 0.827023 0.371374
vt 0.847368 0.387697
vt 0.830799 0.351399
vt 0.818596 0.263770
vt 0.823937 0.263770
vt 0.827023 0.156167
vt 0.830799 0.176141
vt 0.847368 0.139843
vt 0.847368 0.111596
vt 0.867713 0.371374
vt 0.863936 0.351399
vt 0.876140 0.263770
vt 0.870799 0.263770
vt 0.867713 0.156167
vt 0.863936 0.176141
vt 0.847368 0.415944
vt 0.867713 0.371374
vt 0.847368 0.387697
vt 0.863936 0.351399
vt 0.876140 0.263770
vt 0.870799 0.263770
vt 0.867713 0.156167
vt 0.863936 0.176141
vt 0.847368 0.139843
vt 0.847368 0.111596
vt 0.827023 0.371374
vt 0.830799 0.351399
vt 0.818596 0.263770
vt 0.823937 0.263770
vt 0.827023 0.156167
vt 0.830799 0.176141
vn 0.000000 0.000000 1.000000
vn 0.000000 0.000000 1.000000
vn 0.000000 0.000000 1.000000
vn -0.000002 0.000000 1.000000
vn -0.000002 0.000000 1.000000
vn -0.000002 0.000000 1.000000
vn -0.000005 0.000000 1.000000
vn -0.000005 0.000000 1.000000
vn -0.000005 0.000000 1.000000
vn 0.000000 0.000000 1.000000
vn 0.000000 0.000000 1.000000
vn 0.000000 0.000000 1.000000
vn 0.000000 0.000000 1.000000
vn 0.000000 0.000000 1.000000
vn 0.000000 0.000000 1.000000
vn 0.000003 0.000000 1.000000
vn 0.000003 0.000000 1.000000
vn 0.000003 0.000000 1.000000
vn 0.000000 0.000000 1.000000
vn 0.000000 0.000000 1.000000
vn 0.000000 0.000000 1.000000
vn 0.000003 0.000000 1.000000
vn 0.000003 0.000000 1.000000
vn 0.000003 0.000000 1.000000
vn 0.000000 0.000000 1.000000
vn 0.000000 0.000000 1.000000
vn 0.000000 0.000000 1.000000
vn 0.000002 0.000000 1.000000
vn 0.000002 0.000000 1.000000
vn 0.000002 0.000000 1.000000
vn 0.000005 0.000000 1.000000
vn 0.000005 0.000000 1.000000
vn 0.000005 0.000000 1.000000
vn 0.000000 0.000000 1.000000
vn 0.000000 0.000000 1.000000
vn 0.000000 0.000000 1.000000
vn 0.000000 0.000000 1.000000
vn 0.000000 0.000000 1.000000
vn 0.000000 0.000000 1.000000
vn -0.000001 0.000000 1.000000
vn -0.000001 0.000000 1.000000
vn -0.000001 0.000000 1.000000
vn -0.000006 0.000000 1.000000
vn -0.000006 0.000000 1.000000
vn -0.000006 0.000000 1.000000
vn 0.000000 0.000000 1.000000
vn 0.000000 0.000000 1.000000
vn 0.000000 0.000000 1.000000
vn 0.000000 0.000000 -1.000000
vn 0.000000 0.000000 -1.000000
vn 0.000000 0.000000 -1.000000
vn 0.000000 0.000000 -1.000000
vn 0.000000 0.000000 -1.000000
vn 0.000000 0.000000 -1.000000
vn 0.000000 0.000000 -1.000000
vn 0.000000 0.000000 -1.000000
vn 0.000000 0.000000 -1.000000
vn 0.000000 0.000000 -1.000000
vn 0.000000 0.000000 -1.000000
vn 0.000000 0.000000 -1.000000
vn 0.000000 0.000000 -1.000000
vn 0.000000 0.000000 -1.000000
vn 0.000000 0.000000 -1.000000
vn 0.000000 0.000000 -1.000000
vn 0.000000 0.000000 -1.000000
vn 0.000000 0.000000 -1.000000
vn 0.000000 0.000000 -1.000000
vn 0.000000 0.000000 -1.000000
vn 0.000000 0.000000 -1.000000
vn 0.000000 0.000000 -1.000000
vn 0.000000 0.000000 -1.000000
vn 0.000000 0.000000 -1.000000
vn 0.000000 0.000000 -1.000000
vn 0.000000 0.000000 -1.000000
vn 0.000000 0.000000 -1.000000
vn 0.000000 0.000000 -1.000000
vn 0.000000 0.000000 -1.000000
vn 0.000000 0.000000 -1.000000
vn 0.000000 0.000000 -1.000000
vn 0.000000 0.000000 -1.000000
vn 0.000000 0.000000 -1.000000
vn 0.000000 0.000000 -1.000000
vn 0.000000 0.000000 -1.000000
vn 0.000000 0.000000 -1.000000
vn 0.000000 0.000000 -1.000000
vn 0.000000 0.000000 -1.000000
vn 0.000000 0.000000 -1.000000
vn 0.000000 0.000000 -1.000000
vn 0.000000 0.000000 -1.000000
vn 0.000000 0.000000 -1.000000
vn 0.000000 0.000000 -1.000000
vn 0.000000 0.000000 -1.000000
vn 0.000000 0.000000 -1.000000
vn 0.000000 0.000000 -1.000000
vn 0.000000 0.000000 -1.000000
vn 0.000000 0.000000 -1.000000
vn 0.382678 0.923882 0.000000
vn 0.382678 0.923882 0.000000
vn 0.382678 0.923882 0.000000
vn 0.382678 0.923882 0.000000
vn 0.923884 0.382673 0.000000
vn 0.923884 0.382673 0.000000
vn 0.923884 0.382673 0.000000
vn 0.923884 0.382673 0.000000
vn 0.923884 -0.382672 0.000000
vn 0.923884 -0.382672 0.000000
vn 0.923884 -0.382672 0.000000
vn 0.923884 -0.382672 0.000000
vn 0.382678 -0.923882 0.000000
vn 0.382678 -0.923882 0.000000
vn 0.382678 -0.923882 0.000000
vn 0.382678 -0.923882 0.000000
vn -0.382682 -0.923880 0.000000
vn -0.382682 -0.923880 0.000000
vn -0.382682 -0.923880 0.000000
vn -0.382682 -0.923880 0.000000
vn -0.923880 -0.382683 0.000000
vn -0.923880 -0.382683 0.000000
vn -0.923880 -0.382683 0.000000
vn -0.923880 -0.382683 0.000000
vn -0.923879 0.382684 0.000000
vn -0.923879 0.382684 0.000000
vn -0.923879 0.382684 0.000000
vn -0.923879 0.382684 0.000000
vn -0.382682 0.923880 0.000000
vn -0.382682 0.923880 0.000000
vn -0.382682 0.923880 0.000000
vn -0.382682 0.923880 0.000000
vn -0.382684 0.923880 0.000000
vn -0.382684 0.923880 0.000000
vn -0.382684 0.923880 0.000000
vn -0.382684 0.923880 0.000000
vn -0.923878 0.382686 0.000000
vn -0.923878 0.382686 0.000000
vn -0.923878 0.382686 0.000000
vn -0.923878 0.382686 0.000000
vn -0.923878 -0.382687 0.000000
vn -0.923878 -0.382687 0.000000
vn -0.923878 -0.382687 0.000000
vn -0.923878 -0.382687 0.000000
vn -0.382690 -0.923877 0.000000
vn -0.382690 -0.923877 0.000000
vn -0.382690 -0.923877 0.000000
vn -0.382690 -0.923877 0.000000
vn 0.382690 -0.923877 0.000000
vn 0.382690 -0.923877 0.000000
vn 0.382690 -0.923877 0.000000
vn 0.382690 -0.923877 0.000000
vn 0.923878 -0.382687 0.000000
vn 0.923878 -0.382687 0.000000
vn 0.923878 -0.382687 0.000000
vn 0.923878 -0.382687 0.000000
vn 0.923878 0.382686 0.000000
vn 0.923878 0.382686 0.000000
vn 0.923878 0.382686 0.000000
vn 0.923878 0.382686 0.000000
vn 0.382684 0.923879 0.000000
vn 0.382684 0.923879 0.000000
vn 0.382684 0.923879 0.000000
vn 0.382684 0.923879 0.000000
s off
g pipeStraight group1
f 9/1/1 10/2/2 1/3/3
f 2/4/4 1/3/5 10/2/6
f 11/5/7 2/4/8 10/2/9
f 3/6/10 2/4/11 11/5/12
f 12/7/13 3/6/14 11/5/15
f 4/8/16 3/6/17 12/7/18
f 5/9/19 4/8/20 12/7/21
f 13/10/22 5/9/23 12/7/24
f 9/1/25 1/3/26 14/11/27
f 6/12/28 14/11/29 1/3/30
f 15/13/31 14/11/32 6/12/33
f 7/14/34 15/13/35 6/12/36
f 16/15/37 15/13/38 7/14/39
f 13/10/40 16/15/41 5/9/42
f 8/16/43 16/15/44 7/14/45
f 5/9/46 16/15/47 8/16/48
f 25/17/49 26/18/50 17/19/51
f 18/20/52 17/19/53 26/18/54
f 27/21/55 18/20/56 26/18/57
f 19/22/58 18/20/59 27/21/60
f 28/23/61 19/22/62 27/21/63
f 20/24/64 19/22/65 28/23/66
f 21/25/67 20/24/68 28/23/69
f 29/26/70 21/25/71 28/23/72
f 25/17/73 17/19/74 30/27/75
f 22/28/76 30/27/77 17/19/78
f 31/29/79 30/27/80 22/28/81
f 23/30/82 31/29/83 22/28/84
f 32/31/85 31/29/86 23/30/87
f 29/26/88 32/31/89 21/25/90
f 24/32/91 32/31/92 23/30/93
f 21/25/94 32/31/95 24/32/96
f 13/10/97 12/7/98 32/31/99 29/26/100
f 12/7/101 11/5/102 31/29/103 32/31/104
f 11/5/105 10/2/106 30/27/107 31/29/108
f 10/2/109 9/1/110 25/17/111 30/27/112
f 9/1/113 14/11/114 26/18/115 25/17/116
f 14/11/117 15/13/118 27/21/119 26/18/120
f 15/13/121 16/15/122 28/23/123 27/21/124
f 16/15/125 13/10/126 29/26/127 28/23/128
f 1/3/129 2/4/130 22/28/131 17/19/132
f 2/4/133 3/6/134 23/30/135 22/28/136
f 3/6/137 4/8/138 24/32/139 23/30/140
f 4/8/141 5/9/142 21/25/143 24/32/144
f 5/9/145 8/16/146 20/24/147 21/25/148
f 8/16/149 7/14/150 19/22/151 20/24/152
f 7/14/153 6/12/154 18/20/155 19/22/156
f 6/12/157 1/3/158 17/19/159 18/20/160
