# This file uses centimeters as units for non-parametric coordinates.

g default
v 5.028397 0.666668 -0.469505
v 4.876160 0.666668 -0.000008
v 6.000000 0.666668 -0.000008
v 5.110809 0.666668 -1.264450
v 6.000000 0.666668 -6.000008
v 4.974075 0.666668 -2.048759
v 4.876160 0.666668 -6.000008
v 4.692535 0.666668 -5.489273
v 4.635910 0.666668 -3.068764
v 4.505859 0.666668 -4.323296
v 4.501068 0.666668 -0.000008
v 4.674149 0.666668 -0.544426
v 4.747498 0.666668 -1.251854
v 4.623917 0.666668 -1.960701
v 4.342285 0.666668 -5.579277
v 4.501068 0.666668 -6.000008
v 4.281784 0.666668 -2.992653
v 4.142792 0.666668 -4.333359
v 4.876160 0.333334 -0.000008
v 6.000000 0.333334 -0.000008
v 6.000000 0.333334 -6.000008
v 4.876160 0.333334 -6.000008
v 4.674149 0.333334 -0.544426
v 4.501068 0.333334 -0.000008
v 4.747498 0.333334 -1.251854
v 4.623917 0.333334 -1.960701
v 4.501068 0.333334 -6.000008
v 4.342285 0.333334 -5.579277
v 4.281784 0.333334 -2.992653
v 4.142792 0.333334 -4.333359
v 4.876160 0.000001 -0.000008
v 5.028397 0.000001 -0.469505
v 6.000000 0.000001 -0.000008
v 5.110809 0.000001 -1.264450
v 6.000000 0.000001 -6.000008
v 4.974075 0.000001 -2.048759
v 4.876160 0.000001 -6.000008
v 4.692535 0.000001 -5.489273
v 4.635910 0.000001 -3.068764
v 4.505859 0.000001 -4.323296
v 4.674149 0.000001 -0.544426
v 4.501068 0.000001 -0.000008
v 4.747498 0.000001 -1.251854
v 4.623917 0.000001 -1.960701
v 4.501068 0.000001 -6.000008
v 4.342285 0.000001 -5.579277
v 4.281784 0.000001 -2.992653
v 4.142792 0.000001 -4.333359
v 0.000001 0.333334 -0.000008
v 0.000001 0.000001 -0.000008
v 0.000001 0.333334 -6.000008
v 0.000001 0.000001 -6.000008
vt 0.387658 0.004914
vt 0.387658 0.039562
vt 0.387658 0.039562
vt 0.387658 0.039562
vt 0.387658 0.039562
vt 0.387658 0.039562
vt 0.387658 0.039562
vt 0.387658 0.039562
vt 0.353009 0.004914
vt 0.387658 0.004914
vt 0.353009 0.004914
vt 0.387658 0.004914
vt 0.353009 0.004914
vt 0.387658 0.039562
vt 0.353009 0.004914
vt 0.387658 0.004914
vt 0.353009 0.004914
vt 0.387658 0.004914
vt 0.353009 0.004914
vt 0.387658 0.004914
vt 0.353009 0.004914
vt 0.387658 0.004914
vt 0.353009 0.004914
vt 0.387658 0.004914
vt 0.588048 0.008811
vt 0.588048 0.008811
vt 0.588048 0.034554
vt 0.588048 0.008811
vt 0.588048 0.008811
vt 0.588048 0.008811
vt 0.588048 0.034554
vt 0.516395 0.008811
vt 0.516395 0.008811
vt 0.516395 0.008811
vt 0.516395 0.008811
vt 0.588048 0.034554
vt 0.516395 0.008811
vt 0.588048 0.034554
vt 0.516395 0.008811
vt 0.588048 0.034554
vt 0.588048 0.008811
vt 0.588048 0.034554
vt 0.516395 0.008811
vt 0.516395 0.034554
vt 0.588048 0.008811
vt 0.588048 0.034554
vt 0.409543 0.009473
vt 0.490551 0.009473
vt 0.490551 0.009473
vt 0.409543 0.009473
vt 0.490551 0.036105
vt 0.409543 0.036105
vt 0.490551 0.009473
vt 0.490551 0.009473
vt 0.490551 0.036105
vt 0.490551 0.036105
vt 0.490551 0.009473
vt 0.490551 0.036105
vt 0.490551 0.009473
vt 0.490551 0.036105
vt 0.490551 0.009473
vt 0.490551 0.036105
vt 0.409543 0.009473
vt 0.409543 0.036105
vt 0.409543 0.009473
vt 0.409543 0.036105
vt 0.409543 0.009473
vt 0.409543 0.036105
vt 0.409543 0.009473
vt 0.490551 0.009473
vt 0.490551 0.036105
vt 0.409543 0.036105
vt 0.409543 0.009473
vt 0.409543 0.009473
vt 0.490551 0.009473
vt 0.409543 0.009473
vt 0.409543 0.009473
vt 0.409543 0.009473
vt 0.409543 0.009473
vt 0.409543 0.036105
vt 0.490551 0.009473
vt 0.409543 0.009473
vt 0.409543 0.009473
vt 0.409543 0.009473
vt 0.409543 0.009473
vt 0.490551 0.009473
vt 0.490551 0.009473
vt 0.490551 0.009473
vt 0.490550 0.009473
vt 0.490551 0.036105
vt 0.490551 0.009473
vt 0.490551 0.009473
vt 0.409543 0.009473
vt 0.490551 0.009473
vt 0.490551 0.009473
vt 0.409543 0.009473
vt 0.490551 0.009473
vt 0.409543 0.009473
vt 0.490551 0.009473
vt 0.409543 0.009473
vt 0.490551 0.009473
vt 0.409543 0.009473
vt 0.490551 0.036105
vt 0.409543 0.036105
vt 0.490551 0.036105
vt 0.409543 0.036105
vt 0.490551 0.036105
vt 0.409543 0.036105
vt 0.490551 0.009473
vt 0.490551 0.009473
vt 0.490551 0.009473
vt 0.490551 0.009473
vt 0.490551 0.036105
vt 0.490551 0.036105
vt 0.409543 0.009473
vt 0.409543 0.009473
vt 0.490551 0.009473
vt 0.490551 0.036105
vt 0.409543 0.036105
vt 0.409543 0.009473
vt 0.409543 0.009473
vt 0.409543 0.009473
vt 0.409543 0.009473
vt 0.490551 0.009473
vt 0.490551 0.009473
vt 0.409543 0.036105
vt 0.409543 0.036105
vt 0.409543 0.009473
vt 0.490551 0.036105
vt 0.409543 0.036105
vt 0.409543 0.009473
vt 0.490551 0.009473
vt 0.490551 0.036105
vt 0.409543 0.009473
vt 0.490551 0.009473
vt 0.490551 0.036105
vt 0.409543 0.009473
vt 0.490551 0.036105
vt 0.409543 0.009473
vt 0.490551 0.009473
vt 0.490551 0.036105
vt 0.409543 0.009473
vt 0.490551 0.036105
vt 0.409543 0.009473
vt 0.490551 0.009473
vt 0.490551 0.036105
vt 0.409543 0.009473
vt 0.490551 0.009473
vt 0.490551 0.036105
vt 0.409543 0.009473
vt 0.490551 0.009473
vt 0.490551 0.036105
vt 0.490551 0.009473
vt 0.490551 0.036105
vt 0.409543 0.036105
vt 0.490551 0.009473
vt 0.490551 0.036105
vt 0.409543 0.036105
vt 0.490551 0.009473
vt 0.490551 0.036105
vt 0.409543 0.036105
vt 0.409543 0.009473
vt 0.490551 0.036105
vt 0.409543 0.036105
vt 0.490551 0.009473
vt 0.490551 0.036105
vt 0.409543 0.036105
vt 0.409543 0.009473
vt 0.490551 0.036105
vt 0.409543 0.036105
vt 0.490551 0.036105
vt 0.409543 0.036105
vt 0.490551 0.036105
vt 0.409543 0.036105
vt 0.490551 0.036105
vt 0.409543 0.036105
vt 0.490551 0.036105
vt 0.409543 0.036105
vt 0.409543 0.009473
vt 0.490551 0.009473
vt 0.490551 0.036105
vt 0.409543 0.036105
vt 0.409543 0.009473
vt 0.490551 0.009473
vt 0.409543 0.009473
vt 0.490551 0.036105
vt 0.409543 0.036105
vt 0.490551 0.036105
vt 0.409543 0.036105
vt 0.490551 0.009473
vt 0.490551 0.036105
vt 0.409543 0.036105
vt 0.409543 0.009473
vt 0.409543 0.036105
vt 0.490551 0.036105
vt 0.409543 0.036105
vt 0.409543 0.009473
vt 0.409543 0.036105
vt 0.409543 0.009473
vt 0.409543 0.036105
vt 0.490551 0.036105
vt 0.409543 0.036105
vt 0.490551 0.009473
vt 0.490551 0.036105
vt 0.409543 0.009473
vt 0.409543 0.036105
vt 0.490551 0.009473
vt 0.490551 0.036105
vt 0.409543 0.009473
vt 0.409543 0.036105
vt 0.490551 0.009473
vt 0.490551 0.036105
vt 0.409543 0.009473
vt 0.409543 0.036105
vt 0.490551 0.009473
vt 0.490551 0.036105
vt 0.490551 0.009473
vt 0.490551 0.036105
vt 0.490551 0.009473
vt 0.490551 0.036105
vt 0.490551 0.009473
vt 0.490551 0.036105
vt 0.409543 0.009473
vt 0.490551 0.036105
vt 0.490551 0.009473
vt 0.490551 0.036105
vt 0.409543 0.009473
vt 0.490551 0.036105
vn 0.000000 -1.000000 -0.000000
vn 0.000000 -1.000000 0.000000
vn -0.000000 -1.000000 0.000000
vn 0.000000 -1.000000 -0.000000
vn -0.000000 -1.000000 -0.000000
vn 0.000000 -1.000000 0.000000
vn 0.000000 -1.000000 0.000000
vn 0.000000 -1.000000 0.000000
vn -0.000000 -1.000000 0.000000
vn 0.000000 -1.000000 0.000000
vn 0.000000 -1.000000 0.000000
vn 0.000000 -1.000000 0.000000
vn 0.000000 -1.000000 0.000000
vn 0.000001 -1.000000 -0.000000
vn 0.000000 -1.000000 -0.000000
vn 0.000000 -1.000000 -0.000000
vn -0.000000 -1.000000 0.000000
vn -0.000000 -1.000000 0.000000
vn -0.000000 -1.000000 0.000000
vn -0.000000 -1.000000 0.000000
vn -0.000000 -1.000000 -0.000000
vn -0.000000 -1.000000 -0.000000
vn 0.000000 -1.000000 0.000000
vn -0.000000 -1.000000 -0.000000
vn -0.000000 -1.000000 -0.000000
vn -0.000000 -1.000000 0.000000
vn -0.000000 -1.000000 0.000000
vn 0.000000 1.000000 -0.000000
vn 0.000000 1.000000 0.000000
vn 0.000000 1.000000 0.000000
vn 0.000000 1.000000 -0.000000
vn 0.000000 1.000000 -0.000000
vn 0.000000 1.000000 0.000000
vn 0.000000 1.000000 0.000000
vn 0.000000 1.000000 0.000000
vn 0.000000 1.000000 -0.000000
vn 0.000000 1.000000 0.000000
vn 0.000000 1.000000 -0.000000
vn 0.000000 1.000000 -0.000000
vn 0.000000 1.000000 -0.000000
vn 0.000000 1.000000 0.000000
vn 0.000000 1.000000 0.000000
vn 0.000000 1.000000 0.000000
vn 0.000000 1.000000 -0.000000
vn 0.000000 1.000000 -0.000000
vn 0.000000 1.000000 0.000000
vn 0.000000 1.000000 -0.000000
vn 0.000000 1.000000 0.000000
vn 0.000000 1.000000 -0.000000
vn 0.000000 1.000000 0.000000
vn 0.000000 1.000000 0.000000
vn 0.000000 1.000000 0.000000
vn 0.000000 1.000000 0.000000
vn 0.000000 1.000000 0.000000
vn 0.000000 0.000000 1.000000
vn 0.000000 0.000000 1.000000
vn 0.000000 0.000000 1.000000
vn 0.000000 0.000000 1.000000
vn 1.000000 0.000000 0.000000
vn 1.000000 0.000000 0.000000
vn 1.000000 0.000000 0.000000
vn 1.000000 0.000000 0.000000
vn 0.000000 0.000000 -1.000000
vn 0.000000 0.000000 -1.000000
vn 0.000000 0.000000 -1.000000
vn 0.000000 0.000000 -1.000000
vn -0.981170 0.000000 -0.193146
vn -0.981170 0.000000 -0.193146
vn -0.952998 0.000000 -0.302975
vn -0.952998 0.000000 -0.302975
vn 0.000000 0.000000 1.000000
vn 0.000000 0.000000 1.000000
vn -0.999372 0.000000 0.035445
vn -0.999372 0.000000 0.035445
vn -0.966027 0.000000 0.258440
vn -0.966027 0.000000 0.258440
vn 0.000000 0.000000 -1.000000
vn 0.000000 0.000000 -1.000000
vn -0.935590 0.000000 -0.353090
vn -0.935590 0.000000 -0.353090
vn -0.977666 0.000000 -0.210167
vn -0.977666 0.000000 -0.210167
vn -0.980054 0.000000 0.198734
vn -0.980054 0.000000 0.198734
vn -0.999727 0.000000 -0.023384
vn -0.999727 0.000000 -0.023384
vn 0.000000 0.000000 1.000000
vn 0.000000 0.000000 1.000000
vn 1.000000 0.000000 0.000000
vn 1.000000 0.000000 0.000000
vn 0.000000 0.000000 -1.000000
vn 0.000000 0.000000 -1.000000
vn 0.000000 0.000000 1.000000
vn 0.000000 0.000000 -1.000000
vn -1.000000 0.000000 0.000000
vn -1.000000 0.000000 0.000000
vn -1.000000 0.000000 0.000000
vn -1.000000 0.000000 0.000000
vn 0.000000 1.000000 -0.000000
vn 0.000000 1.000000 -0.000000
vn 0.000000 1.000000 -0.000000
vn 0.000000 0.000000 1.000000
vn 0.000000 0.000000 1.000000
vn 0.000000 0.000000 1.000000
vn 0.000000 0.000000 1.000000
vn 0.000000 -1.000000 0.000000
vn 0.000000 -1.000000 0.000000
vn 0.000000 -1.000000 0.000000
vn 0.000000 1.000000 0.000000
vn 0.000000 1.000000 0.000000
vn 0.000000 1.000000 0.000000
vn 0.000000 -1.000000 0.000000
vn 0.000000 -1.000000 0.000000
vn 0.000000 -1.000000 0.000000
vn 0.000000 1.000000 -0.000000
vn 0.000000 1.000000 -0.000000
vn 0.000000 1.000000 -0.000000
vn 0.000000 -1.000000 0.000000
vn 0.000000 -1.000000 0.000000
vn 0.000000 -1.000000 0.000000
vn 0.000000 1.000000 0.000000
vn 0.000000 1.000000 0.000000
vn 0.000000 1.000000 0.000000
vn 0.000000 -1.000000 0.000000
vn 0.000000 -1.000000 0.000000
vn 0.000000 -1.000000 0.000000
vn 0.000000 0.000000 -1.000000
vn 0.000000 0.000000 -1.000000
vn 0.000000 0.000000 -1.000000
vn 0.000000 0.000000 -1.000000
vn 0.000000 1.000000 0.000000
vn 0.000000 1.000000 0.000000
vn 0.000000 1.000000 0.000000
vn 0.000000 1.000000 0.000000
vn 0.000000 -1.000000 0.000000
vn 0.000000 -1.000000 0.000000
vn 0.000000 -1.000000 0.000000
vn 0.000000 -1.000000 0.000000
vn 0.000000 1.000000 -0.000000
vn 0.000000 1.000000 -0.000000
vn 0.000000 1.000000 -0.000000
vn 0.000000 -1.000000 0.000000
vn 0.000000 -1.000000 0.000000
vn 0.000000 -1.000000 0.000000
vn 0.000000 1.000000 0.000000
vn 0.000000 1.000000 0.000000
vn 0.000000 1.000000 0.000000
vn 0.000000 -1.000000 0.000000
vn 0.000000 -1.000000 0.000000
vn 0.000000 -1.000000 0.000000
s 1
g Lake_Tile_Coast Ground_Tiles
f 32/131/1 33/133/2 31/132/3
f 33/134/4 32/136/1 34/135/5
s off
f 34/137/6 35/138/7 33/75/8
s 1
f 36/139/9 35/141/10 34/140/5
s off
f 36/142/11 37/143/12 35/81/13
s 1
f 36/144/14 38/146/15 37/145/16
f 39/147/17 38/149/18 36/148/9
f 39/150/17 40/152/19 38/151/15
f 31/74/3 42/155/20 41/154/21 32/153/1
f 32/73/1 41/158/21 43/157/22 34/156/5
f 34/78/5 43/161/22 44/160/23 36/159/9
f 38/162/15 46/164/24 45/163/25 37/86/16
f 36/82/9 44/167/23 47/166/26 39/165/17
f 40/168/19 48/170/27 46/169/24 38/87/15
f 39/84/17 47/172/26 48/171/27 40/88/19
s 7
f 1/11/28 2/3/29 3/12/30
f 3/13/31 4/14/32 1/1/28
s off
f 4/15/33 3/2/34 5/16/35
s 7
f 6/17/36 4/4/32 5/18/37
s off
f 6/19/38 5/5/39 7/20/40
s 7
f 6/21/41 7/7/42 8/22/43
f 9/23/44 6/6/36 8/24/45
f 9/9/44 8/8/43 10/10/46
f 2/93/29 1/174/28 12/173/47 11/94/48
f 1/96/28 4/176/32 13/175/49 12/95/47
f 4/98/32 6/178/36 14/177/50 13/97/49
f 8/179/43 7/108/42 16/107/51 15/180/52
f 6/100/36 9/182/44 17/181/53 14/99/50
f 10/183/46 8/106/43 15/105/52 18/184/54
f 9/102/44 10/104/46 18/103/54 17/101/53
s 13
f 2/185/55 19/187/56 20/186/57 3/110/58
s 14
f 3/47/59 20/189/60 21/188/61 5/48/62
s 15
f 5/120/63 21/192/64 22/191/65 7/190/66
s 16
f 12/193/67 23/194/68 24/55/69 11/54/70
s 13
f 11/115/71 24/196/72 19/195/56 2/109/55
s 16
f 13/197/73 25/198/74 23/56/68 12/53/67
f 14/199/75 26/200/76 25/58/74 13/57/73
s 15
f 7/121/66 22/202/65 27/201/77 16/124/78
s 16
f 16/67/79 27/68/80 28/204/81 15/203/82
f 17/205/83 29/206/84 26/60/76 14/59/75
f 15/65/82 28/66/81 30/208/85 18/207/86
f 18/63/86 30/64/85 29/62/84 17/61/83
s 13
f 19/209/56 31/210/87 33/113/88 20/111/57
s 14
f 20/50/60 33/52/89 35/51/90 21/49/61
s 15
f 21/123/64 35/127/91 37/212/92 22/211/65
s 13
f 24/213/72 42/214/93 31/114/87 19/112/56
s 15
f 22/122/65 37/126/92 45/216/94 27/215/77
s off
f 51/69/95 52/72/96 50/71/97 49/70/98
f 23/35/99 49/36/100 24/26/101
f 24/116/102 49/119/103 50/118/104 42/117/105
f 42/77/106 50/218/107 41/217/108
f 25/37/109 49/38/110 23/25/111
f 41/76/112 50/220/113 43/219/114
f 26/39/115 49/40/116 25/28/117
f 43/79/118 50/222/119 44/221/120
f 27/34/121 51/42/122 28/41/123
f 46/223/124 52/224/125 45/92/126
f 45/128/127 52/130/128 51/129/129 27/125/130
f 29/43/131 51/44/132 49/27/133 26/29/134
f 44/83/135 50/80/136 52/226/137 47/225/138
f 28/33/139 51/46/140 30/45/141
f 48/227/142 52/228/143 46/91/144
f 30/32/145 51/31/146 29/30/147
f 47/85/148 52/90/149 48/89/150
