# This file uses centimeters as units for non-parametric coordinates.

g default
v -0.032805 -0.000000 0.032804
v 0.032804 -0.000000 0.032804
v -0.032805 0.386583 0.032804
v 0.032804 0.386583 0.032804
v -0.032805 0.386583 -0.032804
v 0.032804 0.386583 -0.032804
v -0.032805 -0.000000 -0.032804
v 0.032804 -0.000000 -0.032804
v -0.115905 0.395648 0.115908
v 0.115913 0.395648 0.115908
v 0.115913 0.395648 -0.115907
v -0.115905 0.395648 -0.115907
v -0.164199 0.651895 0.164202
v 0.164210 0.651895 0.164202
v 0.164210 0.651895 -0.164202
v -0.164199 0.651895 -0.164202
vt 0.335581 0.790923
vt 0.364948 0.507098
vt 0.054539 0.563924
vt 0.039620 0.563926
vt 0.077422 0.940740
vt 0.021355 0.840742
vt 0.020362 0.840742
vt 0.021262 0.840742
vt 0.039618 0.549007
vt 0.054537 0.549006
vt 0.335581 0.790923
vt 0.326865 0.540494
vt 0.029911 0.713663
vt 0.030107 0.713663
vt 0.029123 0.713663
vt 0.029889 0.713663
vt 0.021569 0.840742
vt 0.079701 0.840742
vt 0.077427 0.989070
vt 0.367444 0.562295
vt 0.367444 0.562295
vt 0.367444 0.562295
vt 0.367444 0.562295
vt 0.335581 0.562295
vt 0.367445 0.790923
vt 0.335581 0.790923
vt 0.329209 0.504754
vt 0.362604 0.542838
vt 0.335581 0.790923
vt 0.335581 0.562295
vt 0.367445 0.790923
vt 0.335581 0.562295
vt 0.367445 0.790923
vt 0.367445 0.790923
vt 0.335581 0.562295
vt 0.020721 0.582832
vt 0.070924 0.713663
vt 0.079393 0.840742
vt 0.079607 0.840742
vt 0.073446 0.582824
vt 0.071030 0.713663
vt 0.073438 0.530100
vt 0.071643 0.713663
vt 0.080600 0.840742
vt 0.071140 0.713663
vt 0.020713 0.530107
vt 0.029093 0.940745
vt 0.029098 0.989075
vn 0.000000 0.000000 1.000000
vn 0.000000 0.000000 1.000000
vn 0.000000 0.000000 1.000000
vn 0.000000 0.000000 1.000000
vn 0.000000 1.000000 0.000000
vn 0.000000 1.000000 0.000000
vn 0.000000 1.000000 0.000000
vn 0.000000 1.000000 0.000000
vn 0.000000 0.000000 -1.000000
vn 0.000000 0.000000 -1.000000
vn 0.000000 0.000000 -1.000000
vn 0.000000 0.000000 -1.000000
vn 0.000000 -1.000000 0.000000
vn 0.000000 -1.000000 0.000000
vn 0.000000 -1.000000 0.000000
vn 0.000000 -1.000000 0.000000
vn 1.000000 0.000000 0.000000
vn 1.000000 0.000000 0.000000
vn 1.000000 0.000000 0.000000
vn 1.000000 0.000000 0.000000
vn -1.000000 0.000000 0.000000
vn -1.000000 0.000000 0.000000
vn -1.000000 0.000000 0.000000
vn -1.000000 0.000000 0.000000
vn 0.000000 -0.994103 0.108440
vn 0.000000 -0.994103 0.108440
vn 0.000000 -0.994103 0.108440
vn 0.000000 -0.994103 0.108440
vn 0.108432 -0.994104 0.000000
vn 0.108432 -0.994104 0.000000
vn 0.108432 -0.994104 0.000000
vn 0.108432 -0.994104 0.000000
vn 0.000000 -0.994103 -0.108440
vn 0.000000 -0.994103 -0.108440
vn 0.000000 -0.994103 -0.108440
vn 0.000000 -0.994103 -0.108440
vn -0.108444 -0.994103 0.000000
vn -0.108444 -0.994103 0.000000
vn -0.108444 -0.994103 0.000000
vn -0.108444 -0.994103 0.000000
vn 0.000000 -0.185210 0.982699
vn 0.000000 -0.185210 0.982699
vn 0.000000 -0.185210 0.982699
vn 0.000000 -0.185210 0.982699
vn 0.982698 -0.185218 0.000000
vn 0.982698 -0.185218 0.000000
vn 0.982698 -0.185218 0.000000
vn 0.982698 -0.185218 0.000000
vn 0.000000 -0.185210 -0.982699
vn 0.000000 -0.185210 -0.982699
vn 0.000000 -0.185210 -0.982699
vn 0.000000 -0.185210 -0.982699
vn -0.982700 -0.185207 0.000000
vn -0.982700 -0.185207 0.000000
vn -0.982700 -0.185207 0.000000
vn -0.982700 -0.185207 0.000000
s off
g Trunk_Alt_01:pCube4
f 1/25/1 2/29/2 4/35/3 3/22/4
f 13/5/5 14/19/6 15/48/7 16/47/8
f 5/30/9 6/21/10 8/33/11 7/26/12
f 7/12/13 8/27/14 2/2/15 1/28/16
f 2/34/17 8/11/18 6/32/19 4/20/20
f 7/31/21 1/1/22 3/24/23 5/23/24
f 3/4/25 4/3/26 10/40/27 9/36/28
f 4/3/29 6/10/30 11/42/31 10/40/32
f 6/10/33 5/9/34 12/46/35 11/42/36
f 5/9/37 3/4/38 9/36/39 12/46/40
f 9/14/41 10/37/42 14/38/43 13/17/44
f 10/13/45 11/41/46 15/39/47 14/6/48
f 11/15/49 12/43/50 16/44/51 15/7/52
f 12/16/53 9/45/54 13/18/55 16/8/56
