# This file uses centimeters as units for non-parametric coordinates.

g default
v 0.098326 0.618036 0.098324
v 0.129789 0.786592 0.081865
v 0.098326 0.618036 -0.098324
v 0.129789 0.786592 -0.081865
v -0.129789 0.786592 -0.081865
v -0.098326 0.618036 -0.098324
v -0.081865 0.786592 -0.129788
v -0.098326 0.618036 0.098324
v -0.129789 0.786592 0.081865
v 0.081865 0.786592 -0.129788
v 0.024579 0.505666 0.024581
v 0.024579 0.505666 -0.024581
v 0.081865 0.786592 0.129788
v -0.024579 0.505666 0.024581
v -0.081865 0.786592 0.129788
v -0.024579 0.505666 -0.024581
v -0.049163 0.110508 -0.150649
v 0.000000 0.154500 -0.291557
v 0.049163 0.110508 -0.150649
v 0.150648 0.263114 0.049162
v 0.150648 0.263114 -0.049162
v 0.291556 0.367858 0.000000
v -0.150648 0.175409 0.049162
v -0.291556 0.245239 0.000000
v -0.150648 0.175409 -0.049162
v -0.006829 0.257501 0.291557
v -0.055991 0.184180 0.150649
v 0.042334 0.184180 0.150649
v -0.055991 0.000000 0.049162
v -0.049163 0.000000 0.049162
v 0.042334 0.000000 0.049162
v 0.049163 0.000000 -0.049162
v -0.049163 0.000000 -0.049162
v 0.049163 0.000000 0.049162
vt 0.024337 0.904368
vt 0.030862 0.957622
vt 0.030862 0.957622
vt 0.024337 0.904368
vt 0.071646 0.957622
vt 0.078171 0.904368
vt 0.068232 0.904368
vt 0.071646 0.957622
vt 0.078171 0.904368
vt 0.034276 0.904368
vt 0.046157 0.993124
vt 0.046157 0.993124
vt 0.034276 0.904368
vt 0.056351 0.993124
vt 0.068232 0.904368
vt 0.056351 0.993124
vt 0.376866 0.515741
vt 0.376866 0.515741
vt 0.370731 0.514008
vt 0.326040 0.757591
vt 0.370731 0.514008
vt 0.326040 0.757591
vt 0.338312 0.761058
vt 0.326892 0.757832
vt 0.339164 0.761299
vt 0.338312 0.761058
vt 0.342052 0.668795
vt 0.354224 0.635084
vt 0.354324 0.672262
vt 0.365416 0.679840
vt 0.365416 0.679840
vt 0.388751 0.651051
vt 0.326067 0.571213
vt 0.335032 0.626818
vt 0.335032 0.626818
vt 0.335136 0.704169
vt 0.347408 0.707636
vt 0.344893 0.684636
vn 0.983020 -0.183496 0.000000
vn 0.983020 -0.183496 0.000000
vn 0.983020 -0.183496 0.000000
vn 0.983020 -0.183496 0.000000
vn 0.983020 -0.183496 0.000000
vn 0.983020 -0.183496 0.000000
vn -0.705702 -0.062822 -0.705718
vn -0.705702 -0.062822 -0.705718
vn -0.705702 -0.062822 -0.705718
vn -0.983020 -0.183496 0.000000
vn -0.983020 -0.183496 0.000000
vn -0.983020 -0.183496 0.000000
vn -0.983020 -0.183496 0.000000
vn -0.983020 -0.183496 0.000000
vn -0.983020 -0.183496 0.000000
vn 0.705702 -0.062822 -0.705718
vn 0.705702 -0.062822 -0.705718
vn 0.705702 -0.062822 -0.705718
vn 0.836036 -0.548674 0.000000
vn 0.836036 -0.548674 0.000000
vn 0.836036 -0.548674 0.000000
vn 0.836036 -0.548674 0.000000
vn 0.836036 -0.548674 0.000000
vn 0.836036 -0.548674 0.000000
vn 0.705702 -0.062822 0.705718
vn 0.705702 -0.062822 0.705718
vn 0.705702 -0.062822 0.705718
vn 0.000000 -0.548653 0.836050
vn 0.000000 -0.548653 0.836050
vn 0.000000 -0.548653 0.836050
vn 0.000000 -0.548652 0.836051
vn 0.000000 -0.548652 0.836051
vn 0.000000 -0.548652 0.836051
vn 0.000000 -0.183502 0.983019
vn 0.000000 -0.183502 0.983019
vn 0.000000 -0.183502 0.983019
vn 0.000000 -0.183502 0.983019
vn 0.000000 -0.183502 0.983019
vn 0.000000 -0.183502 0.983019
vn -0.705702 -0.062822 0.705718
vn -0.705702 -0.062822 0.705718
vn -0.705702 -0.062822 0.705718
vn -0.836036 -0.548674 0.000000
vn -0.836036 -0.548674 0.000000
vn -0.836036 -0.548674 0.000000
vn -0.836036 -0.548674 0.000000
vn -0.836036 -0.548674 0.000000
vn -0.836036 -0.548674 0.000000
vn 0.000000 -0.183502 -0.983019
vn 0.000000 -0.183502 -0.983019
vn 0.000000 -0.183502 -0.983019
vn 0.000000 -0.183502 -0.983019
vn 0.000000 -0.183502 -0.983019
vn 0.000000 -0.183502 -0.983019
vn 0.000000 -0.548653 -0.836050
vn 0.000000 -0.548653 -0.836050
vn 0.000000 -0.548653 -0.836050
vn 0.000000 -0.548652 -0.836051
vn 0.000000 -0.548652 -0.836051
vn 0.000000 -0.548652 -0.836051
vn 0.000000 1.000000 0.000000
vn 0.000000 1.000000 0.000000
vn 0.000000 1.000000 0.000000
vn 0.000000 1.000000 0.000000
vn 0.000000 1.000000 0.000000
vn 0.000000 1.000000 0.000000
vn 0.000000 1.000000 0.000000
vn 0.000000 1.000000 0.000000
vn 0.000000 1.000000 0.000000
vn 0.000000 1.000000 0.000000
vn 0.000000 1.000000 0.000000
vn 0.000000 1.000000 0.000000
vn 0.000000 1.000000 0.000000
vn 0.000000 1.000000 0.000000
vn 0.000000 1.000000 0.000000
vn 0.000000 1.000000 0.000000
vn 0.000000 1.000000 0.000000
vn 0.000000 1.000000 0.000000
vn 0.000000 0.954560 0.298019
vn 0.000000 0.954560 0.298019
vn 0.000000 0.954560 0.298019
vn 0.000000 -0.954560 -0.298019
vn 0.000000 -0.954560 -0.298019
vn 0.000000 -0.954560 -0.298019
vn -0.596577 0.802556 0.000000
vn -0.596577 0.802556 0.000000
vn -0.596577 0.802556 0.000000
vn 0.596577 -0.802556 0.000000
vn 0.596577 -0.802556 0.000000
vn 0.596577 -0.802556 0.000000
vn 0.444032 0.896011 0.000000
vn 0.444032 0.896011 0.000000
vn 0.444032 0.896011 0.000000
vn -0.444032 -0.896011 0.000000
vn -0.444032 -0.896011 0.000000
vn -0.444032 -0.896011 0.000000
vn 0.000000 0.887092 -0.461592
vn 0.000000 0.887092 -0.461592
vn 0.000000 0.887092 -0.461592
vn 0.000000 -0.887092 0.461592
vn 0.000000 -0.887092 0.461592
vn 0.000000 -0.887092 0.461592
vn 0.000000 0.482605 -0.875838
vn 0.000000 0.482605 -0.875838
vn 0.000000 0.482605 -0.875838
vn 0.000000 0.482605 -0.875838
vn 0.000000 0.482605 -0.875838
vn 0.000000 0.482605 -0.875838
vn 0.000000 0.482605 -0.875838
vn 0.000000 0.482605 -0.875838
vn 0.000000 0.482605 -0.875838
vn 0.000000 -0.482605 0.875838
vn 0.000000 -0.482605 0.875838
vn 0.000000 -0.482605 0.875838
vn 0.000000 -0.482605 0.875838
vn 0.000000 -0.482605 0.875838
vn 0.000000 -0.482605 0.875838
vn 0.000000 -0.482605 0.875838
vn 0.000000 -0.482605 0.875838
vn 0.000000 -0.482605 0.875838
vn 0.000000 0.676405 0.736530
vn 0.000000 0.676405 0.736530
vn 0.000000 0.676405 0.736530
vn 0.000000 0.676405 0.736530
vn 0.000000 0.676405 0.736530
vn 0.000000 0.676405 0.736530
vn 0.000000 -0.676405 -0.736530
vn 0.000000 -0.676405 -0.736530
vn 0.000000 -0.676405 -0.736530
vn 0.000000 -0.676405 -0.736530
vn 0.000000 -0.676405 -0.736530
vn 0.000000 -0.676405 -0.736530
vn 0.998820 0.048559 0.000000
vn 0.998820 0.048559 0.000000
vn 0.998820 0.048559 0.000000
vn 0.998820 0.048559 0.000000
vn 0.998820 0.048559 0.000000
vn 0.998820 0.048559 0.000000
vn 0.000000 0.048553 -0.998821
vn 0.000000 0.048553 -0.998821
vn 0.000000 0.048553 -0.998821
vn 0.000000 0.048553 -0.998821
vn 0.000000 0.048553 -0.998821
vn 0.000000 0.048553 -0.998821
vn -0.933004 0.359866 0.000000
vn -0.933004 0.359866 0.000000
vn -0.933004 0.359866 0.000000
vn -0.933004 0.359866 0.000000
vn -0.933004 0.359866 0.000000
vn -0.933004 0.359866 0.000000
vn 0.933004 -0.359866 0.000000
vn 0.933004 -0.359866 0.000000
vn 0.933004 -0.359866 0.000000
vn 0.933004 -0.359866 0.000000
vn 0.933004 -0.359866 0.000000
vn 0.933004 -0.359866 0.000000
vn -0.998820 0.048559 0.000000
vn -0.998820 0.048559 0.000000
vn -0.998820 0.048559 0.000000
vn -0.998820 0.048559 0.000000
vn -0.998820 0.048559 0.000000
vn -0.998820 0.048559 0.000000
vn 0.000000 0.048553 0.998821
vn 0.000000 0.048553 0.998821
vn 0.000000 0.048553 0.998821
vn 0.000000 0.048553 0.998821
vn 0.000000 0.048553 0.998821
vn 0.000000 0.048553 0.998821
vn 0.000000 0.048553 0.998821
vn 0.000000 0.048553 0.998821
vn 0.000000 0.048553 0.998821
vn 0.000000 -1.000000 0.000000
vn 0.000000 -1.000000 0.000000
vn 0.000000 -1.000000 0.000000
vn 0.000000 -1.000000 0.000000
vn 0.000000 -1.000000 0.000000
vn 0.000000 -1.000000 0.000000
vn 0.000000 -1.000000 0.000000
vn 0.000000 -1.000000 0.000000
vn 0.000000 -1.000000 0.000000
vn 0.865572 0.500785 0.000000
vn 0.865572 0.500785 0.000000
vn 0.865572 0.500785 0.000000
vn 0.865572 0.500785 0.000000
vn 0.865572 0.500785 0.000000
vn 0.865572 0.500785 0.000000
vn -0.865572 -0.500785 0.000000
vn -0.865572 -0.500785 0.000000
vn -0.865572 -0.500785 0.000000
vn -0.865572 -0.500785 0.000000
vn -0.865572 -0.500785 0.000000
vn -0.865572 -0.500785 0.000000
s off
g Red_Flower_B Flowers
f 2/1/1 1/2/2 3/3/3
f 3/3/4 4/4/5 2/1/6
f 6/5/7 5/6/8 7/7/9
f 6/5/10 8/8/11 9/9/12
f 9/9/13 5/6/14 6/5/15
f 4/4/16 3/3/17 10/10/18
f 3/3/19 1/2/20 11/11/21
f 11/11/22 12/12/23 3/3/24
f 13/13/25 1/2/26 2/1/27
f 14/14/28 11/11/29 1/2/30
f 1/2/31 8/8/32 14/14/33
f 8/8/34 1/2/35 13/13/36
f 13/13/37 15/15/38 8/8/39
f 8/8/40 15/15/41 9/9/42
f 14/14/43 8/8/44 6/5/45
f 6/5/46 16/16/47 14/14/48
f 3/3/49 6/5/50 7/7/51
f 7/7/52 10/10/53 3/3/54
f 12/12/55 16/16/56 6/5/57
f 6/5/58 3/3/59 12/12/60
f 5/6/61 9/9/62 15/15/63
f 15/15/64 7/7/65 5/6/66
f 15/15/67 13/13/68 7/7/69
f 13/13/70 10/10/71 7/7/72
f 13/13/73 2/1/74 10/10/75
f 2/1/76 4/4/77 10/10/78
f 18/38/79 17/37/80 19/36/81
f 18/38/82 19/36/83 17/37/84
f 21/35/85 20/34/86 22/33/87
f 21/35/88 22/33/89 20/34/90
f 24/32/91 23/31/92 25/30/93
f 24/32/94 25/30/95 23/31/96
f 27/29/97 26/28/98 28/27/99
f 27/29/100 28/27/101 26/28/102
f 30/26/103 29/25/104 27/29/105
f 27/29/106 31/24/107 30/26/108
f 27/29/109 28/27/110 31/24/111
f 30/26/112 27/29/113 29/25/114
f 27/29/115 30/26/116 31/24/117
f 27/29/118 31/24/119 28/27/120
f 33/23/121 32/22/122 19/36/123
f 19/36/124 17/37/125 33/23/126
f 33/23/127 19/36/128 32/22/129
f 19/36/130 33/23/131 17/37/132
f 11/21/133 34/20/134 32/22/135
f 32/22/136 12/19/137 11/21/138
f 32/22/139 33/23/140 16/18/141
f 16/18/142 12/19/143 32/22/144
f 32/22/145 34/20/146 20/34/147
f 20/34/148 21/35/149 32/22/150
f 32/22/151 20/34/152 34/20/153
f 20/34/154 32/22/155 21/35/156
f 33/23/157 30/26/158 14/17/159
f 14/17/160 16/18/161 33/23/162
f 31/24/163 34/20/164 11/21/165
f 11/21/166 30/26/167 31/24/168
f 11/21/169 14/17/170 30/26/171
f 30/26/172 33/23/173 32/22/174
f 32/22/175 31/24/176 30/26/177
f 32/22/178 34/20/179 31/24/180
f 25/30/181 23/31/182 30/26/183
f 30/26/184 33/23/185 25/30/186
f 25/30/187 30/26/188 23/31/189
f 30/26/190 25/30/191 33/23/192
