# This file uses centimeters as units for non-parametric coordinates.

g rocksmall_02:default1
v 0.500000 0.000000 0.866024
v 0.390000 0.980000 0.675498
v -0.390000 0.980000 0.675498
v -0.500000 0.000000 0.866024
v 1.000000 0.000000 -0.000002
v 0.780000 0.980000 -0.000002
v -0.500000 0.000000 -0.866026
v 0.500000 0.000000 -0.866026
v -1.000000 0.000000 -0.000002
v -0.390000 0.980000 -0.675502
v 0.390000 0.980000 -0.675502
v -0.780000 0.980000 -0.000002
v -0.388044 0.980000 0.106078
v -0.163212 0.980000 0.495498
v 0.286452 0.980000 0.495498
v 0.511284 0.980000 0.106078
v 0.286452 0.980000 -0.283340
v -0.163212 0.980000 -0.283340
v -0.266634 1.420000 0.106078
v -0.102508 1.420000 -0.178198
v 0.225746 1.420000 -0.178198
v -0.102508 1.420000 0.390356
v 0.225746 1.420000 0.390356
v 0.389874 1.420000 0.106078
vt 0.869889 0.016229
vt 0.865462 0.030008
vt 0.834067 0.030008
vt 0.829640 0.016229
vt 0.829640 0.016229
vt 0.869889 0.016229
vt 0.865462 0.030008
vt 0.834067 0.030008
vt 0.869889 0.035070
vt 0.829640 0.035070
vt 0.809515 0.023118
vt 0.829640 0.011166
vt 0.869889 0.011166
vt 0.890014 0.023118
vt 0.869889 0.016229
vt 0.865462 0.030008
vt 0.834067 0.030008
vt 0.829640 0.016229
vt 0.865462 0.030008
vt 0.834067 0.030008
vt 0.829640 0.016229
vt 0.869889 0.016229
vt 0.834067 0.013796
vt 0.834067 0.032441
vt 0.818370 0.023118
vt 0.834146 0.021654
vt 0.843195 0.016280
vt 0.865462 0.013796
vt 0.861294 0.016280
vt 0.870343 0.021654
vt 0.881159 0.023118
vt 0.865462 0.032441
vt 0.861294 0.027029
vt 0.843195 0.027029
vt 0.856371 0.026240
vt 0.843158 0.026240
vt 0.840715 0.019997
vt 0.858814 0.019997
vt 0.856371 0.027042
vt 0.843158 0.027042
vt 0.836552 0.023118
vt 0.843158 0.019195
vt 0.856371 0.019195
vt 0.862976 0.023118
vt 0.858814 0.019997
vt 0.856370 0.026240
vt 0.843158 0.026240
vt 0.840715 0.019997
vt 0.840715 0.019997
vt 0.858814 0.019997
vt 0.856370 0.026240
vt 0.843158 0.026240
vt 0.840715 0.019997
vt 0.858814 0.019997
vt 0.856371 0.026240
vt 0.843158 0.026240
vt 0.858814 0.019997
vt 0.856371 0.026240
vt 0.843158 0.026240
vt 0.840715 0.019997
vt 0.856370 0.026240
vt 0.843158 0.026240
vt 0.840715 0.019997
vt 0.858814 0.019997
vt 0.829640 0.016229
vt 0.869889 0.016229
vt 0.865462 0.030008
vt 0.834067 0.030008
vt 0.865462 0.030008
vt 0.834067 0.030008
vt 0.829640 0.016229
vt 0.869889 0.016229
vn 0.000000 0.190841 0.981621
vn 0.000000 0.190841 0.981621
vn 0.000000 0.190841 0.981621
vn 0.000000 0.190841 0.981621
vn 0.850109 0.190841 0.490811
vn 0.850109 0.190841 0.490811
vn 0.850109 0.190841 0.490811
vn 0.850109 0.190841 0.490811
vn 0.000000 -1.000000 0.000000
vn 0.000000 -1.000000 0.000000
vn 0.000000 -1.000000 0.000000
vn 0.000000 -1.000000 0.000000
vn 0.000000 -1.000000 0.000000
vn 0.000000 -1.000000 0.000000
vn 0.000000 0.190841 -0.981621
vn 0.000000 0.190841 -0.981621
vn 0.000000 0.190841 -0.981621
vn 0.000000 0.190841 -0.981621
vn -0.850109 0.190841 -0.490811
vn -0.850109 0.190841 -0.490811
vn -0.850109 0.190841 -0.490811
vn -0.850109 0.190841 -0.490811
vn 0.000000 1.000000 0.000000
vn 0.000000 1.000000 0.000000
vn 0.000000 1.000000 0.000000
vn 0.000000 1.000000 0.000000
vn 0.000000 1.000000 0.000000
vn 0.000000 1.000000 0.000000
vn 0.000000 1.000000 0.000000
vn 0.000000 1.000000 0.000000
vn 0.000000 1.000000 0.000000
vn 0.000000 1.000000 0.000000
vn 0.000000 1.000000 0.000000
vn 0.000000 1.000000 0.000000
vn 0.000000 1.000000 0.000000
vn 0.000000 1.000000 0.000000
vn 0.000000 1.000000 0.000000
vn 0.000000 1.000000 0.000000
vn 0.000000 1.000000 0.000000
vn 0.000000 1.000000 0.000000
vn 0.000000 1.000000 0.000000
vn 0.000000 1.000000 0.000000
vn 0.000000 1.000000 0.000000
vn 0.000000 1.000000 0.000000
vn 0.000000 1.000000 0.000000
vn 0.000000 1.000000 0.000000
vn 0.000000 1.000000 0.000000
vn 0.000000 1.000000 0.000000
vn 0.000000 1.000000 0.000000
vn 0.000000 1.000000 0.000000
vn 0.000000 1.000000 0.000000
vn 0.000000 1.000000 0.000000
vn 0.000000 1.000000 0.000000
vn 0.000000 1.000000 0.000000
vn 0.000000 1.000000 0.000000
vn 0.000000 1.000000 0.000000
vn 0.000000 1.000000 0.000000
vn 0.000000 1.000000 0.000000
vn -0.842310 0.232418 -0.486308
vn -0.842310 0.232418 -0.486308
vn -0.842310 0.232418 -0.486308
vn -0.842310 0.232418 -0.486308
vn 0.000000 1.000000 0.000000
vn 0.000000 1.000000 0.000000
vn 0.000000 1.000000 0.000000
vn 0.000000 1.000000 0.000000
vn 0.000000 1.000000 0.000000
vn 0.000000 1.000000 0.000000
vn 0.000000 0.232418 -0.972616
vn 0.000000 0.232418 -0.972616
vn 0.000000 0.232418 -0.972616
vn 0.000000 0.232418 -0.972616
vn 0.842310 0.232418 -0.486308
vn 0.842310 0.232418 -0.486308
vn 0.842310 0.232418 -0.486308
vn 0.842310 0.232418 -0.486308
vn 0.842310 0.232418 0.486308
vn 0.842310 0.232418 0.486308
vn 0.842310 0.232418 0.486308
vn 0.842310 0.232418 0.486308
vn 0.000000 0.232418 0.972616
vn 0.000000 0.232418 0.972616
vn 0.000000 0.232418 0.972616
vn 0.000000 0.232418 0.972616
vn -0.842310 0.232418 0.486308
vn -0.842310 0.232418 0.486308
vn -0.842310 0.232418 0.486308
vn -0.842310 0.232418 0.486308
vn 0.850109 0.190841 -0.490811
vn 0.850109 0.190841 -0.490811
vn 0.850109 0.190841 -0.490811
vn 0.850109 0.190841 -0.490811
vn -0.850109 0.190841 0.490811
vn -0.850109 0.190841 0.490811
vn -0.850109 0.190841 0.490811
vn -0.850109 0.190841 0.490811
s off
g rocksmall_02:Mesh1Rock_2Model rocksmall_02:landscape_pack Med_Rock_H Med_Rocks
f 1/1/1 2/2/2 3/3/3 4/4/4
f 1/5/5 5/6/6 6/7/7 2/8/8
f 7/9/9 8/10/10 5/11/11 1/12/12 4/13/13 9/14/14
f 7/15/15 10/16/16 11/17/17 8/18/18
f 12/19/19 10/20/20 7/21/21 9/22/22
f 3/23/23 10/24/24 12/25/25
f 10/24/26 3/23/27 13/26/28
f 13/26/29 3/23/30 14/27/31
f 14/27/32 3/23/33 2/28/34
f 14/27/35 2/28/36 15/29/37
f 15/29/38 2/28/39 16/30/40
f 16/30/41 2/28/42 6/31/43
f 11/32/44 16/30/45 6/31/46
f 11/32/47 17/33/48 16/30/49
f 11/32/50 18/34/51 17/33/52
f 10/24/53 18/34/54 11/32/55
f 18/34/56 10/24/57 13/26/58
f 19/35/59 20/36/60 18/37/61 13/38/62
f 21/39/63 20/40/64 19/41/65 22/42/66 23/43/67 24/44/68
f 18/45/69 20/46/70 21/47/71 17/48/72
f 16/49/73 17/50/74 21/51/75 24/52/76
f 15/53/77 16/54/78 24/55/79 23/56/80
f 15/57/81 23/58/82 22/59/83 14/60/84
f 22/61/85 19/62/86 13/63/87 14/64/88
f 5/65/89 8/66/90 11/67/91 6/68/92
f 3/69/93 12/70/94 9/71/95 4/72/96
