# This file uses centimeters as units for non-parametric coordinates.

g PlatformHex_default1
v -0.161110 0.000000 -0.200000
v 2.161112 -0.000000 -0.200000
v -0.161110 2.000000 -0.195666
v 2.161112 2.000000 -0.195666
v -0.161110 2.000000 -1.804334
v 2.161112 2.000000 -1.804334
v -0.161110 0.000000 -1.800000
v 2.161112 -0.000000 -1.800000
v -0.215526 1.660831 -0.076098
v 2.215528 1.660831 -0.076098
v -0.215526 1.660831 -1.923902
v 2.215528 1.660831 -1.923902
v 1.000001 1.660831 -2.466228
v 2.334116 1.660831 -1.000000
v 1.000001 1.660831 0.466228
v -0.334114 1.660831 -1.000000
v 2.334116 1.660831 -0.540401
v 2.334116 1.660831 -1.459599
v 1.587438 1.660831 -2.263144
v 0.412563 1.660831 -2.263144
v -0.334114 1.660831 -1.459599
v -0.334114 1.660831 -0.540401
v 0.412563 1.660831 0.263144
v 1.587438 1.660831 0.263144
v 2.334116 1.660831 -0.309595
v 2.334116 1.660831 -0.770200
v 2.334116 1.660831 -1.229800
v 2.334116 1.660831 -1.690405
v 1.952937 1.660831 -2.093608
v 1.287251 1.660831 -2.435105
v 0.712750 1.660831 -2.435105
v 0.047065 1.660831 -2.093608
v -0.334114 1.660831 -1.690405
v -0.334114 1.660831 -0.309595
v -0.334114 1.660831 -0.770200
v -0.334114 1.660831 -1.229800
v 0.047065 1.660831 0.093608
v 0.712750 1.660831 0.435105
v 1.287251 1.660831 0.435105
v 1.952937 1.660831 0.093608
v -0.189605 1.450086 -0.001951
v 0.111533 1.450086 0.214399
v 0.532077 1.450086 0.399383
v 0.845029 1.450086 0.524631
v 1.154973 1.450086 0.524631
v 1.467924 1.450086 0.399383
v 1.888468 1.450086 0.214399
v 2.189607 1.450086 -0.001951
v 2.311566 1.450086 -0.131948
v 2.439523 1.450086 -0.380110
v 2.439523 1.450086 -0.628066
v 2.439523 1.450086 -0.876022
v 2.439523 1.450086 -1.123978
v 2.439523 1.450086 -1.371934
v 2.439523 1.450086 -1.619890
v 2.311566 1.450086 -1.868053
v 2.189607 1.450086 -1.998049
v 1.888468 1.450086 -2.214400
v 1.467924 1.450086 -2.399383
v 1.154973 1.450086 -2.524631
v 0.845029 1.450086 -2.524631
v 0.532077 1.450086 -2.399383
v 0.111533 1.450086 -2.214400
v -0.189605 1.450086 -1.998049
v -0.311565 1.450086 -1.868053
v -0.439522 1.450086 -1.619890
v -0.439522 1.450086 -1.371934
v -0.439522 1.450086 -1.123978
v -0.439522 1.450086 -0.876022
v -0.439522 1.450086 -0.628066
v -0.439522 1.450086 -0.380110
v -0.311565 1.450086 -0.131948
v 1.000001 -0.000000 0.271111
v 1.000001 -0.000000 -2.271111
v 1.000001 2.000000 -2.272362
v 1.000001 2.000000 0.272362
v 2.161112 2.000000 -1.000000
v 1.000001 2.000000 -1.000000
v -0.161110 2.000000 -1.000000
v 2.161112 -0.000000 -1.000000
v 1.000001 -0.000000 -1.000000
v -0.161110 0.000000 -1.000000
vt 0.439514 0.279067
vt 0.439514 0.279067
vt 0.333867 0.013318
vt 0.478724 0.029067
vt 0.439514 0.029067
vt 0.376422 0.033662
vt 0.433179 0.469422
vt 0.478724 0.279067
vt 0.433179 0.490328
vt 0.482426 0.490328
vt 0.439514 0.279067
vt 0.439514 0.029067
vt 0.478724 0.279067
vt 0.478724 0.029067
vt 0.333867 0.033662
vt 0.478724 0.029067
vt 0.478724 0.029067
vt 0.376422 0.013318
vt 0.439514 0.279067
vt 0.482426 0.469422
vt 0.478724 0.279067
vt 0.439514 0.029067
vt 0.478724 0.279067
vt 0.439514 0.029067
vt 0.322129 0.045772
vt 0.372484 0.045772
vt 0.372484 0.103832
vt 0.322129 0.103832
vt 0.322129 0.045772
vt 0.372484 0.045772
vt 0.372484 0.103832
vt 0.322129 0.103832
vt 0.347307 0.103832
vt 0.347307 0.103832
vt 0.359895 0.103832
vt 0.334718 0.103832
vt 0.359895 0.103832
vt 0.334718 0.103832
vt 0.366190 0.103832
vt 0.353601 0.103832
vt 0.341012 0.103832
vt 0.328424 0.103832
vt 0.366190 0.103832
vt 0.328424 0.103832
vt 0.341012 0.103832
vt 0.353601 0.103832
vt 0.369337 0.169468
vt 0.363043 0.169468
vt 0.356748 0.169468
vt 0.350454 0.169468
vt 0.344159 0.169468
vt 0.337865 0.169468
vt 0.331571 0.169468
vt 0.325277 0.169468
vt 0.369337 0.169468
vt 0.363043 0.169468
vt 0.356748 0.169468
vt 0.350454 0.169468
vt 0.344159 0.169468
vt 0.337865 0.169468
vt 0.331571 0.169468
vt 0.325277 0.169468
vt 0.372353 0.045772
vt 0.324212 0.045772
vt 0.348283 0.103832
vt 0.320626 0.103832
vt 0.322171 0.169468
vt 0.327540 0.103832
vt 0.369026 0.103832
vt 0.375940 0.103832
vt 0.352013 0.169468
vt 0.355197 0.103832
vt 0.366934 0.169468
vt 0.362111 0.103832
vt 0.334454 0.103832
vt 0.341369 0.103832
vt 0.337092 0.169468
vt 0.374395 0.169468
vt 0.359474 0.169468
vt 0.344553 0.169468
vt 0.329631 0.169468
vt 0.372353 0.045772
vt 0.348283 0.103832
vt 0.324212 0.045772
vt 0.320626 0.103832
vt 0.327540 0.103832
vt 0.322171 0.169468
vt 0.355197 0.103832
vt 0.334454 0.103832
vt 0.352013 0.169468
vt 0.369026 0.103832
vt 0.362111 0.103832
vt 0.366934 0.169468
vt 0.341369 0.103832
vt 0.337092 0.169468
vt 0.375940 0.103832
vt 0.374395 0.169468
vt 0.359474 0.169468
vt 0.344553 0.169468
vt 0.329631 0.169468
vt 0.459119 0.279067
vt 0.457802 0.490328
vt 0.457802 0.469422
vt 0.459119 0.279067
vt 0.459119 0.029067
vt 0.347307 0.045772
vt 0.355144 0.033662
vt 0.355144 0.013318
vt 0.459119 0.029067
vt 0.348283 0.045772
vt 0.376422 0.023490
vt 0.459119 0.029067
vt 0.348283 0.045772
vt 0.355144 0.023490
vt 0.459119 0.029067
vt 0.347307 0.045772
vt 0.333867 0.023490
vt 0.482426 0.479875
vt 0.459119 0.279067
vt 0.457802 0.479875
vt 0.459119 0.279067
vt 0.433179 0.479875
vn 0.000000 -0.001396 0.999999
vn 0.000000 -0.001396 0.999999
vn 0.374915 -0.001294 0.927058
vn 0.374915 -0.001294 0.927058
vn 0.000000 1.000000 0.000000
vn 0.000000 1.000000 0.000000
vn 0.000000 1.000000 0.000000
vn 0.000000 1.000000 0.000000
vn 0.000000 -0.001396 -0.999999
vn 0.000000 -0.001396 -0.999999
vn 0.374915 -0.001294 -0.927058
vn 0.374915 -0.001294 -0.927058
vn 0.000000 -1.000000 0.000000
vn 0.000000 -1.000000 0.000000
vn 0.000000 -1.000000 0.000000
vn 0.000000 -1.000000 0.000000
vn 1.000000 -0.000000 0.000000
vn 1.000000 -0.000000 0.000000
vn 1.000000 -0.000000 0.000000
vn 1.000000 -0.000000 0.000000
vn -1.000000 0.000000 0.000000
vn -1.000000 0.000000 0.000000
vn -1.000000 0.000000 0.000000
vn -1.000000 0.000000 0.000000
vn -0.299295 0.549850 0.779799
vn -0.299295 0.549850 0.779799
vn -0.340109 0.513818 0.787602
vn -0.302037 0.546718 0.780944
vn -0.299295 0.549850 0.779799
vn 0.327417 0.535193 -0.778695
vn 0.294247 0.545168 -0.784991
vn 0.365159 0.486506 -0.793707
vn -0.890806 0.454383 0.000000
vn -0.890806 0.454383 0.000000
vn -0.890806 0.454383 0.000000
vn 0.529123 0.222973 0.818726
vn 0.529123 0.222973 0.818726
vn 0.529123 0.222973 0.818726
vn -0.529123 0.222973 -0.818726
vn -0.529123 0.222973 -0.818726
vn -0.529123 0.222973 -0.818726
vn -0.857160 0.275248 0.435333
vn -0.857160 0.275248 0.435333
vn -0.857160 0.275248 0.435333
vn 0.857161 0.275247 -0.435333
vn 0.857161 0.275247 -0.435333
vn 0.857161 0.275247 -0.435333
vn -0.308052 0.610861 -0.729351
vn -0.294247 0.545168 -0.784991
vn -0.093655 0.494066 -0.864365
vn 0.898529 0.431697 -0.079266
vn 0.890806 0.454383 0.000000
vn 0.899749 0.401483 -0.171063
vn -0.340109 0.513818 0.787602
vn -0.506855 0.357800 0.784269
vn -0.403399 0.437728 0.803532
vn 0.340109 0.513818 0.787602
vn 0.403399 0.437727 0.803532
vn 0.506854 0.357801 0.784269
vn -0.898529 0.431697 0.079266
vn -0.899749 0.401484 0.171064
vn -0.853365 0.289702 0.433405
vn -0.894367 0.447334 0.000000
vn -0.894367 0.447334 0.000000
vn -0.894367 0.447334 0.000000
vn 0.101521 0.334314 -0.936978
vn 0.101521 0.334314 -0.936978
vn 0.101521 0.334314 -0.936978
vn 0.894367 0.447334 0.000000
vn 0.894367 0.447334 0.000000
vn 0.894367 0.447334 0.000000
vn -0.101522 0.334313 0.936978
vn -0.101522 0.334313 0.936978
vn -0.101522 0.334313 0.936978
vn 0.898529 0.431697 0.079266
vn 0.899749 0.401484 0.171063
vn 0.890806 0.454383 0.000000
vn 0.894368 0.447333 0.000000
vn 0.894368 0.447333 0.000000
vn 0.894368 0.447333 0.000000
vn 0.890806 0.454383 0.000000
vn 0.890806 0.454383 0.000000
vn 0.898529 0.431697 0.079266
vn 0.894368 0.447333 0.000000
vn 0.894368 0.447333 0.000000
vn 0.894368 0.447333 0.000000
vn 0.327417 0.535193 -0.778695
vn 0.365159 0.486506 -0.793707
vn 0.403399 0.437728 -0.803532
vn 0.391862 0.364339 -0.844808
vn 0.391862 0.364339 -0.844808
vn 0.391862 0.364339 -0.844808
vn -0.478772 0.268789 -0.835781
vn -0.478772 0.268789 -0.835781
vn -0.478772 0.268789 -0.835781
vn -0.365159 0.486505 -0.793708
vn -0.403399 0.437728 -0.803532
vn -0.506855 0.357800 -0.784269
vn -0.890806 0.454383 0.000000
vn -0.898529 0.431697 -0.079266
vn -0.899749 0.401484 -0.171064
vn -0.894367 0.447333 0.000000
vn -0.894367 0.447333 0.000000
vn -0.894367 0.447333 0.000000
vn -0.894367 0.447334 0.000000
vn -0.894367 0.447334 0.000000
vn -0.894367 0.447334 0.000000
vn -0.391864 0.364338 0.844808
vn -0.391864 0.364338 0.844808
vn -0.391863 0.364338 0.844808
vn 0.478772 0.268788 0.835781
vn 0.478772 0.268788 0.835781
vn 0.478772 0.268788 0.835781
vn 0.898529 0.431697 0.079266
vn 0.853365 0.289702 0.433405
vn 0.899749 0.401484 0.171063
vn 0.857161 0.275247 0.435333
vn 0.857161 0.275247 0.435333
vn 0.857161 0.275247 0.435333
vn 0.894368 0.447332 0.000000
vn 0.894368 0.447332 0.000000
vn 0.894368 0.447332 0.000000
vn 0.894367 0.447334 0.000000
vn 0.894367 0.447334 0.000000
vn 0.894367 0.447334 0.000000
vn 0.894368 0.447333 0.000000
vn 0.894368 0.447333 0.000000
vn 0.894368 0.447333 0.000000
vn 0.898529 0.431697 -0.079266
vn 0.899749 0.401483 -0.171063
vn 0.853365 0.289702 -0.433405
vn 0.403399 0.437728 -0.803532
vn 0.365159 0.486506 -0.793707
vn 0.506854 0.357800 -0.784269
vn 0.529123 0.222974 -0.818726
vn 0.529123 0.222974 -0.818726
vn 0.529123 0.222974 -0.818726
vn 0.478772 0.268788 -0.835781
vn 0.478772 0.268788 -0.835781
vn 0.478772 0.268788 -0.835781
vn -0.101521 0.334314 -0.936978
vn -0.101521 0.334314 -0.936978
vn -0.101521 0.334314 -0.936978
vn -0.365159 0.486505 -0.793708
vn -0.327417 0.535193 -0.778696
vn -0.403399 0.437728 -0.803532
vn -0.391863 0.364339 -0.844808
vn -0.391863 0.364339 -0.844808
vn -0.391863 0.364339 -0.844808
vn -0.899749 0.401484 -0.171064
vn -0.898529 0.431697 -0.079266
vn -0.853365 0.289702 -0.433406
vn -0.857160 0.275248 -0.435333
vn -0.857160 0.275248 -0.435333
vn -0.857160 0.275248 -0.435333
vn -0.898529 0.431697 0.079266
vn -0.890806 0.454383 0.000000
vn -0.899749 0.401484 0.171064
vn -0.894367 0.447334 0.000000
vn -0.894367 0.447334 0.000000
vn -0.894367 0.447334 0.000000
vn -0.894367 0.447334 0.000000
vn -0.894367 0.447334 0.000000
vn -0.894367 0.447334 0.000000
vn -0.894367 0.447334 0.000000
vn -0.894367 0.447334 0.000000
vn -0.894367 0.447334 0.000000
vn -0.529123 0.222973 0.818726
vn -0.529123 0.222973 0.818726
vn -0.529123 0.222973 0.818726
vn -0.340109 0.513818 0.787602
vn -0.403399 0.437728 0.803532
vn -0.302037 0.546718 0.780944
vn -0.478772 0.268788 0.835781
vn -0.478772 0.268788 0.835781
vn -0.478772 0.268788 0.835781
vn 0.101522 0.334313 0.936978
vn 0.101522 0.334313 0.936978
vn 0.101522 0.334313 0.936978
vn 0.340109 0.513818 0.787602
vn 0.302037 0.546718 0.780944
vn 0.403399 0.437727 0.803532
vn 0.391863 0.364338 0.844808
vn 0.391864 0.364338 0.844808
vn 0.391863 0.364338 0.844808
vn 0.000000 -1.000000 0.000000
vn 0.000000 -1.000000 0.000000
vn 0.000000 -1.000000 0.000000
vn 0.000000 -1.000000 0.000000
vn -0.374915 -0.001294 -0.927058
vn 0.000000 -0.001396 -0.999999
vn 0.000000 -0.001396 -0.999999
vn -0.374915 -0.001294 -0.927058
vn -0.374915 -0.001294 0.927058
vn 0.000000 -0.001396 0.999999
vn 0.000000 -0.001396 0.999999
vn -0.374915 -0.001294 0.927058
vn 0.340109 0.513818 0.787602
vn 0.299295 0.549851 0.779799
vn 0.299295 0.549851 0.779799
vn 0.299295 0.549851 0.779799
vn 0.302037 0.546718 0.780944
vn 0.000000 1.000000 0.000000
vn 0.000000 1.000000 0.000000
vn 0.000000 1.000000 0.000000
vn 0.000000 1.000000 0.000000
vn 0.308052 0.610861 -0.729351
vn 0.294247 0.545168 -0.784991
vn 0.327417 0.535193 -0.778695
vn 0.308052 0.610861 -0.729351
vn 0.093655 0.494066 -0.864365
vn 0.294247 0.545168 -0.784991
vn -0.308052 0.610861 -0.729351
vn -0.327417 0.535193 -0.778696
vn -0.294247 0.545168 -0.784991
vn -0.294247 0.545168 -0.784991
vn -0.327417 0.535193 -0.778696
vn -0.365159 0.486505 -0.793708
vn 0.890806 0.454384 0.000000
vn 0.890806 0.454383 0.000000
vn 0.890806 0.454383 0.000000
vn 0.000000 1.000000 0.000000
vn 0.000000 1.000000 0.000000
vn 0.000000 1.000000 0.000000
vn 0.000000 1.000000 0.000000
vn 0.000000 1.000000 0.000000
vn 0.000000 1.000000 0.000000
vn 0.000000 1.000000 0.000000
vn 0.000000 1.000000 0.000000
vn -0.890806 0.454383 0.000000
vn -0.890806 0.454383 0.000000
vn -0.898529 0.431697 -0.079266
vn -0.890806 0.454383 0.000000
vn -0.890806 0.454383 0.000000
vn -0.890806 0.454383 0.000000
vn -0.890806 0.454383 0.000000
vn -0.890806 0.454383 0.000000
vn -0.890806 0.454383 0.000000
vn -0.890806 0.454383 0.000000
vn -0.890806 0.454383 0.000000
vn -0.890806 0.454383 0.000000
vn -0.898529 0.431697 0.079266
vn -0.890806 0.454383 0.000000
vn -0.890806 0.454383 0.000000
vn 0.890806 0.454383 0.000000
vn 0.890806 0.454383 0.000000
vn 0.890806 0.454384 0.000000
vn 0.890806 0.454384 0.000000
vn 0.890806 0.454383 0.000000
vn 0.890806 0.454383 0.000000
vn 0.890806 0.454384 0.000000
vn 0.890806 0.454383 0.000000
vn 0.890806 0.454383 0.000000
vn 0.890806 0.454383 0.000000
vn 0.890806 0.454383 0.000000
vn 0.898529 0.431697 -0.079266
vn 1.000000 -0.000000 0.000000
vn 1.000000 -0.000000 0.000000
vn 1.000000 -0.000000 0.000000
vn 1.000000 -0.000000 0.000000
vn 0.000000 -1.000000 0.000000
vn 0.000000 -1.000000 0.000000
vn 0.000000 -1.000000 0.000000
vn 0.000000 -1.000000 0.000000
vn 0.000000 -1.000000 0.000000
vn 0.000000 -1.000000 0.000000
vn 0.000000 -1.000000 0.000000
vn 0.000000 -1.000000 0.000000
vn -1.000000 0.000000 0.000000
vn -1.000000 0.000000 0.000000
vn -1.000000 0.000000 0.000000
vn -1.000000 0.000000 0.000000
s off
g PlatformHex_platformer platform_hex PlatformHex
f 76/109/1 73/101/2 2/2/3 4/24/4
f 76/108/5 4/18/6 77/111/7 78/114/8
f 74/104/9 75/105/10 6/16/11 8/8/12
f 80/118/13 81/120/14 74/103/15 8/20/16
f 8/11/17 6/12/18 77/112/19 80/119/20
f 82/121/21 79/115/22 5/14/23 7/13/24
f 15/65/25 76/110/26 3/63/27 23/74/28 38/72/29
f 19/35/30 75/106/31 6/26/32
f 35/45/33 79/116/34 16/34/35
f 10/66/36 40/68/37 48/67/38
f 11/28/39 32/42/40 64/54/41
f 9/32/42 34/44/43 72/62/44
f 12/85/45 28/86/46 56/87/47
f 31/41/48 75/106/49 13/33/50
f 6/84/51 18/89/52 28/86/53
f 3/63/54 9/70/55 37/69/56
f 4/64/57 40/68/58 10/66/59
f 3/29/60 34/44/61 9/32/62
f 68/58/63 16/34/64 36/46/65
f 60/50/66 13/33/67 30/40/68
f 52/90/69 14/83/70 26/88/71
f 44/71/72 15/65/73 38/72/74
f 4/82/75 25/91/76 17/92/77
f 50/93/78 17/92/79 25/91/80
f 17/92/81 77/113/82 4/82/83
f 54/95/84 18/89/85 27/94/86
f 19/35/87 6/26/88 29/39/89
f 58/48/90 19/35/91 29/39/92
f 62/52/93 20/36/94 31/41/95
f 5/25/96 32/42/97 11/28/98
f 21/37/99 5/30/100 33/43/101
f 66/56/102 21/37/103 33/43/104
f 70/60/105 22/38/106 35/45/107
f 42/73/108 23/74/109 37/69/110
f 46/77/111 24/75/112 39/76/113
f 4/82/114 10/96/115 25/91/116
f 49/97/117 25/91/118 10/96/119
f 51/98/120 26/88/121 17/92/122
f 53/99/123 27/94/124 14/83/125
f 55/100/126 28/86/127 18/89/128
f 6/84/129 28/86/130 12/85/131
f 29/39/132 6/26/133 12/27/134
f 57/47/135 29/39/136 12/27/137
f 59/49/138 30/40/139 19/35/140
f 61/51/141 31/41/142 13/33/143
f 5/25/144 20/36/145 32/42/146
f 63/53/147 32/42/148 20/36/149
f 33/43/150 5/30/151 11/31/152
f 65/55/153 33/43/154 11/31/155
f 3/29/156 22/38/157 34/44/158
f 71/61/159 34/44/160 22/38/161
f 69/59/162 35/45/163 16/34/164
f 67/57/165 36/46/166 21/37/167
f 41/78/168 37/69/169 9/70/170
f 3/63/171 37/69/172 23/74/173
f 43/79/174 38/72/175 23/74/176
f 45/80/177 39/76/178 15/65/179
f 4/64/180 24/75/181 40/68/182
f 47/81/183 40/68/184 24/75/185
f 81/120/186 82/122/187 7/7/188 74/103/189
f 5/5/190 75/105/191 74/104/192 7/19/193
f 1/21/194 73/101/195 76/109/196 3/17/197
f 4/64/198 76/110/199 15/65/200 39/76/201 24/75/202
f 76/108/203 78/114/204 79/117/205 3/3/206
f 30/40/207 75/106/208 19/35/209
f 30/40/210 13/33/211 75/106/212
f 31/41/213 20/36/214 75/106/215
f 75/106/216 20/36/217 5/25/218
f 27/94/219 77/113/220 14/83/221
f 78/114/222 77/111/223 6/6/224 75/107/225
f 79/117/226 78/114/227 75/107/228 5/15/229
f 21/37/230 79/116/231 5/30/232
f 16/34/233 79/116/234 36/46/235
f 36/46/236 79/116/237 21/37/238
f 22/38/239 79/116/240 35/45/241
f 3/29/242 79/116/243 22/38/244
f 14/83/245 77/113/246 26/88/247
f 27/94/248 18/89/249 77/113/250
f 26/88/251 77/113/252 17/92/253
f 77/113/254 18/89/255 6/84/256
f 80/119/257 77/112/258 4/4/259 2/23/260
f 73/102/261 81/120/262 80/118/263 2/10/264
f 1/9/265 82/122/266 81/120/267 73/102/268
f 79/115/269 82/121/270 1/1/271 3/22/272
