# This file uses centimeters as units for non-parametric coordinates.

g default
v 0.172772 0.000000 -2.460691
v 1.186405 1.929296 -2.460691
v 1.186405 1.929296 -2.372809
v 1.318227 2.180207 -2.372809
v 1.318227 2.180207 -0.263645
v 1.186405 1.929296 -0.263645
v 1.186405 1.929296 -0.175764
v 0.172772 0.000000 -0.175764
v 0.659114 0.000000 -2.460691
v 1.186405 1.409642 -2.460691
v 0.659114 0.000000 -2.636455
v 1.186405 1.409642 -2.636455
v 1.450050 1.409642 -2.636455
v 1.318227 1.762057 -2.636455
v 0.000000 0.000000 -2.636455
v 1.186405 2.258141 -2.636455
v 1.450050 2.258141 -2.636455
v 2.636455 0.000000 -2.636455
v 1.977341 0.000000 -2.636455
v 1.186405 0.000000 -2.636455
v 1.450050 0.000000 -2.636455
v 1.186405 0.000000 -2.372809
v 1.450050 0.000000 -2.372809
v 1.450050 1.929296 -2.372809
v 1.450050 1.409642 -2.460691
v 1.450050 1.929296 -2.460691
v 1.977341 0.000000 -2.460691
v 2.463679 0.000000 -2.460691
v 2.463679 0.000000 -0.175764
v 1.450050 1.929296 -0.175764
v 1.450050 1.929296 -0.263645
v 2.636455 0.000000 0.000000
v 1.450050 0.000000 0.000000
v 1.450050 0.000000 -0.175764
v 1.450050 2.258141 0.000000
v 1.450050 2.258141 -2.372809
v 1.318227 2.509053 -2.372809
v 1.318227 2.509053 -0.263645
v 1.450050 2.258141 -0.263645
v 1.450050 2.509053 -2.372809
v 1.450050 2.509053 -2.636455
v 1.186405 2.509053 -2.372809
v 1.186405 2.509053 -2.636455
v 1.186405 2.258141 -2.372809
v 0.786936 1.497814 -1.979275
v 0.596672 1.135679 -1.844780
v 0.659228 1.254742 -1.435699
v 0.806225 1.534531 -0.705538
v 0.000000 0.000000 0.000000
v 1.186405 2.258141 -0.263645
v 1.186405 2.258141 0.000000
v 1.186405 0.000000 0.000000
v 1.186405 0.000000 -0.175764
v 1.186405 0.000000 -0.263645
v 1.450050 0.000000 -0.263645
v 1.450050 2.509053 0.000000
v 1.186405 2.509053 0.000000
v 1.186405 2.509053 -0.263645
v 1.450050 2.509053 -0.263645
v 1.031574 1.963447 -0.619234
v 1.074584 2.045309 -1.138351
v 0.849233 1.616393 -1.224660
v 0.849491 1.616885 -1.570202
vt 0.230383 0.446376
vt 0.230383 0.118653
vt 0.231897 0.118653
vt 0.231897 0.058013
vt 0.268226 0.058013
vt 0.268226 0.118653
vt 0.269739 0.118653
vt 0.269739 0.446376
vt 0.258182 0.446376
vt 0.244287 0.190607
vt 0.244287 0.058013
vt 0.270997 0.446376
vt 0.257258 0.056287
vt 0.257258 0.449251
vt 0.233875 0.449251
vt 0.233875 0.056287
vt 0.466538 0.638876
vt 0.446785 0.619898
vt 0.267842 0.182010
vt 0.253947 0.446376
vt 0.236579 0.446376
vt 0.427032 0.560726
vt 0.233487 0.058013
vt 0.264751 0.446376
vt 0.247382 0.446376
vt 0.427032 0.818107
vt 0.466538 0.818107
vt 0.427711 0.818107
vt 0.427710 0.584827
vt 0.440881 0.584827
vt 0.440881 0.638876
vt 0.467218 0.638876
vt 0.467218 0.818107
vt 0.428769 0.818107
vt 0.428769 0.584827
vt 0.448522 0.548784
vt 0.468275 0.818107
vt 0.429373 0.818107
vt 0.429373 0.638876
vt 0.455711 0.638876
vt 0.455711 0.584827
vt 0.468881 0.584827
vt 0.468881 0.818107
vt 0.257258 0.056287
vt 0.257258 0.449251
vt 0.233875 0.449251
vt 0.233875 0.056287
vt 0.235602 0.446376
vt 0.262313 0.175957
vt 0.248418 0.446376
vt 0.231386 0.058013
vt 0.267715 0.058013
vt 0.267715 0.125941
vt 0.269229 0.125941
vt 0.269229 0.446376
vt 0.229872 0.446376
vt 0.229872 0.125941
vt 0.231386 0.125941
vt 0.206518 0.469128
vt 0.245213 0.469128
vt 0.245213 0.470160
vt 0.212153 0.470160
vt 0.212153 0.483572
vt 0.228015 0.483572
vt 0.228015 0.484604
vt 0.206518 0.484604
vt 0.230546 0.446376
vt 0.428214 0.566319
vt 0.227926 0.446376
vt 0.227926 0.058013
vt 0.232467 0.058013
vt 0.232467 0.058013
vt 0.268796 0.058013
vt 0.268796 0.058013
vt 0.273337 0.058013
vt 0.273337 0.446376
vt 0.477400 0.525732
vt 0.477400 0.586635
vt 0.422955 0.586635
vt 0.422955 0.525732
vt 0.420972 0.525732
vt 0.448193 0.525732
vt 0.417587 0.967110
vt 0.454366 0.967110
vt 0.491145 0.967110
vt 0.491145 0.987876
vt 0.417587 0.987876
vt 0.475415 0.525732
vt 0.475415 0.586635
vt 0.474015 0.525732
vt 0.474015 0.586635
vt 0.419570 0.586635
vt 0.419570 0.525732
vt 0.466538 0.548784
vt 0.427032 0.548784
vt 0.272541 0.446376
vt 0.268000 0.058013
vt 0.272541 0.058013
vt 0.237415 0.014275
vt 0.258905 0.269229
vt 0.251859 0.249813
vt 0.239283 0.204189
vt 0.227130 0.446376
vt 0.231671 0.058013
vt 0.227130 0.058013
vt 0.264634 0.446376
vt 0.286873 0.470160
vt 0.253812 0.470160
vt 0.253812 0.469128
vt 0.292508 0.469128
vt 0.292508 0.484604
vt 0.271010 0.484604
vt 0.271010 0.483572
vt 0.286873 0.483572
vt 0.238077 0.446376
vt 0.264788 0.058013
vt 0.264788 0.446376
vt 0.470491 0.812357
vt 0.437508 0.812357
vt 0.437508 0.585264
vt 0.470491 0.585264
vt 0.245213 0.470675
vt 0.245213 0.469128
vt 0.253812 0.469128
vt 0.253812 0.470675
vt 0.429297 0.812357
vt 0.429297 0.585264
vt 0.462280 0.585264
vt 0.462280 0.812357
vt 0.446785 0.548784
vt 0.466538 0.584827
vt 0.466538 0.818107
vt 0.262816 0.446376
vt 0.410221 0.988625
vt 0.410221 0.967861
vt 0.483779 0.967861
vt 0.483779 0.988625
vt 0.447000 0.988625
vt 0.474479 0.525732
vt 0.474479 0.586635
vt 0.420036 0.586635
vt 0.420036 0.525732
vt 0.446843 0.525732
vt 0.268000 0.058013
vt 0.231671 0.058013
vt 0.288379 0.039455
vt 0.246738 0.120897
vt 0.248224 0.190840
vt 0.237427 0.037783
vt 0.417739 0.586635
vt 0.417739 0.525732
vt 0.474064 0.525732
vt 0.474064 0.586635
vt 0.419621 0.586635
vt 0.419621 0.525732
vt 0.468275 0.584827
vt 0.262313 0.058013
vt 0.261810 0.446376
vt 0.420972 0.586635
vt 0.233370 0.446376
vt 0.233370 0.058013
vt 0.427032 0.818107
vt 0.427032 0.584827
vt 0.236105 0.446376
vt 0.236105 0.058013
vt 0.428214 0.548784
vt 0.467721 0.548784
vt 0.467721 0.566319
vt 0.467721 0.818107
vt 0.428214 0.818107
vt 0.419621 0.586635
vt 0.419621 0.525732
vt 0.472182 0.525732
vt 0.472182 0.586635
vt 0.474064 0.525732
vt 0.474064 0.586635
vt 0.237796 0.134247
vt 0.288366 0.012589
vt 0.232273 0.012596
vt 0.232286 0.039463
vt 0.254176 0.190760
vt 0.448193 0.525732
vt 0.261222 0.210176
vt 0.283237 0.037777
vt 0.283224 0.014268
vt 0.233487 0.197362
vt 0.466538 0.560726
vt 0.427032 0.638876
vt 0.267842 0.058013
vt 0.261810 0.058013
vn 0.885256 -0.465104 -0.000000
vn 0.885256 -0.465104 -0.000000
vn 0.885256 -0.465104 -0.000000
vn 0.885256 -0.465104 -0.000000
vn 0.885256 -0.465104 -0.000000
vn 0.885256 -0.465104 -0.000000
vn 0.000000 -0.000000 1.000000
vn 0.000000 -0.000000 1.000000
vn 0.000000 -0.000000 1.000000
vn 0.000000 -0.000000 1.000000
vn 0.936619 -0.350351 0.000000
vn 0.936619 -0.350351 0.000000
vn 0.936619 -0.350351 0.000000
vn 0.936619 -0.350351 0.000000
vn -0.000000 -0.000000 -1.000000
vn -0.000000 -0.000000 -1.000000
vn -0.000000 -0.000000 -1.000000
vn -0.000000 -0.000000 -1.000000
vn -0.000000 0.000000 -1.000000
vn -0.000000 0.000000 -1.000000
vn -0.000000 0.000000 -1.000000
vn -1.000000 0.000000 0.000000
vn -1.000000 0.000000 0.000000
vn -1.000000 0.000000 0.000000
vn 0.000000 0.000000 1.000000
vn 0.000000 0.000000 1.000000
vn 0.000000 0.000000 1.000000
vn 1.000000 0.000000 0.000000
vn 1.000000 0.000000 0.000000
vn 1.000000 0.000000 0.000000
vn 1.000000 0.000000 0.000000
vn -0.936619 -0.350351 0.000000
vn -0.936619 -0.350351 0.000000
vn -0.936619 -0.350351 0.000000
vn -0.936619 -0.350351 0.000000
vn -0.000000 0.000000 1.000000
vn -0.000000 0.000000 1.000000
vn -0.000000 0.000000 1.000000
vn -0.000000 0.000000 1.000000
vn -0.885256 -0.465104 -0.000000
vn -0.885256 -0.465104 -0.000000
vn -0.885256 -0.465104 -0.000000
vn -0.000000 -1.000000 -0.000000
vn -0.000000 -1.000000 -0.000000
vn -0.000000 -1.000000 -0.000000
vn -0.000000 -1.000000 -0.000000
vn 0.000000 0.000000 1.000000
vn 0.000000 0.000000 1.000000
vn 0.000000 0.000000 1.000000
vn 0.885256 0.465104 0.000000
vn 0.885256 0.465104 0.000000
vn 0.885256 0.465104 0.000000
vn 0.885256 0.465104 0.000000
vn 1.000000 0.000000 0.000000
vn 1.000000 0.000000 0.000000
vn 1.000000 0.000000 0.000000
vn 1.000000 0.000000 0.000000
vn 0.000000 0.000000 1.000000
vn 0.000000 0.000000 1.000000
vn 0.000000 0.000000 1.000000
vn 0.000000 1.000000 0.000000
vn 0.000000 1.000000 0.000000
vn 0.000000 1.000000 0.000000
vn 0.000000 0.000000 1.000000
vn 0.000000 0.000000 1.000000
vn 0.000000 0.000000 1.000000
vn -1.000000 0.000000 0.000000
vn -1.000000 0.000000 0.000000
vn -1.000000 0.000000 0.000000
vn -1.000000 0.000000 0.000000
vn -0.000000 -0.000000 -1.000000
vn -0.000000 -0.000000 -1.000000
vn -0.000000 -0.000000 -1.000000
vn -0.000000 -0.000000 -1.000000
vn -0.885256 0.465104 0.000000
vn -0.885256 0.465104 0.000000
vn -0.885256 0.465104 0.000000
vn -0.885256 0.465104 0.000000
vn -0.885256 0.465104 0.000000
vn -0.885256 0.465104 0.000000
vn -0.885256 0.465104 0.000000
vn -0.885256 0.465104 0.000000
vn -0.885256 0.465104 0.000000
vn -0.885256 0.465104 0.000000
vn -0.885256 0.465104 0.000000
vn -0.885256 0.465104 0.000000
vn -0.885256 0.465104 0.000000
vn -0.885256 0.465104 0.000000
vn -0.885256 0.465104 0.000000
vn -0.885256 0.465104 0.000000
vn -0.885256 0.465104 0.000000
vn -0.885256 0.465104 0.000000
vn -0.885256 0.465104 0.000000
vn -0.885256 0.465104 0.000000
vn -0.885256 0.465104 0.000000
vn -0.885256 0.465104 0.000000
vn -0.885256 0.465104 0.000000
vn -0.885256 0.465104 0.000000
vn 0.000000 0.000000 1.000000
vn 0.000000 0.000000 1.000000
vn 0.000000 0.000000 1.000000
vn 0.000000 -1.000000 -0.000000
vn 0.000000 -1.000000 -0.000000
vn 0.000000 -1.000000 -0.000000
vn 0.000000 -1.000000 -0.000000
vn 0.000000 0.000000 -1.000000
vn 0.000000 0.000000 -1.000000
vn 0.000000 0.000000 -1.000000
vn -1.000000 0.000000 0.000000
vn -1.000000 0.000000 0.000000
vn -1.000000 0.000000 0.000000
vn -1.000000 0.000000 0.000000
vn 0.000000 -1.000000 0.000000
vn 0.000000 -1.000000 0.000000
vn 0.000000 -1.000000 0.000000
vn 0.000000 -1.000000 0.000000
vn 1.000000 0.000000 0.000000
vn 1.000000 0.000000 0.000000
vn 1.000000 0.000000 0.000000
vn 1.000000 0.000000 0.000000
vn 0.000000 0.000000 -1.000000
vn 0.000000 0.000000 -1.000000
vn 0.000000 0.000000 -1.000000
vn 0.000000 0.000000 -1.000000
vn 0.000000 0.000000 -1.000000
vn 0.000000 0.000000 -1.000000
vn 0.000000 0.000000 1.000000
vn 0.000000 0.000000 1.000000
vn 0.000000 0.000000 1.000000
vn 0.000000 0.000000 1.000000
vn 0.000000 1.000000 0.000000
vn 0.000000 1.000000 0.000000
vn 0.000000 1.000000 0.000000
vn 0.000000 1.000000 0.000000
vn -1.000000 0.000000 0.000000
vn -1.000000 0.000000 0.000000
vn -1.000000 0.000000 0.000000
vn -1.000000 0.000000 0.000000
vn 0.000000 0.000000 -1.000000
vn 0.000000 0.000000 -1.000000
vn 0.000000 0.000000 -1.000000
vn -0.885256 0.465104 0.000000
vn -0.885256 0.465104 0.000000
vn -0.885256 0.465104 0.000000
vn -0.885256 0.465104 0.000000
vn -0.885256 0.465104 0.000000
vn -0.885256 0.465104 0.000000
vn -0.885256 0.465104 0.000000
vn -0.885256 0.465104 0.000000
vn -0.885256 0.465104 0.000000
vn -0.885256 0.465104 0.000000
vn -0.885256 0.465104 0.000000
vn -0.885256 0.465104 0.000000
vn -0.885256 0.465104 0.000000
vn -0.885256 0.465104 0.000000
vn -0.885256 0.465104 0.000000
vn -0.885256 0.465104 0.000000
vn -0.885256 0.465104 0.000000
vn -0.885256 0.465104 0.000000
vn -0.885256 0.465104 0.000000
vn -0.885256 0.465104 0.000000
vn -0.885256 0.465104 0.000000
vn -0.885256 0.465104 -0.000000
vn -0.885256 0.465104 -0.000000
vn -0.885256 0.465104 -0.000000
vn -0.885256 0.465104 -0.000000
vn -0.885256 0.465104 0.000000
vn -0.885256 0.465104 0.000000
vn -0.885256 0.465104 0.000000
vn -0.885256 0.465104 0.000000
vn -0.885256 0.465104 0.000000
vn -0.885256 0.465104 0.000000
vn -0.885256 0.465104 0.000000
vn -0.885256 0.465104 0.000000
vn -0.885256 0.465104 0.000000
vn -0.885256 0.465104 0.000000
vn -0.885256 0.465104 0.000000
vn -0.885256 0.465104 0.000000
vn -0.885256 0.465104 0.000000
vn 1.000000 0.000000 0.000000
vn 1.000000 0.000000 0.000000
vn 1.000000 0.000000 0.000000
vn 1.000000 0.000000 0.000000
vn 0.000000 0.000000 -1.000000
vn 0.000000 0.000000 -1.000000
vn 0.000000 0.000000 -1.000000
vn 0.000000 -1.000000 0.000000
vn 0.000000 -1.000000 0.000000
vn 0.000000 -1.000000 0.000000
vn 0.000000 -1.000000 0.000000
vn -0.000000 0.000000 -1.000000
vn -0.000000 0.000000 -1.000000
vn -0.000000 -0.000000 -1.000000
vn -0.000000 -0.000000 -1.000000
vn -0.000000 -0.000000 -1.000000
vn 0.000000 1.000000 0.000000
vn 0.000000 1.000000 0.000000
vn 0.000000 1.000000 0.000000
vn 0.000000 0.000000 1.000000
vn 0.000000 0.000000 1.000000
vn 0.885256 0.465104 0.000000
vn 0.885256 0.465104 0.000000
vn 0.885256 0.465104 0.000000
vn 0.885256 0.465104 0.000000
vn -0.000000 -0.000000 -1.000000
vn -0.000000 -0.000000 -1.000000
vn 0.000000 -1.000000 0.000000
vn 0.000000 -1.000000 0.000000
vn 0.000000 0.000000 -1.000000
vn 0.000000 0.000000 -1.000000
vn -0.885256 -0.465104 -0.000000
vn -0.885256 -0.465104 -0.000000
vn -0.885256 -0.465104 -0.000000
vn 0.885256 -0.465104 -0.000000
vn 0.885256 -0.465104 -0.000000
vn -0.000000 -1.000000 -0.000000
vn -0.000000 -1.000000 -0.000000
vn -0.885256 -0.465104 -0.000000
vn -0.885256 -0.465104 -0.000000
vn -0.000000 -1.000000 -0.000000
vn -0.000000 -1.000000 -0.000000
vn 0.000000 -1.000000 -0.000000
vn 0.000000 -1.000000 -0.000000
vn 0.000000 -1.000000 -0.000000
vn 0.000000 -1.000000 -0.000000
vn -1.000000 0.000000 0.000000
vn 0.000000 0.000000 1.000000
vn 0.000000 0.000000 1.000000
vn 1.000000 0.000000 0.000000
vn 1.000000 0.000000 0.000000
vn -1.000000 0.000000 0.000000
vn -1.000000 0.000000 0.000000
s 1
g Tent_Poles_01:Mesh1Tent_PolesModel landscape_pack
f 1/1/1 2/2/2 3/3/3 6/6/4 7/7/5 8/8/6
s off
f 9/9/7 10/10/8 2/11/9 1/12/10
f 11/13/11 12/14/12 10/15/13 9/16/14
s 2
f 13/186/15 17/23/16 18/24/17 19/25/18
s 3
f 13/17/19 12/188/20 14/18/21
s 4
f 10/31/22 3/29/23 2/30/24
s 5
f 3/156/25 24/35/26 4/36/27
s 6
f 21/38/28 13/39/29 25/40/30 23/43/31
s off
f 27/44/32 25/45/33 13/46/34 19/47/35
f 28/48/36 26/157/37 25/49/38 27/50/39
s 7
f 28/55/40 24/53/41 26/54/42
s 8
f 32/59/43 29/62/44 28/63/45 18/66/46
s off
f 32/67/47 35/190/48 33/158/49
s 9
f 39/74/50 36/71/51 37/72/52 38/73/53
s off
f 40/77/54 36/78/55 17/79/56 41/80/57
f 40/81/58 37/82/59 36/159/60
s 10
f 42/83/61 37/84/62 43/87/63
s off
f 42/88/64 44/89/65 37/182/66
f 43/90/67 16/91/68 44/92/69 42/93/70
f 41/94/71 17/187/72 16/22/73 43/95/74
f 15/96/75 44/97/76 16/98/77
f 15/96/78 45/183/79 44/97/80
f 15/96/81 46/100/82 45/183/83
f 15/96/84 47/101/85 46/100/86
f 15/96/87 48/102/88 47/101/89
f 49/103/90 48/102/91 15/96/92
f 49/103/93 50/104/94 48/102/95
f 50/104/96 49/103/97 51/105/98
f 49/106/99 52/160/100 51/161/101
s 11
f 1/114/102 15/111/103 11/112/104 9/113/105
s off
f 8/115/106 7/116/107 53/117/108
f 54/118/109 53/119/110 7/120/111 6/121/112
s 12
f 55/122/113 34/61/114 53/108/115 54/125/116
s off
f 55/126/117 31/127/118 30/128/119 34/129/120
s 13
f 31/131/121 6/163/122 5/130/123
s off
f 29/133/124 34/164/125 30/165/126
s 14
f 56/166/127 57/167/128 51/168/129 35/68/130
s 15
f 38/138/131 57/135/132 56/136/133 59/137/134
s off
f 58/139/135 50/140/136 51/141/137 57/142/138
f 50/171/139 58/172/140 38/143/141
f 37/144/142 50/104/143 38/145/144
f 50/104/145 37/144/146 60/177/147
f 60/177/148 37/144/149 61/147/150
f 61/147/151 37/144/152 62/148/153
f 62/148/154 37/144/155 63/181/156
f 63/181/157 37/144/158 45/183/159
f 44/97/160 45/183/161 37/144/162
f 45/99/163 46/185/164 47/184/165 63/149/166
f 62/148/167 63/181/168 47/101/169
f 47/101/170 48/102/171 62/148/172
f 61/180/173 62/179/174 48/178/175 60/146/176
f 48/102/177 50/104/178 60/177/179
f 56/173/180 35/174/181 39/150/182 59/151/183
f 38/143/184 59/175/185 39/176/186
f 21/152/187 23/153/188 22/154/189 20/155/190
s 3
f 20/26/191 12/188/20 13/17/19 21/27/192
s 2
f 16/22/193 14/18/194 12/188/195
f 17/187/16 14/18/194 16/22/193
s 10
f 43/87/63 37/84/62 40/85/196 41/86/197
s 15
f 58/134/198 57/135/132 38/138/131
s 14
f 35/68/130 51/168/129 52/169/199 33/170/200
s 9
f 18/69/201 17/70/202 36/71/51
f 18/69/201 39/74/50 35/75/203 32/76/204
f 18/69/201 36/71/51 39/74/50
s 2
f 16/189/193 12/19/195 11/20/205 15/21/206
f 13/17/15 14/18/194 17/187/16
s 12
f 53/108/115 34/61/114 33/123/207 52/124/208
s 13
f 54/162/209 6/163/122 31/131/121 55/132/210
s 7
f 5/51/211 4/52/212 24/53/41 31/58/213
s 1
f 6/6/4 3/3/3 4/4/214 5/5/215
s 8
f 18/66/46 28/63/45 27/64/216 19/65/217
s 7
f 31/58/213 29/56/218 30/57/219
s 8
f 32/59/43 33/60/220 34/61/221 29/62/44
s 7
f 31/58/213 24/53/41 28/55/40 29/56/218
s 11
f 8/107/222 53/108/223 52/109/224 49/110/225
f 8/107/222 49/110/225 15/111/103 1/114/102
s 4
f 22/28/226 3/29/23 10/31/22
s 5
f 23/34/227 24/35/26 3/156/25 22/37/228
s 6
f 24/42/229 25/40/30 26/41/230
f 23/43/31 25/40/30 24/42/229
s 4
f 22/28/226 10/31/22 12/32/231 20/33/232
