# This file uses centimeters as units for non-parametric coordinates.

g default
v -3.000000 0.000000 3.721051
v -3.000000 0.239296 3.721051
v -2.721052 0.000000 4.000000
v -2.721052 0.239296 4.000000
v -2.721052 0.000000 1.000000
v -0.270151 0.000000 1.000000
v -2.721052 0.239296 1.000000
v -0.270151 0.239296 1.000000
v -0.270151 0.000000 4.000000
v -0.270151 0.239296 4.000000
v -0.000000 0.000000 3.721051
v -0.000000 0.000000 1.270147
v -0.521492 0.000000 3.469705
v -2.469705 0.000000 3.469705
v -2.469705 0.000000 1.521492
v -0.521492 0.000000 1.521492
v -3.000000 0.000000 1.270147
v -0.000000 0.239296 3.721051
v -0.521492 0.119648 1.521492
v -0.521492 0.119648 3.469705
v -0.521492 0.239296 1.521492
v -0.521492 0.239296 3.469705
v -2.469705 0.119648 1.521492
v -2.469705 0.239296 1.521492
v -3.000000 0.239296 1.270147
v -0.000000 0.239296 1.270147
v -2.469705 0.119648 3.469705
v -2.469705 0.239296 3.469705
v -0.270151 0.239296 1.270147
v -2.721052 0.239296 1.270147
v -2.721052 0.239296 3.721051
v -0.270151 0.239296 3.721051
vt 0.107531 0.505330
vt 0.115350 0.505330
vt 0.107531 0.529277
vt 0.115350 0.529277
vt 0.115350 0.505330
vt 0.115350 0.529277
vt 0.186293 0.505330
vt 0.186293 0.529277
vt 0.186293 0.505330
vt 0.186293 0.529277
vt 0.194113 0.505330
vt 0.194113 0.505330
vt 0.179018 0.505330
vt 0.122626 0.505330
vt 0.122626 0.505330
vt 0.179018 0.505330
vt 0.107531 0.505330
vt 0.194113 0.529277
vt 0.179018 0.517304
vt 0.179018 0.517304
vt 0.179018 0.529277
vt 0.179018 0.529277
vt 0.122626 0.517304
vt 0.122626 0.529277
vt 0.107531 0.529277
vt 0.194113 0.529277
vt 0.122626 0.517304
vt 0.122626 0.529277
vt 0.186293 0.529277
vt 0.115350 0.529277
vt 0.115350 0.529277
vt 0.186293 0.529277
vt 0.982120 0.574343
vt 0.918373 0.510597
vt 0.918373 0.574343
vt 0.982120 0.510597
vt 0.982463 0.325026
vt 0.985965 0.328528
vt 0.982464 0.267421
vt 0.924859 0.267422
vt 0.985966 0.263919
vt 0.985965 0.263920
vt 0.921357 0.263920
vt 0.985966 0.328529
vt 0.921357 0.263920
vt 0.985966 0.263920
vt 0.985966 0.328529
vt 0.921356 0.263919
vt 0.985966 0.263919
vt 0.924859 0.267422
vt 0.982463 0.267422
vt 0.982463 0.325026
vt 0.924858 0.267421
vt 0.982464 0.325027
vt 0.982463 0.267422
vt 0.982463 0.325026
vt 0.921356 0.263919
vt 0.985966 0.328529
vt 0.924859 0.267422
vt 0.982463 0.267422
vn -0.709804 0.003922 0.704388
vn -0.709804 0.003922 0.704388
vn -0.709804 0.003922 0.704388
vn -0.709804 0.003922 0.704388
vn -0.003922 0.003922 -0.999985
vn -0.003922 0.003922 -0.999985
vn -0.003922 0.003922 -0.999985
vn -0.003922 0.003922 -0.999985
vn -0.003922 0.003922 0.999985
vn -0.003922 0.003922 0.999985
vn -0.003922 0.003922 0.999985
vn -0.003922 0.003922 0.999985
vn -0.003922 -0.999992 0.000000
vn -0.003922 -0.999992 0.000000
vn -0.003922 -0.999992 0.000000
vn -0.003922 -0.999992 0.000000
vn -0.003922 -0.999992 0.000000
vn -0.003922 -0.999992 0.000000
vn -0.003922 -0.999992 0.000000
vn -0.003922 -0.999992 0.000000
vn -0.003922 -0.999992 0.000000
vn -0.003922 -0.999992 0.000000
vn -0.003922 -0.999992 0.000000
vn -0.003922 -0.999992 0.000000
vn 0.709804 0.003922 0.704388
vn 0.709804 0.003922 0.704388
vn 0.709804 0.003922 0.704388
vn 0.709804 0.003922 0.704388
vn -0.999992 0.003922 0.000000
vn -0.999992 0.003922 0.000000
vn -0.999992 0.003922 0.000000
vn -0.999992 0.003922 0.000000
vn -0.999992 0.003922 0.000000
vn -0.999992 0.003922 0.000000
vn -0.999992 0.003922 0.000000
vn -0.999992 0.003922 0.000000
vn -0.003922 0.003922 0.999985
vn -0.003922 0.003922 0.999985
vn -0.003922 0.003922 0.999985
vn -0.003922 0.003922 0.999985
vn -0.003922 0.003922 0.999985
vn -0.003922 0.003922 0.999985
vn -0.003922 0.003922 0.999985
vn -0.003922 0.003922 0.999985
vn -0.999992 0.003922 0.000000
vn -0.999992 0.003922 0.000000
vn -0.999992 0.003922 0.000000
vn -0.999992 0.003922 0.000000
vn 0.999992 0.003922 0.000000
vn 0.999992 0.003922 0.000000
vn 0.999992 0.003922 0.000000
vn 0.999992 0.003922 0.000000
vn 0.999992 0.003922 0.000000
vn 0.999992 0.003922 0.000000
vn 0.999992 0.003922 0.000000
vn 0.999992 0.003922 0.000000
vn 0.999992 0.003922 0.000000
vn 0.999992 0.003922 0.000000
vn 0.999992 0.003922 0.000000
vn 0.999992 0.003922 0.000000
vn -0.709804 0.003922 -0.704388
vn -0.709804 0.003922 -0.704388
vn -0.709804 0.003922 -0.704388
vn -0.709804 0.003922 -0.704388
vn 0.709804 0.003922 -0.704388
vn 0.709804 0.003922 -0.704388
vn 0.709804 0.003922 -0.704388
vn 0.709804 0.003922 -0.704388
vn -0.003922 0.999992 0.000000
vn -0.003922 0.999992 0.000000
vn -0.003922 0.999992 0.000000
vn -0.003922 0.999992 0.000000
vn -0.003922 0.999992 0.000000
vn -0.003922 0.999992 0.000000
vn -0.003922 0.999992 0.000000
vn -0.003922 0.999992 0.000000
vn -0.003922 0.999992 0.000000
vn -0.003922 0.999992 0.000000
vn -0.003922 0.999992 0.000000
vn -0.003922 0.999992 0.000000
vn -0.003922 0.999992 0.000000
vn -0.003922 0.999992 0.000000
vn -0.003922 0.999992 0.000000
vn -0.003922 0.999992 0.000000
vn -0.003922 0.999992 0.000000
vn -0.003922 0.999992 0.000000
vn -0.003922 0.999992 0.000000
vn -0.003922 0.999992 0.000000
vn -0.003922 0.999992 0.000000
vn -0.003922 0.999992 0.000000
vn -0.003922 0.999992 0.000000
vn -0.003922 0.999992 0.000000
vn -0.003922 0.999992 0.000000
vn -0.003922 0.999992 0.000000
vn -0.003922 0.999992 0.000000
vn -0.003922 0.999992 0.000000
vn -0.003922 0.999992 0.000000
vn -0.003922 0.999992 0.000000
vn -0.003922 0.999992 0.000000
vn -0.003922 0.999992 0.000000
vn -0.003922 0.003922 -0.999985
vn -0.003922 0.003922 -0.999985
vn -0.003922 0.003922 -0.999985
vn -0.003922 0.003922 -0.999985
vn -0.003922 0.003922 -0.999985
vn -0.003922 0.003922 -0.999985
vn -0.003922 0.003922 -0.999985
vn -0.003922 0.003922 -0.999985
vn -0.003922 0.999992 0.000000
vn -0.003922 0.999992 0.000000
vn -0.003922 0.999992 0.000000
vn -0.003922 0.999992 0.000000
vn -0.003922 0.999992 0.000000
vn -0.003922 0.999992 0.000000
vn -0.003922 0.999992 0.000000
vn -0.003922 0.999992 0.000000
vn -0.003922 0.999992 0.000000
vn -0.003922 0.999992 0.000000
vn -0.003922 0.999992 0.000000
vn -0.003922 0.999992 0.000000
vn -0.003922 0.999992 0.000000
vn -0.003922 0.999992 0.000000
vn -0.003922 0.999992 0.000000
vn -0.003922 0.999992 0.000000
vn -0.003922 0.999992 0.000000
vn -0.003922 0.999992 0.000000
vn -0.003922 0.999992 0.000000
vn -0.003922 0.999992 0.000000
vn -0.003922 0.999992 0.000000
vn -0.003922 0.999992 0.000000
vn -0.003922 0.999992 0.000000
vn -0.003922 0.999992 0.000000
vn 0.003922 0.999992 0.000000
vn 0.003922 0.999992 0.000000
vn 0.003922 0.999992 0.000000
vn 0.003922 0.999992 0.000000
vn 0.003922 0.999992 0.000000
vn 0.003922 0.999992 0.000000
s 1
g metalTile group1
f 1/1/1 3/2/2 2/3/3
f 4/4/4 2/3/3 3/2/2
s 2
f 5/5/5 7/6/6 6/7/7
f 8/8/8 6/7/7 7/6/6
s 3
f 9/9/9 10/10/10 3/2/11
f 4/4/12 3/2/11 10/10/10
s 4
f 11/11/13 9/9/14 12/12/15
f 6/7/16 12/12/15 9/9/14
f 13/13/17 6/7/16 9/9/14
f 3/2/18 13/13/17 9/9/14
f 14/14/19 13/13/17 3/2/18
f 15/15/20 14/14/19 3/2/18
f 13/13/17 16/16/21 6/7/16
f 5/5/22 6/7/16 16/16/21
f 15/15/20 5/5/22 16/16/21
f 3/2/18 5/5/22 15/15/20
f 1/1/23 5/5/22 3/2/18
f 17/17/24 5/5/22 1/1/23
s 5
f 18/18/25 10/10/26 11/11/27
f 9/9/28 11/11/27 10/10/26
s 6
f 16/16/29 13/13/30 19/19/31
f 20/20/32 19/19/31 13/13/30
s 7
f 19/19/33 20/20/34 21/21/35
f 22/22/36 21/21/35 20/20/34
s 8
f 16/16/37 19/19/38 15/15/39
f 23/23/40 15/15/39 19/19/38
s 9
f 19/19/41 21/21/42 23/23/43
f 24/24/44 23/23/43 21/21/42
s 10
f 17/17/45 1/1/46 25/25/47
f 2/3/48 25/25/47 1/1/46
s 11
f 26/26/49 18/18/50 12/12/51
f 11/11/52 12/12/51 18/18/50
s 12
f 23/23/53 27/27/54 15/15/55
f 14/14/56 15/15/55 27/27/54
s 13
f 27/27/57 23/23/58 28/28/59
f 24/24/60 28/28/59 23/23/58
s 14
f 5/5/61 17/17/62 7/6/63
f 25/25/64 7/6/63 17/17/62
s 15
f 8/8/65 26/26/66 6/7/67
f 12/12/68 6/7/67 26/26/66
s off
f 8/8/69 7/6/70 29/29/71
f 30/30/72 29/29/73 7/6/74
f 25/25/75 30/30/76 7/6/77
f 31/31/78 30/30/79 25/25/80
s 16
f 4/4/81 31/31/82 25/25/83
f 2/3/84 4/4/81 25/25/83
s off
f 29/29/85 10/10/86 8/8/87
f 4/4/88 10/10/89 31/31/90
s 17
f 10/10/91 18/18/92 8/8/93
f 26/26/94 8/8/93 18/18/92
s off
f 32/32/95 10/10/96 29/29/97
f 31/31/98 10/10/99 32/32/100
s 18
f 27/27/101 28/28/102 20/20/103
f 22/22/104 20/20/103 28/28/102
s 19
f 20/20/105 13/13/106 27/27/107
f 14/14/108 27/27/107 13/13/106
s off
f 32/45/109 29/46/110 21/47/111
f 30/48/112 21/49/113 29/44/114
f 24/50/115 21/51/116 30/52/117
f 28/53/118 24/39/119 30/54/120
f 21/40/121 22/55/122 32/56/123
f 31/57/124 32/41/125 22/58/126
f 28/59/127 31/60/128 22/37/129
f 30/43/130 31/42/131 28/38/132
f 23/36/133 20/35/134 19/34/135
f 20/35/136 23/36/137 27/33/138
