# This file uses centimeters as units for non-parametric coordinates.

g default
v 6.000000 0.000000 -6.000001
v 6.000000 0.000000 -0.000001
v 0.000001 0.000000 -6.000001
v 0.000001 0.000000 -0.000001
v 6.000000 0.666667 -0.000001
v 6.000000 0.666667 -6.000001
v 0.000001 0.666667 -6.000001
v 0.000001 0.666667 -0.000001
vt 0.113709 0.005492
vt 0.113709 0.038597
vt 0.192474 0.005492
vt 0.192474 0.038597
vt 0.113709 0.038597
vt 0.113709 0.005492
vt 0.192474 0.005492
vt 0.192474 0.038597
vt 0.113709 0.038597
vt 0.113709 0.005492
vt 0.192474 0.005492
vt 0.192474 0.038597
vn 0.000000 1.000000 0.000000
vn 0.000000 1.000000 0.000000
vn 0.000000 1.000000 0.000000
vn 0.000000 1.000000 0.000000
vn 0.000000 -1.000000 0.000000
vn 0.000000 -1.000000 0.000000
vn 0.000000 -1.000000 0.000000
vn 0.000000 -1.000000 0.000000
vn 1.000000 0.000000 0.000000
vn 1.000000 0.000000 0.000000
vn 1.000000 0.000000 0.000000
vn 1.000000 0.000000 0.000000
vn 0.000000 0.000000 -1.000000
vn 0.000000 0.000000 -1.000000
vn 0.000000 0.000000 -1.000000
vn 0.000000 0.000000 -1.000000
vn -1.000000 0.000000 0.000000
vn -1.000000 0.000000 0.000000
vn -1.000000 0.000000 0.000000
vn -1.000000 0.000000 0.000000
vn 0.000000 0.000000 1.000000
vn 0.000000 0.000000 1.000000
vn 0.000000 0.000000 1.000000
vn 0.000000 0.000000 1.000000
s off
g groundTile group1
f 5/9/1 6/10/2 7/11/3 8/12/4
f 2/5/5 4/8/6 3/7/7 1/6/8
f 2/2/9 1/1/10 6/10/11 5/9/12
f 1/1/13 3/3/14 7/11/15 6/10/16
f 3/3/17 4/4/18 8/12/19 7/11/20
f 4/4/21 2/2/22 5/9/23 8/12/24
