# This file uses centimeters as units for non-parametric coordinates.

g default
v 0.638989 -1.211435 1.106744
v -0.638971 -1.211435 1.106744
v 0.863493 -0.658064 1.495600
v -0.863475 -0.658064 1.495600
v -0.319476 -1.465688 0.553373
v -0.638971 -1.465688 0.000002
v -1.277941 -1.211435 0.000002
v -1.726968 0.658064 0.000002
v -1.277941 1.211435 0.000002
v -0.863475 0.658064 1.495600
v -0.638971 1.211435 1.106744
v -0.863475 0.658064 -1.495599
v -0.638971 1.211435 -1.106744
v -0.319476 1.465688 -0.553373
v -0.638971 1.465688 0.000002
v -0.863475 -0.658064 -1.495599
v -1.726968 -0.658064 0.000002
v -0.319476 -1.465688 -0.553373
v -0.638971 -1.211435 -1.106744
v 1.277959 -1.211435 0.000002
v 0.638989 -1.211435 -1.106744
v 0.638989 -1.465688 0.000002
v 0.319494 -1.465688 -0.553373
v 0.638989 1.465688 0.000002
v 0.319494 1.465688 0.553373
v 0.319494 1.465688 -0.553373
v -0.319476 1.465688 0.553373
v 0.638989 1.211435 -1.106744
v 0.863493 0.658064 -1.495599
v 1.277959 1.211435 0.000002
v 0.638989 1.211435 1.106744
v 0.863493 -0.658064 -1.495599
v 0.319494 -1.465688 0.553373
v 1.726986 -0.658064 0.000002
v 1.726986 0.658064 0.000002
v 0.863493 0.658064 1.495600
vt 0.137356 0.459754
vt 0.132199 0.377283
vt 0.166707 0.459754
vt 0.171864 0.377283
vt 0.159370 0.497646
vt 0.166707 0.497646
vt 0.181384 0.459754
vt 0.191696 0.181135
vt 0.171864 0.181135
vt 0.181383 0.098664
vt 0.166707 0.098664
vt 0.171864 0.181135
vt 0.166707 0.098664
vt 0.159370 0.060772
vt 0.166707 0.060772
vt 0.171864 0.377283
vt 0.191696 0.377283
vt 0.159370 0.497646
vt 0.166707 0.459754
vt 0.122680 0.459754
vt 0.137356 0.497646
vt 0.137356 0.459754
vt 0.144694 0.497646
vt 0.137356 0.060772
vt 0.144694 0.060772
vt 0.144694 0.060772
vt 0.159370 0.060772
vt 0.137356 0.098664
vt 0.132199 0.181135
vt 0.122680 0.098664
vt 0.137356 0.098664
vt 0.132199 0.377283
vt 0.144694 0.497646
vt 0.112367 0.377283
vt 0.112367 0.181135
vt 0.132199 0.181135
vn -0.003922 -0.576471 0.817108
vn -0.003922 -0.576471 0.817108
vn -0.003922 -0.576471 0.817108
vn -0.003922 -0.576471 0.817108
vn -0.364706 -0.905882 0.215329
vn -0.364706 -0.905882 0.215329
vn -0.364706 -0.905882 0.215329
vn -0.364706 -0.905882 0.215329
vn -0.709804 0.576471 0.404796
vn -0.709804 0.576471 0.404796
vn -0.709804 0.576471 0.404796
vn -0.709804 0.576471 0.404796
vn -0.709804 0.576471 -0.404796
vn -0.709804 0.576471 -0.404796
vn -0.709804 0.576471 -0.404796
vn -0.709804 0.576471 -0.404796
vn -0.364706 0.905882 -0.215329
vn -0.364706 0.905882 -0.215329
vn -0.364706 0.905882 -0.215329
vn -0.364706 0.905882 -0.215329
vn -0.866667 0.003922 -0.498872
vn -0.866667 0.003922 -0.498872
vn -0.866667 0.003922 -0.498872
vn -0.866667 0.003922 -0.498872
vn -0.364706 -0.905882 -0.215329
vn -0.364706 -0.905882 -0.215329
vn -0.364706 -0.905882 -0.215329
vn -0.364706 -0.905882 -0.215329
vn 0.364706 -0.905882 -0.215329
vn 0.364706 -0.905882 -0.215329
vn 0.364706 -0.905882 -0.215329
vn 0.364706 -0.905882 -0.215329
vn -0.003922 0.999992 0.000000
vn -0.003922 0.999992 0.000000
vn -0.003922 0.999992 0.000000
vn -0.003922 0.999992 0.000000
vn -0.003922 0.999992 0.000000
vn -0.003922 0.999992 0.000000
vn -0.003922 0.905882 -0.423511
vn -0.003922 0.905882 -0.423511
vn -0.003922 0.905882 -0.423511
vn -0.003922 0.905882 -0.423511
vn -0.003922 0.576471 -0.817108
vn -0.003922 0.576471 -0.817108
vn -0.003922 0.576471 -0.817108
vn -0.003922 0.576471 -0.817108
vn 0.364706 0.905882 -0.215329
vn 0.364706 0.905882 -0.215329
vn 0.364706 0.905882 -0.215329
vn 0.364706 0.905882 -0.215329
vn -0.003922 0.905882 0.423511
vn -0.003922 0.905882 0.423511
vn -0.003922 0.905882 0.423511
vn -0.003922 0.905882 0.423511
vn -0.003922 0.003922 -0.999985
vn -0.003922 0.003922 -0.999985
vn -0.003922 0.003922 -0.999985
vn -0.003922 0.003922 -0.999985
vn -0.003922 -0.905882 0.423511
vn -0.003922 -0.905882 0.423511
vn -0.003922 -0.905882 0.423511
vn -0.003922 -0.905882 0.423511
vn -0.003922 -0.576471 -0.817108
vn -0.003922 -0.576471 -0.817108
vn -0.003922 -0.576471 -0.817108
vn -0.003922 -0.576471 -0.817108
vn 0.709804 -0.576471 0.404796
vn 0.709804 -0.576471 0.404796
vn 0.709804 -0.576471 0.404796
vn 0.709804 -0.576471 0.404796
vn -0.866667 0.003922 0.498872
vn -0.866667 0.003922 0.498872
vn -0.866667 0.003922 0.498872
vn -0.866667 0.003922 0.498872
vn -0.709804 -0.576471 -0.404796
vn -0.709804 -0.576471 -0.404796
vn -0.709804 -0.576471 -0.404796
vn -0.709804 -0.576471 -0.404796
vn 0.709804 0.576471 0.404796
vn 0.709804 0.576471 0.404796
vn 0.709804 0.576471 0.404796
vn 0.709804 0.576471 0.404796
vn -0.003922 -0.905882 -0.423511
vn -0.003922 -0.905882 -0.423511
vn -0.003922 -0.905882 -0.423511
vn -0.003922 -0.905882 -0.423511
vn 0.709804 0.576471 -0.404796
vn 0.709804 0.576471 -0.404796
vn 0.709804 0.576471 -0.404796
vn 0.709804 0.576471 -0.404796
vn 0.866667 0.003922 -0.498872
vn 0.866667 0.003922 -0.498872
vn 0.866667 0.003922 -0.498872
vn 0.866667 0.003922 -0.498872
vn 0.866667 0.003922 0.498872
vn 0.866667 0.003922 0.498872
vn 0.866667 0.003922 0.498872
vn 0.866667 0.003922 0.498872
vn 0.709804 -0.576471 -0.404796
vn 0.709804 -0.576471 -0.404796
vn 0.709804 -0.576471 -0.404796
vn 0.709804 -0.576471 -0.404796
vn -0.709804 -0.576471 0.404796
vn -0.709804 -0.576471 0.404796
vn -0.709804 -0.576471 0.404796
vn -0.709804 -0.576471 0.404796
vn -0.003922 -0.999992 0.000000
vn -0.003922 -0.999992 0.000000
vn -0.003922 -0.999992 0.000000
vn -0.003922 -0.999992 0.000000
vn -0.003922 -0.999992 0.000000
vn -0.003922 -0.999992 0.000000
vn -0.003922 0.576471 0.817108
vn -0.003922 0.576471 0.817108
vn -0.003922 0.576471 0.817108
vn -0.003922 0.576471 0.817108
vn 0.364706 -0.905882 0.215329
vn 0.364706 -0.905882 0.215329
vn 0.364706 -0.905882 0.215329
vn 0.364706 -0.905882 0.215329
vn 0.364706 0.905882 0.215329
vn 0.364706 0.905882 0.215329
vn 0.364706 0.905882 0.215329
vn 0.364706 0.905882 0.215329
vn -0.364706 0.905882 0.215329
vn -0.364706 0.905882 0.215329
vn -0.364706 0.905882 0.215329
vn -0.364706 0.905882 0.215329
vn -0.003922 0.003922 0.999985
vn -0.003922 0.003922 0.999985
vn -0.003922 0.003922 0.999985
vn -0.003922 0.003922 0.999985
vn 0.709804 0.576471 -0.404796
vn 0.709804 0.576471 -0.404796
vn 0.709804 0.576471 -0.404796
vn 0.709804 0.576471 -0.404796
vn 0.709804 0.576471 -0.404796
vn 0.709804 0.576471 -0.404796
vn 0.866667 0.003922 -0.498872
vn 0.866667 0.003922 -0.498872
vn 0.866667 0.003922 -0.498872
vn 0.866667 0.003922 -0.498872
vn 0.866667 0.003922 -0.498872
vn 0.866667 0.003922 -0.498872
vn 0.866667 0.003922 0.498872
vn 0.866667 0.003922 0.498872
vn 0.866667 0.003922 0.498872
vn 0.866667 0.003922 0.498872
vn 0.866667 0.003922 0.498872
vn 0.866667 0.003922 0.498872
vn 0.709804 -0.576471 -0.404796
vn 0.709804 -0.576471 -0.404796
vn 0.709804 -0.576471 -0.404796
vn 0.709804 -0.576471 -0.404796
vn 0.709804 -0.576471 -0.404796
vn 0.709804 -0.576471 -0.404796
vn -0.709804 -0.576471 0.404796
vn -0.709804 -0.576471 0.404796
vn -0.709804 -0.576471 0.404796
vn -0.709804 -0.576471 0.404796
vn -0.709804 -0.576471 0.404796
vn -0.709804 -0.576471 0.404796
vn -0.003922 -0.999992 0.000000
vn -0.003922 -0.999992 0.000000
vn -0.003922 -0.999992 0.000000
vn -0.003922 -0.999992 0.000000
vn -0.003922 -0.999992 0.000000
vn -0.003922 -0.999992 0.000000
vn -0.003922 -0.999992 0.000000
vn -0.003922 -0.999992 0.000000
vn -0.003922 -0.999992 0.000000
vn -0.003922 -0.999992 0.000000
vn -0.003922 -0.999992 0.000000
vn -0.003922 -0.999992 0.000000
vn -0.003922 0.576471 0.817108
vn -0.003922 0.576471 0.817108
vn -0.003922 0.576471 0.817108
vn -0.003922 0.576471 0.817108
vn -0.003922 0.576471 0.817108
vn -0.003922 0.576471 0.817108
vn 0.364706 -0.905882 0.215329
vn 0.364706 -0.905882 0.215329
vn 0.364706 -0.905882 0.215329
vn 0.364706 -0.905882 0.215329
vn 0.364706 -0.905882 0.215329
vn 0.364706 -0.905882 0.215329
vn 0.364706 0.905882 0.215329
vn 0.364706 0.905882 0.215329
vn 0.364706 0.905882 0.215329
vn 0.364706 0.905882 0.215329
vn 0.364706 0.905882 0.215329
vn 0.364706 0.905882 0.215329
vn -0.364706 0.905882 0.215329
vn -0.364706 0.905882 0.215329
vn -0.364706 0.905882 0.215329
vn -0.364706 0.905882 0.215329
vn -0.364706 0.905882 0.215329
vn -0.364706 0.905882 0.215329
vn -0.003922 0.003922 0.999985
vn -0.003922 0.003922 0.999985
vn -0.003922 0.003922 0.999985
vn -0.003922 0.003922 0.999985
vn -0.003922 0.003922 0.999985
vn -0.003922 0.003922 0.999985
s 1
g meteorFullRound group1
f 1/1/1 3/2/2 2/3/3
f 4/4/4 2/3/3 3/2/2
s 2
f 5/5/5 2/3/6 6/6/7
f 7/7/8 6/6/7 2/3/6
s 3
f 8/8/9 10/9/10 9/10/11
f 11/11/12 9/10/11 10/9/10
s 4
f 12/12/13 8/8/14 13/13/15
f 9/10/16 13/13/15 8/8/14
s 5
f 14/14/17 13/13/18 15/15/19
f 9/10/20 15/15/19 13/13/18
s 6
f 16/16/21 17/17/22 12/12/23
f 8/8/24 12/12/23 17/17/22
s 7
f 18/18/25 6/6/26 19/19/27
f 7/7/28 19/19/27 6/6/26
s 8
f 20/20/29 22/21/30 21/22/31
f 23/23/32 21/22/31 22/21/30
s 9
f 24/24/33 26/25/34 25/26/35
f 14/14/36 25/26/35 26/25/34
f 27/27/37 25/26/35 14/14/36
f 15/15/38 27/27/37 14/14/36
s 10
f 28/28/39 13/13/40 26/25/41
f 14/14/42 26/25/41 13/13/40
s 11
f 12/12/43 13/13/44 29/29/45
f 28/28/46 29/29/45 13/13/44
s 12
f 30/30/47 28/28/48 24/24/49
f 26/25/50 24/24/49 28/28/48
s 13
f 31/31/51 25/26/52 11/11/53
f 27/27/54 11/11/53 25/26/52
s 14
f 16/16/55 12/12/56 32/32/57
f 29/29/58 32/32/57 12/12/56
s 15
f 1/1/59 2/3/60 33/33/61
f 5/5/62 33/33/61 2/3/60
s 16
f 19/19/63 16/16/64 21/22/65
f 32/32/66 21/22/65 16/16/64
s 17
f 34/34/67 3/2/68 20/20/69
f 1/1/70 20/20/69 3/2/68
s 18
f 17/17/71 4/4/72 8/8/73
f 10/9/74 8/8/73 4/4/72
s 19
f 16/16/75 19/19/76 17/17/77
f 7/7/78 17/17/77 19/19/76
s 20
f 30/30/79 31/31/80 35/35/81
f 36/36/82 35/35/81 31/31/80
s 21
f 21/22/83 23/23/84 19/19/85
f 18/18/86 19/19/85 23/23/84
s 22
f 29/29/87 28/28/88 35/35/89
f 30/30/90 35/35/89 28/28/88
s 23
f 29/29/91 35/35/92 32/32/93
f 34/34/94 32/32/93 35/35/92
s 24
f 35/35/95 36/36/96 34/34/97
f 3/2/98 34/34/97 36/36/96
s 25
f 32/32/99 34/34/100 21/22/101
f 20/20/102 21/22/101 34/34/100
s 26
f 7/7/103 2/3/104 17/17/105
f 4/4/106 17/17/105 2/3/104
s 27
f 22/21/107 33/33/108 23/23/109
f 5/5/110 23/23/109 33/33/108
f 18/18/111 23/23/109 5/5/110
f 6/6/112 18/18/111 5/5/110
s 28
f 36/36/113 31/31/114 10/9/115
f 11/11/116 10/9/115 31/31/114
s 29
f 20/20/117 1/1/118 22/21/119
f 33/33/120 22/21/119 1/1/118
s 30
f 30/30/121 24/24/122 31/31/123
f 25/26/124 31/31/123 24/24/122
s 31
f 27/27/125 15/15/126 11/11/127
f 9/10/128 11/11/127 15/15/126
s 32
f 3/2/129 36/36/130 4/4/131
f 10/9/132 4/4/131 36/36/130
