# This file uses centimeters as units for non-parametric coordinates.

g default
v -1.495599 -0.000000 2.047502
v -1.017635 -0.000000 1.771551
v -1.495599 0.351766 2.168654
v -0.912720 0.351766 1.832125
v -0.426262 -0.000000 0.878216
v -0.426262 -0.000000 2.112982
v -0.597356 0.111272 0.976997
v -0.597356 0.111272 2.014202
v -1.495599 -0.000000 2.730365
v -1.495599 0.111272 2.532804
v -1.495599 -0.000000 0.260833
v -1.495599 0.111272 0.458395
v -0.714127 0.351766 1.044414
v -0.714127 0.351766 1.946781
v -2.078480 0.351766 1.159071
v -1.973565 -0.000000 1.219648
v -2.078480 0.351766 1.832125
v -1.973565 -0.000000 1.771551
v -1.495599 -0.000000 0.943693
v -1.495599 0.351766 0.822545
v -0.912720 0.351766 1.159071
v -1.017635 -0.000000 1.219648
v -2.393846 0.111272 0.976997
v -2.277073 0.351766 1.044414
v -2.393846 0.111272 2.014202
v -2.277073 0.351766 1.946781
v -2.564937 -0.000000 0.878216
v -2.564937 -0.000000 2.112982
v -1.495599 0.351766 2.397967
v -1.495599 0.351766 0.593232
vt 0.150740 0.486970
vt 0.150740 0.160783
vt 0.135185 0.486970
vt 0.131771 0.160783
vt 0.115939 0.486970
vt 0.121507 0.383790
vt 0.115939 0.486970
vt 0.121507 0.383790
vt 0.150740 0.486970
vt 0.150740 0.383790
vt 0.150740 0.486970
vt 0.150740 0.383790
vt 0.125308 0.160783
vt 0.125308 0.160783
vt 0.169709 0.160783
vt 0.169709 0.160783
vt 0.166295 0.486970
vt 0.166295 0.486970
vt 0.150740 0.486970
vt 0.150740 0.160783
vt 0.131771 0.160783
vt 0.135185 0.486970
vt 0.179973 0.383790
vt 0.179973 0.383790
vt 0.176172 0.160783
vt 0.176172 0.160783
vt 0.185540 0.486970
vt 0.185540 0.486970
vt 0.150740 0.160783
vt 0.150740 0.160783
vn -0.477791 0.285803 -0.830682
vn -0.477791 0.285803 -0.830682
vn -0.477791 0.285803 -0.830682
vn -0.477791 0.285803 -0.830682
vn 0.543588 0.838730 -0.032327
vn 0.543588 0.838730 -0.032327
vn 0.543588 0.838730 -0.032327
vn 0.543588 0.838730 -0.032327
vn 0.274804 0.838730 0.470123
vn 0.274804 0.838730 0.470123
vn 0.274804 0.838730 0.470123
vn 0.274804 0.838730 0.470123
vn 0.274804 0.838730 -0.470123
vn 0.274804 0.838730 -0.470123
vn 0.274804 0.838730 -0.470123
vn 0.274804 0.838730 -0.470123
vn 0.896847 0.439393 -0.050985
vn 0.896847 0.439393 -0.050985
vn 0.896847 0.439393 -0.050985
vn 0.896847 0.439393 -0.050985
vn 0.958283 0.285803 -0.003241
vn 0.958283 0.285803 -0.003241
vn 0.958283 0.285803 -0.003241
vn 0.958283 0.285803 -0.003241
vn 0.482152 0.285803 0.828159
vn 0.482152 0.285803 0.828159
vn 0.482152 0.285803 0.828159
vn 0.482152 0.285803 0.828159
vn -0.958558 0.284898 0.000000
vn -0.958558 0.284898 0.000000
vn -0.958558 0.284898 0.000000
vn -0.958558 0.284898 0.000000
vn -0.898655 0.438656 0.000000
vn -0.898655 0.438656 0.000000
vn -0.898655 0.438656 0.000000
vn -0.898655 0.438656 0.000000
vn -0.546204 0.837652 0.000000
vn -0.546204 0.837652 0.000000
vn -0.546204 0.837652 0.000000
vn -0.546204 0.837652 0.000000
vn -0.001660 0.999999 0.000000
vn -0.001660 0.999999 0.000000
vn -0.001660 0.999999 0.000000
vn -0.001660 0.999999 0.000000
vn -0.001660 0.999999 0.000000
vn -0.001660 0.999999 0.000000
vn -0.001660 0.999999 0.000000
vn -0.001660 0.999999 0.000000
vn -0.001660 0.999999 0.000000
vn -0.001660 0.999999 0.000000
vn -0.001660 0.999999 0.000000
vn -0.001660 0.999999 0.000000
vn -0.001660 0.999999 0.000000
vn -0.001660 0.999999 0.000000
vn -0.001660 0.999999 0.000000
vn -0.001660 0.999999 0.000000
vn -0.001660 0.999999 0.000000
vn -0.001660 0.999999 0.000000
vn -0.447073 0.439393 0.779140
vn -0.447073 0.439393 0.779140
vn -0.447073 0.439393 0.779140
vn -0.447073 0.439393 0.779140
vn 0.451433 0.439393 0.776622
vn 0.451433 0.439393 0.776622
vn 0.451433 0.439393 0.776622
vn 0.451433 0.439393 0.776622
vn 0.482152 0.285803 -0.828159
vn 0.482152 0.285803 -0.828159
vn 0.482152 0.285803 -0.828159
vn 0.482152 0.285803 -0.828159
vn -0.477791 0.285803 0.830682
vn -0.477791 0.285803 0.830682
vn -0.477791 0.285803 0.830682
vn -0.477791 0.285803 0.830682
vn -0.001660 0.999999 0.000000
vn -0.001660 0.999999 0.000000
vn -0.001660 0.999999 0.000000
vn -0.001660 0.999999 0.000000
vn -0.001660 0.999999 0.000000
vn -0.001660 0.999999 0.000000
vn -0.001660 0.999999 0.000000
vn -0.001660 0.999999 0.000000
vn -0.001660 0.999999 0.000000
vn -0.001660 0.999999 0.000000
vn -0.001660 0.999999 0.000000
vn -0.001660 0.999999 0.000000
vn -0.270444 0.838730 -0.472645
vn -0.270444 0.838730 -0.472645
vn -0.270444 0.838730 -0.472645
vn -0.270444 0.838730 -0.472645
vn 0.451433 0.439393 -0.776622
vn 0.451433 0.439393 -0.776622
vn 0.451433 0.439393 -0.776622
vn 0.451433 0.439393 -0.776622
vn -0.447073 0.439393 -0.779140
vn -0.447073 0.439393 -0.779140
vn -0.447073 0.439393 -0.779140
vn -0.447073 0.439393 -0.779140
vn -0.270444 0.838730 0.472645
vn -0.270444 0.838730 0.472645
vn -0.270444 0.838730 0.472645
vn -0.270444 0.838730 0.472645
vn -0.001660 0.999999 0.000000
vn -0.001660 0.999999 0.000000
vn -0.001660 0.999999 0.000000
vn -0.001660 0.999999 0.000000
vn -0.001660 0.999999 0.000000
vn -0.001660 0.999999 0.000000
vn -0.447073 0.439393 0.779140
vn -0.447073 0.439393 0.779140
vn -0.447073 0.439393 0.779140
vn -0.447073 0.439393 0.779140
vn -0.447073 0.439393 0.779140
vn -0.447073 0.439393 0.779140
vn 0.451433 0.439393 0.776622
vn 0.451433 0.439393 0.776622
vn 0.451433 0.439393 0.776622
vn 0.451433 0.439393 0.776622
vn 0.451433 0.439393 0.776622
vn 0.451433 0.439393 0.776622
vn 0.482152 0.285803 -0.828159
vn 0.482152 0.285803 -0.828159
vn 0.482152 0.285803 -0.828159
vn 0.482152 0.285803 -0.828159
vn 0.482152 0.285803 -0.828159
vn 0.482152 0.285803 -0.828159
vn -0.477791 0.285803 0.830682
vn -0.477791 0.285803 0.830682
vn -0.477791 0.285803 0.830682
vn -0.477791 0.285803 0.830682
vn -0.477791 0.285803 0.830682
vn -0.477791 0.285803 0.830682
vn -0.001660 0.999999 0.000000
vn -0.001660 0.999999 0.000000
vn -0.001660 0.999999 0.000000
vn -0.001660 0.999999 0.000000
vn -0.001660 0.999999 0.000000
vn -0.001660 0.999999 0.000000
vn -0.001660 0.999999 0.000000
vn -0.001660 0.999999 0.000000
vn -0.001660 0.999999 0.000000
vn -0.001660 0.999999 0.000000
vn -0.001660 0.999999 0.000000
vn -0.001660 0.999999 0.000000
vn -0.001660 0.999999 0.000000
vn -0.001660 0.999999 0.000000
vn -0.001660 0.999999 0.000000
vn -0.001660 0.999999 0.000000
vn -0.001660 0.999999 0.000000
vn -0.001660 0.999999 0.000000
vn -0.001660 0.999999 0.000000
vn -0.001660 0.999999 0.000000
vn -0.001660 0.999999 0.000000
vn -0.001660 0.999999 0.000000
vn -0.001660 0.999999 0.000000
vn -0.001660 0.999999 0.000000
vn -0.001660 0.999999 0.000000
vn -0.001660 0.999999 0.000000
vn -0.001660 0.999999 0.000000
vn -0.001660 0.999999 0.000000
vn -0.001660 0.999999 0.000000
vn -0.001660 0.999999 0.000000
vn -0.001660 0.999999 0.000000
vn -0.001660 0.999999 0.000000
vn -0.001660 0.999999 0.000000
vn -0.001660 0.999999 0.000000
vn -0.001660 0.999999 0.000000
vn -0.001660 0.999999 0.000000
vn -0.270444 0.838730 -0.472645
vn -0.270444 0.838730 -0.472645
vn -0.270444 0.838730 -0.472645
vn -0.270444 0.838730 -0.472645
vn -0.270444 0.838730 -0.472645
vn -0.270444 0.838730 -0.472645
vn 0.451433 0.439393 -0.776622
vn 0.451433 0.439393 -0.776622
vn 0.451433 0.439393 -0.776622
vn 0.451433 0.439393 -0.776622
vn 0.451433 0.439393 -0.776622
vn 0.451433 0.439393 -0.776622
vn -0.447073 0.439393 -0.779140
vn -0.447073 0.439393 -0.779140
vn -0.447073 0.439393 -0.779140
vn -0.447073 0.439393 -0.779140
vn -0.447073 0.439393 -0.779140
vn -0.447073 0.439393 -0.779140
vn -0.270444 0.838730 0.472645
vn -0.270444 0.838730 0.472645
vn -0.270444 0.838730 0.472645
vn -0.270444 0.838730 0.472645
vn -0.270444 0.838730 0.472645
vn -0.270444 0.838730 0.472645
s 1
g crater group1
f 1/1/1 3/2/2 2/3/3
f 4/4/4 2/3/3 3/2/2
s 2
f 5/5/5 7/6/6 6/7/7
f 8/8/8 6/7/7 7/6/6
s 3
f 6/7/9 8/8/10 9/9/11
f 10/10/12 9/9/11 8/8/10
s 4
f 5/5/13 11/11/14 7/6/15
f 12/12/16 7/6/15 11/11/14
s 5
f 7/6/17 13/13/18 8/8/19
f 14/14/20 8/8/19 13/13/18
s 6
f 15/15/21 17/16/22 16/17/23
f 18/18/24 16/17/23 17/16/22
s 7
f 16/17/25 19/19/26 15/15/27
f 20/20/28 15/15/27 19/19/26
s 8
f 21/21/29 22/22/30 4/4/31
f 2/3/32 4/4/31 22/22/30
s 9
f 23/23/33 25/24/34 24/25/35
f 26/26/36 24/25/35 25/24/34
s 10
f 23/23/37 27/27/38 25/24/39
f 28/28/40 25/24/39 27/27/38
s 11
f 22/22/41 19/19/42 2/3/43
f 1/1/44 2/3/43 19/19/42
f 16/17/45 1/1/44 19/19/42
f 18/18/46 1/1/44 16/17/45
s 12
f 19/19/47 22/22/48 11/11/49
f 22/22/48 6/7/50 11/11/49
f 22/22/48 2/3/51 6/7/50
f 5/5/52 11/11/49 6/7/50
f 27/27/53 19/19/47 11/11/49
f 16/17/54 19/19/47 27/27/53
f 18/18/55 16/17/54 27/27/53
f 9/9/56 6/7/50 2/3/51
f 1/1/57 9/9/56 2/3/51
f 28/28/58 9/9/56 1/1/57
f 18/18/55 28/28/58 1/1/57
f 27/27/53 28/28/58 18/18/55
s 13
f 25/24/59 10/10/60 26/26/61
f 29/29/62 26/26/61 10/10/60
s 14
f 10/10/63 8/8/64 29/29/65
f 14/14/66 29/29/65 8/8/64
s 15
f 18/18/67 17/16/68 1/1/69
f 3/2/70 1/1/69 17/16/68
s 16
f 19/19/71 22/22/72 20/20/73
f 21/21/74 20/20/73 22/22/72
s 17
f 14/14/75 13/13/76 21/21/77
f 30/30/78 21/21/77 13/13/76
f 20/20/79 21/21/77 30/30/78
f 24/25/80 20/20/79 30/30/78
f 15/15/81 20/20/79 24/25/80
f 17/16/82 15/15/81 24/25/80
f 21/21/77 4/4/83 14/14/75
f 29/29/84 14/14/75 4/4/83
f 3/2/85 29/29/84 4/4/83
f 17/16/82 29/29/84 3/2/85
f 26/26/86 29/29/84 17/16/82
f 24/25/80 26/26/86 17/16/82
s 18
f 11/11/87 27/27/88 12/12/89
f 23/23/90 12/12/89 27/27/88
s 19
f 12/12/91 30/30/92 7/6/93
f 13/13/94 7/6/93 30/30/92
s 20
f 23/23/95 24/25/96 12/12/97
f 30/30/98 12/12/97 24/25/96
s 21
f 10/10/99 25/24/100 9/9/101
f 28/28/102 9/9/101 25/24/100
