# This file uses centimeters as units for non-parametric coordinates.

g rock_03:default1
v 1.593490 0.000000 0.920000
v 1.274790 1.120000 0.736000
v -0.000004 1.120000 1.472000
v -0.000004 0.000000 1.840000
v 1.593490 0.000000 -0.920000
v 1.274790 1.120000 -0.736000
v -0.000004 0.000000 -1.840000
v -1.593490 0.000000 -0.920000
v -1.593490 0.000000 0.920000
v -1.274792 0.710195 -0.736000
v -0.000004 1.120000 -1.472000
v -1.274792 0.710195 0.316132
v -1.274792 1.120000 0.736000
v -0.098220 0.710195 0.316132
v -0.274908 0.710195 -0.647800
v 0.637390 1.120000 -1.104000
v -1.070826 1.840000 0.294992
v -0.082506 1.840000 0.294992
v -1.070826 1.840000 0.647680
v -0.749580 3.940000 0.582208
v -0.749580 3.940000 0.335326
v 0.749570 3.940000 0.582208
v 0.749570 3.940000 0.161850
v 0.340632 3.940000 -0.156098
v -0.109700 3.940000 0.051928
v -0.057754 3.940000 0.335326
v -0.000004 3.940000 1.014976
v 1.070810 1.840000 0.647680
v 1.070810 3.235284 0.047168
v 1.070810 3.235284 -0.588800
v 0.535410 3.235284 -0.897920
v -0.230922 3.235284 -0.514720
v -0.156714 3.235284 -0.109864
v 0.486610 3.235284 -0.407040
v -0.000004 1.840000 1.265920
vt 0.879415 0.013912
vt 0.874324 0.019827
vt 0.833594 0.019827
vt 0.828503 0.013912
vt 0.828503 0.013199
vt 0.879415 0.013199
vt 0.874324 0.019058
vt 0.833594 0.019058
vt 0.853959 0.037039
vt 0.820569 0.030662
vt 0.820569 0.017906
vt 0.853959 0.011529
vt 0.887349 0.017906
vt 0.887349 0.030662
vt 0.874633 0.018673
vt 0.870498 0.029895
vt 0.837420 0.029895
vt 0.833286 0.018673
vt 0.863500 0.019605
vt 0.821097 0.024850
vt 0.826203 0.013226
vt 0.881716 0.013225
vt 0.876167 0.019605
vt 0.860261 0.022079
vt 0.856009 0.024489
vt 0.888948 0.025488
vt 0.867323 0.026489
vt 0.881768 0.017306
vt 0.871985 0.020749
vt 0.826260 0.020784
vt 0.827331 0.017306
vt 0.873505 0.023704
vt 0.862864 0.023704
vt 0.871535 0.035343
vt 0.864087 0.035343
vt 0.864430 0.025419
vt 0.854065 0.025755
vt 0.841584 0.025299
vt 0.841602 0.024349
vt 0.849179 0.024213
vt 0.841326 0.023011
vt 0.847413 0.022813
vt 0.866592 0.023770
vt 0.836038 0.023761
vt 0.852654 0.023761
vt 0.849481 0.035369
vt 0.837849 0.035369
vt 0.870251 0.022827
vt 0.853959 0.026254
vt 0.853628 0.032959
vt 0.839736 0.032959
vt 0.837420 0.026254
vt 0.876568 0.019592
vt 0.877481 0.028976
vt 0.838731 0.028976
vt 0.830437 0.019592
vt 0.857177 0.020762
vt 0.837620 0.020857
vt 0.831196 0.017205
vt 0.876538 0.017205
vt 0.876219 0.020784
vt 0.835714 0.024288
vt 0.838644 0.023528
vt 0.855368 0.024198
vt 0.872204 0.023426
vt 0.870756 0.024639
vt 0.855570 0.025142
vt 0.870352 0.018964
vt 0.870320 0.029648
vt 0.847370 0.029617
vt 0.837567 0.018920
vt 0.876722 0.031363
vt 0.863395 0.031332
vt 0.858156 0.031212
vt 0.826150 0.031262
vt 0.871078 0.018910
vt 0.869284 0.029658
vt 0.845317 0.029658
vt 0.836840 0.018910
vt 0.874633 0.015609
vt 0.870498 0.026832
vt 0.833286 0.015609
vt 0.870658 0.023834
vt 0.836445 0.023834
vt 0.863866 0.034656
vt 0.839917 0.034656
vt 0.871473 0.023701
vt 0.868001 0.033972
vt 0.844052 0.033972
vt 0.837260 0.023701
vt 0.874324 0.020378
vt 0.833594 0.020378
vt 0.879415 0.014596
vt 0.828503 0.014596
vt 0.818970 0.022247
vt 0.831757 0.019605
vn 0.480909 0.273687 0.832960
vn 0.483182 0.257178 0.836896
vn 0.483182 0.257178 0.836896
vn 0.480909 0.273687 0.832960
vn 0.961819 0.273687 0.000000
vn 0.961819 0.273687 0.000000
vn 0.961979 0.273124 0.000000
vn 0.961979 0.273124 0.000000
vn 0.000000 -1.000000 0.000000
vn 0.000000 -1.000000 0.000000
vn 0.000000 -1.000000 0.000000
vn 0.000000 -1.000000 0.000000
vn -0.480909 0.273687 -0.832960
vn -0.480909 0.273687 -0.832960
vn -0.480909 0.273687 -0.832960
vn -0.480909 0.273687 -0.832960
vn -0.961979 0.273124 0.000000
vn -0.961819 0.273687 0.000000
vn -0.961979 0.273124 0.000000
vn 0.000000 1.000000 0.000000
vn 0.000000 1.000000 0.000000
vn 0.000000 1.000000 0.000000
vn 0.000000 1.000000 0.000000
vn 0.000000 -0.029350 -0.999569
vn 0.000000 -0.005075 -0.999987
vn 0.000000 -0.005075 -0.999987
vn 0.000000 -0.029350 -0.999569
vn -0.977205 0.212298 0.000000
vn -0.977205 0.212298 0.000000
vn -0.961979 0.273124 0.000000
vn -0.961979 0.273124 0.000000
vn -0.988501 0.151216 0.000000
vn -0.988501 0.151216 0.000000
vn -0.977205 0.212298 0.000000
vn -0.977205 0.212298 0.000000
vn 0.000000 1.000000 0.000000
vn 0.000000 1.000000 0.000000
vn 0.000000 1.000000 0.000000
vn 0.000000 1.000000 0.000000
vn 0.977205 0.212298 0.000000
vn 0.977205 0.212298 0.000000
vn 0.988501 0.151216 0.000000
vn 0.988501 0.151216 0.000000
vn 0.961979 0.273124 0.000000
vn 0.977205 0.212298 0.000000
vn 0.977205 0.212298 0.000000
vn 0.478709 0.288704 -0.829149
vn 0.476392 0.303650 -0.825135
vn 0.476392 0.303650 -0.825135
vn 0.478709 0.288704 -0.829149
vn -0.439172 0.189172 -0.878261
vn -0.439172 0.189172 -0.878261
vn -0.439172 0.189172 -0.878261
vn -0.439172 0.189172 -0.878261
vn -0.983463 0.017442 0.180266
vn -0.983261 0.026753 0.180229
vn -0.983463 0.017442 0.180266
vn 0.000000 1.000000 0.000000
vn 0.000000 1.000000 0.000000
vn 0.000000 1.000000 0.000000
vn 0.000000 1.000000 0.000000
vn -0.418044 0.079081 -0.904978
vn -0.418044 0.079081 -0.904978
vn -0.418044 0.079081 -0.904978
vn -0.418044 0.079081 -0.904978
vn -0.983580 0.008130 0.180287
vn -0.983580 0.008130 0.180287
vn -0.983463 0.017442 0.180266
vn -0.983463 0.017442 0.180266
vn 0.000000 -0.005075 -0.999987
vn 0.000000 0.019203 -0.999816
vn 0.000000 0.019203 -0.999816
vn 0.000000 -0.005075 -0.999987
vn 0.608117 0.135740 -0.782156
vn 0.608117 0.135740 -0.782156
vn 0.608117 0.135740 -0.782156
vn 0.608117 0.135740 -0.782156
vn 0.480909 0.273687 -0.832960
vn 0.480909 0.273687 -0.832960
vn 0.478709 0.288704 -0.829149
vn 0.480909 0.273687 -0.832960
vn 0.483182 0.257178 0.836896
vn 0.492532 0.172187 0.853091
vn 0.492532 0.172187 0.853091
vn 0.483182 0.257178 0.836896
vn 0.492532 0.172187 0.853091
vn 0.497344 0.102938 0.861425
vn 0.497344 0.102938 0.861425
vn 0.492532 0.172187 0.853091
vn -0.492532 0.172187 0.853091
vn -0.497344 0.102938 0.861425
vn -0.497344 0.102938 0.861425
vn -0.492532 0.172187 0.853091
vn -0.483182 0.257178 0.836896
vn -0.492532 0.172187 0.853091
vn -0.492532 0.172187 0.853091
vn -0.483182 0.257178 0.836896
vn -0.480909 0.273687 0.832960
vn -0.483182 0.257178 0.836896
vn -0.483182 0.257178 0.836896
vn -0.480909 0.273687 0.832960
vn 0.480909 0.273687 -0.832960
vn 0.478709 0.288704 -0.829149
vn 0.478709 0.288704 -0.829149
vn 0.000000 1.000000 0.000000
vn 0.000000 1.000000 0.000000
vn 0.000000 1.000000 0.000000
vn 0.000000 1.000000 0.000000
vn 0.000000 1.000000 0.000000
vn 0.000000 1.000000 0.000000
vn -0.961979 0.273124 0.000000
vn -0.961819 0.273687 0.000000
vn -0.961819 0.273687 0.000000
vn -0.961819 0.273687 0.000000
vn 0.000000 1.000000 0.000000
vn 0.000000 1.000000 0.000000
vn 0.000000 1.000000 0.000000
vn 0.000000 1.000000 0.000000
vn 0.000000 1.000000 0.000000
vn 0.000000 1.000000 0.000000
vn 0.000000 1.000000 0.000000
vn 0.000000 1.000000 0.000000
vn 0.000000 1.000000 0.000000
vn 0.000000 1.000000 0.000000
vn 0.000000 1.000000 0.000000
vn 0.000000 1.000000 0.000000
vn 0.000000 -1.000000 0.000000
vn 0.000000 -1.000000 0.000000
vn 0.000000 -1.000000 0.000000
vn 0.000000 -1.000000 0.000000
vn 0.961979 0.273124 0.000000
vn 0.961979 0.273124 0.000000
vn 0.962139 0.272561 0.000000
vn 0.977205 0.212298 0.000000
vn -0.983463 0.017442 0.180266
vn -0.983261 0.026753 0.180229
vn -0.983261 0.026753 0.180229
vn -0.983261 0.026753 0.180229
s off
g rock_03:Mesh1Tall_Rock_3Model1 rock_03:landscape_pack Tall_Rock_I Tall_Rock
f 1/1/1 2/2/2 3/3/3 4/4/4
f 1/5/5 5/6/6 6/7/7 2/8/8
f 1/13/9 4/12/10 9/11/11 8/10/12
f 8/15/13 10/16/14 11/17/15 7/18/16
f 12/19/17 9/22/18 13/23/19
f 10/20/20 12/95/21 14/24/22 15/25/23
f 12/28/24 17/29/25 18/30/26 14/31/27
f 19/32/28 17/33/29 12/19/30 13/23/31
f 20/34/32 21/35/33 17/33/34 19/32/35
f 26/40/36 23/37/37 24/38/38 25/39/39
f 28/44/40 29/45/41 23/46/42 22/47/43
f 2/8/44 29/45/45 28/44/46
f 16/49/47 31/50/48 30/51/49 6/52/50
f 15/53/51 32/54/52 31/55/53 16/56/54
f 33/57/55 14/60/56 18/61/57
f 31/67/58 34/64/59 29/65/60 30/66/61
f 33/68/62 25/69/63 24/70/64 34/71/65
f 26/72/66 25/73/67 33/57/68 18/61/69
f 17/29/70 21/74/71 26/75/72 18/30/73
f 34/76/74 24/77/75 23/78/76 29/79/77
f 7/80/78 11/81/79 16/49/80 5/82/81
f 2/2/82 28/83/83 35/84/84 3/3/85
f 28/83/86 22/85/87 27/86/88 35/84/89
f 35/87/90 27/88/91 20/89/92 19/90/93
f 3/91/94 35/87/95 19/90/96 13/92/97
f 4/93/98 3/91/99 13/92/100 9/94/101
f 5/82/102 16/49/103 6/52/104
f 11/27/105 15/25/106 16/26/107
f 10/20/108 15/25/109 11/27/110
f 12/19/111 10/96/112 8/21/113 9/22/114
f 22/36/115 23/37/116 26/40/117 27/43/118
f 27/43/119 26/40/120 21/41/121 20/42/122
f 32/62/123 33/63/124 34/64/125 31/67/126
f 7/9/127 5/14/128 1/13/129 8/10/130
f 2/8/131 6/7/132 30/48/133 29/45/134
f 33/57/135 32/58/136 15/59/137 14/60/138
