# This file uses centimeters as units for non-parametric coordinates.

g default
v -2.001469 0.000000 4.000000
v -1.483692 0.214469 4.000000
v -2.001469 0.135925 4.000000
v -1.579807 0.310583 4.000000
v -1.269224 0.732245 4.000000
v -1.405148 0.732245 4.000000
v -1.483692 1.250020 4.000000
v -1.579807 1.153906 4.000000
v -2.001469 1.328567 4.000000
v -2.001469 1.464489 4.000000
v -2.519247 0.214469 4.000000
v -2.423132 0.310583 4.000000
v -2.733715 0.732245 4.000000
v -2.597792 0.732245 4.000000
v -2.519247 1.250020 4.000000
v -2.423132 1.153906 4.000000
v -4.000000 0.732245 1.267754
v -4.000000 0.214469 1.482223
v -4.000000 0.732245 1.403679
v -4.000000 0.310583 1.578337
v -4.000000 -0.000000 2.000001
v -4.000000 0.135925 2.000001
v -4.000000 0.214469 2.517777
v -4.000000 0.310583 2.421663
v -4.000000 0.732245 2.596321
v -4.000000 0.732245 2.732246
v -4.000000 1.250020 1.482223
v -4.000000 1.153906 1.578337
v -4.000000 1.464489 2.000001
v -4.000000 1.328567 2.000001
v -4.000000 1.153906 2.421663
v -4.000000 1.250020 2.517777
v -2.001469 0.000000 0.000000
v -2.519247 0.214469 0.000000
v -2.001469 0.135925 0.000000
v -2.423132 0.310583 0.000000
v -2.733715 0.732245 0.000000
v -2.597792 0.732245 0.000000
v -2.519247 1.250020 0.000000
v -2.423132 1.153906 0.000000
v -2.001469 1.328567 0.000000
v -2.001469 1.464489 0.000000
v -1.483692 0.214469 0.000000
v -1.579807 0.310583 0.000000
v -1.269224 0.732245 0.000000
v -1.405148 0.732245 0.000000
v -1.483692 1.250020 0.000000
v -1.579807 1.153906 0.000000
v -2.000000 0.135925 1.999613
v -2.000000 0.000000 2.000000
v -1.483689 0.214469 2.000193
v -1.579811 0.310583 2.000193
v -1.269226 0.732245 2.000193
v -1.405144 0.732245 2.000193
v -1.483692 1.250020 2.000193
v -1.579807 1.153906 2.000193
v -2.000000 1.328567 2.000000
v -2.001469 1.464489 1.999613
v -2.519245 0.214469 2.517390
v -2.423986 0.310583 2.421256
v -2.733719 0.732245 2.733290
v -2.598520 0.732245 2.596898
v -2.519247 1.250020 2.517390
v -2.422596 1.153906 2.421394
v -2.603363 0.732244 1.403993
v -2.733715 0.732245 1.266516
v -2.519245 0.214469 1.481836
v -2.423985 0.310583 1.578549
v -2.519247 1.250019 1.481836
v -2.471189 1.153906 1.577949
vt 0.848992 0.387697
vt 0.848992 0.415944
vt 0.834410 0.371374
vt 0.837117 0.351399
vt 0.828370 0.263770
vt 0.832198 0.263770
vt 0.834410 0.156167
vt 0.837117 0.176141
vt 0.848992 0.139844
vt 0.848992 0.111596
vt 0.863575 0.371374
vt 0.860868 0.351399
vt 0.869615 0.263770
vt 0.865787 0.263770
vt 0.863575 0.156167
vt 0.860868 0.176141
vt 0.891362 0.263770
vt 0.891362 0.263770
vt 0.891362 0.371374
vt 0.891362 0.351399
vt 0.891362 0.415944
vt 0.891362 0.387697
vt 0.891362 0.371374
vt 0.891362 0.351399
vt 0.891362 0.263770
vt 0.891362 0.263770
vt 0.891362 0.156167
vt 0.891362 0.176141
vt 0.891362 0.111596
vt 0.891362 0.139843
vt 0.891362 0.176141
vt 0.891362 0.156167
vt 0.848992 0.387697
vt 0.848992 0.415944
vt 0.863575 0.371374
vt 0.860868 0.351399
vt 0.869615 0.263770
vt 0.865787 0.263770
vt 0.863575 0.156167
vt 0.860868 0.176141
vt 0.848992 0.139844
vt 0.848992 0.111596
vt 0.834410 0.371374
vt 0.837117 0.351399
vt 0.828370 0.263770
vt 0.832198 0.263770
vt 0.834410 0.156167
vt 0.837117 0.176141
vt 0.848951 0.415944
vt 0.834410 0.371374
vt 0.837117 0.351399
vt 0.848951 0.387697
vt 0.828370 0.263770
vt 0.832198 0.263770
vt 0.834410 0.156167
vt 0.837117 0.176141
vt 0.848951 0.139844
vt 0.848992 0.111596
vt 0.863575 0.371374
vt 0.860892 0.351399
vt 0.869615 0.263770
vt 0.865807 0.263770
vt 0.863575 0.156167
vt 0.860853 0.176141
vt 0.869615 0.263770
vt 0.863575 0.371374
vt 0.860892 0.351399
vt 0.865944 0.263771
vt 0.863575 0.156168
vt 0.862221 0.176141
vn 0.000000 0.000000 1.000000
vn 0.000000 0.000000 1.000000
vn 0.000000 0.000000 1.000000
vn 0.000000 0.000000 1.000000
vn -0.000003 0.000000 1.000000
vn -0.000003 0.000000 1.000000
vn -0.000003 0.000000 1.000000
vn -0.000003 0.000000 1.000000
vn 0.000003 0.000000 1.000000
vn 0.000003 0.000000 1.000000
vn 0.000003 0.000000 1.000000
vn 0.000003 0.000000 1.000000
vn 0.000001 0.000000 1.000000
vn 0.000001 0.000000 1.000000
vn 0.000001 0.000000 1.000000
vn 0.000001 0.000000 1.000000
vn 0.000000 0.000000 1.000000
vn 0.000000 0.000000 1.000000
vn 0.000000 0.000000 1.000000
vn 0.000000 0.000000 1.000000
vn 0.000003 0.000000 1.000000
vn 0.000003 0.000000 1.000000
vn 0.000003 0.000000 1.000000
vn 0.000003 0.000000 1.000000
vn -0.000001 0.000000 1.000000
vn -0.000001 0.000000 1.000000
vn -0.000001 0.000000 1.000000
vn -0.000001 0.000000 1.000000
vn -0.000001 0.000000 1.000000
vn -0.000001 0.000000 1.000000
vn -0.000001 0.000000 1.000000
vn -0.000001 0.000000 1.000000
vn -1.000000 -0.000001 0.000000
vn -1.000000 -0.000001 0.000000
vn -1.000000 -0.000001 0.000000
vn -1.000000 -0.000001 0.000000
vn -1.000000 0.000000 0.000000
vn -1.000000 0.000000 0.000000
vn -1.000000 0.000000 0.000000
vn -1.000000 0.000000 0.000000
vn -1.000000 0.000000 0.000000
vn -1.000000 0.000000 0.000000
vn -1.000000 0.000000 0.000000
vn -1.000000 0.000000 0.000000
vn -1.000000 -0.000001 0.000000
vn -1.000000 -0.000001 0.000000
vn -1.000000 -0.000001 0.000000
vn -1.000000 -0.000001 0.000000
vn -1.000000 0.000001 0.000000
vn -1.000000 0.000001 0.000000
vn -1.000000 0.000001 0.000000
vn -1.000000 0.000001 0.000000
vn -1.000000 0.000000 0.000000
vn -1.000000 0.000000 0.000000
vn -1.000000 0.000000 0.000000
vn -1.000000 0.000000 0.000000
vn -1.000000 0.000000 0.000000
vn -1.000000 0.000000 0.000000
vn -1.000000 0.000000 0.000000
vn -1.000000 0.000000 0.000000
vn -1.000000 0.000000 0.000000
vn -1.000000 0.000000 0.000000
vn -1.000000 0.000000 0.000000
vn -1.000000 0.000000 0.000000
vn 0.000000 0.000000 -1.000000
vn 0.000000 0.000000 -1.000000
vn 0.000000 0.000000 -1.000000
vn 0.000000 0.000000 -1.000000
vn 0.000000 0.000000 -1.000000
vn 0.000000 0.000000 -1.000000
vn 0.000000 0.000000 -1.000000
vn 0.000000 0.000000 -1.000000
vn 0.000000 0.000000 -1.000000
vn 0.000000 0.000000 -1.000000
vn 0.000000 0.000000 -1.000000
vn 0.000000 0.000000 -1.000000
vn 0.000000 0.000000 -1.000000
vn 0.000000 0.000000 -1.000000
vn 0.000000 0.000000 -1.000000
vn 0.000000 0.000000 -1.000000
vn 0.000000 0.000000 -1.000000
vn 0.000000 0.000000 -1.000000
vn 0.000000 0.000000 -1.000000
vn 0.000000 0.000000 -1.000000
vn 0.000000 0.000000 -1.000000
vn 0.000000 0.000000 -1.000000
vn 0.000000 0.000000 -1.000000
vn 0.000000 0.000000 -1.000000
vn 0.000000 0.000000 -1.000000
vn 0.000000 0.000000 -1.000000
vn 0.000000 0.000000 -1.000000
vn 0.000000 0.000000 -1.000000
vn 0.000000 0.000000 -1.000000
vn 0.000000 0.000000 -1.000000
vn 0.000000 0.000000 -1.000000
vn 0.000000 0.000000 -1.000000
vn 0.383145 -0.923688 0.000141
vn 0.383145 -0.923688 0.000141
vn 0.383145 -0.923688 0.000141
vn 0.383145 -0.923688 0.000141
vn -0.383254 0.923643 -0.000140
vn -0.383254 0.923643 -0.000140
vn -0.383254 0.923643 -0.000140
vn -0.383254 0.923643 -0.000140
vn 0.923882 -0.382677 0.000000
vn 0.923882 -0.382677 0.000000
vn 0.923882 -0.382677 0.000000
vn 0.923882 -0.382677 0.000000
vn -0.923876 0.382693 0.000000
vn -0.923876 0.382693 0.000000
vn -0.923876 0.382693 0.000000
vn -0.923876 0.382693 0.000000
vn 0.923881 0.382680 -0.000000
vn 0.923881 0.382680 -0.000000
vn 0.923881 0.382680 -0.000000
vn 0.923881 0.382680 -0.000000
vn -0.923877 -0.382690 -0.000001
vn -0.923877 -0.382690 -0.000001
vn -0.923877 -0.382690 -0.000001
vn -0.923877 -0.382690 -0.000001
vn -0.383259 -0.923641 -0.000141
vn -0.383259 -0.923641 -0.000141
vn -0.383259 -0.923641 -0.000141
vn -0.383259 -0.923641 -0.000141
vn 0.382682 0.923880 0.000000
vn 0.382682 0.923880 0.000000
vn 0.382682 0.923880 0.000000
vn 0.382682 0.923880 0.000000
vn -0.382288 -0.924043 -0.000161
vn -0.382288 -0.924043 -0.000161
vn -0.382288 -0.924043 -0.000161
vn -0.382288 -0.924043 -0.000161
vn 0.381812 0.924240 0.000066
vn 0.381812 0.924240 0.000066
vn 0.381812 0.924240 0.000066
vn 0.381812 0.924240 0.000066
vn -0.923879 -0.382685 0.000001
vn -0.923879 -0.382685 0.000001
vn -0.923879 -0.382685 0.000001
vn -0.923879 -0.382685 0.000001
vn 0.923890 0.382657 -0.000491
vn 0.923891 0.382657 -0.000491
vn 0.923890 0.382657 -0.000491
vn 0.923890 0.382657 -0.000491
vn -0.923879 0.382684 0.000001
vn -0.923879 0.382684 0.000001
vn -0.923879 0.382684 0.000001
vn -0.923879 0.382684 0.000001
vn 0.923383 -0.383880 -0.000060
vn 0.923383 -0.383880 -0.000060
vn 0.923383 -0.383880 -0.000060
vn 0.923383 -0.383880 -0.000060
vn -0.382681 0.923881 0.000000
vn -0.382681 0.923880 0.000000
vn -0.382681 0.923880 0.000000
vn -0.382681 0.923881 0.000000
vn 0.382419 -0.923989 0.000214
vn 0.382419 -0.923989 0.000214
vn 0.382419 -0.923989 0.000214
vn 0.382419 -0.923989 0.000214
vn -0.000547 -0.383427 -0.923571
vn -0.000547 -0.383427 -0.923571
vn -0.000547 -0.383427 -0.923571
vn -0.000547 -0.383427 -0.923571
vn -0.000163 0.382558 0.923931
vn -0.000163 0.382558 0.923931
vn -0.000163 0.382558 0.923931
vn -0.000163 0.382558 0.923931
vn -0.000043 -0.923938 -0.382541
vn -0.000043 -0.923938 -0.382541
vn -0.000043 -0.923938 -0.382541
vn -0.000043 -0.923938 -0.382541
vn 0.000019 0.923788 0.382905
vn 0.000019 0.923788 0.382905
vn 0.000019 0.923788 0.382905
vn 0.000019 0.923788 0.382905
vn 0.000043 -0.923822 0.382823
vn 0.000043 -0.923822 0.382823
vn 0.000043 -0.923822 0.382823
vn 0.000043 -0.923822 0.382823
vn -0.000085 0.923861 -0.382727
vn -0.000085 0.923861 -0.382727
vn -0.000085 0.923861 -0.382727
vn -0.000085 0.923861 -0.382727
vn 0.000053 0.383612 -0.923494
vn 0.000053 0.383612 -0.923494
vn 0.000053 0.383612 -0.923494
vn 0.000053 0.383612 -0.923494
vn -0.000220 -0.383810 0.923412
vn -0.000220 -0.383810 0.923412
vn -0.000220 -0.383810 0.923412
vn -0.000220 -0.383810 0.923412
vn -0.000546 0.383427 -0.923571
vn -0.000546 0.383427 -0.923571
vn -0.000546 0.383427 -0.923571
vn -0.000546 0.383427 -0.923571
vn 0.000023 -0.382030 0.924150
vn 0.000023 -0.382030 0.924150
vn 0.000023 -0.382030 0.924150
vn 0.000023 -0.382030 0.924150
vn -0.000085 0.923895 -0.382646
vn -0.000085 0.923895 -0.382646
vn -0.000085 0.923895 -0.382646
vn -0.000085 0.923895 -0.382646
vn 0.000042 -0.923948 0.382517
vn 0.000042 -0.923948 0.382517
vn 0.000042 -0.923948 0.382517
vn 0.000042 -0.923948 0.382517
vn -0.000029 -0.923829 -0.382806
vn -0.000029 -0.923829 -0.382806
vn -0.000029 -0.923829 -0.382806
vn -0.000029 -0.923829 -0.382805
vn 0.000085 0.923865 0.382719
vn 0.000085 0.923865 0.382719
vn 0.000085 0.923865 0.382719
vn 0.000085 0.923865 0.382719
vn 0.000096 -0.383491 -0.923545
vn 0.000096 -0.383491 -0.923545
vn 0.000096 -0.383491 -0.923545
vn 0.000096 -0.383491 -0.923545
vn -0.000220 0.383811 0.923412
vn -0.000220 0.383811 0.923412
vn -0.000220 0.383811 0.923412
vn -0.000220 0.383811 0.923412
vn -0.382288 -0.924043 0.000162
vn -0.382288 -0.924043 0.000162
vn -0.382288 -0.924043 0.000162
vn -0.382288 -0.924043 0.000162
vn 0.381813 0.924240 -0.000066
vn 0.381813 0.924240 -0.000066
vn 0.381813 0.924240 -0.000066
vn 0.381813 0.924240 -0.000066
vn -0.923880 -0.382682 0.000001
vn -0.923880 -0.382682 0.000001
vn -0.923880 -0.382682 0.000001
vn -0.923880 -0.382682 0.000001
vn 0.921895 0.387436 0.001986
vn 0.921895 0.387436 0.001986
vn 0.921895 0.387436 0.001986
vn 0.921895 0.387436 0.001986
vn -0.923880 0.382681 0.000000
vn -0.923880 0.382681 0.000000
vn -0.923880 0.382681 0.000000
vn -0.923881 0.382681 0.000000
vn 0.938475 -0.344935 0.016878
vn 0.938475 -0.344935 0.016878
vn 0.938475 -0.344935 0.016878
vn 0.938475 -0.344935 0.016878
vn 0.362410 -0.932007 0.004719
vn 0.362410 -0.932007 0.004719
vn 0.362410 -0.932007 0.004719
vn 0.362410 -0.932007 0.004719
vn -0.382682 0.923880 0.000000
vn -0.382682 0.923880 0.000000
vn -0.382682 0.923880 0.000000
vn -0.382682 0.923880 0.000000
vn 0.383145 -0.923688 -0.000141
vn 0.383145 -0.923688 -0.000141
vn 0.383145 -0.923688 -0.000141
vn 0.383145 -0.923688 -0.000141
vn -0.383255 0.923643 0.000140
vn -0.383255 0.923643 0.000140
vn -0.383254 0.923643 0.000140
vn -0.383254 0.923643 0.000140
vn 0.923882 -0.382677 -0.000000
vn 0.923882 -0.382677 -0.000000
vn 0.923882 -0.382677 -0.000000
vn 0.923882 -0.382677 -0.000000
vn -0.923876 0.382693 0.000000
vn -0.923876 0.382693 0.000000
vn -0.923876 0.382693 0.000000
vn -0.923876 0.382693 0.000000
vn 0.923881 0.382680 0.000000
vn 0.923881 0.382680 0.000000
vn 0.923881 0.382680 0.000000
vn 0.923881 0.382680 0.000000
vn -0.923877 -0.382690 0.000001
vn -0.923877 -0.382690 0.000001
vn -0.923877 -0.382690 0.000001
vn -0.923877 -0.382690 0.000001
vn 0.382682 0.923880 0.000000
vn 0.382682 0.923880 0.000000
vn 0.382682 0.923880 0.000000
vn 0.382682 0.923880 0.000000
vn -0.383259 -0.923641 0.000141
vn -0.383259 -0.923641 0.000141
vn -0.383259 -0.923641 0.000141
vn -0.383259 -0.923641 0.000141
s off
g pipeSplit group1
f 3/1/1 1/2/2 2/3/3 4/4/4
f 4/4/5 2/3/6 5/5/7 6/6/8
f 6/6/9 5/5/10 7/7/11 8/8/12
f 9/9/13 8/8/14 7/7/15 10/10/16
f 11/11/17 1/2/18 3/1/19 12/12/20
f 13/13/21 11/11/22 12/12/23 14/14/24
f 15/15/25 13/13/26 14/14/27 16/16/28
f 9/9/29 10/10/30 15/15/31 16/16/32
f 19/17/33 17/18/34 18/19/35 20/20/36
f 20/20/37 18/19/38 21/21/39 22/22/40
f 22/22/41 21/21/42 23/23/43 24/24/44
f 25/25/45 24/24/46 23/23/47 26/26/48
f 27/27/49 17/18/50 19/17/51 28/28/52
f 29/29/53 27/27/54 28/28/55 30/30/56
f 29/29/57 30/30/58 31/31/59 32/32/60
f 32/32/61 31/31/62 25/25/63 26/26/64
f 35/33/65 33/34/66 34/35/67 36/36/68
f 36/36/69 34/35/70 37/37/71 38/38/72
f 38/38/73 37/37/74 39/39/75 40/40/76
f 41/41/77 40/40/78 39/39/79 42/42/80
f 43/43/81 33/34/82 35/33/83 44/44/84
f 45/45/85 43/43/86 44/44/87 46/46/88
f 47/47/89 45/45/90 46/46/91 48/48/92
f 41/41/93 42/42/94 47/47/95 48/48/96
f 1/2/97 50/49/98 51/50/99 2/3/100
f 4/4/101 52/51/102 49/52/103 3/1/104
f 2/3/105 51/50/106 53/53/107 5/5/108
f 6/6/109 54/54/110 52/51/111 4/4/112
f 5/5/113 53/53/114 55/55/115 7/7/116
f 8/8/117 56/56/118 54/54/119 6/6/120
f 9/9/121 57/57/122 56/56/123 8/8/124
f 7/7/125 55/55/126 58/58/127 10/10/128
f 11/11/129 59/59/130 50/49/131 1/2/132
f 3/1/133 49/52/134 60/60/135 12/12/136
f 13/13/137 61/61/138 59/59/139 11/11/140
f 12/12/141 60/60/142 62/62/143 14/14/144
f 15/15/145 63/63/146 61/61/147 13/13/148
f 14/14/149 62/62/150 64/64/151 16/16/152
f 10/10/153 58/58/154 63/63/155 15/15/156
f 16/16/157 64/64/158 57/57/159 9/9/160
f 17/18/161 66/65/162 67/66/163 18/19/164
f 20/20/165 68/67/166 65/68/167 19/17/168
f 18/19/169 67/66/170 50/49/171 21/21/172
f 22/22/173 49/52/174 68/67/175 20/20/176
f 21/21/177 50/49/178 59/59/179 23/23/180
f 24/24/181 60/60/182 49/52/183 22/22/184
f 25/25/185 62/62/186 60/60/187 24/24/188
f 23/23/189 59/59/190 61/61/191 26/26/192
f 27/27/193 69/69/194 66/65/195 17/18/196
f 19/17/197 65/68/198 70/70/199 28/28/200
f 29/29/201 58/58/202 69/69/203 27/27/204
f 28/28/205 70/70/206 57/57/207 30/30/208
f 30/30/209 57/57/210 64/64/211 31/31/212
f 32/32/213 63/63/214 58/58/215 29/29/216
f 31/31/217 64/64/218 62/62/219 25/25/220
f 26/26/221 61/61/222 63/63/223 32/32/224
f 33/34/225 50/49/226 67/66/227 34/35/228
f 36/36/229 68/67/230 49/52/231 35/33/232
f 34/35/233 67/66/234 66/65/235 37/37/236
f 38/38/237 65/68/238 68/67/239 36/36/240
f 37/37/241 66/65/242 69/69/243 39/39/244
f 40/40/245 70/70/246 65/68/247 38/38/248
f 41/41/249 57/57/250 70/70/251 40/40/252
f 39/39/253 69/69/254 58/58/255 42/42/256
f 43/43/257 51/50/258 50/49/259 33/34/260
f 35/33/261 49/52/262 52/51/263 44/44/264
f 45/45/265 53/53/266 51/50/267 43/43/268
f 44/44/269 52/51/270 54/54/271 46/46/272
f 47/47/273 55/55/274 53/53/275 45/45/276
f 46/46/277 54/54/278 56/56/279 48/48/280
f 42/42/281 58/58/282 55/55/283 47/47/284
f 48/48/285 56/56/286 57/57/287 41/41/288
