# This file uses centimeters as units for non-parametric coordinates.

g default
v -1.559635 0.491808 0.984022
v -1.559635 0.491808 1.275647
v -1.645022 0.834989 1.069388
v -1.645022 0.834989 1.339552
v -0.580676 0.314104 0.528643
v -0.580676 0.314104 0.842747
v -0.894794 0.314104 0.528643
v -0.767626 0.314104 0.728666
v -0.767626 0.314104 0.842747
v -0.894794 0.314104 0.728666
v -2.080584 0.834989 1.339552
v -1.998191 1.277308 1.421922
v -1.284614 1.277308 1.421922
v -1.138340 0.491808 1.275647
v -0.999488 0.000000 0.423942
v -0.476001 0.000000 0.423942
v -0.861549 0.000000 2.612237
v -1.385045 0.000000 2.612237
v -0.966251 0.314104 2.507536
v -1.280369 0.314104 2.507536
v -1.834765 0.000000 0.572396
v -1.590060 0.491808 0.817077
v -1.834765 0.000000 0.861680
v -1.590060 0.491808 0.984022
v -0.476001 0.000000 0.947445
v -2.268146 0.834989 1.069388
v -2.080584 0.834989 1.692516
v -2.268146 0.834989 1.692516
v -1.138340 0.491808 1.551119
v -1.284614 1.277308 2.135500
v -1.046755 0.000000 1.795800
v -1.046755 0.000000 2.088731
v -1.105259 0.314104 2.193431
v -1.105259 0.314104 2.314869
v -0.966251 0.314104 2.193431
v -1.280369 0.314104 2.314869
v -0.861549 0.000000 2.088731
v -1.998191 1.277308 2.135500
v -1.385045 0.000000 2.373360
v -2.236059 0.000000 2.373360
v -0.611348 0.000000 0.947445
v -2.236059 0.000000 1.900225
v -2.475835 0.000000 0.861680
v -0.999488 0.000000 0.572396
v -0.856035 0.491808 0.817077
v -2.475835 0.000000 1.900225
v -0.856035 0.491808 1.551119
v -0.611348 0.000000 1.795800
vt 0.134814 0.494068
vt 0.107673 0.494068
vt 0.117825 0.494068
vt 0.107673 0.494068
vt 0.192341 0.494068
vt 0.170178 0.494068
vt 0.192341 0.494068
vt 0.186610 0.494068
vt 0.186610 0.494068
vt 0.170178 0.494068
vt 0.168176 0.494068
vt 0.134814 0.494068
vt 0.168176 0.494068
vt 0.153854 0.494068
vt 0.117825 0.494068
vt 0.176018 0.494068
vt 0.176018 0.494068
vt 0.153854 0.494068
vt 0.115343 0.492159
vt 0.125749 0.334307
vt 0.194640 0.492159
vt 0.125749 0.334307
vt 0.131850 0.492159
vt 0.194640 0.492159
vt 0.184443 0.492159
vt 0.115343 0.492159
vt 0.184443 0.492159
vt 0.148248 0.492159
vt 0.174326 0.082189
vt 0.125984 0.492159
vt 0.143796 0.391343
vt 0.130437 0.391343
vt 0.136349 0.391343
vt 0.136349 0.391343
vt 0.133861 0.492159
vt 0.133861 0.492159
vt 0.143977 0.082189
vt 0.137756 0.334307
vt 0.185807 0.224158
vt 0.177830 0.224158
vt 0.185807 0.224158
vt 0.109586 0.492159
vt 0.156968 0.334307
vt 0.156968 0.334307
vt 0.167375 0.492159
vt 0.167375 0.492159
vt 0.143796 0.391343
vt 0.155674 0.334307
vt 0.159305 0.224158
vt 0.155674 0.334307
vt 0.159305 0.224158
vt 0.114038 0.391343
vt 0.127398 0.391343
vt 0.114038 0.391343
vt 0.121989 0.391343
vt 0.121989 0.391343
vt 0.127398 0.391343
vt 0.177830 0.224158
vt 0.174326 0.082189
vt 0.143977 0.082189
vt 0.137756 0.334307
vt 0.131850 0.492159
vt 0.109586 0.492159
vt 0.125984 0.492159
vt 0.130437 0.391343
vt 0.148248 0.492159
vn 0.967546 0.237868 -0.085289
vn 0.967546 0.237868 -0.085289
vn 0.967546 0.237868 -0.085289
vn 0.967546 0.237868 -0.085289
vn 0.003215 0.999995 0.000000
vn 0.003215 0.999995 0.000000
vn 0.003215 0.999995 0.000000
vn 0.003215 0.999995 0.000000
vn 0.003215 0.999995 0.000000
vn 0.003215 0.999995 0.000000
vn 0.003215 0.183430 -0.983028
vn 0.003215 0.183430 -0.983028
vn 0.003215 0.183430 -0.983028
vn 0.003215 0.183430 -0.983028
vn 0.003215 0.183430 -0.983028
vn 0.003215 0.183430 -0.983028
vn 0.003215 0.315636 -0.948875
vn 0.003215 0.315636 -0.948875
vn 0.003215 0.315636 -0.948875
vn 0.003215 0.315636 -0.948875
vn 0.003215 0.315636 0.948875
vn 0.003215 0.315636 0.948875
vn 0.003215 0.315636 0.948875
vn 0.003215 0.315636 0.948875
vn -0.895067 0.445933 0.000000
vn -0.895067 0.445933 0.000000
vn -0.895067 0.445933 0.000000
vn -0.895067 0.445933 0.000000
vn 0.949189 0.314707 0.000000
vn 0.949189 0.314707 0.000000
vn 0.949189 0.314707 0.000000
vn 0.949189 0.314707 0.000000
vn 0.003215 0.999995 0.000000
vn 0.003215 0.999995 0.000000
vn 0.003215 0.999995 0.000000
vn 0.003215 0.999995 0.000000
vn 0.003215 0.999995 0.000000
vn 0.003215 0.999995 0.000000
vn 0.983035 0.183418 0.000000
vn 0.983035 0.183418 0.000000
vn 0.983035 0.183418 0.000000
vn 0.983035 0.183418 0.000000
vn 0.983035 0.183418 0.000000
vn 0.983035 0.183418 0.000000
vn 0.983035 0.183418 0.000000
vn 0.983035 0.183418 0.000000
vn 0.003215 0.999995 0.000000
vn 0.003215 0.999995 0.000000
vn 0.003215 0.999995 0.000000
vn 0.003215 0.999995 0.000000
vn 0.003215 0.999995 0.000000
vn 0.003215 0.999995 0.000000
vn 0.003215 0.315636 -0.948875
vn 0.003215 0.315636 -0.948875
vn 0.003215 0.315636 -0.948875
vn 0.003215 0.315636 -0.948875
vn 0.003215 0.999995 0.000000
vn 0.003215 0.999995 0.000000
vn 0.003215 0.999995 0.000000
vn 0.003215 0.999995 0.000000
vn 0.949189 0.314707 0.000000
vn 0.949189 0.314707 0.000000
vn 0.949189 0.314707 0.000000
vn 0.949189 0.314707 0.000000
vn -0.945562 0.315636 -0.079286
vn -0.945562 0.315636 -0.079286
vn -0.945562 0.315636 -0.079286
vn -0.945562 0.315636 -0.079286
vn 0.003215 0.183430 0.983028
vn 0.003215 0.183430 0.983028
vn 0.003215 0.183430 0.983028
vn 0.003215 0.183430 0.983028
vn 0.003215 0.183430 0.983028
vn 0.003215 0.183430 0.983028
vn 0.003215 0.315636 0.948875
vn 0.003215 0.315636 0.948875
vn 0.003215 0.315636 0.948875
vn 0.003215 0.315636 0.948875
vn -0.983080 0.183175 0.000000
vn -0.983080 0.183175 0.000000
vn -0.983080 0.183175 0.000000
vn -0.983080 0.183175 0.000000
vn -0.983080 0.183175 0.000000
vn -0.983080 0.183175 0.000000
vn 0.003215 0.237868 -0.971292
vn 0.003215 0.237868 -0.971292
vn 0.003215 0.237868 -0.971292
vn 0.003215 0.237868 -0.971292
vn 0.003215 0.237868 -0.971292
vn 0.003215 0.237868 -0.971292
vn 0.003215 0.447843 -0.894107
vn 0.003215 0.447843 -0.894107
vn 0.003215 0.447843 -0.894107
vn 0.003215 0.447843 -0.894107
vn 0.003215 0.447843 -0.894107
vn 0.003215 0.447843 -0.894107
vn -0.945562 0.315636 -0.079286
vn -0.945562 0.315636 -0.079286
vn -0.945562 0.315636 -0.079286
vn -0.945562 0.315636 -0.079286
vn -0.968893 0.237868 -0.068309
vn -0.968893 0.237868 -0.068309
vn -0.968893 0.237868 -0.068309
vn -0.968893 0.237868 -0.068309
vn 0.003215 0.237868 0.971292
vn 0.003215 0.237868 0.971292
vn 0.003215 0.237868 0.971292
vn 0.003215 0.237868 0.971292
vn 0.003215 0.999995 0.000000
vn 0.003215 0.999995 0.000000
vn 0.003215 0.999995 0.000000
vn 0.003215 0.999995 0.000000
vn 0.003215 0.999995 0.000000
vn 0.003215 0.999995 0.000000
vn 0.003215 0.999995 0.000000
vn 0.003215 0.999995 0.000000
vn 0.003215 0.447843 0.894107
vn 0.003215 0.447843 0.894107
vn 0.003215 0.447843 0.894107
vn 0.003215 0.447843 0.894107
vn 0.894799 0.446468 0.000000
vn 0.894799 0.446468 0.000000
vn 0.894799 0.446468 0.000000
vn 0.894799 0.446468 0.000000
vn 0.894799 0.446468 0.000000
vn 0.894799 0.446468 0.000000
vn 0.003215 0.999995 0.000000
vn 0.003215 0.999995 0.000000
vn 0.003215 0.999995 0.000000
vn 0.003215 0.999995 0.000000
vn 0.003215 0.999995 0.000000
vn 0.003215 0.999995 0.000000
vn 0.003215 0.999995 0.000000
vn 0.003215 0.999995 0.000000
vn 0.003215 0.999995 0.000000
vn 0.003215 0.999995 0.000000
vn 0.003215 0.999995 0.000000
vn 0.003215 0.999995 0.000000
vn 0.003215 0.999995 0.000000
vn 0.003215 0.999995 0.000000
vn 0.003215 0.999995 0.000000
vn 0.003215 0.999995 0.000000
vn 0.003215 0.999995 0.000000
vn 0.003215 0.999995 0.000000
vn -0.983080 0.183175 0.000000
vn -0.983080 0.183175 0.000000
vn -0.983080 0.183175 0.000000
vn -0.983080 0.183175 0.000000
vn -0.983080 0.183175 0.000000
vn -0.983080 0.183175 0.000000
vn 0.003215 0.237868 -0.971292
vn 0.003215 0.237868 -0.971292
vn 0.003215 0.237868 -0.971292
vn 0.003215 0.237868 -0.971292
vn 0.003215 0.237868 -0.971292
vn 0.003215 0.237868 -0.971292
vn 0.003215 0.237868 -0.971292
vn 0.003215 0.237868 -0.971292
vn 0.003215 0.237868 -0.971292
vn 0.003215 0.237868 -0.971292
vn 0.003215 0.237868 -0.971292
vn 0.003215 0.237868 -0.971292
vn 0.003215 0.447843 -0.894107
vn 0.003215 0.447843 -0.894107
vn 0.003215 0.447843 -0.894107
vn 0.003215 0.447843 -0.894107
vn 0.003215 0.447843 -0.894107
vn 0.003215 0.447843 -0.894107
vn 0.003215 0.447843 -0.894107
vn 0.003215 0.447843 -0.894107
vn 0.003215 0.447843 -0.894107
vn 0.003215 0.447843 -0.894107
vn 0.003215 0.447843 -0.894107
vn 0.003215 0.447843 -0.894107
vn -0.945562 0.315636 -0.079286
vn -0.945562 0.315636 -0.079286
vn -0.945562 0.315636 -0.079286
vn -0.945562 0.315636 -0.079286
vn -0.945562 0.315636 -0.079286
vn -0.945562 0.315636 -0.079286
vn -0.968893 0.237868 -0.068309
vn -0.968893 0.237868 -0.068309
vn -0.968893 0.237868 -0.068309
vn -0.968893 0.237868 -0.068309
vn -0.968893 0.237868 -0.068309
vn -0.968893 0.237868 -0.068309
vn 0.003215 0.237868 0.971292
vn 0.003215 0.237868 0.971292
vn 0.003215 0.237868 0.971292
vn 0.003215 0.237868 0.971292
vn 0.003215 0.237868 0.971292
vn 0.003215 0.237868 0.971292
vn 0.003215 0.999995 0.000000
vn 0.003215 0.999995 0.000000
vn 0.003215 0.999995 0.000000
vn 0.003215 0.999995 0.000000
vn 0.003215 0.999995 0.000000
vn 0.003215 0.999995 0.000000
vn 0.003215 0.999995 0.000000
vn 0.003215 0.999995 0.000000
vn 0.003215 0.999995 0.000000
vn 0.003215 0.999995 0.000000
vn 0.003215 0.999995 0.000000
vn 0.003215 0.999995 0.000000
vn 0.003215 0.999995 0.000000
vn 0.003215 0.999995 0.000000
vn 0.003215 0.999995 0.000000
vn 0.003215 0.999995 0.000000
vn 0.003215 0.999995 0.000000
vn 0.003215 0.999995 0.000000
vn 0.003215 0.447843 0.894107
vn 0.003215 0.447843 0.894107
vn 0.003215 0.447843 0.894107
vn 0.003215 0.447843 0.894107
vn 0.003215 0.447843 0.894107
vn 0.003215 0.447843 0.894107
vn 0.894799 0.446468 0.000000
vn 0.894799 0.446468 0.000000
vn 0.894799 0.446468 0.000000
vn 0.894799 0.446468 0.000000
vn 0.894799 0.446468 0.000000
vn 0.894799 0.446468 0.000000
vn 0.894799 0.446468 0.000000
vn 0.894799 0.446468 0.000000
vn 0.894799 0.446468 0.000000
vn 0.894799 0.446468 0.000000
vn 0.894799 0.446468 0.000000
vn 0.894799 0.446468 0.000000
vn 0.003215 0.999995 0.000000
vn 0.003215 0.999995 0.000000
vn 0.003215 0.999995 0.000000
vn 0.003215 0.999995 0.000000
vn 0.003215 0.999995 0.000000
vn 0.003215 0.999995 0.000000
vn 0.003215 0.999995 0.000000
vn 0.003215 0.999995 0.000000
vn 0.003215 0.999995 0.000000
vn 0.003215 0.999995 0.000000
vn 0.003215 0.999995 0.000000
vn 0.003215 0.999995 0.000000
vn 0.003215 0.999995 0.000000
vn 0.003215 0.999995 0.000000
vn 0.003215 0.999995 0.000000
vn 0.003215 0.999995 0.000000
vn 0.003215 0.999995 0.000000
vn 0.003215 0.999995 0.000000
vn 0.003215 0.999995 0.000000
vn 0.003215 0.999995 0.000000
vn 0.003215 0.999995 0.000000
vn 0.003215 0.999995 0.000000
vn 0.003215 0.999995 0.000000
vn 0.003215 0.999995 0.000000
vn 0.003215 0.999995 0.000000
vn 0.003215 0.999995 0.000000
vn 0.003215 0.999995 0.000000
vn 0.003215 0.999995 0.000000
vn 0.003215 0.999995 0.000000
vn 0.003215 0.999995 0.000000
vn 0.003215 0.999995 0.000000
vn 0.003215 0.999995 0.000000
vn 0.003215 0.999995 0.000000
vn 0.003215 0.999995 0.000000
vn 0.003215 0.999995 0.000000
vn 0.003215 0.999995 0.000000
vn 0.003215 0.999995 0.000000
vn 0.003215 0.999995 0.000000
vn 0.003215 0.999995 0.000000
vn 0.003215 0.999995 0.000000
vn 0.003215 0.999995 0.000000
vn 0.003215 0.999995 0.000000
vn 0.003215 0.999995 0.000000
vn 0.003215 0.999995 0.000000
vn 0.003215 0.999995 0.000000
vn 0.003215 0.999995 0.000000
vn 0.003215 0.999995 0.000000
vn 0.003215 0.999995 0.000000
s 1
g rocksSmall group1
f 1/48/1 3/49/2 2/50/3
f 4/51/4 2/50/3 3/49/2
s 2
f 5/52/5 7/53/6 6/54/7
f 8/55/8 6/54/7 7/53/6
f 9/56/9 6/54/7 8/55/8
f 10/57/10 8/55/8 7/53/6
s 3
f 11/58/11 12/59/12 4/51/13
f 12/59/12 13/60/14 4/51/13
f 4/51/13 13/60/14 2/50/15
f 14/61/16 2/50/15 13/60/14
s 4
f 15/62/17 7/53/18 16/63/19
f 5/52/20 16/63/19 7/53/18
s 5
f 17/64/21 19/65/22 18/66/23
f 20/47/24 18/66/23 19/65/22
s 6
f 21/46/25 23/45/26 22/44/27
f 24/43/28 22/44/27 23/45/26
s 7
f 16/63/29 5/52/30 25/42/31
f 6/54/32 25/42/31 5/52/30
s 8
f 4/51/33 3/49/34 11/58/35
f 26/41/36 11/58/35 3/49/34
f 27/40/37 11/58/35 26/41/36
f 28/39/38 27/40/37 26/41/36
s 9
f 14/61/39 13/60/40 29/38/41
f 30/37/42 29/38/41 13/60/40
f 31/36/43 29/38/41 30/37/42
f 32/35/44 31/36/43 30/37/42
f 33/34/45 32/35/44 30/37/42
f 34/33/46 33/34/45 30/37/42
s 10
f 35/32/47 33/34/48 19/65/49
f 34/33/50 19/65/49 33/34/48
f 20/47/51 19/65/49 34/33/50
f 36/31/52 20/47/51 34/33/50
s 11
f 32/35/53 33/34/54 37/30/55
f 35/32/56 37/30/55 33/34/54
s 12
f 13/60/57 12/59/58 30/37/59
f 38/29/60 30/37/59 12/59/58
s 13
f 37/30/61 35/32/62 17/64/63
f 19/65/64 17/64/63 35/32/62
s 14
f 36/31/65 39/28/66 20/47/67
f 18/66/68 20/47/67 39/28/66
s 15
f 39/28/69 36/31/70 40/27/71
f 38/29/72 40/27/71 36/31/70
f 34/33/73 38/29/72 36/31/70
f 30/37/74 38/29/72 34/33/73
s 16
f 25/42/75 6/54/76 41/26/77
f 9/56/78 41/26/77 6/54/76
s 17
f 11/58/79 27/40/80 12/59/81
f 38/29/82 12/59/81 27/40/80
f 42/25/83 38/29/82 27/40/80
f 40/27/84 38/29/82 42/25/83
s 18
f 43/24/85 26/41/86 23/45/87
f 24/43/88 23/45/87 26/41/86
f 1/48/89 24/43/88 26/41/86
f 3/49/90 1/48/89 26/41/86
s 19
f 21/46/91 22/44/92 44/23/93
f 10/57/94 44/23/93 22/44/92
f 8/55/95 10/57/94 22/44/92
f 45/22/96 8/55/95 22/44/92
s 20
f 15/62/97 44/23/98 7/53/99
f 10/57/100 7/53/99 44/23/98
s 21
f 43/24/101 46/21/102 26/41/103
f 28/39/104 26/41/103 46/21/102
s 22
f 42/25/105 27/40/106 46/21/107
f 28/39/108 46/21/107 27/40/106
s 23
f 45/22/109 22/44/110 47/20/111
f 14/61/112 47/20/111 22/44/110
f 29/38/113 47/20/111 14/61/112
f 1/48/114 14/61/112 22/44/110
f 24/43/115 1/48/114 22/44/110
f 1/48/114 2/50/116 14/61/112
s 24
f 48/19/117 47/20/118 31/36/119
f 29/38/120 31/36/119 47/20/118
s 25
f 8/55/121 45/22/122 9/56/123
f 47/20/124 9/56/123 45/22/122
f 41/26/125 9/56/123 47/20/124
f 48/19/126 41/26/125 47/20/124
s 26
f 23/1/127 43/2/128 42/3/129
f 46/4/130 42/3/129 43/2/128
f 16/5/131 15/6/132 25/7/133
f 41/8/134 25/7/133 15/6/132
f 48/9/135 41/8/134 15/6/132
f 44/10/136 48/9/135 15/6/132
f 31/11/137 48/9/135 44/10/136
f 21/12/138 31/11/137 44/10/136
f 32/13/139 31/11/137 21/12/138
f 39/14/140 32/13/139 21/12/138
f 23/1/127 39/14/140 21/12/138
f 40/15/141 39/14/140 23/1/127
f 42/3/129 40/15/141 23/1/127
f 37/16/142 32/13/139 17/17/143
f 18/18/144 17/17/143 32/13/139
f 39/14/140 18/18/144 32/13/139
