# This file uses centimeters as units for non-parametric coordinates.

g default
v -0.270144 0.239296 1.000000
v -0.270144 0.000000 1.000000
v -0.000000 0.239296 1.270144
v -0.000000 0.000000 1.270144
v -6.000000 0.000000 3.721051
v -6.000000 0.239296 3.721051
v -5.712252 0.000000 3.991200
v -5.712252 0.239296 3.991200
v -5.712252 0.000000 1.000000
v -5.712252 0.239296 1.000000
v -6.000000 0.000000 1.270144
v -6.000000 0.239296 1.270144
v -0.521495 0.000000 1.521495
v -5.460902 0.000000 1.521495
v -0.521495 0.119651 1.521495
v -5.460902 0.119651 1.521495
v -0.521495 0.239296 1.521495
v -5.460902 0.239296 1.521495
v -5.469703 0.119651 3.500000
v -5.469703 0.000000 3.500000
v -5.469703 0.239296 3.500000
v -0.530297 0.000000 3.500000
v -0.530297 0.119651 3.500000
v -0.530297 0.239296 3.500000
v -0.270144 0.000000 4.000000
v -0.270144 0.239296 4.000000
v -0.000000 0.000000 3.721051
v -0.000000 0.239296 3.721051
v -0.270144 0.239296 1.270144
v -5.712252 0.239296 1.270144
v -5.712252 0.239296 3.721051
v -0.270144 0.239296 3.721051
vt 0.184850 0.529250
vt 0.188251 0.529250
vt 0.184850 0.507595
vt 0.188251 0.507595
vt 0.112918 0.507595
vt 0.116320 0.507595
vt 0.112918 0.529250
vt 0.116320 0.529250
vt 0.116320 0.507595
vt 0.112918 0.507595
vt 0.116320 0.529250
vt 0.112918 0.529250
vt 0.181684 0.507595
vt 0.181684 0.518423
vt 0.119485 0.507595
vt 0.119485 0.518423
vt 0.181684 0.529250
vt 0.119485 0.529250
vt 0.119485 0.518423
vt 0.119485 0.507595
vt 0.119485 0.529250
vt 0.181684 0.507595
vt 0.181684 0.518423
vt 0.181684 0.529250
vt 0.184850 0.507595
vt 0.184850 0.529250
vt 0.188251 0.507595
vt 0.188251 0.529250
vt 0.184850 0.529250
vt 0.116320 0.529250
vt 0.116320 0.529250
vt 0.184850 0.529250
vt 0.988693 0.557661
vt 0.908036 0.525848
vt 0.908036 0.557661
vt 0.988693 0.525848
vt 0.983091 0.339876
vt 0.983091 0.339876
vt 0.983091 0.265900
vt 0.917353 0.265900
vt 0.983091 0.265900
vt 0.983091 0.265900
vt 0.917353 0.265900
vt 0.983091 0.339876
vt 0.917353 0.265900
vt 0.983091 0.265900
vt 0.983091 0.339876
vt 0.917353 0.265900
vt 0.983091 0.265900
vt 0.917353 0.265900
vt 0.983091 0.265900
vt 0.983091 0.339876
vt 0.917353 0.265900
vt 0.983091 0.339876
vt 0.983091 0.265900
vt 0.983091 0.339876
vt 0.917353 0.265900
vt 0.983091 0.339876
vt 0.917353 0.265900
vt 0.983091 0.265900
vn 0.709804 0.003922 -0.704388
vn 0.709804 0.003922 -0.704388
vn 0.709804 0.003922 -0.704388
vn 0.709804 0.003922 -0.704388
vn -0.709804 0.003922 0.704388
vn -0.709804 0.003922 0.704388
vn -0.709804 0.003922 0.704388
vn -0.709804 0.003922 0.704388
vn -0.709804 0.003922 -0.704388
vn -0.709804 0.003922 -0.704388
vn -0.709804 0.003922 -0.704388
vn -0.709804 0.003922 -0.704388
vn -0.003922 0.003922 0.999985
vn -0.003922 0.003922 0.999985
vn -0.003922 0.003922 0.999985
vn -0.003922 0.003922 0.999985
vn -0.003922 0.003922 0.999985
vn -0.003922 0.003922 0.999985
vn -0.003922 0.003922 0.999985
vn -0.003922 0.003922 0.999985
vn 0.999992 0.003922 0.000000
vn 0.999992 0.003922 0.000000
vn 0.999992 0.003922 0.000000
vn 0.999992 0.003922 0.000000
vn 0.999992 0.003922 0.000000
vn 0.999992 0.003922 0.000000
vn 0.999992 0.003922 0.000000
vn 0.999992 0.003922 0.000000
vn -0.003922 0.003922 -0.999985
vn -0.003922 0.003922 -0.999985
vn -0.003922 0.003922 -0.999985
vn -0.003922 0.003922 -0.999985
vn -0.003922 0.003922 -0.999985
vn -0.003922 0.003922 -0.999985
vn -0.003922 0.003922 -0.999985
vn -0.003922 0.003922 -0.999985
vn -0.003922 0.003922 0.999985
vn -0.003922 0.003922 0.999985
vn -0.003922 0.003922 0.999985
vn -0.003922 0.003922 0.999985
vn -0.003922 -0.999992 0.000000
vn -0.003922 -0.999992 0.000000
vn -0.003922 -0.999992 0.000000
vn -0.003922 -0.999992 0.000000
vn -0.003922 -0.999992 0.000000
vn -0.003922 -0.999992 0.000000
vn -0.003922 -0.999992 0.000000
vn -0.003922 -0.999992 0.000000
vn -0.003922 -0.999992 0.000000
vn -0.003922 -0.999992 0.000000
vn -0.003922 -0.999992 0.000000
vn -0.003922 -0.999992 0.000000
vn 0.709804 0.003922 0.704388
vn 0.709804 0.003922 0.704388
vn 0.709804 0.003922 0.704388
vn 0.709804 0.003922 0.704388
vn -0.999992 0.003922 0.000000
vn -0.999992 0.003922 0.000000
vn -0.999992 0.003922 0.000000
vn -0.999992 0.003922 0.000000
vn -0.999992 0.003922 0.000000
vn -0.999992 0.003922 0.000000
vn -0.999992 0.003922 0.000000
vn -0.999992 0.003922 0.000000
vn -0.003922 0.999992 0.000000
vn -0.003922 0.999992 0.000000
vn -0.003922 0.999992 0.000000
vn -0.003922 0.999992 0.000000
vn -0.003922 0.999992 0.000000
vn -0.003922 0.999992 0.000000
vn -0.003922 0.999992 0.000000
vn -0.003922 0.999992 0.000000
vn -0.003922 0.999992 0.000000
vn -0.003922 0.999992 0.000000
vn -0.003922 0.999992 0.000000
vn -0.003922 0.999992 0.000000
vn -0.003922 0.999992 0.000000
vn -0.003922 0.999992 0.000000
vn -0.003922 0.999992 0.000000
vn -0.003922 0.999992 0.000000
vn -0.003922 0.999992 0.000000
vn -0.003922 0.999992 0.000000
vn -0.003922 0.999992 0.000000
vn -0.003922 0.999992 0.000000
vn -0.003922 0.999992 0.000000
vn -0.003922 0.999992 0.000000
vn -0.003922 0.999992 0.000000
vn -0.003922 0.999992 0.000000
vn -0.003922 0.999992 0.000000
vn -0.003922 0.999992 0.000000
vn -0.003922 0.999992 0.000000
vn -0.003922 0.999992 0.000000
vn -0.003922 0.999992 0.000000
vn -0.003922 0.999992 0.000000
vn -0.003922 0.999992 0.000000
vn -0.003922 0.999992 0.000000
vn 0.999992 0.003922 0.000000
vn 0.999992 0.003922 0.000000
vn 0.999992 0.003922 0.000000
vn 0.999992 0.003922 0.000000
vn -0.999992 0.003922 0.000000
vn -0.999992 0.003922 0.000000
vn -0.999992 0.003922 0.000000
vn -0.999992 0.003922 0.000000
vn -0.003922 0.003922 -0.999985
vn -0.003922 0.003922 -0.999985
vn -0.003922 0.003922 -0.999985
vn -0.003922 0.003922 -0.999985
vn -0.003922 0.999992 0.000000
vn -0.003922 0.999992 0.000000
vn -0.003922 0.999992 0.000000
vn -0.003922 0.999992 0.000000
vn -0.003922 0.999992 0.000000
vn -0.003922 0.999992 0.000000
vn -0.003922 0.999992 0.000000
vn -0.003922 0.999992 0.000000
vn -0.003922 0.999992 0.000000
vn -0.003922 0.999992 0.000000
vn -0.003922 0.999992 0.000000
vn -0.003922 0.999992 0.000000
vn -0.003922 0.999992 0.000000
vn -0.003922 0.999992 0.000000
vn -0.003922 0.999992 0.000000
vn -0.003922 0.999992 0.000000
vn -0.003922 0.999992 0.000000
vn -0.003922 0.999992 0.000000
vn -0.003922 0.999992 0.000000
vn -0.003922 0.999992 0.000000
vn -0.003922 0.999992 0.000000
vn -0.003922 0.999992 0.000000
vn -0.003922 0.999992 0.000000
vn -0.003922 0.999992 0.000000
vn 0.003922 0.999992 0.000000
vn 0.003922 0.999992 0.000000
vn 0.003922 0.999992 0.000000
vn 0.003922 0.999992 0.000000
vn 0.003922 0.999992 0.000000
vn 0.003922 0.999992 0.000000
s 1
g metalTileDouble group1
f 1/1/1 3/2/2 2/3/3
f 4/4/4 2/3/3 3/2/2
s 2
f 5/5/5 7/6/6 6/7/7
f 8/8/8 6/7/7 7/6/6
s 3
f 9/9/9 11/10/10 10/11/11
f 12/12/12 10/11/11 11/10/10
s 4
f 13/13/13 15/14/14 14/15/15
f 16/16/16 14/15/15 15/14/14
s 5
f 15/14/17 17/17/18 16/16/19
f 18/18/20 16/16/19 17/17/18
s 6
f 16/16/21 19/19/22 14/15/23
f 20/20/24 14/15/23 19/19/22
s 7
f 19/19/25 16/16/26 21/21/27
f 18/18/28 21/21/27 16/16/26
s 8
f 20/20/29 19/19/30 22/22/31
f 23/23/32 22/22/31 19/19/30
s 9
f 19/19/33 21/21/34 23/23/35
f 24/24/36 23/23/35 21/21/34
s 10
f 25/25/37 26/26/38 7/6/39
f 8/8/40 7/6/39 26/26/38
s 11
f 27/27/41 25/25/42 4/4/43
f 2/3/44 4/4/43 25/25/42
f 22/22/45 2/3/44 25/25/42
f 7/6/46 22/22/45 25/25/42
f 20/20/47 22/22/45 7/6/46
f 14/15/48 20/20/47 7/6/46
f 22/22/45 13/13/49 2/3/44
f 9/9/50 2/3/44 13/13/49
f 14/15/48 9/9/50 13/13/49
f 7/6/46 9/9/50 14/15/48
f 5/5/51 9/9/50 7/6/46
f 11/10/52 9/9/50 5/5/51
s 12
f 28/28/53 26/26/54 27/27/55
f 25/25/56 27/27/55 26/26/54
s 13
f 13/13/57 22/22/58 15/14/59
f 23/23/60 15/14/59 22/22/58
s 14
f 15/14/61 23/23/62 17/17/63
f 24/24/64 17/17/63 23/23/62
s off
f 1/1/65 10/11/66 29/29/67
f 30/30/68 29/29/69 10/11/70
f 12/12/71 30/30/72 10/11/73
f 31/31/74 30/30/75 12/12/76
s 15
f 8/8/77 31/31/78 12/12/79
f 6/7/80 8/8/77 12/12/79
s off
f 29/29/81 26/26/82 1/1/83
f 8/8/84 26/26/85 31/31/86
s 16
f 26/26/87 28/28/88 1/1/89
f 3/2/90 1/1/89 28/28/88
s off
f 32/32/91 26/26/92 29/29/93
f 31/31/94 26/26/95 32/32/96
s 17
f 3/2/97 28/28/98 4/4/99
f 27/27/100 4/4/99 28/28/98
s 18
f 11/10/101 5/5/102 12/12/103
f 6/7/104 12/12/103 5/5/102
s 19
f 9/9/105 10/11/106 2/3/107
f 1/1/108 2/3/107 10/11/106
s off
f 32/45/109 29/46/110 17/47/111
f 30/48/112 17/49/113 29/44/114
f 18/50/115 17/51/116 30/52/117
f 21/53/118 18/39/119 30/54/120
f 17/40/121 24/55/122 32/56/123
f 31/57/124 32/41/125 24/58/126
f 21/59/127 31/60/128 24/37/129
f 30/43/130 31/42/131 21/38/132
f 16/36/133 23/35/134 15/34/135
f 23/35/136 16/36/137 19/33/138
