# This file uses centimeters as units for non-parametric coordinates.

g default
v -0.731895 0.000000 0.468925
v -0.731895 0.000000 0.000000
v -0.344401 0.717257 0.177528
v -0.344401 0.717257 0.089414
v 0.178383 0.000000 0.731895
v 0.233233 0.717257 0.344401
v 0.344401 0.717257 0.130027
v -0.014396 0.717257 -0.344401
v 0.731895 0.000000 0.000000
v 0.178383 0.000000 -0.731895
v -0.132935 0.717257 -0.344401
v 0.344401 0.717257 0.344401
v -0.375129 0.000000 -0.731895
v 0.731895 0.000000 0.731895
vt 0.834075 0.003694
vt 0.876220 0.003694
vt 0.876220 0.045838
vt 0.834075 0.003694
vt 0.876220 0.003694
vt 0.876220 0.045838
vt 0.834075 0.003694
vt 0.876220 0.003694
vt 0.876220 0.045838
vt 0.834075 0.003694
vt 0.876220 0.003694
vt 0.876220 0.045838
vt 0.834075 0.003694
vt 0.876220 0.003694
vt 0.876220 0.045838
vt 0.834075 0.003694
vt 0.876220 0.003694
vt 0.876220 0.045838
vt 0.834075 0.003694
vt 0.876220 0.003694
vt 0.876220 0.045838
vt 0.834075 0.003694
vt 0.876220 0.003694
vt 0.876220 0.045838
vt 0.834075 0.003694
vt 0.876220 0.003694
vt 0.876220 0.045838
vt 0.834075 0.003694
vt 0.876220 0.003694
vt 0.876220 0.045838
vt 0.834075 0.003694
vt 0.876220 0.003694
vt 0.876220 0.045838
vt 0.834075 0.003694
vt 0.876220 0.003694
vt 0.876220 0.045838
vt 0.834075 0.003694
vt 0.876220 0.003694
vt 0.876220 0.045838
vt 0.834075 0.003694
vt 0.876220 0.003694
vt 0.876220 0.045838
vt 0.834075 0.003694
vt 0.876220 0.003694
vt 0.876220 0.045838
vt 0.834075 0.003694
vt 0.876220 0.003694
vt 0.876220 0.045838
vt 0.834075 0.003694
vt 0.876220 0.003694
vt 0.876220 0.045838
vt 0.834075 0.003694
vt 0.876220 0.003694
vt 0.876220 0.045838
vt 0.834075 0.003694
vt 0.876220 0.003694
vt 0.876220 0.045838
vt 0.834075 0.003694
vt 0.876220 0.003694
vt 0.876220 0.045838
vt 0.834075 0.003694
vt 0.876220 0.003694
vt 0.876220 0.045838
vt 0.834075 0.003694
vt 0.876220 0.003694
vt 0.876220 0.045838
vt 0.834075 0.003694
vt 0.876220 0.003694
vt 0.876220 0.045838
vt 0.834075 0.003694
vt 0.876220 0.003694
vt 0.876220 0.045838
vn -0.879816 0.475315 0.000000
vn -0.879816 0.475315 0.000000
vn -0.879816 0.475315 0.000000
vn -0.879816 0.475314 0.000000
vn -0.879816 0.475314 0.000000
vn -0.879816 0.475314 0.000000
vn -0.244185 0.475315 0.845251
vn -0.244185 0.475315 0.845251
vn -0.244185 0.475315 0.845251
vn -0.244185 0.475315 0.845251
vn -0.244185 0.475315 0.845251
vn -0.244185 0.475315 0.845251
vn 0.701734 0.475315 -0.530703
vn 0.701734 0.475314 -0.530703
vn 0.701734 0.475315 -0.530703
vn 0.701734 0.475315 -0.530702
vn 0.701734 0.475315 -0.530702
vn 0.701734 0.475315 -0.530702
vn 0.000000 1.000000 0.000000
vn 0.000000 1.000000 0.000000
vn 0.000000 1.000000 0.000000
vn 0.000000 1.000000 0.000000
vn 0.000000 1.000000 0.000000
vn 0.000000 1.000000 0.000000
vn 0.000000 1.000000 -0.000001
vn 0.000000 1.000000 -0.000001
vn 0.000000 1.000000 -0.000001
vn 0.000000 1.000000 0.000000
vn 0.000000 1.000000 0.000000
vn 0.000000 1.000000 0.000000
vn 0.000000 1.000000 0.000000
vn 0.000000 1.000000 0.000000
vn 0.000000 1.000000 0.000000
vn -0.790859 0.475314 -0.385510
vn -0.790859 0.475315 -0.385510
vn -0.790859 0.475315 -0.385510
vn -0.790859 0.475315 -0.385508
vn -0.790860 0.475315 -0.385508
vn -0.790859 0.475315 -0.385509
vn 0.000000 0.475315 -0.879816
vn 0.000000 0.475315 -0.879816
vn 0.000000 0.475315 -0.879816
vn 0.000000 0.475315 -0.879816
vn 0.000000 0.475315 -0.879816
vn 0.000000 0.475315 -0.879816
vn 0.879816 0.475315 0.000000
vn 0.879816 0.475315 0.000000
vn 0.879816 0.475315 0.000000
vn 0.879816 0.475314 0.000000
vn 0.879816 0.475315 0.000000
vn 0.879816 0.475315 0.000000
vn 0.000000 0.475315 0.879816
vn 0.000000 0.475315 0.879816
vn 0.000000 0.475315 0.879816
vn 0.000000 0.475315 0.879816
vn 0.000000 0.475315 0.879816
vn 0.000000 0.475315 0.879816
vn 0.000000 -1.000000 0.000000
vn 0.000000 -1.000000 0.000000
vn 0.000000 -1.000000 0.000000
vn 0.000000 -1.000000 0.000000
vn 0.000000 -1.000000 0.000000
vn 0.000000 -1.000000 0.000000
vn 0.000000 -1.000000 0.000000
vn 0.000000 -1.000000 0.000000
vn 0.000000 -1.000000 0.000000
vn 0.000000 -1.000000 0.000000
vn 0.000000 -1.000000 0.000000
vn 0.000000 -1.000000 0.000000
vn 0.000000 -1.000000 0.000000
vn 0.000000 -1.000000 0.000000
vn 0.000000 -1.000000 0.000000
s off
g Small_Rock_B Small_Rock
f 2/1/1 1/2/2 3/3/3
f 3/4/4 4/5/5 2/6/6
f 1/7/7 5/8/8 6/9/9
f 6/10/10 3/11/11 1/12/12
f 8/13/13 7/14/14 9/15/15
f 9/16/16 10/17/17 8/18/18
f 4/19/19 3/20/20 6/21/21
f 6/22/22 11/23/23 4/24/24
f 6/25/25 8/26/26 11/27/27
f 6/28/28 7/29/29 8/30/30
f 6/31/31 12/32/32 7/33/33
f 2/34/34 4/35/35 11/36/36
f 11/37/37 13/38/38 2/39/39
f 10/40/40 13/41/41 11/42/42
f 11/43/43 8/44/44 10/45/45
f 12/46/46 14/47/47 9/48/48
f 9/49/49 7/50/50 12/51/51
f 5/52/52 14/53/53 12/54/54
f 12/55/55 6/56/56 5/57/57
f 1/58/58 2/59/59 13/60/60
f 13/61/61 5/62/62 1/63/63
f 13/64/64 10/65/65 5/66/66
f 10/67/67 9/68/68 5/69/69
f 9/70/70 14/71/71 5/72/72
