# This file uses centimeters as units for non-parametric coordinates.

g default
v -0.165778 0.000000 -0.150961
v -0.165778 0.000000 0.187171
v 0.172345 0.000000 -0.150961
v 0.172345 0.000000 0.187171
v -0.258248 0.227213 0.149097
v -0.134588 0.227213 -0.118285
v -0.258248 0.227213 -0.149100
v 0.000000 0.227213 -0.298198
v 0.141814 0.227213 -0.118285
v 0.258248 0.227213 -0.149100
v 0.141814 0.227213 0.158116
v 0.000000 0.227213 0.298196
v -0.134588 0.227213 0.158116
v 0.258248 0.227213 0.149097
v 0.000000 0.314776 0.397594
v 0.344327 0.314776 0.198797
v -0.344327 0.314776 0.198797
v -0.344327 0.314776 -0.198798
v 0.000000 0.314776 -0.397597
v 0.344327 0.314776 -0.198798
v -0.082279 0.553823 -0.047502
v 0.000000 0.553823 -0.095005
v 0.082279 0.553823 -0.047502
v 0.082279 0.553823 0.047502
v 0.000000 0.553823 0.095005
v -0.082279 0.553823 0.047502
vt 0.270985 0.395410
vt 0.270985 0.395410
vt 0.231578 0.395410
vt 0.231578 0.395410
vt 0.267351 0.290623
vt 0.281763 0.290623
vt 0.281763 0.290623
vt 0.251665 0.290623
vt 0.235137 0.290623
vt 0.221567 0.290623
vt 0.235137 0.290623
vt 0.267351 0.290623
vt 0.251665 0.290623
vt 0.221567 0.290623
vt 0.251665 0.250240
vt 0.211534 0.250240
vt 0.291795 0.250240
vt 0.291795 0.250240
vt 0.251665 0.250240
vt 0.211534 0.250240
vt 0.148199 0.491063
vt 0.186175 0.491060
vt 0.157274 0.032806
vt 0.148199 0.032806
vt 0.110224 0.491063
vt 0.139125 0.032806
vt 0.139125 0.032806
vt 0.110224 0.491063
vt 0.148199 0.032806
vt 0.148199 0.491063
vt 0.157274 0.032806
vt 0.186175 0.491060
vn 0.000000 -1.000000 0.000000
vn 0.000000 -1.000000 0.000000
vn 0.000000 -1.000000 0.000000
vn 0.000000 -1.000000 0.000000
vn 0.000000 -1.000000 0.000000
vn 0.000000 -1.000000 0.000000
vn 0.000000 -1.000000 0.000000
vn 0.000000 -1.000000 0.000000
vn 0.000000 -1.000000 0.000000
vn 0.000000 -1.000000 0.000000
vn 0.000000 -1.000000 0.000000
vn 0.000000 -1.000000 0.000000
vn 0.000000 -1.000000 0.000000
vn 0.000000 -1.000000 0.000000
vn 0.000000 -1.000000 0.000000
vn 0.000000 -1.000000 0.000000
vn 0.000000 -1.000000 0.000000
vn 0.000000 -1.000000 0.000000
vn 0.000000 -1.000000 0.000000
vn 0.000000 -1.000000 0.000000
vn 0.000000 -1.000000 0.000000
vn 0.000000 -1.000000 0.000000
vn 0.000000 -1.000000 0.000000
vn 0.000000 -1.000000 0.000000
vn 0.000000 -1.000000 0.000000
vn 0.000000 -1.000000 0.000000
vn 0.000000 -1.000000 0.000000
vn 0.000000 -1.000000 0.000000
vn 0.000000 -1.000000 0.000000
vn 0.000000 -1.000000 0.000000
vn 0.000000 -1.000000 0.000000
vn 0.000000 -1.000000 0.000000
vn 0.000000 -1.000000 0.000000
vn 0.000000 -1.000000 0.000000
vn 0.000000 -1.000000 0.000000
vn 0.000000 -1.000000 0.000000
vn 0.356557 -0.701047 0.617576
vn 0.356557 -0.701047 0.617576
vn 0.356557 -0.701047 0.617576
vn 0.356557 -0.701047 0.617576
vn 0.356557 -0.701047 0.617576
vn 0.356557 -0.701047 0.617576
vn -0.713123 -0.701039 0.000000
vn -0.713123 -0.701039 0.000000
vn -0.713123 -0.701039 0.000000
vn -0.713123 -0.701039 0.000000
vn -0.713123 -0.701039 0.000000
vn -0.713123 -0.701039 0.000000
vn 0.356552 -0.701053 -0.617572
vn 0.356552 -0.701053 -0.617572
vn 0.356552 -0.701053 -0.617572
vn 0.356561 -0.701043 -0.617578
vn 0.356561 -0.701043 -0.617578
vn 0.356560 -0.701043 -0.617578
vn 0.713123 -0.701039 0.000000
vn 0.713123 -0.701039 0.000000
vn 0.713123 -0.701039 0.000000
vn 0.713123 -0.701039 0.000000
vn 0.713123 -0.701039 0.000000
vn 0.713123 -0.701039 0.000000
vn -0.356557 -0.701047 0.617576
vn -0.356557 -0.701047 0.617576
vn -0.356557 -0.701047 0.617576
vn -0.356557 -0.701047 0.617576
vn -0.356557 -0.701047 0.617576
vn -0.356557 -0.701047 0.617576
vn -0.356560 -0.701043 -0.617578
vn -0.356560 -0.701043 -0.617578
vn -0.356561 -0.701043 -0.617578
vn -0.356552 -0.701053 -0.617572
vn -0.356552 -0.701053 -0.617572
vn -0.356552 -0.701053 -0.617572
vn 0.000000 0.142349 -0.989816
vn 0.000000 0.142349 -0.989817
vn 0.000000 0.142349 -0.989816
vn 0.000000 0.142349 -0.989816
vn 0.000000 0.142349 -0.989816
vn 0.000000 0.142349 -0.989817
vn 0.991093 0.133174 0.000000
vn 0.991093 0.133174 0.000000
vn 0.991093 0.133174 0.000000
vn 0.991093 0.133174 0.000000
vn 0.991093 0.133174 0.000000
vn 0.991093 0.133174 0.000000
vn -0.990709 0.135995 0.000000
vn -0.990709 0.135995 0.000000
vn -0.990710 0.135995 0.000000
vn -0.990710 0.135995 0.000000
vn -0.990710 0.135995 0.000000
vn -0.990710 0.135995 0.000000
vn 0.000000 0.126843 0.991923
vn 0.000000 0.126843 0.991923
vn 0.000000 0.126843 0.991923
vn 0.000000 0.126843 0.991923
vn 0.000000 0.126843 0.991923
vn 0.000000 0.126843 0.991923
vn -0.336969 0.738790 -0.583645
vn -0.336969 0.738790 -0.583645
vn -0.336969 0.738790 -0.583645
vn -0.336958 0.738795 -0.583646
vn -0.336958 0.738795 -0.583646
vn -0.336958 0.738795 -0.583646
vn 0.336969 -0.738790 0.583645
vn 0.336969 -0.738790 0.583645
vn 0.336969 -0.738790 0.583645
vn 0.336958 -0.738795 0.583646
vn 0.336958 -0.738795 0.583646
vn 0.336958 -0.738795 0.583646
vn 0.673940 0.738787 0.000000
vn 0.673940 0.738786 0.000000
vn 0.673940 0.738787 0.000000
vn 0.673940 0.738786 0.000000
vn 0.673940 0.738787 0.000000
vn 0.673940 0.738787 0.000000
vn -0.673940 -0.738787 0.000000
vn -0.673940 -0.738787 0.000000
vn -0.673940 -0.738786 0.000000
vn -0.673940 -0.738786 0.000000
vn -0.673940 -0.738787 0.000000
vn -0.673940 -0.738787 0.000000
vn 0.336968 0.738789 0.583647
vn 0.336968 0.738789 0.583647
vn 0.336968 0.738789 0.583647
vn 0.336963 0.738785 0.583654
vn 0.336963 0.738785 0.583654
vn 0.336963 0.738785 0.583654
vn -0.336968 -0.738789 -0.583647
vn -0.336968 -0.738789 -0.583647
vn -0.336968 -0.738789 -0.583647
vn -0.336963 -0.738785 -0.583655
vn -0.336963 -0.738785 -0.583655
vn -0.336963 -0.738785 -0.583655
vn 0.000000 1.000000 0.000000
vn 0.000000 1.000000 0.000000
vn 0.000000 1.000000 0.000000
vn 0.000000 1.000000 0.000000
vn 0.000000 1.000000 0.000000
vn 0.000000 1.000000 0.000000
vn 0.000000 1.000000 0.000000
vn 0.000000 1.000000 0.000000
vn 0.000000 1.000000 0.000000
vn 0.000000 1.000000 0.000000
vn 0.000000 1.000000 0.000000
vn 0.000000 1.000000 0.000000
vn 0.336968 0.738792 -0.583643
vn 0.336968 0.738792 -0.583643
vn 0.336968 0.738792 -0.583643
vn 0.336962 0.738787 -0.583653
vn 0.336962 0.738787 -0.583653
vn 0.336962 0.738787 -0.583653
vn -0.336968 -0.738792 0.583643
vn -0.336968 -0.738792 0.583643
vn -0.336968 -0.738792 0.583643
vn -0.336962 -0.738787 0.583653
vn -0.336962 -0.738787 0.583653
vn -0.336962 -0.738787 0.583653
vn -0.673940 0.738787 0.000000
vn -0.673940 0.738787 0.000000
vn -0.673940 0.738786 0.000000
vn -0.673940 0.738787 0.000000
vn -0.673940 0.738786 0.000000
vn -0.673940 0.738787 0.000000
vn 0.673940 -0.738787 0.000000
vn 0.673940 -0.738786 0.000000
vn 0.673940 -0.738787 0.000000
vn 0.673940 -0.738786 0.000000
vn 0.673940 -0.738787 0.000000
vn 0.673940 -0.738786 0.000000
vn -0.336969 0.738788 0.583648
vn -0.336969 0.738788 0.583648
vn -0.336969 0.738788 0.583648
vn -0.336959 0.738791 0.583649
vn -0.336959 0.738791 0.583649
vn -0.336959 0.738791 0.583649
vn 0.336969 -0.738787 -0.583648
vn 0.336969 -0.738788 -0.583648
vn 0.336969 -0.738787 -0.583648
vn 0.336959 -0.738791 -0.583649
vn 0.336959 -0.738791 -0.583649
vn 0.336959 -0.738791 -0.583649
s off
g Orange_ShortMushroom Mushrooms
f 2/1/1 1/2/2 3/3/3
f 3/3/4 4/4/5 2/1/6
f 6/5/7 5/6/8 7/7/9
f 7/7/10 8/8/11 6/5/12
f 8/8/13 9/9/14 6/5/15
f 8/8/16 10/10/17 9/9/18
f 10/10/19 11/11/20 9/9/21
f 13/12/22 12/13/23 5/6/24
f 5/6/25 6/5/26 13/12/27
f 13/12/28 11/11/29 12/13/30
f 11/11/31 14/14/32 12/13/33
f 11/11/34 10/10/35 14/14/36
f 15/15/37 12/13/38 14/14/39
f 14/14/40 16/16/41 15/15/42
f 5/6/43 17/17/44 18/18/45
f 18/18/46 7/7/47 5/6/48
f 10/10/49 8/8/50 19/19/51
f 19/19/52 20/20/53 10/10/54
f 20/20/55 16/16/56 14/14/57
f 14/14/58 10/10/59 20/20/60
f 15/15/61 17/17/62 5/6/63
f 5/6/64 12/13/65 15/15/66
f 7/7/67 18/18/68 19/19/69
f 19/19/70 8/8/71 7/7/72
f 3/3/73 1/2/74 6/5/75
f 6/5/76 9/9/77 3/3/78
f 11/11/79 4/4/80 3/3/81
f 3/3/82 9/9/83 11/11/84
f 1/2/85 2/1/86 13/12/87
f 13/12/88 6/5/89 1/2/90
f 2/1/91 4/4/92 11/11/93
f 11/11/94 13/12/95 2/1/96
f 19/21/97 18/22/98 21/23/99
f 21/23/100 22/24/101 19/21/102
f 19/21/103 21/23/104 18/22/105
f 21/23/106 19/21/107 22/24/108
f 20/25/109 23/26/110 24/27/111
f 24/27/112 16/28/113 20/25/114
f 20/25/115 24/27/116 23/26/117
f 24/27/118 20/25/119 16/28/120
f 25/29/121 15/30/122 16/28/123
f 16/28/124 24/27/125 25/29/126
f 25/29/127 16/28/128 15/30/129
f 16/28/130 25/29/131 24/27/132
f 21/23/133 26/31/134 25/29/135
f 25/29/136 22/24/137 21/23/138
f 25/29/139 24/27/140 22/24/141
f 24/27/142 23/26/143 22/24/144
f 20/25/145 19/21/146 22/24/147
f 22/24/148 23/26/149 20/25/150
f 20/25/151 22/24/152 19/21/153
f 22/24/154 20/25/155 23/26/156
f 18/22/157 17/32/158 26/31/159
f 26/31/160 21/23/161 18/22/162
f 18/22/163 26/31/164 17/32/165
f 26/31/166 18/22/167 21/23/168
f 26/31/169 17/32/170 15/30/171
f 15/30/172 25/29/173 26/31/174
f 26/31/175 15/30/176 17/32/177
f 15/30/178 26/31/179 25/29/180
