# This file uses centimeters as units for non-parametric coordinates.

g default
v -0.056509 0.001148 0.056506
v 0.056504 0.001148 0.056506
v -0.045575 0.450416 0.045573
v 0.045571 0.450416 0.045573
v -0.045575 0.450416 -0.045573
v 0.045571 0.450416 -0.045573
v -0.056509 0.001148 -0.056506
v 0.056504 0.001148 -0.056506
v -0.208123 0.474584 0.208116
v 0.208106 0.474584 0.208116
v 0.208106 0.474584 -0.208116
v -0.208123 0.474584 -0.208116
v -0.053525 0.781869 0.053517
v 0.053507 0.781869 0.053517
v 0.053507 0.781869 -0.053517
v -0.053525 0.781869 -0.053517
v -0.045575 0.450416 0.000000
v -0.303028 0.474584 0.000000
v -0.068007 0.781869 0.000000
v 0.067989 0.781869 0.000000
v 0.303010 0.474584 0.000000
v 0.045571 0.450416 0.000000
v 0.056504 0.001148 0.000000
v -0.056509 0.001148 0.000000
v -0.000002 0.001148 0.056506
v -0.000002 0.001148 0.000000
v -0.000002 0.001148 -0.056506
v -0.000002 0.450416 -0.045573
v -0.000009 0.474584 -0.303021
v -0.000009 0.781869 -0.067999
v -0.000009 0.799571 0.000000
v -0.000009 0.781869 0.067999
v -0.000009 0.474584 0.303021
v -0.000002 0.450416 0.045573
vt 0.250475 0.046624
vt 0.250466 0.368076
vt 0.232981 0.368074
vt 0.156028 0.480956
vt 0.131390 0.030948
vt 0.151702 0.030234
vt 0.157195 0.032875
vt 0.156828 0.086474
vt 0.250466 0.046625
vt 0.143518 0.481110
vt 0.236407 0.368088
vt 0.229834 0.033365
vt 0.246066 0.014711
vt 0.228623 0.015922
vt 0.250485 0.368078
vt 0.264720 0.030943
vt 0.263509 0.013500
vt 0.250441 0.368078
vt 0.236339 0.368072
vt 0.182636 0.487249
vt 0.129505 0.412733
vt 0.164123 0.470199
vt 0.135895 0.470198
vt 0.171355 0.412896
vt 0.171356 0.412726
vt 0.114586 0.486287
vt 0.147319 0.083183
vt 0.172011 0.031750
vt 0.146209 0.027592
vt 0.157455 0.087250
vt 0.151384 0.484462
vt 0.171356 0.412682
vt 0.163364 0.027592
vt 0.267951 0.046631
vt 0.129504 0.412758
vt 0.182638 0.477533
vt 0.114588 0.476571
vt 0.129504 0.412737
vt 0.129504 0.412732
vt 0.133101 0.493621
vt 0.129505 0.412167
vt 0.161329 0.493622
vt 0.153781 0.083045
vt 0.140039 0.032875
vt 0.153516 0.083198
vt 0.153506 0.083193
vt 0.131393 0.028717
vt 0.157426 0.087215
vt 0.172014 0.029519
vt 0.157457 0.087250
vt 0.129505 0.413102
vt 0.146714 0.082839
vt 0.129504 0.412736
vt 0.147349 0.083197
vt 0.171355 0.411380
vt 0.143410 0.087248
vt 0.147351 0.083196
vt 0.171356 0.412742
vt 0.171356 0.412745
vt 0.143411 0.087246
vt 0.171356 0.412744
vt 0.143672 0.086920
vt 0.129504 0.412747
vt 0.143400 0.087250
vt 0.153517 0.083197
vt 0.171356 0.412743
vt 0.153707 0.482709
vt 0.236383 0.368082
vt 0.250509 0.368078
vt 0.145841 0.479357
vt 0.150935 0.480156
vt 0.146290 0.483663
vt 0.141197 0.482864
vt 0.264577 0.046626
vt 0.264611 0.368068
vt 0.264543 0.368084
vt 0.264587 0.368073
vt 0.236373 0.046622
vt 0.267951 0.046618
vt 0.250466 0.046624
vt 0.232981 0.046629
vt 0.232981 0.046638
vt 0.247277 0.032154
vt 0.267951 0.046613
vt 0.232981 0.046617
vt 0.250466 0.046624
vt 0.267951 0.368079
vt 0.227412 -0.001521
vt 0.244855 -0.002732
vt 0.262298 -0.003943
vn 0.000000 0.024329 0.999704
vn 0.000000 0.024329 0.999704
vn 0.000000 0.024329 0.999704
vn 0.000000 0.024329 0.999704
vn -0.000000 0.986597 -0.163175
vn -0.000000 1.000000 -0.000000
vn 0.163180 0.986596 -0.000000
vn 0.161050 0.973719 -0.161044
vn 0.000000 0.024329 -0.999704
vn 0.000000 0.024329 -0.999704
vn 0.000000 0.024329 -0.999704
vn 0.000000 0.024329 -0.999704
vn 0.000000 -1.000000 0.000000
vn 0.000000 -1.000000 0.000000
vn 0.000000 -1.000000 0.000000
vn 0.000000 -1.000000 0.000000
vn 0.999704 0.024330 0.000000
vn 0.999704 0.024330 0.000000
vn 0.999704 0.024330 0.000000
vn 0.999704 0.024330 0.000000
vn -0.999704 0.024330 0.000000
vn -0.999704 0.024330 0.000000
vn -0.999704 0.024330 0.000000
vn -0.999704 0.024330 0.000000
vn -0.000001 -0.994985 0.100026
vn 0.000001 -0.994985 0.100026
vn 0.068744 -0.995263 0.068743
vn 0.068743 -0.995263 0.068744
vn 0.100030 -0.994985 -0.000000
vn 0.100029 -0.994985 -0.000000
vn 0.068744 -0.995263 -0.068743
vn 0.068743 -0.995263 -0.068744
vn 0.000001 -0.994985 -0.100026
vn -0.000001 -0.994985 -0.100026
vn -0.068741 -0.995264 -0.068741
vn -0.100024 -0.994985 0.000000
vn -0.100024 -0.994985 0.000000
vn -0.068741 -0.995263 -0.068740
vn 0.000000 0.594400 0.804169
vn 0.000000 0.594400 0.804169
vn 0.318692 0.563407 0.762238
vn 0.318692 0.563407 0.762238
vn 0.804171 0.594397 -0.000000
vn 0.804171 0.594397 -0.000000
vn 0.762243 0.563406 -0.318685
vn 0.762243 0.563406 -0.318685
vn 0.318692 0.563407 -0.762238
vn 0.000000 0.594400 -0.804169
vn 0.000000 0.594400 -0.804169
vn 0.318692 0.563407 -0.762238
vn -0.762242 0.563405 -0.318687
vn -0.804172 0.594397 -0.000000
vn -0.804172 0.594397 -0.000000
vn -0.762242 0.563405 -0.318687
vn -0.068741 -0.995264 0.068741
vn -0.068741 -0.995263 0.068740
vn -0.762242 0.563405 0.318687
vn -0.762242 0.563405 0.318687
vn -0.000000 0.986597 0.163175
vn 0.161050 0.973719 0.161044
vn 0.762243 0.563406 0.318685
vn 0.762243 0.563406 0.318685
vn 0.999704 0.024330 0.000000
vn 0.999704 0.024330 0.000000
vn 0.000000 -1.000000 0.000000
vn 0.000000 -1.000000 0.000000
vn -0.999704 0.024330 0.000000
vn -0.999704 0.024330 0.000000
vn 0.000000 -1.000000 0.000000
vn 0.000000 -1.000000 0.000000
vn 0.000000 -1.000000 0.000000
vn 0.000000 0.024329 -0.999704
vn 0.000000 0.024329 -0.999704
vn -0.318692 0.563407 -0.762239
vn -0.318692 0.563407 -0.762239
vn -0.163177 0.986597 0.000000
vn -0.161047 0.973719 -0.161045
vn -0.161047 0.973719 0.161045
vn -0.318692 0.563407 0.762239
vn -0.318692 0.563407 0.762239
vn 0.000000 0.024329 0.999704
vn 0.000000 0.024329 0.999704
s 1
g Trunk_Alt_01:pCube7
f 34/1/1 25/2/2 2/3/3 4/78/4
s 2
f 30/5/5 31/6/6 20/7/7 15/44/8
s 3
f 27/9/9 28/69/10 6/11/11 8/82/12
s 4
f 26/13/13 27/83/14 8/12/15 23/14/16
s 5
f 22/15/17 23/80/18 8/79/19 6/77/20
s 6
f 7/85/21 24/86/22 17/18/23 5/19/24
s 7
f 33/20/25 34/67/26 4/4/27 10/36/28
f 21/22/29 22/71/30 6/70/31 11/23/32
f 6/70/31 28/10/33 29/37/34 11/23/32
f 5/73/35 17/72/36 18/40/37 12/26/38
s 9
f 32/65/39 33/66/40 10/21/41 14/60/42
s 10
f 20/45/43 21/58/44 11/38/45 15/56/46
s 11
f 11/55/47 29/51/48 30/52/49 15/8/50
s 12
f 12/61/51 18/53/52 19/54/53 16/30/54
s 7
f 18/40/37 17/72/36 3/31/55 9/42/56
s 12
f 19/46/53 18/25/52 9/63/57 13/64/58
s 2
f 31/6/6 32/49/59 14/28/60 20/7/7
s 10
f 10/59/61 21/39/44 20/57/43 14/50/62
s 7
f 4/4/27 22/71/30 21/22/29 10/36/28
s 5
f 2/81/63 23/80/18 22/15/17 4/68/64
s 4
f 25/89/65 26/13/13 23/14/16 2/88/66
s 6
f 17/18/23 24/86/22 1/34/67 3/76/68
s 4
f 24/17/69 26/13/13 25/89/65 1/90/70
f 7/16/71 27/83/14 26/13/13 24/17/69
s 3
f 5/75/72 28/69/10 27/9/9 7/84/73
s 7
f 29/37/34 28/10/33 5/73/35 12/26/38
s 11
f 30/43/49 29/24/48 12/41/74 16/62/75
s 2
f 19/29/76 31/6/6 30/5/5 16/47/77
f 13/33/78 32/49/59 31/6/6 19/29/76
s 9
f 9/32/79 33/35/40 32/27/39 13/48/80
s 7
f 3/31/55 34/67/26 33/20/25 9/42/56
s 1
f 1/87/81 25/2/2 34/1/1 3/74/82
