# This file uses centimeters as units for non-parametric coordinates.

g Hedge_default1
v 1.620145 0.323196 -2.000000
v 2.000000 0.323196 -2.000000
v 1.620145 0.000000 -2.000000
v 2.000000 0.000000 -2.000000
v 1.620145 0.323196 0.000000
v 1.620145 0.000000 0.000000
v 2.000000 0.000000 0.000000
v 2.000000 0.323196 0.000000
v 1.701362 0.399020 -1.921581
v 1.918783 0.399020 -1.922211
v 1.701451 0.399020 -0.078723
v 1.920322 0.399020 -0.078723
vt 0.349833 0.989887
vt 0.387312 0.990796
vt 0.375614 0.504886
vt 0.390370 0.677477
vt 0.390370 0.792366
vt 0.390375 0.787751
vt 0.390365 0.672839
vt 0.376242 0.792452
vt 0.370402 0.990795
vt 0.372589 0.966716
vt 0.369940 0.515642
vt 0.311038 0.677477
vt 0.387312 0.966716
vt 0.383518 0.986438
vt 0.375401 0.986431
vt 0.351826 0.986187
vt 0.375996 0.970758
vt 0.383518 0.970758
vt 0.390370 0.792459
vt 0.370005 0.504873
vt 0.311038 0.787775
vt 0.311038 0.792490
vt 0.375549 0.515656
vt 0.390370 0.787773
vt 0.311038 0.679005
vt 0.311038 0.793956
vt 0.376242 0.677518
vt 0.390370 0.677508
vt 0.311038 0.672824
vt 0.390370 0.672822
vn 0.000000 0.000000 1.000000
vn 0.000000 0.000000 1.000000
vn 0.000000 0.000000 1.000000
vn 0.000000 0.000000 1.000000
vn 0.000000 1.000000 0.000000
vn 0.000000 1.000000 0.000000
vn 0.000000 1.000000 0.000000
vn 0.000000 1.000000 0.000000
vn 0.000000 0.000000 -1.000000
vn 0.000000 0.000000 -1.000000
vn 0.000000 0.000000 -1.000000
vn 0.000000 0.000000 -1.000000
vn -1.000000 0.000000 0.000000
vn -1.000000 0.000000 0.000000
vn -1.000000 0.000000 0.000000
vn -1.000000 0.000000 0.000000
vn 0.000000 -1.000000 0.000000
vn 0.000000 -1.000000 0.000000
vn 0.000000 -1.000000 0.000000
vn 0.000000 -1.000000 0.000000
vn 1.000000 0.000000 0.000000
vn 1.000000 0.000000 0.000000
vn 1.000000 0.000000 0.000000
vn 1.000000 0.000000 0.000000
vn -0.000734 0.717501 -0.696557
vn -0.000734 0.717501 -0.696557
vn -0.000734 0.717501 -0.696557
vn -0.000734 0.717501 -0.696557
vn -0.682223 0.731144 0.000016
vn -0.682223 0.731144 0.000016
vn -0.682223 0.731144 0.000016
vn -0.682223 0.731144 0.000016
vn 0.000000 0.720242 0.693723
vn 0.000000 0.720242 0.693723
vn 0.000000 0.720242 0.693723
vn 0.000000 0.720242 0.693723
vn 0.685889 0.727706 -0.000275
vn 0.685889 0.727706 -0.000275
vn 0.685889 0.727706 -0.000275
vn 0.685889 0.727706 -0.000275
s off
g Hedge_platformer hedge Hedge
f 5/21/1 6/29/2 7/30/3 8/24/4
f 10/14/5 9/15/6 11/17/7 12/18/8
f 3/8/9 1/27/10 2/28/11 4/19/12
f 1/7/13 3/6/14 6/26/15 5/25/16
f 4/3/17 7/23/18 6/11/19 3/20/20
f 8/22/21 7/12/22 4/4/23 2/5/24
f 2/2/25 1/9/26 9/15/27 10/14/28
f 9/16/29 1/1/30 5/10/31 11/17/32
f 5/10/33 8/13/34 12/18/35 11/17/36
f 10/14/37 12/18/38 8/13/39 2/2/40
