# This file uses centimeters as units for non-parametric coordinates.

g default
v 0.000000 0.000000 0.000000
v -0.252766 0.630774 0.247104
v -0.252766 0.630774 -0.247104
v -0.480973 0.838929 0.247104
v -0.480973 0.838929 -0.247104
v -0.679534 0.797254 0.000000
v 0.000000 0.510243 0.679534
v -0.247104 0.536914 0.480973
v 0.247104 0.536914 0.480973
v -0.247104 0.403696 0.252766
v 0.247104 0.403696 0.252766
v 0.252766 0.630774 0.247104
v 0.252766 0.630774 -0.247104
v 0.480973 0.838929 0.247104
v 0.480973 0.838929 -0.247104
v 0.679534 0.797254 0.000000
v -0.247104 0.536914 -0.480973
v 0.247104 0.536914 -0.480973
v -0.247104 0.403696 -0.252766
v 0.247104 0.403696 -0.252766
v 0.000000 0.510243 -0.679534
vt 0.368826 0.418817
vt 0.351318 0.489593
vt 0.368826 0.418817
vt 0.384632 0.395461
vt 0.384632 0.395461
vt 0.398384 0.400137
vt 0.368433 0.429348
vt 0.351318 0.432341
vt 0.334203 0.429348
vt 0.368433 0.444296
vt 0.334203 0.444296
vt 0.333811 0.418817
vt 0.333811 0.418817
vt 0.318005 0.395461
vt 0.318005 0.395461
vt 0.304252 0.400137
vt 0.334203 0.429348
vt 0.368433 0.429348
vt 0.368433 0.444296
vt 0.334203 0.444296
vt 0.351318 0.432341
vn 0.928245 0.371970 0.000000
vn 0.928245 0.371970 0.000000
vn 0.928245 0.371970 0.000000
vn -0.928245 -0.371970 0.000000
vn -0.928245 -0.371970 0.000000
vn -0.928245 -0.371970 0.000000
vn 0.673901 0.738822 0.000000
vn 0.673901 0.738822 0.000000
vn 0.673901 0.738822 0.000000
vn 0.673901 0.738822 0.000000
vn 0.673901 0.738822 0.000000
vn 0.673901 0.738822 0.000000
vn -0.673901 -0.738822 0.000000
vn -0.673901 -0.738822 0.000000
vn -0.673901 -0.738822 0.000000
vn -0.673901 -0.738822 0.000000
vn -0.673901 -0.738822 0.000000
vn -0.673901 -0.738822 0.000000
vn -0.205408 0.978676 0.000000
vn -0.205408 0.978676 0.000000
vn -0.205408 0.978676 0.000000
vn 0.205408 -0.978676 0.000000
vn 0.205408 -0.978676 0.000000
vn 0.205408 -0.978676 0.000000
vn 0.000000 0.991099 0.133129
vn 0.000000 0.991099 0.133129
vn 0.000000 0.991099 0.133129
vn 0.000000 -0.991099 -0.133129
vn 0.000000 -0.991099 -0.133129
vn 0.000000 -0.991099 -0.133129
vn 0.000000 0.530688 -0.847567
vn 0.000000 0.530688 -0.847567
vn 0.000000 0.530688 -0.847567
vn 0.000000 -0.530688 0.847567
vn 0.000000 -0.530688 0.847567
vn 0.000000 -0.530688 0.847567
vn -0.928245 0.371970 0.000000
vn -0.928245 0.371970 0.000000
vn -0.928245 0.371970 0.000000
vn 0.928245 -0.371970 0.000000
vn 0.928245 -0.371970 0.000000
vn 0.928245 -0.371970 0.000000
vn 0.205408 0.978676 0.000000
vn 0.205408 0.978676 0.000000
vn 0.205408 0.978676 0.000000
vn -0.205408 -0.978676 0.000000
vn -0.205408 -0.978676 0.000000
vn -0.205408 -0.978676 0.000000
vn 0.000000 0.863618 0.504147
vn 0.000000 0.863618 0.504147
vn 0.000000 0.863618 0.504147
vn 0.000000 0.863618 0.504148
vn 0.000000 0.863618 0.504148
vn 0.000000 0.863618 0.504148
vn 0.000000 -0.863618 -0.504147
vn 0.000000 -0.863618 -0.504147
vn 0.000000 -0.863618 -0.504147
vn 0.000000 -0.863618 -0.504148
vn 0.000000 -0.863618 -0.504148
vn 0.000000 -0.863618 -0.504148
vn 0.000000 0.863618 -0.504148
vn 0.000000 0.863618 -0.504148
vn 0.000000 0.863618 -0.504148
vn 0.000000 0.863618 -0.504147
vn 0.000000 0.863618 -0.504147
vn 0.000000 0.863618 -0.504147
vn 0.000000 -0.863618 0.504148
vn 0.000000 -0.863618 0.504148
vn 0.000000 -0.863618 0.504148
vn 0.000000 -0.863618 0.504147
vn 0.000000 -0.863618 0.504147
vn 0.000000 -0.863618 0.504147
vn 0.000000 0.530688 0.847567
vn 0.000000 0.530688 0.847567
vn 0.000000 0.530688 0.847567
vn 0.000000 -0.530688 -0.847567
vn 0.000000 -0.530688 -0.847567
vn 0.000000 -0.530688 -0.847567
vn -0.673901 0.738822 0.000000
vn -0.673901 0.738822 0.000000
vn -0.673901 0.738822 0.000000
vn -0.673901 0.738822 0.000000
vn -0.673901 0.738822 0.000000
vn -0.673901 0.738822 0.000000
vn 0.673901 -0.738822 0.000000
vn 0.673901 -0.738822 0.000000
vn 0.673901 -0.738822 0.000000
vn 0.673901 -0.738822 0.000000
vn 0.673901 -0.738822 0.000000
vn 0.673901 -0.738822 0.000000
vn 0.000000 0.991099 -0.133129
vn 0.000000 0.991099 -0.133129
vn 0.000000 0.991099 -0.133129
vn 0.000000 -0.991099 0.133129
vn 0.000000 -0.991099 0.133129
vn 0.000000 -0.991099 0.133129
s off
g Large_Bush_B Shrubs
f 2/1/1 1/2/2 3/3/3
f 2/1/4 3/3/5 1/2/6
f 5/4/7 4/5/8 2/1/9
f 2/1/10 3/3/11 5/4/12
f 5/4/13 2/1/14 4/5/15
f 2/1/16 5/4/17 3/3/18
f 6/6/19 4/5/20 5/4/21
f 6/6/22 5/4/23 4/5/24
f 8/7/25 7/8/26 9/9/27
f 8/7/28 9/9/29 7/8/30
f 1/2/31 10/10/32 11/11/33
f 1/2/34 11/11/35 10/10/36
f 1/2/37 12/12/38 13/13/39
f 1/2/40 13/13/41 12/12/42
f 15/14/43 14/15/44 16/16/45
f 15/14/46 16/16/47 14/15/48
f 18/17/49 17/18/50 19/19/51
f 19/19/52 20/20/53 18/17/54
f 18/17/55 19/19/56 17/18/57
f 19/19/58 18/17/59 20/20/60
f 11/11/61 10/10/62 8/7/63
f 8/7/64 9/9/65 11/11/66
f 11/11/67 8/7/68 10/10/69
f 8/7/70 11/11/71 9/9/72
f 1/2/73 20/20/74 19/19/75
f 1/2/76 19/19/77 20/20/78
f 15/14/79 13/13/80 12/12/81
f 12/12/82 14/15/83 15/14/84
f 15/14/85 12/12/86 13/13/87
f 12/12/88 15/14/89 14/15/90
f 21/21/91 17/18/92 18/17/93
f 21/21/94 18/17/95 17/18/96
