# This file uses centimeters as units for non-parametric coordinates.

g default
v 0.000000 0.000000 -0.099990
v 0.099990 0.000000 0.000000
v 0.000000 0.506148 -0.099990
v 0.099990 0.506148 0.000000
v 2.000000 0.000000 -0.099990
v 1.900011 0.000000 0.000000
v 2.000000 0.506148 -0.099990
v 1.900011 0.506148 0.000000
v 0.000000 0.506148 -1.900010
v 0.099990 0.506148 -2.000000
v 0.000000 0.000000 -1.900010
v 0.099990 0.000000 -2.000000
v 1.900011 0.506148 -2.000000
v 2.000000 0.506148 -1.900010
v 2.000000 0.000000 -1.900010
v 1.900011 0.000000 -2.000000
v 0.099990 0.506148 -0.099990
v 0.099990 0.506148 -1.900010
v 1.900011 0.506148 -1.900010
v 1.900011 0.506148 -0.099990
v 1.900011 0.000000 -1.900010
v 0.099990 0.000000 -1.900010
v 0.099990 -0.000000 -0.099990
v 1.900011 -0.000000 -0.099990
v 0.219992 0.365968 0.000000
v 0.219992 0.140179 0.000000
v 1.780009 0.140179 0.000000
v 1.780009 0.365968 0.000000
v 0.219992 0.140179 -2.000000
v 0.219992 0.365968 -2.000000
v 1.780009 0.365968 -2.000000
v 1.780009 0.140179 -2.000000
v 2.000000 0.365968 -0.219991
v 2.000000 0.140179 -0.219991
v 2.000000 0.140179 -1.780009
v 2.000000 0.365968 -1.780009
v 0.000000 0.365968 -1.780009
v 0.000000 0.140179 -1.780009
v 0.000000 0.140179 -0.219991
v 0.000000 0.365968 -0.219991
v 0.219992 0.365968 -0.056415
v 0.219992 0.140179 -0.056415
v 1.780009 0.140179 -0.056415
v 1.780009 0.365968 -0.056415
v 0.219992 0.140179 -1.943585
v 0.219992 0.365968 -1.943585
v 1.780009 0.365968 -1.943585
v 1.780009 0.140179 -1.943585
v 1.943585 0.365968 -0.219991
v 1.943585 0.140179 -0.219991
v 1.943585 0.140179 -1.780009
v 1.943585 0.365968 -1.780009
v 0.056415 0.365968 -1.780009
v 0.056415 0.140179 -1.780009
v 0.056415 0.140179 -0.219991
v 0.056415 0.365968 -0.219991
v 0.142343 0.483418 -0.142343
v 0.142343 0.483418 -1.857657
v 1.857658 0.483418 -0.142343
v 1.857658 0.483418 -1.857657
v 0.142343 0.022729 -0.142343
v 1.857658 0.022729 -0.142343
v 0.142343 0.022730 -1.857657
v 1.857658 0.022730 -1.857657
v 0.199520 0.525561 -0.199520
v 0.199520 0.525561 -1.800480
v 1.800481 0.525561 -0.199520
v 1.800481 0.525561 -1.800480
v 0.199520 -0.019414 -0.199520
v 1.800481 -0.019414 -0.199520
v 0.199520 -0.019414 -1.800480
v 1.800481 -0.019414 -1.800480
v 0.359617 0.525561 -0.359616
v 0.359617 0.525561 -1.640384
v 1.640385 0.525561 -0.359616
v 1.640385 0.525561 -1.640384
v 0.359617 -0.019414 -0.359616
v 1.640385 -0.019414 -0.359616
v 0.359617 -0.019414 -1.640384
v 1.640385 -0.019414 -1.640384
v 0.423655 0.525561 -0.423654
v 0.423655 0.525561 -1.576346
v 1.576346 0.525561 -0.423654
v 1.576346 0.525561 -1.576346
v 0.423655 -0.019414 -0.423654
v 1.576346 -0.019414 -0.423654
v 0.423655 -0.019414 -1.576346
v 1.576346 -0.019414 -1.576346
vt 0.213757 0.926778
vt 0.280938 0.926778
vt 0.214999 0.933821
vt 0.214998 0.933820
vt 0.280350 0.932960
vt 0.276992 0.933306
vt 0.216527 0.933306
vt 0.213168 0.932960
vt 0.208949 0.941474
vt 0.276529 0.928479
vt 0.208949 0.941474
vt 0.208951 0.928472
vt 0.276529 0.928479
vt 0.276927 0.928396
vt 0.208551 0.941556
vt 0.208951 0.941480
vt 0.276527 0.928473
vt 0.276529 0.941474
vt 0.208951 0.928472
vt 0.276527 0.941480
vt 0.208949 0.928478
vt 0.276527 0.941480
vt 0.276928 0.941552
vt 0.213168 0.926734
vt 0.280938 0.933004
vt 0.208550 0.928401
vt 0.107525 0.953389
vt 0.107516 0.971747
vt 0.191962 0.971749
vt 0.191971 0.953391
vt 0.191961 0.953389
vt 0.107515 0.953391
vt 0.107526 0.971749
vt 0.191971 0.971747
vt 0.105535 0.956827
vt 0.111335 0.956827
vt 0.151407 0.956826
vt 0.157207 0.956826
vt 0.151407 0.966747
vt 0.145608 0.966749
vt 0.197280 0.966728
vt 0.191480 0.966730
vt 0.105535 0.956791
vt 0.111335 0.956795
vt 0.151407 0.956826
vt 0.157207 0.956831
vt 0.151408 0.966747
vt 0.145608 0.966753
vt 0.197280 0.966699
vt 0.191480 0.966705
vt 0.123647 0.970050
vt 0.111335 0.966748
vt 0.151407 0.966747
vt 0.157207 0.966747
vt 0.123645 0.970028
vt 0.145607 0.956828
vt 0.197280 0.956807
vt 0.191480 0.956809
vt 0.123645 0.970021
vt 0.111335 0.966716
vt 0.151407 0.966747
vt 0.157207 0.966752
vt 0.123645 0.970029
vt 0.145607 0.956832
vt 0.197280 0.956778
vt 0.191480 0.956784
vt 0.109675 0.971277
vt 0.109688 0.953858
vt 0.189812 0.953861
vt 0.189799 0.971279
vt 0.189808 0.971277
vt 0.109684 0.971279
vt 0.109679 0.953860
vt 0.189803 0.953859
vt 0.206436 0.927778
vt 0.285521 0.927780
vt 0.285508 0.942174
vt 0.206423 0.942171
vt 0.206428 0.942172
vt 0.206430 0.927779
vt 0.285516 0.927779
vt 0.285513 0.942173
vt 0.107219 0.970373
vt 0.107210 0.956346
vt 0.193254 0.956344
vt 0.193264 0.970371
vt 0.193253 0.970373
vt 0.107208 0.970371
vt 0.107221 0.956344
vt 0.193265 0.956346
vt 0.212347 0.937333
vt 0.111512 0.957047
vt 0.188953 0.957045
vt 0.188961 0.969670
vt 0.267011 0.937333
vt 0.111511 0.969670
vt 0.111522 0.957045
vt 0.188962 0.957047
vt 0.214332 0.940732
vt 0.214343 0.929217
vt 0.277601 0.940734
vt 0.277611 0.929219
vt 0.267011 0.937333
vt 0.111521 0.969671
vt 0.267011 0.926616
vt 0.212347 0.926616
vt 0.278006 0.933821
vt 0.277580 0.933350
vt 0.217115 0.933350
vt 0.213757 0.933004
vt 0.214998 0.925998
vt 0.217115 0.926432
vt 0.277580 0.926432
vt 0.278005 0.925996
vt 0.278006 0.933820
vt 0.216527 0.926388
vt 0.276991 0.926388
vt 0.280350 0.926734
vt 0.277580 0.926778
vt 0.277580 0.933004
vt 0.217115 0.926778
vt 0.217115 0.933004
vt 0.112815 0.954533
vt 0.186672 0.970604
vt 0.112780 0.970597
vt 0.186707 0.954541
vt 0.276991 0.932960
vt 0.276991 0.926734
vt 0.216527 0.932960
vt 0.216527 0.926734
vt 0.214337 0.940733
vt 0.186681 0.970603
vt 0.186699 0.954539
vt 0.112806 0.954535
vt 0.112788 0.970599
vt 0.277605 0.940733
vt 0.277607 0.929218
vt 0.214339 0.929218
vt 0.188951 0.969671
vt 0.267011 0.926616
vt 0.212347 0.937333
vt 0.212347 0.926616
vt 0.215020 0.933854
vt 0.278027 0.933787
vt 0.277984 0.925963
vt 0.214977 0.926031
vt 0.277993 0.925977
vt 0.214986 0.926017
vt 0.215011 0.933841
vt 0.278018 0.933800
vt 0.272369 0.932040
vt 0.213109 0.932044
vt 0.213109 0.937912
vt 0.272369 0.937909
vt 0.272022 0.937879
vt 0.213455 0.937873
vt 0.272023 0.932079
vt 0.213456 0.932073
vt 0.213455 0.937873
vt 0.272022 0.937879
vt 0.272023 0.932079
vt 0.213456 0.932073
vt 0.213456 0.937878
vt 0.272023 0.937874
vt 0.272022 0.932074
vt 0.213455 0.932079
vt 0.197280 0.956861
vt 0.105535 0.966712
vt 0.123646 0.953514
vt 0.182214 0.953535
vt 0.197280 0.966782
vt 0.182212 0.970043
vt 0.197280 0.956825
vt 0.197280 0.966746
vt 0.105535 0.966748
vt 0.123644 0.953542
vt 0.182212 0.953507
vt 0.182215 0.970014
vt 0.105535 0.966795
vt 0.105535 0.956874
vt 0.182213 0.970035
vt 0.151407 0.956826
vt 0.123646 0.953521
vt 0.182213 0.953528
vt 0.105535 0.966766
vt 0.105535 0.956845
vt 0.182213 0.953528
vt 0.182213 0.970036
vt 0.151407 0.956826
vt 0.123646 0.953521
vt 0.278006 0.925997
vt 0.214998 0.925997
vn 0.000000 0.000000 1.000000
vn 0.000000 0.000000 1.000000
vn 0.000000 0.000000 1.000000
vn 0.000000 0.000000 1.000000
vn 0.000000 0.000000 -1.000000
vn 0.000000 0.000000 -1.000000
vn 0.000000 0.000000 -1.000000
vn 0.000000 0.000000 -1.000000
vn 1.000000 0.000000 0.000000
vn 1.000000 0.000000 0.000000
vn 1.000000 0.000000 0.000000
vn 1.000000 0.000000 0.000000
vn -1.000000 0.000000 0.000000
vn -1.000000 0.000000 0.000000
vn -1.000000 0.000000 0.000000
vn -1.000000 0.000000 0.000000
vn 0.000000 1.000000 0.000000
vn 0.000000 1.000000 0.000000
vn 0.000000 1.000000 0.000000
vn 0.000000 -1.000000 -0.000000
vn 0.000000 -1.000000 -0.000000
vn 0.000000 -1.000000 0.000000
vn -0.707105 0.000000 0.707108
vn -0.707105 0.000000 0.707108
vn -0.707105 0.000000 0.707108
vn -0.707105 0.000000 0.707108
vn 0.707110 0.000000 0.707103
vn 0.707110 0.000000 0.707103
vn 0.707110 0.000000 0.707103
vn 0.707110 0.000000 0.707103
vn -0.707105 0.000000 -0.707108
vn -0.707105 0.000000 -0.707108
vn -0.707105 0.000000 -0.707108
vn -0.707105 0.000000 -0.707108
vn 0.707110 0.000000 -0.707104
vn 0.707110 0.000000 -0.707104
vn 0.707110 0.000000 -0.707104
vn 0.707110 0.000000 -0.707104
vn 0.000000 1.000000 0.000000
vn 0.000000 1.000000 0.000000
vn 0.000000 1.000000 0.000000
vn 0.000000 1.000000 0.000000
vn 0.000000 1.000000 0.000000
vn 0.000000 1.000000 0.000000
vn 0.000000 1.000000 0.000000
vn 0.000000 1.000000 0.000000
vn 0.000000 1.000000 0.000000
vn 0.000000 1.000000 0.000000
vn 0.000000 1.000000 -0.000000
vn 0.000000 1.000000 -0.000000
vn 0.000000 1.000000 0.000000
vn -0.000000 -1.000000 -0.000000
vn 0.000000 -1.000000 0.000000
vn -0.000000 -1.000000 -0.000000
vn 0.000000 -1.000000 0.000000
vn 0.000000 -1.000000 0.000000
vn 0.000000 -1.000000 -0.000000
vn -0.000000 -1.000000 0.000000
vn -0.000000 -1.000000 0.000000
vn -0.000000 -1.000000 -0.000000
vn 0.000000 -1.000000 -0.000000
vn 0.000000 -1.000000 -0.000000
vn 0.000000 -1.000000 -0.000000
vn 0.000000 -1.000000 -0.000000
vn 0.000000 0.000000 1.000000
vn 0.000000 0.000000 1.000000
vn 0.000000 0.000000 1.000000
vn 0.000000 0.000000 1.000000
vn 0.000000 0.000000 1.000000
vn 0.000000 0.000000 1.000000
vn 0.000000 0.000000 1.000000
vn 0.000000 0.000000 1.000000
vn 0.000000 0.000000 -1.000000
vn 0.000000 0.000000 -1.000000
vn 0.000000 0.000000 -1.000000
vn 0.000000 0.000000 -1.000000
vn 0.000000 0.000000 -1.000000
vn 0.000000 0.000000 -1.000000
vn 0.000000 0.000000 -1.000000
vn 0.000000 0.000000 -1.000000
vn 1.000000 0.000000 0.000000
vn 1.000000 -0.000000 0.000000
vn 1.000000 -0.000000 0.000000
vn 1.000000 0.000000 0.000000
vn 1.000000 -0.000000 0.000000
vn 1.000000 -0.000000 0.000000
vn 1.000000 0.000000 0.000000
vn 1.000000 0.000000 0.000000
vn -1.000000 0.000000 0.000000
vn -1.000000 0.000000 0.000000
vn -1.000000 0.000000 0.000000
vn -1.000000 0.000000 0.000000
vn -1.000000 0.000000 0.000000
vn -1.000000 0.000000 0.000000
vn -1.000000 0.000000 0.000000
vn -1.000000 0.000000 0.000000
vn 1.000000 0.000000 0.000000
vn 1.000000 0.000000 0.000000
vn 1.000000 0.000000 0.000000
vn 1.000000 0.000000 0.000000
vn 0.000000 1.000000 0.000000
vn 0.000000 1.000000 0.000000
vn 0.000000 1.000000 0.000000
vn 0.000000 1.000000 0.000000
vn -1.000000 0.000000 0.000000
vn -1.000000 0.000000 0.000000
vn -1.000000 0.000000 0.000000
vn -1.000000 0.000000 0.000000
vn 0.000000 -1.000000 0.000000
vn 0.000000 -1.000000 0.000000
vn 0.000000 -1.000000 0.000000
vn 0.000000 -1.000000 0.000000
vn 1.000000 0.000000 0.000000
vn 1.000000 0.000000 0.000000
vn 1.000000 0.000000 0.000000
vn 1.000000 0.000000 0.000000
vn 0.000000 -1.000000 0.000000
vn 0.000000 -1.000000 0.000000
vn 0.000000 -1.000000 0.000000
vn 0.000000 -1.000000 0.000000
vn -1.000000 0.000000 0.000000
vn -1.000000 0.000000 0.000000
vn -1.000000 0.000000 0.000000
vn -1.000000 0.000000 0.000000
vn 0.000000 1.000000 0.000000
vn 0.000000 1.000000 0.000000
vn 0.000000 1.000000 0.000000
vn 0.000000 1.000000 0.000000
vn 0.000000 0.000000 -1.000000
vn 0.000000 0.000000 -1.000000
vn 0.000000 0.000000 -1.000000
vn 0.000000 0.000000 -1.000000
vn 0.000000 1.000000 0.000000
vn 0.000000 1.000000 0.000000
vn 0.000000 1.000000 0.000000
vn 0.000000 1.000000 0.000000
vn 0.000000 0.000000 1.000000
vn 0.000000 0.000000 1.000000
vn 0.000000 0.000000 1.000000
vn 0.000000 0.000000 1.000000
vn 0.000000 -1.000000 0.000000
vn 0.000000 -1.000000 0.000000
vn 0.000000 -1.000000 0.000000
vn 0.000000 -1.000000 0.000000
vn 0.000000 0.000000 1.000000
vn 0.000000 0.000000 1.000000
vn 0.000000 0.000000 1.000000
vn 0.000000 0.000000 1.000000
vn 0.000000 1.000000 0.000000
vn 0.000000 1.000000 0.000000
vn 0.000000 1.000000 0.000000
vn 0.000000 1.000000 0.000000
vn 0.000000 0.000000 -1.000000
vn 0.000000 0.000000 -1.000000
vn 0.000000 0.000000 -1.000000
vn 0.000000 0.000000 -1.000000
vn 0.000000 -1.000000 0.000000
vn 0.000000 -1.000000 0.000000
vn 0.000000 -1.000000 0.000000
vn 0.000000 -1.000000 0.000000
vn 0.472873 0.881131 0.000000
vn 0.472873 0.881131 0.000000
vn 0.472873 0.881131 0.000000
vn 0.472873 0.881131 0.000000
vn 0.000000 0.881130 -0.472873
vn 0.000000 0.881130 -0.472873
vn 0.000000 0.881130 -0.472873
vn 0.000000 0.881130 -0.472873
vn -0.472873 0.881131 0.000000
vn -0.472873 0.881131 0.000000
vn -0.472873 0.881131 0.000000
vn -0.472873 0.881131 0.000000
vn 0.000000 0.881131 0.472872
vn 0.000000 0.881131 0.472872
vn 0.000000 0.881131 0.472872
vn 0.000000 0.881131 0.472872
vn 0.000000 -0.881129 -0.472876
vn 0.000000 -0.881129 -0.472876
vn 0.000000 -0.881129 -0.472876
vn 0.000000 -0.881129 -0.472876
vn 0.472876 -0.881129 -0.000000
vn 0.472876 -0.881129 -0.000000
vn 0.472876 -0.881129 -0.000000
vn 0.472876 -0.881129 -0.000000
vn 0.000000 -0.881129 0.472876
vn 0.000000 -0.881129 0.472876
vn 0.000000 -0.881129 0.472875
vn 0.000000 -0.881129 0.472876
vn -0.472876 -0.881129 -0.000000
vn -0.472876 -0.881129 -0.000000
vn -0.472876 -0.881129 -0.000000
vn -0.472876 -0.881129 -0.000000
vn -0.593314 0.804971 0.000000
vn -0.593314 0.804971 0.000000
vn -0.593314 0.804971 0.000000
vn -0.593314 0.804971 0.000000
vn 0.000000 0.804970 0.593316
vn 0.000000 0.804970 0.593316
vn 0.000000 0.804970 0.593316
vn 0.000000 0.804970 0.593316
vn 0.593317 0.804969 0.000000
vn 0.593317 0.804969 0.000000
vn 0.593317 0.804969 0.000000
vn 0.593317 0.804969 0.000000
vn 0.000000 0.804970 -0.593316
vn 0.000000 0.804970 -0.593316
vn 0.000000 0.804970 -0.593316
vn 0.000000 0.804970 -0.593316
vn 0.000000 -0.804971 0.593314
vn 0.000000 -0.804971 0.593314
vn 0.000000 -0.804971 0.593314
vn 0.000000 -0.804971 0.593314
vn -0.593314 -0.804971 -0.000000
vn -0.593314 -0.804971 -0.000000
vn -0.593314 -0.804971 -0.000000
vn -0.593314 -0.804971 -0.000000
vn 0.000000 -0.804970 -0.593316
vn 0.000000 -0.804970 -0.593316
vn 0.000000 -0.804970 -0.593316
vn 0.000000 -0.804970 -0.593316
vn 0.593317 -0.804969 -0.000000
vn 0.593317 -0.804969 -0.000000
vn 0.593317 -0.804969 -0.000000
vn 0.593317 -0.804969 -0.000000
vn 0.000000 1.000000 -0.000000
vn 0.000000 1.000000 0.000000
vn 0.000000 1.000000 -0.000000
vn 0.000000 1.000000 0.000000
vn 0.000000 1.000000 0.000000
vn 0.000000 1.000000 -0.000000
vn 0.000000 1.000000 -0.000000
vn 0.000000 1.000000 0.000000
vn 0.000000 -1.000000 -0.000000
vn -0.000000 -1.000000 -0.000000
vn -0.000000 -1.000000 -0.000000
vn 0.000000 -1.000000 -0.000000
vn -0.000000 -1.000000 -0.000000
vn -0.000000 -1.000000 -0.000000
vn 0.000000 -1.000000 -0.000000
vn 0.000000 -1.000000 -0.000000
s off
g button:button1:floatingplatform Trunk_Alt_01:platformer
f 41/51/1 42/176/2 43/177/3 44/178/4
f 45/55/5 46/190/6 47/187/7 48/188/8
f 49/59/9 50/169/10 51/170/11 52/172/12
f 53/63/13 54/183/14 55/184/15 56/181/16
s 1
f 3/1/17 4/112/18 17/121/19
s 2
f 15/118/20 21/128/21 16/117/22
s off
f 1/149/23 2/148/24 4/147/25 3/150/26
f 6/143/27 5/146/28 7/145/29 8/144/30
f 9/3/31 10/111/32 12/114/33 11/115/34
f 13/191/35 14/107/36 15/4/37 16/192/38
s 1
f 9/110/39 18/122/40 10/109/41
f 3/1/17 17/121/19 18/122/40 9/110/39
f 20/119/42 8/113/43 7/2/44
f 19/120/45 20/119/42 7/2/44 14/25/46
f 13/108/47 19/120/45 14/25/46
f 10/109/41 18/122/40 19/120/45 13/108/47
s 3
f 82/91/48 81/106/49 83/105/50 84/103/51
s 1
f 17/121/19 4/112/18 8/113/43 20/119/42
s 2
f 11/24/52 12/116/53 22/130/54
f 21/128/21 22/130/54 12/116/53 16/117/22
f 6/6/55 24/127/56 5/5/57
f 2/7/58 23/129/59 24/127/56 6/6/55
f 1/8/60 23/129/59 2/7/58
f 11/24/52 22/130/54 23/129/59 1/8/60
s 5
f 86/95/61 85/141/62 87/142/63 88/140/64
s 2
f 5/5/57 24/127/56 21/128/21 15/118/20
s 6
f 4/9/65 2/19/66 26/162/67 25/159/68
f 2/19/66 6/10/69 27/161/70 26/162/67
f 6/10/69 8/22/71 28/160/72 27/161/70
f 8/22/71 4/9/65 25/159/68 28/160/72
s 7
f 12/14/73 10/23/74 30/154/75 29/151/76
f 10/23/74 13/15/77 31/153/78 30/154/75
f 13/15/77 16/26/79 32/152/80 31/153/78
f 16/26/79 12/14/73 29/151/76 32/152/80
s 8
f 7/16/81 5/21/82 34/166/83 33/163/84
f 5/21/82 15/17/85 35/165/86 34/166/83
f 15/17/85 14/18/87 36/164/88 35/165/86
f 14/18/87 7/16/81 33/163/84 36/164/88
s 9
f 9/11/89 11/12/90 38/158/91 37/156/92
f 11/12/90 1/13/93 39/157/94 38/158/91
f 1/13/93 3/20/95 40/155/96 39/157/94
f 3/20/95 9/11/89 37/156/92 40/155/96
s off
f 25/35/97 26/36/98 42/52/99 41/175/100
f 26/36/101 27/37/102 43/53/103 42/52/104
f 27/37/105 28/38/106 44/54/107 43/53/108
f 28/38/109 25/173/110 41/174/111 44/54/112
f 29/39/113 30/40/114 46/56/115 45/189/116
f 30/40/117 31/185/118 47/186/119 46/56/120
f 31/41/121 32/42/122 48/58/123 47/57/124
f 32/42/125 29/39/126 45/189/127 48/58/128
f 33/43/129 34/44/130 50/60/131 49/168/132
f 34/44/133 35/45/134 51/61/135 50/60/136
f 35/45/137 36/46/138 52/62/139 51/61/140
f 36/46/141 33/167/142 49/171/143 52/62/144
f 37/47/145 38/48/146 54/64/147 53/182/148
f 38/48/149 39/179/150 55/180/151 54/64/152
f 39/49/153 40/50/154 56/66/155 55/65/156
f 40/50/157 37/47/158 53/182/159 56/66/160
f 18/28/161 17/27/162 57/68/163 58/67/164
f 17/27/165 20/30/166 59/69/167 57/68/168
f 20/30/169 19/29/170 60/70/171 59/69/172
f 19/29/173 18/28/174 58/67/175 60/70/176
f 24/34/177 23/33/178 61/72/179 62/71/180
f 23/33/181 22/32/182 63/73/183 61/72/184
f 22/32/185 21/31/186 64/74/187 63/73/188
f 21/31/189 24/34/190 62/71/191 64/74/192
f 58/67/193 57/68/194 65/123/195 66/125/196
f 57/68/197 59/69/198 67/126/199 65/123/200
f 59/69/201 60/70/202 68/124/203 67/126/204
f 60/70/205 58/67/206 66/125/207 68/124/208
f 62/71/209 61/72/210 69/135/211 70/132/212
f 61/72/213 63/73/214 71/134/215 69/135/216
f 63/73/217 64/74/218 72/133/219 71/134/220
f 64/74/221 62/71/222 70/132/223 72/133/224
s 3
f 66/75/225 65/76/226 73/102/227 74/100/228
f 65/76/226 67/77/229 75/101/230 73/102/227
f 67/77/229 68/78/231 76/99/232 75/101/230
f 68/78/231 66/75/225 74/100/228 76/99/232
s 5
f 70/79/233 69/80/234 77/138/235 78/131/236
f 69/80/234 71/81/237 79/137/238 77/138/235
f 71/81/237 72/82/239 80/136/240 79/137/238
f 72/82/239 70/79/233 78/131/236 80/136/240
s 3
f 74/83/228 73/84/227 81/92/49 82/104/48
f 73/84/227 75/85/230 83/93/50 81/92/49
f 75/85/230 76/86/232 84/94/51 83/93/50
f 76/86/232 74/83/228 82/104/48 84/94/51
s 5
f 78/87/236 77/88/235 85/96/62 86/139/61
f 77/88/235 79/89/238 87/97/63 85/96/62
f 79/89/238 80/90/240 88/98/64 87/97/63
f 80/90/240 78/87/236 86/139/61 88/98/64
