# This file uses centimeters as units for non-parametric coordinates.

g default
v 0.000000 0.000000 -2.752807
v 0.000000 0.000000 0.000000
v 0.744342 0.000000 -2.465573
v 6.000000 0.000000 0.000000
v 2.551944 0.000000 -1.877078
v 1.403220 0.000000 -2.752807
v 3.851812 0.000000 -2.752807
v 4.778330 0.000000 -2.399842
v 6.000000 0.000000 -2.752807
v 0.000000 4.666667 0.000000
v 0.000000 4.666667 -1.883499
v 4.778330 4.666667 -1.530535
v 3.851812 4.666667 -1.883499
v 0.744342 4.666667 -1.596266
v 1.403220 4.666667 -1.883499
v 2.551944 4.666667 -1.007771
v 6.000000 4.666667 -1.883499
v 6.000000 4.666667 0.000000
v 0.744342 4.175352 -1.982625
v 0.000000 4.175352 -2.269858
v 2.551944 4.175352 -1.394130
v 3.851812 4.175352 -2.269858
v 4.778330 4.175352 -1.916894
v 6.000000 4.175352 -2.269858
v 4.085227 4.175352 -2.180936
v 4.315071 4.421010 -1.900197
v 4.544913 4.175352 -2.005816
v 1.403220 4.175352 -2.269858
v 1.690401 4.175352 -2.050927
v 1.977583 4.421010 -1.638815
v 2.264764 4.175352 -1.613062
v 0.909063 4.175352 -2.054433
v 1.073782 4.298180 -2.029652
v 1.238501 4.175352 -2.198050
vt 0.427162 0.003435
vt 0.463216 0.003435
vt 0.463216 0.039559
vt 0.427162 0.003435
vt 0.463216 0.003435
vt 0.463216 0.039559
vt 0.427162 0.003435
vt 0.463216 0.003435
vt 0.463216 0.039559
vt 0.427162 0.003435
vt 0.463216 0.003435
vt 0.463216 0.039559
vt 0.427162 0.003435
vt 0.463216 0.003435
vt 0.463216 0.039559
vt 0.427162 0.003435
vt 0.463216 0.003435
vt 0.463216 0.039559
vt 0.427162 0.003435
vt 0.463216 0.003435
vt 0.463216 0.039559
vt 0.427162 0.003435
vt 0.463216 0.003435
vt 0.463216 0.039559
vt 0.427162 0.003435
vt 0.463216 0.003435
vt 0.463216 0.039559
vt 0.427162 0.003435
vt 0.463216 0.003435
vt 0.463216 0.039559
vt 0.427162 0.003435
vt 0.463216 0.003435
vt 0.463216 0.039559
vt 0.427162 0.003435
vt 0.463216 0.003435
vt 0.463216 0.039559
vt 0.427162 0.003435
vt 0.463216 0.003435
vt 0.463216 0.039559
vt 0.427162 0.003435
vt 0.463216 0.003435
vt 0.463216 0.039559
vt 0.427162 0.003435
vt 0.463216 0.003435
vt 0.463216 0.039559
vt 0.427162 0.003435
vt 0.463216 0.003435
vt 0.463216 0.039559
vt 0.427162 0.003435
vt 0.463216 0.003435
vt 0.463216 0.039559
vt 0.427162 0.003435
vt 0.463216 0.003435
vt 0.463216 0.039559
vt 0.427162 0.003435
vt 0.463216 0.003435
vt 0.463216 0.039559
vt 0.427162 0.003435
vt 0.463216 0.003435
vt 0.463216 0.039559
vt 0.427162 0.003435
vt 0.463216 0.003435
vt 0.463216 0.039559
vt 0.427162 0.003435
vt 0.463216 0.003435
vt 0.463216 0.039559
vt 0.427162 0.003435
vt 0.463216 0.003435
vt 0.463216 0.039559
vt 0.427162 0.003435
vt 0.463216 0.003435
vt 0.463216 0.039559
vt 0.427162 0.003435
vt 0.463216 0.003435
vt 0.463216 0.039559
vt 0.333431 0.002941
vt 0.370724 0.002946
vt 0.370724 0.040235
vt 0.333431 0.002941
vt 0.370724 0.002941
vt 0.370724 0.040235
vt 0.333431 0.002941
vt 0.370724 0.002941
vt 0.370724 0.040235
vt 0.333431 0.002941
vt 0.370723 0.002946
vt 0.370724 0.040235
vt 0.333431 0.002941
vt 0.370724 0.002941
vt 0.370724 0.040235
vt 0.333431 0.002941
vt 0.370724 0.002941
vt 0.370724 0.040235
vt 0.333431 0.002941
vt 0.370715 0.002946
vt 0.370724 0.040235
vt 0.333431 0.002941
vt 0.370725 0.002947
vt 0.370724 0.040235
vt 0.333431 0.002941
vt 0.370723 0.002947
vt 0.370724 0.040235
vt 0.333431 0.002941
vt 0.370733 0.002947
vt 0.370724 0.040235
vt 0.333431 0.002941
vt 0.370715 0.002947
vt 0.370724 0.040235
vt 0.333431 0.002941
vt 0.370715 0.002947
vt 0.370724 0.040235
vt 0.333431 0.002941
vt 0.370715 0.002947
vt 0.370724 0.040235
vt 0.333431 0.002941
vt 0.370733 0.002946
vt 0.370724 0.040235
vt 0.333431 0.002941
vt 0.370724 0.002941
vt 0.370724 0.040235
vt 0.333431 0.002941
vt 0.370724 0.002941
vt 0.370724 0.040235
vt 0.333431 0.002941
vt 0.370724 0.002941
vt 0.370724 0.040235
vt 0.333431 0.002941
vt 0.370715 0.002946
vt 0.370724 0.040235
vt 0.333431 0.002941
vt 0.370726 0.002947
vt 0.370724 0.040235
vt 0.333431 0.002941
vt 0.370724 0.002941
vt 0.370724 0.040235
vt 0.333431 0.002941
vt 0.370724 0.002941
vt 0.370724 0.040235
vt 0.333431 0.002941
vt 0.370724 0.002941
vt 0.370724 0.040235
vt 0.333431 0.002941
vt 0.370723 0.002947
vt 0.370724 0.040235
vt 0.333431 0.002941
vt 0.370723 0.002947
vt 0.370724 0.040235
vt 0.333431 0.002941
vt 0.370724 0.002941
vt 0.370724 0.040235
vt 0.333431 0.002941
vt 0.370724 0.002941
vt 0.370724 0.040235
vt 0.333431 0.002941
vt 0.370724 0.002941
vt 0.370724 0.040235
vt 0.333431 0.002941
vt 0.370733 0.002947
vt 0.370724 0.040235
vn 0.000000 -1.000000 0.000000
vn 0.000000 -1.000000 0.000000
vn 0.000000 -1.000000 0.000000
vn 0.000000 -1.000000 0.000000
vn 0.000000 -1.000000 0.000000
vn 0.000000 -1.000000 0.000000
vn 0.000000 -1.000000 0.000000
vn 0.000000 -1.000000 0.000000
vn 0.000000 -1.000000 0.000000
vn 0.000000 -1.000000 0.000000
vn 0.000000 -1.000000 0.000000
vn 0.000000 -1.000000 0.000000
vn 0.000000 -1.000000 0.000000
vn 0.000000 -1.000000 0.000000
vn 0.000000 -1.000000 0.000000
vn 0.000000 -1.000000 0.000000
vn 0.000000 -1.000000 0.000000
vn 0.000000 -1.000000 0.000000
vn 0.000000 -1.000000 0.000000
vn 0.000000 -1.000000 0.000000
vn 0.000000 -1.000000 0.000000
vn -1.000000 0.000000 0.000000
vn -1.000000 0.000000 0.000000
vn -1.000000 0.000000 0.000000
vn -1.000000 0.000000 0.000000
vn -1.000000 0.000000 0.000000
vn -1.000000 0.000000 0.000000
vn 0.350725 0.171497 -0.920641
vn 0.350725 0.171497 -0.920641
vn 0.350725 0.171497 -0.920641
vn 0.350726 0.171497 -0.920641
vn 0.350726 0.171497 -0.920641
vn 0.350726 0.171497 -0.920641
vn -0.393919 0.168323 -0.903601
vn -0.393919 0.168323 -0.903601
vn -0.393919 0.168323 -0.903601
vn -0.393918 0.168323 -0.903602
vn -0.393918 0.168323 -0.903601
vn -0.393918 0.168323 -0.903602
vn 0.599722 0.146542 -0.786676
vn 0.599722 0.146542 -0.786676
vn 0.599722 0.146542 -0.786676
vn 0.599722 0.146542 -0.786676
vn 0.599722 0.146542 -0.786676
vn 0.599722 0.146542 -0.786676
vn -0.273226 0.176162 -0.945682
vn -0.273226 0.176162 -0.945682
vn -0.273226 0.176162 -0.945682
vn -0.273226 0.176162 -0.945682
vn -0.273226 0.176162 -0.945682
vn -0.273226 0.176162 -0.945682
vn -0.552185 0.152680 -0.819623
vn -0.552185 0.152679 -0.819623
vn -0.552185 0.152680 -0.819623
vn -0.552185 0.152679 -0.819623
vn -0.552185 0.152679 -0.819623
vn -0.552185 0.152679 -0.819623
vn 0.000000 0.000000 1.000000
vn 0.000000 0.000000 1.000000
vn 0.000000 0.000000 1.000000
vn 0.000000 0.000000 1.000000
vn 0.000000 0.000000 1.000000
vn 0.000000 0.000000 1.000000
vn 0.354698 0.171223 -0.919169
vn 0.354698 0.171223 -0.919169
vn 0.354698 0.171223 -0.919169
vn 0.354697 0.171223 -0.919169
vn 0.354697 0.171223 -0.919169
vn 0.354697 0.171223 -0.919169
vn 1.000000 0.000000 0.000000
vn 1.000000 0.000000 0.000000
vn 1.000000 0.000000 0.000000
vn 1.000000 0.000000 0.000000
vn 1.000000 0.000000 0.000000
vn 1.000000 0.000000 0.000000
vn 0.000000 1.000000 0.000000
vn 0.000000 1.000000 0.000000
vn 0.000000 1.000000 0.000000
vn 0.000000 1.000000 0.000000
vn 0.000000 1.000000 0.000000
vn 0.000000 1.000000 0.000000
vn 0.000000 1.000000 0.000000
vn 0.000000 1.000000 0.000000
vn 0.000000 1.000000 0.000000
vn 0.000000 1.000000 0.000000
vn 0.000000 1.000000 0.000000
vn 0.000000 1.000000 0.000000
vn 0.000000 1.000000 0.000000
vn 0.000000 1.000000 0.000000
vn 0.000000 1.000000 0.000000
vn 0.000000 1.000000 0.000000
vn 0.000000 1.000000 0.000000
vn 0.000000 1.000000 0.000000
vn 0.000000 1.000000 0.000000
vn 0.000000 1.000000 0.000000
vn 0.000000 1.000000 0.000000
vn 0.290274 0.591529 -0.752220
vn 0.290274 0.591529 -0.752220
vn 0.290274 0.591529 -0.752220
vn 0.290273 0.591529 -0.752220
vn 0.290273 0.591529 -0.752220
vn 0.290273 0.591529 -0.752220
vn -0.468001 0.546271 -0.694667
vn -0.468001 0.546271 -0.694667
vn -0.468001 0.546271 -0.694667
vn -0.468001 0.546271 -0.694667
vn -0.468001 0.546271 -0.694668
vn -0.468001 0.546271 -0.694667
vn -0.221470 0.602794 -0.766545
vn -0.221470 0.602794 -0.766545
vn -0.221470 0.602794 -0.766545
vn -0.221469 0.602794 -0.766545
vn -0.221470 0.602794 -0.766545
vn -0.221469 0.602794 -0.766545
vn 0.286873 0.592162 -0.753026
vn 0.286873 0.592162 -0.753026
vn 0.286873 0.592162 -0.753026
vn 0.286870 0.592162 -0.753027
vn 0.286870 0.592162 -0.753027
vn 0.286870 0.592162 -0.753027
vn 0.286870 0.592163 -0.753026
vn 0.286870 0.592163 -0.753026
vn 0.286870 0.592163 -0.753026
vn 0.286872 0.592163 -0.753026
vn 0.286872 0.592163 -0.753026
vn 0.286872 0.592163 -0.753026
vn 0.286870 0.592162 -0.753027
vn 0.286870 0.592162 -0.753027
vn 0.286870 0.592162 -0.753027
vn 0.514026 0.530228 -0.674266
vn 0.514026 0.530228 -0.674266
vn 0.514026 0.530228 -0.674266
vn 0.514025 0.530228 -0.674267
vn 0.514025 0.530228 -0.674267
vn 0.514025 0.530228 -0.674267
vn 0.514025 0.530230 -0.674266
vn 0.514025 0.530230 -0.674265
vn 0.514025 0.530230 -0.674265
vn 0.514027 0.530228 -0.674266
vn 0.514027 0.530228 -0.674266
vn 0.514027 0.530228 -0.674266
vn 0.514027 0.530228 -0.674266
vn 0.514027 0.530228 -0.674266
vn 0.514027 0.530228 -0.674266
vn -0.324172 0.584763 -0.743616
vn -0.324172 0.584763 -0.743616
vn -0.324172 0.584763 -0.743616
vn -0.324172 0.584764 -0.743616
vn -0.324172 0.584764 -0.743616
vn -0.324172 0.584764 -0.743616
vn -0.324174 0.584761 -0.743617
vn -0.324174 0.584761 -0.743617
vn -0.324174 0.584761 -0.743617
vn -0.324176 0.584763 -0.743614
vn -0.324176 0.584763 -0.743614
vn -0.324176 0.584763 -0.743614
vn -0.324173 0.584764 -0.743615
vn -0.324173 0.584764 -0.743615
vn -0.324173 0.584764 -0.743615
s off
g Grass_Cliff Cliffs_All
f 2/1/1 1/2/2 3/3/3
f 3/4/4 4/5/5 2/6/6
f 3/7/7 5/8/8 4/9/9
f 3/10/10 6/11/11 5/12/12
f 5/13/13 7/14/14 4/15/15
f 7/16/16 8/17/17 4/18/18
f 8/19/19 9/20/20 4/21/21
f 2/22/22 10/23/23 11/24/24
f 11/25/25 1/26/26 2/27/27
f 12/28/28 8/29/29 7/30/30
f 7/31/31 13/32/32 12/33/33
f 6/34/34 3/35/35 14/36/36
f 14/37/37 15/38/38 6/39/39
f 5/40/40 6/41/41 15/42/42
f 15/43/43 16/44/44 5/45/45
f 17/46/46 9/47/47 8/48/48
f 8/49/49 12/50/50 17/51/51
f 7/52/52 5/53/53 16/54/54
f 16/55/55 13/56/56 7/57/57
f 2/58/58 4/59/59 18/60/60
f 18/61/61 10/62/62 2/63/63
f 14/64/64 3/65/65 1/66/66
f 1/67/67 11/68/68 14/69/69
f 18/70/70 4/71/71 9/72/72
f 9/73/73 17/74/74 18/75/75
f 14/76/76 11/77/77 10/78/78
f 10/79/79 16/80/80 14/81/81
f 10/82/82 18/83/83 16/84/84
f 16/85/85 15/86/86 14/87/87
f 18/88/88 13/89/89 16/90/90
f 18/91/91 12/92/92 13/93/93
f 18/94/94 17/95/95 12/96/96
f 14/97/97 19/98/98 20/99/99
f 20/100/100 11/101/101 14/102/102
f 22/103/103 21/104/104 16/105/105
f 16/106/106 13/107/107 22/108/108
f 24/109/109 23/110/110 12/111/111
f 12/112/112 17/113/113 24/114/114
f 25/115/115 22/116/116 13/117/117
f 13/118/118 26/119/119 25/120/120
f 26/121/121 13/122/122 12/123/123
f 26/124/124 12/125/125 23/126/126
f 23/127/127 27/128/128 26/129/129
f 29/130/130 28/131/131 15/132/132
f 15/133/133 30/134/134 29/135/135
f 30/136/136 15/137/137 16/138/138
f 30/139/139 16/140/140 21/141/141
f 21/142/142 31/143/143 30/144/144
f 32/145/145 19/146/146 14/147/147
f 14/148/148 33/149/149 32/150/150
f 33/151/151 14/152/152 15/153/153
f 33/154/154 15/155/155 28/156/156
f 28/157/157 34/158/158 33/159/159
