# This file uses centimeters as units for non-parametric coordinates.

g default
v -1.495599 0.071788 1.934751
v -1.185069 0.071788 1.806127
v -1.495599 0.358943 2.122962
v -1.051985 0.358943 1.939211
v -1.495599 0.071788 1.056446
v -1.806129 0.071788 1.185071
v -1.495599 0.358943 0.868239
v -1.939203 0.358943 1.051989
v -2.039077 0.358943 2.039081
v -2.432640 0.000000 2.432638
v -2.264193 0.358943 1.495600
v -2.820770 0.000000 1.495600
v -0.170427 0.000000 1.495600
v -0.558558 0.000000 2.432638
v -0.726996 0.358943 1.495600
v -0.952121 0.358943 2.039081
v -1.495599 0.358943 2.264200
v -1.495599 0.000000 2.820774
v -2.122958 0.358943 1.495600
v -1.934749 0.071788 1.495600
v -2.039077 0.358943 0.952116
v -2.432640 0.000000 0.558559
v -0.558558 0.000000 0.558559
v -0.952121 0.358943 0.952116
v -1.495599 0.000000 0.170423
v -1.495599 0.358943 0.726997
v -1.056449 0.071788 1.495600
v -1.185069 0.071788 1.185071
v -1.806129 0.071788 1.806127
v -1.939203 0.358943 1.939211
v -1.051985 0.358943 1.051989
v -0.868240 0.358943 1.495600
vt 0.157893 0.405934
vt 0.157893 0.125274
vt 0.148050 0.405934
vt 0.143832 0.125274
vt 0.157893 0.405934
vt 0.157893 0.125274
vt 0.167736 0.405934
vt 0.171954 0.125274
vt 0.175119 0.125274
vt 0.182255 0.125274
vt 0.187594 0.476099
vt 0.199896 0.476099
vt 0.115889 0.476099
vt 0.133531 0.125274
vt 0.128192 0.476099
vt 0.140666 0.125274
vt 0.157893 0.125274
vt 0.157893 0.476099
vt 0.177778 0.125274
vt 0.171813 0.405934
vt 0.175119 0.125274
vt 0.187594 0.476099
vt 0.128192 0.476099
vt 0.140666 0.125274
vt 0.157893 0.476099
vt 0.157893 0.125274
vt 0.143973 0.405934
vt 0.148050 0.405934
vt 0.167736 0.405934
vt 0.171954 0.125274
vt 0.143832 0.125274
vt 0.138008 0.125274
vn -0.325490 0.521569 -0.788684
vn -0.325490 0.521569 -0.788684
vn -0.325490 0.521569 -0.788684
vn -0.325490 0.521569 -0.788684
vn 0.325490 0.521569 0.788684
vn 0.325490 0.521569 0.788684
vn 0.325490 0.521569 0.788684
vn 0.325490 0.521569 0.788684
vn -0.529412 0.819608 0.219012
vn -0.529412 0.819608 0.219012
vn -0.529412 0.819608 0.219012
vn -0.529412 0.819608 0.219012
vn 0.529412 0.819608 0.219012
vn 0.529412 0.819608 0.219012
vn 0.529412 0.819608 0.219012
vn 0.529412 0.819608 0.219012
vn -0.215686 0.819608 0.530775
vn -0.215686 0.819608 0.530775
vn -0.215686 0.819608 0.530775
vn -0.215686 0.819608 0.530775
vn 0.788235 0.521569 0.326575
vn 0.788235 0.521569 0.326575
vn 0.788235 0.521569 0.326575
vn 0.788235 0.521569 0.326575
vn -0.529412 0.819608 -0.219012
vn -0.529412 0.819608 -0.219012
vn -0.529412 0.819608 -0.219012
vn -0.529412 0.819608 -0.219012
vn 0.215686 0.819608 0.530775
vn 0.215686 0.819608 0.530775
vn 0.215686 0.819608 0.530775
vn 0.215686 0.819608 0.530775
vn 0.529412 0.819608 -0.219012
vn 0.529412 0.819608 -0.219012
vn 0.529412 0.819608 -0.219012
vn 0.529412 0.819608 -0.219012
vn 0.215686 0.819608 -0.530775
vn 0.215686 0.819608 -0.530775
vn 0.215686 0.819608 -0.530775
vn 0.215686 0.819608 -0.530775
vn -0.215686 0.819608 -0.530775
vn -0.215686 0.819608 -0.530775
vn -0.215686 0.819608 -0.530775
vn -0.215686 0.819608 -0.530775
vn -0.003922 0.999992 0.000000
vn -0.003922 0.999992 0.000000
vn -0.003922 0.999992 0.000000
vn -0.003922 0.999992 0.000000
vn -0.003922 0.999992 0.000000
vn -0.003922 0.999992 0.000000
vn -0.003922 0.999992 0.000000
vn -0.003922 0.999992 0.000000
vn 0.788235 0.521569 -0.326575
vn 0.788235 0.521569 -0.326575
vn 0.788235 0.521569 -0.326575
vn 0.788235 0.521569 -0.326575
vn -0.325490 0.521569 0.788684
vn -0.325490 0.521569 0.788684
vn -0.325490 0.521569 0.788684
vn -0.325490 0.521569 0.788684
vn -0.788235 0.521569 -0.326575
vn -0.788235 0.521569 -0.326575
vn -0.788235 0.521569 -0.326575
vn -0.788235 0.521569 -0.326575
vn -0.788235 0.521569 0.326575
vn -0.788235 0.521569 0.326575
vn -0.788235 0.521569 0.326575
vn -0.788235 0.521569 0.326575
vn -0.003922 -0.999992 0.000000
vn -0.003922 -0.999992 0.000000
vn -0.003922 -0.999992 0.000000
vn -0.003922 -0.999992 0.000000
vn -0.003922 -0.999992 0.000000
vn -0.003922 -0.999992 0.000000
vn -0.003922 -0.999992 0.000000
vn -0.003922 -0.999992 0.000000
vn -0.003922 0.999992 0.000000
vn -0.003922 0.999992 0.000000
vn -0.003922 0.999992 0.000000
vn -0.003922 0.999992 0.000000
vn -0.003922 0.999992 0.000000
vn -0.003922 0.999992 0.000000
vn -0.003922 0.999992 0.000000
vn -0.003922 0.999992 0.000000
vn -0.003922 0.999992 0.000000
vn -0.003922 0.999992 0.000000
vn -0.003922 0.999992 0.000000
vn -0.003922 0.999992 0.000000
vn -0.003922 0.999992 0.000000
vn -0.003922 0.999992 0.000000
vn -0.003922 0.999992 0.000000
vn -0.003922 0.999992 0.000000
vn 0.325490 0.521569 -0.788684
vn 0.325490 0.521569 -0.788684
vn 0.325490 0.521569 -0.788684
vn 0.325490 0.521569 -0.788684
vn 0.000000 0.000000 0.000000
vn 0.000000 0.000000 0.000000
vn 0.000000 0.000000 0.000000
vn 0.000000 0.000000 0.000000
vn 0.000000 0.000000 0.000000
vn 0.000000 0.000000 0.000000
vn 0.000000 0.000000 0.000000
vn 0.000000 0.000000 0.000000
vn 0.000000 0.000000 0.000000
vn 0.000000 0.000000 0.000000
vn 0.000000 0.000000 0.000000
vn 0.000000 0.000000 0.000000
vn 0.000000 0.000000 0.000000
vn 0.000000 0.000000 0.000000
vn 0.000000 0.000000 0.000000
vn 0.000000 0.000000 0.000000
vn 0.000000 0.000000 0.000000
vn 0.000000 0.000000 0.000000
vn 0.000000 0.000000 0.000000
vn 0.000000 0.000000 0.000000
vn 0.000000 0.000000 0.000000
vn 0.000000 0.000000 0.000000
vn 0.000000 0.000000 0.000000
vn 0.000000 0.000000 0.000000
vn 0.000000 0.000000 0.000000
vn 0.000000 0.000000 0.000000
vn 0.000000 0.000000 0.000000
vn 0.000000 0.000000 0.000000
vn 0.000000 0.000000 0.000000
vn 0.000000 0.000000 0.000000
vn 0.000000 0.000000 0.000000
vn 0.000000 0.000000 0.000000
vn 0.000000 0.000000 0.000000
vn 0.000000 0.000000 0.000000
vn 0.000000 0.000000 0.000000
vn 0.000000 0.000000 0.000000
vn 0.000000 0.000000 0.000000
vn 0.000000 0.000000 0.000000
vn 0.000000 0.000000 0.000000
vn 0.000000 0.000000 0.000000
vn 0.000000 0.000000 0.000000
vn 0.000000 0.000000 0.000000
vn 0.000000 0.000000 0.000000
vn 0.000000 0.000000 0.000000
vn 0.000000 0.000000 0.000000
vn 0.000000 0.000000 0.000000
vn 0.000000 0.000000 0.000000
vn 0.000000 0.000000 0.000000
vn 0.000000 0.000000 0.000000
vn 0.000000 0.000000 0.000000
vn 0.000000 0.000000 0.000000
vn 0.000000 0.000000 0.000000
vn 0.000000 0.000000 0.000000
vn 0.000000 0.000000 0.000000
vn 0.000000 0.000000 0.000000
vn 0.000000 0.000000 0.000000
vn 0.000000 0.000000 0.000000
vn 0.000000 0.000000 0.000000
vn 0.000000 0.000000 0.000000
vn 0.000000 0.000000 0.000000
vn 0.000000 0.000000 0.000000
vn 0.000000 0.000000 0.000000
vn 0.000000 0.000000 0.000000
vn 0.000000 0.000000 0.000000
vn 0.000000 0.000000 0.000000
vn 0.000000 0.000000 0.000000
vn 0.000000 0.000000 0.000000
vn 0.000000 0.000000 0.000000
vn 0.000000 0.000000 0.000000
vn 0.000000 0.000000 0.000000
vn 0.000000 0.000000 0.000000
vn 0.000000 0.000000 0.000000
vn 0.000000 0.000000 0.000000
vn 0.000000 0.000000 0.000000
vn 0.000000 0.000000 0.000000
vn 0.000000 0.000000 0.000000
vn 0.000000 0.000000 0.000000
vn 0.000000 0.000000 0.000000
vn 0.000000 0.000000 0.000000
vn 0.000000 0.000000 0.000000
vn 0.000000 0.000000 0.000000
vn 0.000000 0.000000 0.000000
vn 0.000000 0.000000 0.000000
vn 0.000000 0.000000 0.000000
s 1
g craterLarge group1
f 1/1/1 3/2/2 2/3/3
f 4/4/4 2/3/3 3/2/2
s 2
f 5/5/5 7/6/6 6/7/7
f 8/8/8 6/7/7 7/6/6
s 3
f 9/9/9 11/10/10 10/11/11
f 12/12/12 10/11/11 11/10/10
s 4
f 13/13/13 15/14/14 14/15/15
f 16/16/16 14/15/15 15/14/14
s 5
f 17/17/17 9/9/18 18/18/19
f 10/11/20 18/18/19 9/9/18
s 6
f 8/8/21 19/19/22 6/7/23
f 20/20/24 6/7/23 19/19/22
s 7
f 21/21/25 22/22/26 11/10/27
f 12/12/28 11/10/27 22/22/26
s 8
f 14/15/29 16/16/30 18/18/31
f 17/17/32 18/18/31 16/16/30
s 9
f 13/13/33 23/23/34 15/14/35
f 24/24/36 15/14/35 23/23/34
s 10
f 23/23/37 25/25/38 24/24/39
f 26/26/40 24/24/39 25/25/38
s 11
f 26/26/41 25/25/42 21/21/43
f 22/22/44 21/21/43 25/25/42
s 12
f 27/27/45 28/28/46 2/3/47
f 5/5/48 2/3/47 28/28/46
f 1/1/49 2/3/47 5/5/48
f 6/7/50 1/1/49 5/5/48
f 29/29/51 1/1/49 6/7/50
f 20/20/52 29/29/51 6/7/50
s 13
f 19/19/53 30/30/54 20/20/55
f 29/29/56 20/20/55 30/30/54
s 14
f 28/28/57 31/31/58 5/5/59
f 7/6/60 5/5/59 31/31/58
s 15
f 32/32/61 27/27/62 4/4/63
f 2/3/64 4/4/63 27/27/62
s 16
f 31/31/65 28/28/66 32/32/67
f 27/27/68 32/32/67 28/28/66
s 17
f 13/13/69 14/15/70 23/23/71
f 18/18/72 23/23/71 14/15/70
f 25/25/73 23/23/71 18/18/72
f 10/11/74 25/25/73 18/18/72
f 22/22/75 25/25/73 10/11/74
f 12/12/76 22/22/75 10/11/74
s 18
f 15/14/77 24/24/78 32/32/79
f 31/31/80 32/32/79 24/24/78
f 26/26/81 31/31/80 24/24/78
f 7/6/82 31/31/80 26/26/81
f 21/21/83 7/6/82 26/26/81
f 8/8/84 7/6/82 21/21/83
f 19/19/85 8/8/84 21/21/83
f 11/10/86 19/19/85 21/21/83
f 15/14/77 32/32/79 16/16/87
f 4/4/88 16/16/87 32/32/79
f 17/17/89 16/16/87 4/4/88
f 3/2/90 17/17/89 4/4/88
f 30/30/91 17/17/89 3/2/90
f 9/9/92 17/17/89 30/30/91
f 19/19/85 9/9/92 30/30/91
f 11/10/86 9/9/92 19/19/85
s 19
f 29/29/93 30/30/94 1/1/95
f 3/2/96 1/1/95 30/30/94
