# This file uses centimeters as units for non-parametric coordinates.

g PlatformMedium_default1
v -0.000000 -0.000000 0.000000
v 2.000001 -0.000000 0.000000
v -0.000000 2.000000 0.000000
v 2.000001 2.000000 0.000000
v -0.000000 2.000000 -2.000000
v 2.000001 2.000000 -2.000000
v -0.000000 -0.000000 -2.000000
v 2.000001 -0.000000 -2.000000
v -0.148998 1.660831 0.148997
v 2.148999 1.660831 0.148997
v -0.148998 1.660831 -2.148997
v 2.148999 1.660831 -2.148997
v 1.000001 1.660831 -2.148997
v 2.148999 1.660831 -1.000000
v 1.000001 1.660831 0.148997
v -0.148998 1.660831 -1.000000
v 2.148999 1.660831 -0.425501
v 2.148999 1.660831 -1.574499
v 1.574500 1.660831 -2.148997
v 0.425502 1.660831 -2.148997
v -0.148998 1.660831 -1.574499
v -0.148998 1.660831 -0.425501
v 0.425502 1.660831 0.148997
v 1.574500 1.660831 0.148997
v 2.148999 1.660831 -0.138252
v 2.148999 1.660831 -0.712751
v 2.148999 1.660831 -1.287250
v 2.148999 1.660831 -1.861748
v 1.861748 1.660831 -2.148997
v 1.287251 1.660831 -2.148997
v 0.712750 1.660831 -2.148997
v 0.138253 1.660831 -2.148997
v -0.148998 1.660831 -1.861748
v -0.148998 1.660831 -0.138252
v -0.148998 1.660831 -0.712751
v -0.148998 1.660831 -1.287250
v 0.138253 1.660831 0.148997
v 0.712750 1.660831 0.148997
v 1.287251 1.660831 0.148997
v 1.861748 1.660831 0.148997
v -0.084808 1.450086 0.239779
v 0.225138 1.450086 0.239779
v 0.535083 1.450086 0.239779
v 0.845029 1.450086 0.239779
v 1.154973 1.450086 0.239779
v 1.464919 1.450086 0.239779
v 1.774863 1.450086 0.239779
v 2.084809 1.450086 0.239779
v 2.239781 1.450086 0.084807
v 2.239781 1.450086 -0.225138
v 2.239781 1.450086 -0.535083
v 2.239781 1.450086 -0.845028
v 2.239781 1.450086 -1.154972
v 2.239781 1.450086 -1.464917
v 2.239781 1.450086 -1.774862
v 2.239781 1.450086 -2.084807
v 2.084809 1.450086 -2.239779
v 1.774863 1.450086 -2.239779
v 1.464919 1.450086 -2.239779
v 1.154973 1.450086 -2.239779
v 0.845029 1.450086 -2.239779
v 0.535083 1.450086 -2.239779
v 0.225138 1.450086 -2.239779
v -0.084808 1.450086 -2.239779
v -0.239780 1.450086 -2.084807
v -0.239780 1.450086 -1.774862
v -0.239780 1.450086 -1.464917
v -0.239780 1.450086 -1.154972
v -0.239780 1.450086 -0.845028
v -0.239780 1.450086 -0.535083
v -0.239780 1.450086 -0.225138
v -0.239780 1.450086 0.084807
vt 0.439514 0.279067
vt 0.439514 0.279067
vt 0.333867 0.013318
vt 0.478724 0.029067
vt 0.439514 0.029067
vt 0.376422 0.033662
vt 0.433179 0.469422
vt 0.478724 0.279067
vt 0.433179 0.490328
vt 0.482426 0.490328
vt 0.439514 0.279067
vt 0.439514 0.029067
vt 0.478724 0.279067
vt 0.478724 0.029067
vt 0.333867 0.033662
vt 0.478724 0.029067
vt 0.478724 0.029067
vt 0.376422 0.013318
vt 0.439514 0.279067
vt 0.482426 0.469422
vt 0.478724 0.279067
vt 0.439514 0.029067
vt 0.478724 0.279067
vt 0.439514 0.029067
vt 0.322129 0.045772
vt 0.372484 0.045772
vt 0.372484 0.103832
vt 0.322129 0.103832
vt 0.322129 0.045772
vt 0.372484 0.045772
vt 0.372484 0.103832
vt 0.322129 0.103832
vt 0.347307 0.103832
vt 0.347307 0.103832
vt 0.359895 0.103832
vt 0.334718 0.103832
vt 0.359895 0.103832
vt 0.334718 0.103832
vt 0.366190 0.103832
vt 0.353601 0.103832
vt 0.341012 0.103832
vt 0.328424 0.103832
vt 0.366190 0.103832
vt 0.328424 0.103832
vt 0.341012 0.103832
vt 0.353601 0.103832
vt 0.369337 0.169468
vt 0.363043 0.169468
vt 0.356748 0.169468
vt 0.350454 0.169468
vt 0.344159 0.169468
vt 0.337865 0.169468
vt 0.331571 0.169468
vt 0.325277 0.169468
vt 0.369337 0.169468
vt 0.363043 0.169468
vt 0.356748 0.169468
vt 0.350454 0.169468
vt 0.344159 0.169468
vt 0.337865 0.169468
vt 0.331571 0.169468
vt 0.325277 0.169468
vt 0.372353 0.045772
vt 0.324212 0.045772
vt 0.348283 0.103832
vt 0.320626 0.103832
vt 0.322171 0.169468
vt 0.327540 0.103832
vt 0.369026 0.103832
vt 0.375940 0.103832
vt 0.352013 0.169468
vt 0.355197 0.103832
vt 0.366934 0.169468
vt 0.362111 0.103832
vt 0.334454 0.103832
vt 0.341369 0.103832
vt 0.337092 0.169468
vt 0.374395 0.169468
vt 0.359474 0.169468
vt 0.344553 0.169468
vt 0.329631 0.169468
vt 0.372353 0.045772
vt 0.348283 0.103832
vt 0.324212 0.045772
vt 0.320626 0.103832
vt 0.327540 0.103832
vt 0.322171 0.169468
vt 0.355197 0.103832
vt 0.334454 0.103832
vt 0.352013 0.169468
vt 0.369026 0.103832
vt 0.362111 0.103832
vt 0.366934 0.169468
vt 0.341369 0.103832
vt 0.337092 0.169468
vt 0.375940 0.103832
vt 0.374395 0.169468
vt 0.359474 0.169468
vt 0.344553 0.169468
vt 0.329631 0.169468
vn 0.000000 0.000000 1.000000
vn 0.000000 0.000000 1.000000
vn 0.000000 0.000000 1.000000
vn 0.000000 0.000000 1.000000
vn 0.000000 1.000000 0.000000
vn 0.000000 1.000000 0.000000
vn 0.000000 1.000000 0.000000
vn 0.000000 1.000000 0.000000
vn 0.000000 0.000000 -1.000000
vn 0.000000 0.000000 -1.000000
vn 0.000000 0.000000 -1.000000
vn 0.000000 0.000000 -1.000000
vn 0.000000 -1.000000 0.000000
vn 0.000000 -1.000000 0.000000
vn 0.000000 -1.000000 0.000000
vn 0.000000 -1.000000 0.000000
vn 1.000000 0.000000 0.000000
vn 1.000000 0.000000 0.000000
vn 1.000000 0.000000 0.000000
vn 1.000000 0.000000 0.000000
vn -1.000000 0.000000 0.000000
vn -1.000000 0.000000 0.000000
vn -1.000000 0.000000 0.000000
vn -1.000000 0.000000 0.000000
vn 0.000000 0.402203 0.915551
vn 0.000000 0.402202 0.915551
vn 0.000000 0.402202 0.915551
vn 0.000000 0.402203 -0.915551
vn 0.000000 0.402202 -0.915551
vn 0.000000 0.402202 -0.915551
vn -0.915550 0.402205 0.000000
vn -0.915550 0.402205 0.000000
vn -0.915550 0.402205 0.000000
vn 0.915550 0.402205 0.000000
vn 0.915550 0.402205 0.000000
vn 0.915550 0.402205 0.000000
vn 0.000000 0.395622 0.918413
vn 0.000000 0.395622 0.918413
vn 0.000000 0.395622 0.918413
vn 0.000000 0.395623 -0.918413
vn 0.000000 0.395623 -0.918413
vn 0.000000 0.395623 -0.918413
vn -0.918413 0.395622 0.000000
vn -0.918413 0.395622 0.000000
vn -0.918413 0.395622 0.000000
vn 0.918413 0.395622 0.000000
vn 0.918414 0.395622 0.000000
vn 0.918413 0.395622 0.000000
vn 0.000000 0.402202 -0.915551
vn 0.000000 0.402202 -0.915551
vn 0.000000 0.402203 -0.915551
vn 0.000000 0.402203 -0.915551
vn 0.000000 0.402203 -0.915551
vn 0.000000 0.402203 -0.915551
vn 0.915550 0.402205 0.000000
vn 0.915550 0.402203 0.000000
vn 0.915550 0.402205 0.000000
vn 0.915550 0.402205 0.000000
vn 0.915550 0.402205 0.000000
vn 0.915550 0.402205 0.000000
vn 0.000000 0.402203 0.915551
vn 0.000000 0.402203 0.915551
vn 0.000000 0.402203 0.915551
vn 0.000000 0.402202 0.915551
vn 0.000000 0.402202 0.915551
vn 0.000000 0.402202 0.915551
vn -0.915550 0.402205 0.000000
vn -0.915550 0.402205 0.000000
vn -0.915550 0.402205 0.000000
vn -0.915550 0.402205 0.000000
vn -0.915550 0.402205 0.000000
vn -0.915550 0.402205 0.000000
vn -0.918413 0.395622 0.000000
vn -0.918413 0.395622 0.000000
vn -0.918413 0.395622 0.000000
vn 0.000000 0.395623 -0.918413
vn 0.000000 0.395623 -0.918413
vn 0.000000 0.395623 -0.918413
vn 0.918414 0.395622 0.000000
vn 0.918414 0.395622 0.000000
vn 0.918414 0.395622 0.000000
vn 0.000000 0.395623 0.918413
vn 0.000000 0.395623 0.918413
vn 0.000000 0.395623 0.918413
vn 0.915550 0.402205 0.000000
vn 0.915550 0.402204 0.000000
vn 0.915550 0.402205 0.000000
vn 0.918414 0.395621 0.000000
vn 0.918414 0.395621 0.000000
vn 0.918414 0.395621 0.000000
vn 0.915550 0.402205 0.000000
vn 0.915550 0.402205 0.000000
vn 0.915550 0.402205 0.000000
vn 0.918414 0.395622 0.000000
vn 0.918414 0.395622 0.000000
vn 0.918414 0.395622 0.000000
vn 0.000000 0.402203 -0.915551
vn 0.000000 0.402202 -0.915551
vn 0.000000 0.402202 -0.915551
vn 0.000000 0.395622 -0.918413
vn 0.000000 0.395622 -0.918413
vn 0.000000 0.395622 -0.918413
vn 0.000000 0.395622 -0.918413
vn 0.000000 0.395622 -0.918413
vn 0.000000 0.395622 -0.918413
vn 0.000000 0.402203 -0.915551
vn 0.000000 0.402203 -0.915551
vn 0.000000 0.402203 -0.915551
vn -0.915550 0.402205 0.000000
vn -0.915550 0.402205 0.000000
vn -0.915550 0.402205 0.000000
vn -0.918413 0.395623 0.000000
vn -0.918413 0.395622 0.000000
vn -0.918413 0.395623 0.000000
vn -0.915550 0.402205 0.000000
vn -0.915550 0.402205 0.000000
vn -0.915550 0.402205 0.000000
vn -0.918413 0.395622 0.000000
vn -0.918413 0.395622 0.000000
vn -0.918413 0.395622 0.000000
vn 0.000000 0.395623 0.918413
vn 0.000000 0.395623 0.918413
vn 0.000000 0.395623 0.918413
vn 0.000000 0.402203 0.915551
vn 0.000000 0.402203 0.915551
vn 0.000000 0.402202 0.915551
vn 0.000000 0.402202 0.915551
vn 0.000000 0.402203 0.915551
vn 0.000000 0.402203 0.915551
vn 0.000000 0.395622 0.918413
vn 0.000000 0.395622 0.918413
vn 0.000000 0.395622 0.918413
vn 0.915550 0.402205 0.000000
vn 0.915550 0.402205 0.000000
vn 0.915550 0.402204 0.000000
vn 0.918413 0.395623 0.000000
vn 0.918413 0.395623 0.000000
vn 0.918413 0.395623 0.000000
vn 0.915550 0.402205 0.000000
vn 0.915550 0.402205 0.000000
vn 0.915550 0.402203 0.000000
vn 0.918413 0.395622 0.000000
vn 0.918413 0.395622 0.000000
vn 0.918413 0.395622 0.000000
vn 0.915550 0.402205 0.000000
vn 0.915550 0.402205 0.000000
vn 0.915550 0.402205 0.000000
vn 0.918414 0.395622 0.000000
vn 0.918414 0.395622 0.000000
vn 0.918414 0.395622 0.000000
vn 0.918414 0.395622 0.000000
vn 0.918414 0.395622 0.000000
vn 0.918414 0.395621 0.000000
vn 0.915550 0.402205 0.000000
vn 0.915550 0.402205 0.000000
vn 0.915550 0.402205 0.000000
vn 0.000000 0.402202 -0.915551
vn 0.000000 0.402202 -0.915551
vn 0.000000 0.402202 -0.915551
vn 0.000000 0.395622 -0.918413
vn 0.000000 0.395622 -0.918413
vn 0.000000 0.395622 -0.918413
vn 0.000000 0.402203 -0.915551
vn 0.000000 0.402202 -0.915551
vn 0.000000 0.402203 -0.915551
vn 0.000000 0.395622 -0.918413
vn 0.000000 0.395622 -0.918413
vn 0.000000 0.395622 -0.918413
vn 0.000000 0.402203 -0.915551
vn 0.000000 0.402202 -0.915551
vn 0.000000 0.402203 -0.915551
vn 0.000000 0.395623 -0.918413
vn 0.000000 0.395623 -0.918413
vn 0.000000 0.395623 -0.918413
vn 0.000000 0.402203 -0.915551
vn 0.000000 0.402203 -0.915551
vn 0.000000 0.402203 -0.915551
vn 0.000000 0.395623 -0.918413
vn 0.000000 0.395623 -0.918413
vn 0.000000 0.395622 -0.918413
vn -0.915550 0.402205 0.000000
vn -0.915550 0.402205 0.000000
vn -0.915550 0.402205 0.000000
vn -0.918413 0.395623 0.000000
vn -0.918413 0.395622 0.000000
vn -0.918413 0.395622 0.000000
vn -0.915550 0.402205 0.000000
vn -0.915550 0.402205 0.000000
vn -0.915550 0.402205 0.000000
vn -0.918413 0.395622 0.000000
vn -0.918413 0.395622 0.000000
vn -0.918413 0.395622 0.000000
vn -0.918413 0.395622 0.000000
vn -0.918413 0.395622 0.000000
vn -0.918413 0.395622 0.000000
vn -0.915550 0.402205 0.000000
vn -0.915550 0.402205 0.000000
vn -0.915550 0.402205 0.000000
vn -0.915550 0.402205 0.000000
vn -0.915550 0.402205 0.000000
vn -0.915550 0.402205 0.000000
vn -0.918413 0.395622 0.000000
vn -0.918413 0.395622 0.000000
vn -0.918413 0.395622 0.000000
vn 0.000000 0.395623 0.918413
vn 0.000000 0.395623 0.918413
vn 0.000000 0.395623 0.918413
vn 0.000000 0.402203 0.915551
vn 0.000000 0.402203 0.915551
vn 0.000000 0.402203 0.915551
vn 0.000000 0.402203 0.915551
vn 0.000000 0.402203 0.915551
vn 0.000000 0.402203 0.915551
vn 0.000000 0.395622 0.918413
vn 0.000000 0.395622 0.918413
vn 0.000000 0.395622 0.918413
vn 0.000000 0.402202 0.915551
vn 0.000000 0.402202 0.915551
vn 0.000000 0.402203 0.915551
vn 0.000000 0.395623 0.918413
vn 0.000000 0.395623 0.918413
vn 0.000000 0.395623 0.918413
vn 0.000000 0.402202 0.915551
vn 0.000000 0.402203 0.915551
vn 0.000000 0.402202 0.915551
vn 0.000000 0.395622 0.918413
vn 0.000000 0.395622 0.918413
vn 0.000000 0.395622 0.918413
s off
g PlatformMedium_platformer platform_medium PlatformMedium
f 1/21/1 2/2/2 4/24/3 3/17/4
f 3/3/5 4/18/6 6/6/7 5/15/8
f 5/5/9 6/16/10 8/8/11 7/19/12
f 7/7/13 8/20/14 2/10/15 1/9/16
f 2/23/17 8/11/18 6/12/19 4/4/20
f 7/13/21 1/1/22 3/22/23 5/14/24
f 3/63/25 15/65/26 4/64/27
f 5/25/28 6/26/29 13/33/30
f 3/29/31 5/30/32 16/34/33
f 4/82/34 14/83/35 6/84/36
f 10/66/37 40/68/38 48/67/39
f 11/28/40 32/42/41 64/54/42
f 9/32/43 34/44/44 72/62/45
f 12/85/46 28/86/47 56/87/48
f 13/33/49 6/26/50 30/40/51
f 5/25/52 31/41/53 20/36/54
f 4/82/55 26/88/56 14/83/57
f 6/84/58 18/89/59 28/86/60
f 3/63/61 9/70/62 37/69/63
f 4/64/64 40/68/65 10/66/66
f 16/34/67 5/30/68 36/46/69
f 3/29/70 34/44/71 9/32/72
f 68/58/73 16/34/74 36/46/75
f 60/50/76 13/33/77 30/40/78
f 52/90/79 14/83/80 26/88/81
f 44/71/82 15/65/83 38/72/84
f 4/82/85 25/91/86 17/92/87
f 50/93/88 17/92/89 25/91/90
f 6/84/91 27/94/92 18/89/93
f 54/95/94 18/89/95 27/94/96
f 19/35/97 6/26/98 29/39/99
f 58/48/100 19/35/101 29/39/102
f 62/52/103 20/36/104 31/41/105
f 5/25/106 32/42/107 11/28/108
f 21/37/109 5/30/110 33/43/111
f 66/56/112 21/37/113 33/43/114
f 3/29/115 16/34/116 35/45/117
f 70/60/118 22/38/119 35/45/120
f 42/73/121 23/74/122 37/69/123
f 3/63/124 38/72/125 15/65/126
f 4/64/127 39/76/128 24/75/129
f 46/77/130 24/75/131 39/76/132
f 4/82/133 10/96/134 25/91/135
f 49/97/136 25/91/137 10/96/138
f 4/82/139 17/92/140 26/88/141
f 51/98/142 26/88/143 17/92/144
f 6/84/145 14/83/146 27/94/147
f 53/99/148 27/94/149 14/83/150
f 55/100/151 28/86/152 18/89/153
f 6/84/154 28/86/155 12/85/156
f 29/39/157 6/26/158 12/27/159
f 57/47/160 29/39/161 12/27/162
f 30/40/163 6/26/164 19/35/165
f 59/49/166 30/40/167 19/35/168
f 5/25/169 13/33/170 31/41/171
f 61/51/172 31/41/173 13/33/174
f 5/25/175 20/36/176 32/42/177
f 63/53/178 32/42/179 20/36/180
f 33/43/181 5/30/182 11/31/183
f 65/55/184 33/43/185 11/31/186
f 3/29/187 22/38/188 34/44/189
f 71/61/190 34/44/191 22/38/192
f 69/59/193 35/45/194 16/34/195
f 3/29/196 35/45/197 22/38/198
f 36/46/199 5/30/200 21/37/201
f 67/57/202 36/46/203 21/37/204
f 41/78/205 37/69/206 9/70/207
f 3/63/208 37/69/209 23/74/210
f 3/63/211 23/74/212 38/72/213
f 43/79/214 38/72/215 23/74/216
f 4/64/217 15/65/218 39/76/219
f 45/80/220 39/76/221 15/65/222
f 4/64/223 24/75/224 40/68/225
f 47/81/226 40/68/227 24/75/228
