# This file uses centimeters as units for non-parametric coordinates.

g default
v -1.118386 0.000000 0.263230
v -0.486252 0.000000 0.263230
v -0.991957 0.379281 0.389655
v -0.612681 0.379281 0.389655
v -1.118386 0.000000 0.438701
v -0.991957 0.379281 0.630736
v -1.804203 0.000000 2.719028
v -2.436337 0.000000 2.719028
v -1.930632 0.379281 2.592600
v -2.309908 0.379281 2.592600
v -1.911398 0.491503 1.692421
v -2.034285 0.491503 1.692421
v -1.835386 1.141381 1.577255
v -2.294490 1.141381 1.577255
v -2.496748 0.000000 1.779519
v -2.247844 0.000000 1.779519
v -0.486252 0.000000 0.895361
v -0.612681 0.379281 0.768936
v -1.393607 0.491503 2.033622
v -1.180048 0.000000 2.091108
v -1.393607 0.491503 2.217188
v -1.180048 0.000000 2.430746
v -1.835386 1.141381 1.213279
v -1.687688 1.141381 1.213279
v -1.766621 1.729364 1.282047
v -1.159819 1.729364 1.282047
v -1.019698 0.531312 1.141925
v -1.579580 0.531312 1.141925
v -2.025549 0.000000 0.438701
v -1.756535 0.531312 0.707714
v -2.025549 0.000000 0.768197
v -1.756535 0.531312 0.862351
v -1.930632 0.379281 2.265948
v -1.804203 0.000000 2.430746
v -0.957561 0.000000 2.091108
v -1.159819 1.729364 1.888844
v -1.911398 0.491503 2.033622
v -1.766621 1.729364 1.888844
v -2.436337 0.000000 2.086894
v -2.309908 0.379281 2.213322
v -0.872521 0.379281 0.630736
v -0.872521 0.379281 0.768936
v -1.687688 1.141381 0.970461
v -2.294490 1.141381 0.970461
v -0.949501 0.531312 1.514749
v -0.949501 0.531312 0.707714
v -1.019698 0.531312 1.514749
v -1.579580 0.531312 0.862351
v -2.247844 0.000000 2.086894
v -2.083049 0.379281 2.213322
v -0.680487 0.000000 0.895361
v -2.496748 0.000000 0.768197
v -0.680487 0.000000 1.783762
v -0.957561 0.000000 1.783762
v -2.083049 0.379281 2.265948
v -2.034285 0.491503 2.217188
vt 0.135703 0.483676
vt 0.131105 0.395720
vt 0.112709 0.483676
vt 0.117308 0.395720
vt 0.135703 0.483676
vt 0.131105 0.395720
vt 0.160650 0.483676
vt 0.165248 0.395720
vt 0.183644 0.483676
vt 0.179045 0.395720
vt 0.164549 0.369695
vt 0.161784 0.218987
vt 0.169019 0.369695
vt 0.178484 0.218987
vt 0.185841 0.483676
vt 0.176787 0.483676
vt 0.112709 0.483676
vt 0.117308 0.395720
vt 0.145715 0.369695
vt 0.145715 0.369695
vt 0.137946 0.483676
vt 0.137946 0.483676
vt 0.161784 0.218987
vt 0.159283 0.082633
vt 0.156412 0.218987
vt 0.137211 0.082633
vt 0.132114 0.360463
vt 0.152479 0.360463
vt 0.168701 0.483676
vt 0.168701 0.483676
vt 0.158916 0.360463
vt 0.158916 0.360463
vt 0.165248 0.395720
vt 0.160650 0.483676
vt 0.129853 0.483676
vt 0.137211 0.082633
vt 0.164549 0.369695
vt 0.159283 0.082633
vt 0.183644 0.483676
vt 0.179045 0.395720
vt 0.126760 0.395720
vt 0.126760 0.395720
vt 0.156412 0.218987
vt 0.178484 0.218987
vt 0.129560 0.360463
vt 0.129560 0.360463
vt 0.132114 0.360463
vt 0.152479 0.360463
vt 0.176787 0.483676
vt 0.170793 0.395720
vt 0.119775 0.483676
vt 0.185841 0.483676
vt 0.119775 0.483676
vt 0.129853 0.483676
vt 0.170793 0.395720
vt 0.169019 0.369695
vn 0.000523 0.319957 -0.947432
vn 0.000523 0.319957 -0.947432
vn 0.000523 0.319957 -0.947432
vn 0.000523 0.319957 -0.947432
vn -0.945284 0.319957 -0.063764
vn -0.945284 0.319957 -0.063764
vn -0.945284 0.319957 -0.063764
vn -0.945284 0.319957 -0.063764
vn 0.000523 0.319957 0.947432
vn 0.000523 0.319957 0.947432
vn 0.000523 0.319957 0.947432
vn 0.000523 0.319957 0.947432
vn 0.000523 0.171442 0.985194
vn 0.000523 0.171442 0.985194
vn 0.000523 0.171442 0.985194
vn 0.000523 0.171442 0.985194
vn 0.000523 0.171442 0.985194
vn 0.000523 0.171442 0.985194
vn 0.946330 0.319957 -0.045682
vn 0.946330 0.319957 -0.045682
vn 0.946330 0.319957 -0.045682
vn 0.946330 0.319957 -0.045682
vn 0.915064 0.398123 -0.064471
vn 0.915064 0.398123 -0.064471
vn 0.915064 0.398123 -0.064471
vn 0.915064 0.398123 -0.064471
vn 0.000523 0.116726 -0.993164
vn 0.000523 0.116726 -0.993164
vn 0.000523 0.116726 -0.993164
vn 0.000523 0.116726 -0.993164
vn 0.000523 0.116726 -0.993164
vn 0.000523 0.116726 -0.993164
vn -0.890568 0.452839 -0.042731
vn -0.890568 0.452839 -0.042731
vn -0.890568 0.452839 -0.042731
vn -0.890568 0.452839 -0.042731
vn 0.946330 0.319957 -0.045682
vn 0.946330 0.319957 -0.045682
vn 0.946330 0.319957 -0.045682
vn 0.946330 0.319957 -0.045682
vn 0.000523 0.116726 0.993164
vn 0.000523 0.116726 0.993164
vn 0.000523 0.116726 0.993164
vn 0.000523 0.116726 0.993164
vn 0.000523 0.116726 0.993164
vn 0.000523 0.116726 0.993164
vn -0.945284 0.319957 -0.063764
vn -0.945284 0.319957 -0.063764
vn -0.945284 0.319957 -0.063764
vn -0.945284 0.319957 -0.063764
vn 0.000523 1.000000 0.000000
vn 0.000523 1.000000 0.000000
vn 0.000523 1.000000 0.000000
vn 0.000523 1.000000 0.000000
vn 0.000523 1.000000 0.000000
vn 0.000523 1.000000 0.000000
vn 0.000523 1.000000 0.000000
vn 0.000523 1.000000 0.000000
vn 0.000523 1.000000 0.000000
vn 0.000523 1.000000 0.000000
vn 0.000523 1.000000 0.000000
vn 0.000523 1.000000 0.000000
vn 0.000523 1.000000 0.000000
vn 0.000523 1.000000 0.000000
vn 0.000523 1.000000 0.000000
vn 0.000523 1.000000 0.000000
vn 0.000523 1.000000 0.000000
vn 0.000523 1.000000 0.000000
vn 0.000523 1.000000 0.000000
vn 0.000523 1.000000 0.000000
vn 0.000523 0.319957 -0.947432
vn 0.000523 0.319957 -0.947432
vn 0.000523 0.319957 -0.947432
vn 0.000523 0.319957 -0.947432
vn 0.000523 0.319957 0.947432
vn 0.000523 0.319957 0.947432
vn 0.000523 0.319957 0.947432
vn 0.000523 0.319957 0.947432
vn 0.000523 1.000000 0.000000
vn 0.000523 1.000000 0.000000
vn 0.000523 1.000000 0.000000
vn 0.000523 1.000000 0.000000
vn -0.984367 0.171442 -0.040369
vn -0.984367 0.171442 -0.040369
vn -0.984367 0.171442 -0.040369
vn -0.984367 0.171442 -0.040369
vn 0.000523 0.452839 0.891592
vn 0.000523 0.452839 0.891592
vn 0.000523 0.452839 0.891592
vn 0.000523 0.452839 0.891592
vn 0.985201 0.171405 0.000000
vn 0.985201 0.171405 0.000000
vn 0.985201 0.171405 0.000000
vn 0.985201 0.171405 0.000000
vn 0.000523 0.398123 0.917332
vn 0.000523 0.398123 0.917332
vn 0.000523 0.398123 0.917332
vn 0.000523 0.398123 0.917332
vn 0.000523 0.398123 0.917332
vn 0.000523 0.398123 0.917332
vn 0.000523 0.171442 -0.985194
vn 0.000523 0.171442 -0.985194
vn 0.000523 0.171442 -0.985194
vn 0.000523 0.171442 -0.985194
vn 0.000523 0.171442 -0.985194
vn 0.000523 0.171442 -0.985194
vn 0.000523 0.452839 -0.891592
vn 0.000523 0.452839 -0.891592
vn 0.000523 0.452839 -0.891592
vn 0.000523 0.452839 -0.891592
vn 0.000523 0.452839 -0.891592
vn 0.000523 0.452839 -0.891592
vn -0.914018 0.398123 -0.077911
vn -0.914018 0.398123 -0.077911
vn -0.914018 0.398123 -0.077911
vn -0.914018 0.398123 -0.077911
vn -0.914018 0.398123 -0.077911
vn -0.914018 0.398123 -0.077911
vn 0.891597 0.452830 0.000000
vn 0.891597 0.452830 0.000000
vn 0.891597 0.452830 0.000000
vn 0.891597 0.452830 0.000000
vn 0.891597 0.452830 0.000000
vn 0.891597 0.452830 0.000000
vn 0.993165 0.116718 0.000000
vn 0.993165 0.116718 0.000000
vn 0.993165 0.116718 0.000000
vn 0.993165 0.116718 0.000000
vn 0.993165 0.116718 0.000000
vn 0.993165 0.116718 0.000000
vn -0.992183 0.116726 -0.044128
vn -0.992183 0.116726 -0.044128
vn -0.992183 0.116726 -0.044128
vn -0.992183 0.116726 -0.044128
vn -0.992183 0.116726 -0.044128
vn -0.992183 0.116726 -0.044128
vn 0.000523 1.000000 0.000000
vn 0.000523 1.000000 0.000000
vn 0.000523 1.000000 0.000000
vn 0.000523 1.000000 0.000000
vn 0.000523 1.000000 0.000000
vn 0.000523 1.000000 0.000000
vn 0.000523 1.000000 0.000000
vn 0.000523 1.000000 0.000000
vn 0.000523 1.000000 0.000000
vn 0.000523 1.000000 0.000000
vn 0.000523 1.000000 0.000000
vn 0.000523 1.000000 0.000000
vn 0.000523 1.000000 0.000000
vn 0.000523 1.000000 0.000000
vn 0.000523 1.000000 0.000000
vn 0.000523 1.000000 0.000000
vn 0.000523 1.000000 0.000000
vn 0.000523 1.000000 0.000000
vn 0.000523 1.000000 0.000000
vn 0.000523 1.000000 0.000000
vn 0.000523 1.000000 0.000000
vn 0.000523 1.000000 0.000000
vn 0.000523 1.000000 0.000000
vn 0.000523 1.000000 0.000000
vn 0.000523 1.000000 0.000000
vn 0.000523 1.000000 0.000000
vn 0.000523 1.000000 0.000000
vn 0.000523 1.000000 0.000000
vn 0.000523 1.000000 0.000000
vn 0.000523 1.000000 0.000000
vn 0.000523 1.000000 0.000000
vn 0.000523 1.000000 0.000000
vn 0.000523 0.398123 0.917332
vn 0.000523 0.398123 0.917332
vn 0.000523 0.398123 0.917332
vn 0.000523 0.398123 0.917332
vn 0.000523 0.398123 0.917332
vn 0.000523 0.398123 0.917332
vn 0.000523 0.171442 -0.985194
vn 0.000523 0.171442 -0.985194
vn 0.000523 0.171442 -0.985194
vn 0.000523 0.171442 -0.985194
vn 0.000523 0.171442 -0.985194
vn 0.000523 0.171442 -0.985194
vn 0.000523 0.171442 -0.985194
vn 0.000523 0.171442 -0.985194
vn 0.000523 0.171442 -0.985194
vn 0.000523 0.171442 -0.985194
vn 0.000523 0.171442 -0.985194
vn 0.000523 0.171442 -0.985194
vn 0.000523 0.452839 -0.891592
vn 0.000523 0.452839 -0.891592
vn 0.000523 0.452839 -0.891592
vn 0.000523 0.452839 -0.891592
vn 0.000523 0.452839 -0.891592
vn 0.000523 0.452839 -0.891592
vn 0.000523 0.452839 -0.891592
vn 0.000523 0.452839 -0.891592
vn 0.000523 0.452839 -0.891592
vn 0.000523 0.452839 -0.891592
vn 0.000523 0.452839 -0.891592
vn 0.000523 0.452839 -0.891592
vn -0.914018 0.398123 -0.077911
vn -0.914018 0.398123 -0.077911
vn -0.914018 0.398123 -0.077911
vn -0.914018 0.398123 -0.077911
vn -0.914018 0.398123 -0.077911
vn -0.914018 0.398123 -0.077911
vn -0.914018 0.398123 -0.077911
vn -0.914018 0.398123 -0.077911
vn -0.914018 0.398123 -0.077911
vn -0.914018 0.398123 -0.077911
vn -0.914018 0.398123 -0.077911
vn -0.914018 0.398123 -0.077911
vn 0.891597 0.452830 0.000000
vn 0.891597 0.452830 0.000000
vn 0.891597 0.452830 0.000000
vn 0.891597 0.452830 0.000000
vn 0.891597 0.452830 0.000000
vn 0.891597 0.452830 0.000000
vn 0.891597 0.452830 0.000000
vn 0.891597 0.452830 0.000000
vn 0.891597 0.452830 0.000000
vn 0.891597 0.452830 0.000000
vn 0.891597 0.452830 0.000000
vn 0.891597 0.452830 0.000000
vn 0.993165 0.116718 0.000000
vn 0.993165 0.116718 0.000000
vn 0.993165 0.116718 0.000000
vn 0.993165 0.116718 0.000000
vn 0.993165 0.116718 0.000000
vn 0.993165 0.116718 0.000000
vn 0.993165 0.116718 0.000000
vn 0.993165 0.116718 0.000000
vn 0.993165 0.116718 0.000000
vn 0.993165 0.116718 0.000000
vn 0.993165 0.116718 0.000000
vn 0.993165 0.116718 0.000000
vn -0.992183 0.116726 -0.044128
vn -0.992183 0.116726 -0.044128
vn -0.992183 0.116726 -0.044128
vn -0.992183 0.116726 -0.044128
vn -0.992183 0.116726 -0.044128
vn -0.992183 0.116726 -0.044128
vn -0.992183 0.116726 -0.044128
vn -0.992183 0.116726 -0.044128
vn -0.992183 0.116726 -0.044128
vn -0.992183 0.116726 -0.044128
vn -0.992183 0.116726 -0.044128
vn -0.992183 0.116726 -0.044128
vn 0.000523 1.000000 0.000000
vn 0.000523 1.000000 0.000000
vn 0.000523 1.000000 0.000000
vn 0.000523 1.000000 0.000000
vn 0.000523 1.000000 0.000000
vn 0.000523 1.000000 0.000000
vn 0.000523 1.000000 0.000000
vn 0.000523 1.000000 0.000000
vn 0.000523 1.000000 0.000000
vn 0.000523 1.000000 0.000000
vn 0.000523 1.000000 0.000000
vn 0.000523 1.000000 0.000000
vn 0.000523 1.000000 0.000000
vn 0.000523 1.000000 0.000000
vn 0.000523 1.000000 0.000000
vn 0.000523 1.000000 0.000000
vn 0.000523 1.000000 0.000000
vn 0.000523 1.000000 0.000000
vn 0.000523 1.000000 0.000000
vn 0.000523 1.000000 0.000000
vn 0.000523 1.000000 0.000000
vn 0.000523 1.000000 0.000000
vn 0.000523 1.000000 0.000000
vn 0.000523 1.000000 0.000000
vn 0.000523 1.000000 0.000000
vn 0.000523 1.000000 0.000000
vn 0.000523 1.000000 0.000000
vn 0.000523 1.000000 0.000000
vn 0.000523 1.000000 0.000000
vn 0.000523 1.000000 0.000000
vn 0.000523 1.000000 0.000000
vn 0.000523 1.000000 0.000000
vn 0.000523 1.000000 0.000000
vn 0.000523 1.000000 0.000000
vn 0.000523 1.000000 0.000000
vn 0.000523 1.000000 0.000000
vn 0.000523 1.000000 0.000000
vn 0.000523 1.000000 0.000000
vn 0.000523 1.000000 0.000000
vn 0.000523 1.000000 0.000000
vn 0.000523 1.000000 0.000000
vn 0.000523 1.000000 0.000000
vn 0.000523 1.000000 0.000000
vn 0.000523 1.000000 0.000000
vn 0.000523 1.000000 0.000000
vn 0.000523 1.000000 0.000000
vn 0.000523 1.000000 0.000000
vn 0.000523 1.000000 0.000000
vn 0.000523 1.000000 0.000000
vn 0.000523 1.000000 0.000000
vn 0.000523 1.000000 0.000000
vn 0.000523 1.000000 0.000000
vn 0.000523 1.000000 0.000000
vn 0.000523 1.000000 0.000000
vn 0.000523 1.000000 0.000000
vn 0.000523 1.000000 0.000000
vn 0.000523 1.000000 0.000000
vn 0.000523 1.000000 0.000000
vn 0.000523 1.000000 0.000000
vn 0.000523 1.000000 0.000000
vn 0.000523 1.000000 0.000000
vn 0.000523 1.000000 0.000000
vn 0.000523 1.000000 0.000000
vn 0.000523 1.000000 0.000000
vn 0.000523 1.000000 0.000000
vn 0.000523 1.000000 0.000000
vn 0.000523 1.000000 0.000000
vn 0.000523 1.000000 0.000000
vn 0.000523 1.000000 0.000000
vn 0.000523 1.000000 0.000000
vn 0.000523 1.000000 0.000000
vn 0.000523 1.000000 0.000000
vn 0.000523 1.000000 0.000000
vn 0.000523 1.000000 0.000000
vn 0.000523 1.000000 0.000000
vn 0.000523 1.000000 0.000000
vn 0.000523 1.000000 0.000000
vn 0.000523 1.000000 0.000000
s 1
g rocksTall group1
f 1/1/1 3/2/2 2/3/3
f 4/4/4 2/3/3 3/2/2
s 2
f 1/1/5 5/5/6 3/2/7
f 6/6/8 3/2/7 5/5/6
s 3
f 7/7/9 9/8/10 8/9/11
f 10/10/12 8/9/11 9/8/10
s 4
f 11/11/13 13/12/14 12/13/15
f 13/12/14 14/14/16 12/13/15
f 14/14/16 15/15/17 12/13/15
f 16/16/18 12/13/15 15/15/17
s 5
f 2/3/19 4/4/20 17/17/21
f 18/18/22 17/17/21 4/4/20
s 6
f 19/19/23 21/20/24 20/21/25
f 22/22/26 20/21/25 21/20/24
s 7
f 23/23/27 25/24/28 24/25/29
f 25/24/28 26/26/30 24/25/29
f 26/26/30 27/27/31 24/25/29
f 28/28/32 24/25/29 27/27/31
s 8
f 29/29/33 31/30/34 30/31/35
f 32/32/36 30/31/35 31/30/34
s 9
f 33/33/37 9/8/38 34/34/39
f 7/7/40 34/34/39 9/8/38
s 10
f 35/35/41 36/36/42 20/21/43
f 19/19/44 20/21/43 36/36/42
f 37/37/45 19/19/44 36/36/42
f 38/38/46 37/37/45 36/36/42
s 11
f 39/39/47 8/9/48 40/40/49
f 10/10/50 40/40/49 8/9/48
s 12
f 4/4/51 3/2/52 18/18/53
f 41/41/54 18/18/53 3/2/52
f 6/6/55 41/41/54 3/2/52
f 41/41/54 42/42/56 18/18/53
s 13
f 43/43/57 44/44/58 24/25/59
f 23/23/60 24/25/59 44/44/58
f 44/44/58 14/14/61 23/23/60
f 13/12/62 23/23/60 14/14/61
s 14
f 45/45/63 46/46/64 27/27/65
f 30/31/66 27/27/65 46/46/64
f 47/47/67 45/45/63 27/27/65
f 48/48/68 27/27/65 30/31/66
f 28/28/69 27/27/65 48/48/68
f 32/32/70 48/48/68 30/31/66
s 15
f 39/39/71 40/40/72 49/49/73
f 50/50/74 49/49/73 40/40/72
s 16
f 17/17/75 18/18/76 51/51/77
f 42/42/78 51/51/77 18/18/76
s 17
f 26/26/79 25/24/80 36/36/81
f 38/38/82 36/36/81 25/24/80
s 18
f 52/52/83 15/15/84 44/44/85
f 14/14/86 44/44/85 15/15/84
s 19
f 53/53/87 45/45/88 54/54/89
f 47/47/90 54/54/89 45/45/88
s 20
f 48/48/91 43/43/92 28/28/93
f 24/25/94 28/28/93 43/43/92
s 21
f 22/22/95 21/20/96 34/34/97
f 33/33/98 34/34/97 21/20/96
f 55/55/99 33/33/98 21/20/96
f 56/56/100 55/55/99 21/20/96
s 22
f 52/52/101 44/44/102 31/30/103
f 32/32/104 31/30/103 44/44/102
f 48/48/105 32/32/104 44/44/102
f 43/43/106 48/48/105 44/44/102
s 23
f 29/29/107 30/31/108 5/5/109
f 6/6/110 5/5/109 30/31/108
f 41/41/111 6/6/110 30/31/108
f 46/46/112 41/41/111 30/31/108
s 24
f 12/13/113 16/16/114 56/56/115
f 49/49/116 56/56/115 16/16/114
f 50/50/117 56/56/115 49/49/116
f 55/55/118 56/56/115 50/50/117
s 25
f 41/41/119 46/46/120 42/42/121
f 45/45/122 42/42/121 46/46/120
f 51/51/123 42/42/121 45/45/122
f 53/53/124 51/51/123 45/45/122
s 26
f 27/27/125 26/26/126 47/47/127
f 36/36/128 47/47/127 26/26/126
f 54/54/129 47/47/127 36/36/128
f 35/35/130 54/54/129 36/36/128
s 27
f 23/23/131 13/12/132 25/24/133
f 38/38/134 25/24/133 13/12/132
f 11/11/135 38/38/134 13/12/132
f 37/37/136 38/38/134 11/11/135
s 28
f 11/11/137 12/13/138 37/37/139
f 12/13/138 56/56/140 37/37/139
f 37/37/139 56/56/140 19/19/141
f 21/20/142 19/19/141 56/56/140
s 29
f 50/50/143 40/40/144 55/55/145
f 40/40/144 10/10/146 55/55/145
f 55/55/145 10/10/146 33/33/147
f 9/8/148 33/33/147 10/10/146
s 30
f 31/30/149 52/52/150 16/16/151
f 15/15/152 16/16/151 52/52/150
f 2/3/153 1/1/154 17/17/155
f 51/51/156 17/17/155 1/1/154
f 54/54/157 53/53/158 1/1/154
f 53/53/158 51/51/156 1/1/154
f 35/35/159 54/54/157 1/1/154
f 5/5/160 35/35/159 1/1/154
f 20/21/161 35/35/159 5/5/160
f 29/29/162 20/21/161 5/5/160
f 22/22/163 20/21/161 29/29/162
f 7/7/164 34/34/165 29/29/162
f 34/34/165 22/22/163 29/29/162
f 31/30/149 7/7/164 29/29/162
f 49/49/166 7/7/164 31/30/149
f 8/9/167 7/7/164 49/49/166
f 16/16/151 49/49/166 31/30/149
f 39/39/168 8/9/167 49/49/166
