# This file uses centimeters as units for non-parametric coordinates.

g Bridge_default1
v -0.000000 1.870609 -0.091861
v 1.997490 1.870609 -0.091861
v -0.000000 1.929738 -0.091861
v 1.997490 1.929738 -0.091861
v -0.000000 1.929738 -0.410193
v 1.997490 1.929738 -0.410193
v -0.000000 1.870609 -0.410193
v 1.997490 1.870609 -0.410193
v 1.755084 1.720258 -1.418259
v 1.824899 1.720258 -1.418259
v 1.755084 1.719313 -1.615921
v 1.824899 1.719313 -1.615921
v 1.755042 1.345052 -1.992422
v 1.824899 1.345052 -1.992422
v 1.755042 1.145698 -1.992422
v 1.824899 1.145698 -1.992422
v -0.000000 1.870609 -1.568884
v 1.997490 1.870609 -1.568884
v -0.000000 1.929738 -1.568884
v 1.997490 1.929738 -1.568884
v -0.000000 1.929738 -1.887216
v 1.997490 1.929738 -1.887216
v -0.000000 1.870609 -1.887216
v 1.997490 1.870609 -1.887216
v -0.000000 1.870609 -0.832604
v 1.997490 1.870609 -0.832604
v -0.000000 1.929738 -0.832604
v 1.997490 1.929738 -0.832604
v -0.000000 1.929738 -1.150936
v 1.997490 1.929738 -1.150936
v -0.000000 1.870609 -1.150936
v 1.997490 1.870609 -1.150936
v -0.000000 1.868082 -0.475282
v 1.999458 1.868082 -0.444292
v -0.000000 1.906890 -0.475282
v 1.999458 1.906890 -0.444292
v -0.000000 1.906890 -0.797137
v 1.999485 1.906890 -0.764671
v -0.000000 1.868082 -0.797137
v 1.999485 1.868082 -0.764671
v 0.000000 1.868082 -1.177630
v 1.999458 1.868082 -1.225419
v 0.000000 1.906890 -1.177630
v 1.999458 1.906890 -1.225419
v -0.000000 1.906890 -1.498488
v 1.997490 1.906890 -1.539815
v -0.000000 1.868082 -1.498488
v 1.997490 1.868082 -1.539815
v 0.140802 1.719736 0.006253
v 0.280296 1.719736 0.006253
v 0.140802 1.872409 0.006253
v 0.280296 1.872409 0.006253
v 0.140718 1.872409 -1.988709
v 0.280296 1.872409 -1.988709
v 0.140718 1.719736 -1.988709
v 0.280296 1.719736 -1.988709
v 1.720597 1.720374 0.006253
v 1.860002 1.720374 0.006253
v 1.720597 1.872409 0.006253
v 1.860002 1.872409 0.006253
v 1.720513 1.872409 -1.988709
v 1.860002 1.872409 -1.988709
v 1.720513 1.720374 -1.988709
v 1.860002 1.720374 -1.988709
v 0.172101 1.720259 -0.566067
v 0.241917 1.720259 -0.566067
v 0.172101 1.719313 -0.368404
v 0.241917 1.719313 -0.368404
v 0.172060 1.345052 0.008096
v 0.241917 1.345052 0.008096
v 0.172060 1.145698 0.008096
v 0.241917 1.145698 0.008096
v 1.755085 1.720259 -0.566067
v 1.824900 1.720259 -0.566067
v 1.755085 1.719313 -0.368404
v 1.824900 1.719313 -0.368404
v 1.755043 1.345052 0.008096
v 1.824900 1.345052 0.008096
v 1.755043 1.145698 0.008096
v 1.824900 1.145698 0.008096
v 0.175620 1.720258 -1.418259
v 0.245435 1.720258 -1.418259
v 0.175620 1.719313 -1.615921
v 0.245435 1.719313 -1.615921
v 0.175578 1.345052 -1.992422
v 0.245435 1.345052 -1.992422
v 0.175578 1.145698 -1.992422
v 0.245435 1.145698 -1.992422
vt 0.181337 0.306060
vt 0.181337 0.306060
vt 0.116970 0.460084
vt 0.116059 0.460736
vt 0.116059 0.306060
vt 0.180426 0.306711
vt 0.116970 0.460084
vt 0.181337 0.460736
vt 0.180426 0.460084
vt 0.180426 0.306711
vt 0.181337 0.306060
vt 0.181337 0.460736
vt 0.116059 0.306060
vt 0.116059 0.460736
vt 0.116059 0.306060
vt 0.181337 0.460736
vt 0.116970 0.306711
vt 0.116059 0.306060
vt 0.116059 0.460736
vt 0.181337 0.460736
vt 0.116059 0.460736
vt 0.116970 0.306711
vt 0.180426 0.460084
vt 0.181337 0.306060
vt 0.116059 0.306060
vt 0.181337 0.306060
vt 0.181337 0.460736
vt 0.116059 0.460736
vt 0.116970 0.460084
vt 0.116970 0.306711
vt 0.180426 0.306711
vt 0.180426 0.460084
vt 0.116059 0.306060
vt 0.181337 0.306060
vt 0.181337 0.460736
vt 0.116059 0.460736
vt 0.116970 0.460084
vt 0.116970 0.306711
vt 0.180426 0.306711
vt 0.180426 0.460084
vt 0.116059 0.306060
vt 0.181337 0.306060
vt 0.181337 0.460736
vt 0.116059 0.460736
vt 0.116059 0.306060
vt 0.181337 0.306060
vt 0.181337 0.460736
vt 0.116059 0.460736
vt 0.116059 0.306060
vt 0.181337 0.306060
vt 0.181337 0.460736
vt 0.116059 0.460736
vt 0.116970 0.460084
vt 0.116970 0.306711
vt 0.180426 0.306711
vt 0.180426 0.460084
vt 0.116059 0.306060
vt 0.181337 0.306060
vt 0.181337 0.460736
vt 0.116059 0.460736
vt 0.116970 0.460084
vt 0.116970 0.306711
vt 0.180426 0.306711
vt 0.180426 0.460084
vt 0.116059 0.306060
vt 0.181337 0.306060
vt 0.181337 0.460736
vt 0.116059 0.460736
vt 0.116059 0.306060
vt 0.181337 0.306060
vt 0.181337 0.460736
vt 0.116059 0.460736
vt 0.116059 0.306060
vt 0.181337 0.306060
vt 0.181337 0.460736
vt 0.116059 0.460736
vt 0.116970 0.460084
vt 0.116970 0.306711
vt 0.180426 0.306711
vt 0.180426 0.460084
vt 0.116059 0.306060
vt 0.181337 0.306060
vt 0.181337 0.460736
vt 0.116059 0.460736
vt 0.116970 0.460084
vt 0.116970 0.306711
vt 0.180426 0.306711
vt 0.180426 0.460084
vt 0.116059 0.306060
vt 0.181337 0.306060
vt 0.181337 0.460736
vt 0.116059 0.460736
vt 0.116059 0.306060
vt 0.181337 0.306060
vt 0.181337 0.460736
vt 0.116059 0.460736
vt 0.116059 0.306060
vt 0.181337 0.306060
vt 0.181337 0.460736
vt 0.116059 0.460736
vt 0.116970 0.306711
vt 0.116970 0.460084
vt 0.180426 0.460084
vt 0.180426 0.306711
vt 0.116059 0.306060
vt 0.181337 0.306060
vt 0.181337 0.460736
vt 0.116059 0.460736
vt 0.116970 0.306711
vt 0.116970 0.460084
vt 0.180426 0.460084
vt 0.180426 0.306711
vt 0.116059 0.306060
vt 0.181337 0.306060
vt 0.181337 0.460736
vt 0.116059 0.460736
vt 0.116059 0.306060
vt 0.181337 0.306060
vt 0.181337 0.460736
vt 0.116059 0.460736
vt 0.116059 0.306060
vt 0.181337 0.306060
vt 0.181337 0.460736
vt 0.116059 0.460736
vt 0.116970 0.306711
vt 0.116970 0.460084
vt 0.180426 0.460084
vt 0.180426 0.306711
vt 0.116059 0.306060
vt 0.181337 0.306060
vt 0.181337 0.460736
vt 0.116059 0.460736
vt 0.116970 0.306711
vt 0.116970 0.460084
vt 0.180426 0.460084
vt 0.180426 0.306711
vt 0.116059 0.306060
vt 0.181337 0.306060
vt 0.181337 0.460736
vt 0.116059 0.460736
vt 0.116059 0.306060
vt 0.181337 0.306060
vt 0.181337 0.460736
vt 0.116059 0.460736
vt 0.116059 0.306060
vt 0.181337 0.306060
vt 0.181337 0.460736
vt 0.116059 0.460736
vt 0.116970 0.460084
vt 0.116970 0.306711
vt 0.180426 0.306711
vt 0.180426 0.460084
vt 0.116059 0.306060
vt 0.181337 0.306060
vt 0.181337 0.460736
vt 0.116059 0.460736
vt 0.116970 0.460084
vt 0.116970 0.306711
vt 0.180426 0.306711
vt 0.180426 0.460084
vt 0.116059 0.306060
vt 0.181337 0.306060
vt 0.181337 0.460736
vt 0.116059 0.460736
vt 0.116059 0.306060
vt 0.181337 0.306060
vt 0.181337 0.460736
vt 0.116059 0.460736
vt 0.116059 0.306060
vt 0.181337 0.306060
vt 0.181337 0.460736
vt 0.116059 0.460736
vt 0.116970 0.460084
vt 0.116970 0.306711
vt 0.180426 0.306711
vt 0.180426 0.460084
vt 0.116059 0.306060
vt 0.181337 0.306060
vt 0.181337 0.460736
vt 0.116059 0.460736
vt 0.116970 0.460084
vt 0.116970 0.306711
vt 0.180426 0.306711
vt 0.180426 0.460084
vt 0.116059 0.306060
vt 0.181337 0.306060
vt 0.181337 0.460736
vt 0.116059 0.460736
vt 0.116059 0.306060
vt 0.181337 0.306060
vt 0.181337 0.460736
vt 0.116059 0.460736
vt 0.116059 0.306060
vt 0.116059 0.460736
vt 0.181337 0.460736
vt 0.181337 0.306060
vt 0.116970 0.460084
vt 0.180426 0.460084
vt 0.180426 0.306711
vt 0.116970 0.306711
vt 0.116059 0.306060
vt 0.116059 0.460736
vt 0.181337 0.460736
vt 0.181337 0.306060
vt 0.116970 0.460084
vt 0.180426 0.460084
vt 0.180426 0.306711
vt 0.116970 0.306711
vt 0.116059 0.306060
vt 0.116059 0.460736
vt 0.181337 0.460736
vt 0.181337 0.306060
vt 0.116059 0.306060
vt 0.116059 0.460736
vt 0.181337 0.460736
vt 0.181337 0.306060
vt 0.116059 0.306060
vt 0.116059 0.460736
vt 0.181337 0.460736
vt 0.181337 0.306060
vt 0.116970 0.460084
vt 0.180426 0.460084
vt 0.180426 0.306711
vt 0.116970 0.306711
vt 0.116059 0.306060
vt 0.116059 0.460736
vt 0.181337 0.460736
vt 0.181337 0.306060
vt 0.116970 0.460084
vt 0.180426 0.460084
vt 0.180426 0.306711
vt 0.116970 0.306711
vt 0.116059 0.306060
vt 0.116059 0.460736
vt 0.181337 0.460736
vt 0.181337 0.306060
vt 0.116059 0.306060
vt 0.116059 0.460736
vt 0.181337 0.460736
vt 0.181337 0.306060
vt 0.116059 0.306060
vt 0.181337 0.306060
vt 0.181337 0.460736
vt 0.116059 0.460736
vt 0.116970 0.460084
vt 0.116970 0.306711
vt 0.180426 0.306711
vt 0.180426 0.460084
vt 0.116059 0.306060
vt 0.181337 0.306060
vt 0.181337 0.460736
vt 0.116059 0.460736
vt 0.116970 0.460084
vt 0.116970 0.306711
vt 0.180426 0.306711
vt 0.180426 0.460084
vt 0.116059 0.306060
vt 0.181337 0.306060
vt 0.181337 0.460736
vt 0.116059 0.460736
vt 0.116059 0.306060
vt 0.181337 0.306060
vt 0.181337 0.460736
vt 0.116059 0.460736
vn 0.000000 0.000000 1.000000
vn 0.000000 0.000000 1.000000
vn 0.000000 0.000000 1.000000
vn 0.000000 0.000000 1.000000
vn 0.000000 1.000000 0.000000
vn 0.000000 1.000000 0.000000
vn 0.000000 1.000000 0.000000
vn 0.000000 1.000000 0.000000
vn 0.000000 0.000000 -1.000000
vn 0.000000 0.000000 -1.000000
vn 0.000000 0.000000 -1.000000
vn 0.000000 0.000000 -1.000000
vn 0.000000 -1.000000 0.000000
vn 0.000000 -1.000000 0.000000
vn 0.000000 -1.000000 0.000000
vn 0.000000 -1.000000 0.000000
vn 1.000000 0.000000 0.000000
vn 1.000000 0.000000 0.000000
vn 1.000000 0.000000 0.000000
vn 1.000000 0.000000 0.000000
vn -0.999991 0.000000 0.004144
vn -0.999991 0.000000 0.004144
vn -0.999991 0.000000 0.004144
vn -0.999991 0.000000 0.004144
vn 0.000000 0.999989 -0.004783
vn 0.000000 0.999989 -0.004783
vn 0.000000 0.999989 -0.004783
vn 0.000000 0.999989 -0.004783
vn 0.000000 0.709213 -0.704994
vn 0.000000 0.709213 -0.704994
vn 0.000000 0.709213 -0.704994
vn 0.000000 0.709213 -0.704994
vn 0.000000 0.000000 -1.000000
vn 0.000000 0.000000 -1.000000
vn 0.000000 0.000000 -1.000000
vn 0.000000 0.000000 -1.000000
vn 0.000000 -0.706862 0.707351
vn 0.000000 -0.706862 0.707351
vn 0.000000 -0.706862 0.707351
vn 0.000000 -0.706862 0.707351
vn 1.000000 -0.000000 0.000000
vn 1.000000 -0.000000 0.000000
vn 1.000000 -0.000000 0.000000
vn 1.000000 -0.000000 0.000000
vn -1.000000 0.000044 0.000045
vn -1.000000 0.000044 0.000045
vn -1.000000 0.000044 0.000045
vn -1.000000 0.000044 0.000045
vn 0.000000 0.000000 1.000000
vn 0.000000 0.000000 1.000000
vn 0.000000 0.000000 1.000000
vn 0.000000 0.000000 1.000000
vn 0.000000 1.000000 0.000000
vn 0.000000 1.000000 0.000000
vn 0.000000 1.000000 0.000000
vn 0.000000 1.000000 0.000000
vn 0.000000 0.000000 -1.000000
vn 0.000000 0.000000 -1.000000
vn 0.000000 0.000000 -1.000000
vn 0.000000 0.000000 -1.000000
vn 0.000000 -1.000000 0.000000
vn 0.000000 -1.000000 0.000000
vn 0.000000 -1.000000 0.000000
vn 0.000000 -1.000000 0.000000
vn 1.000000 0.000000 0.000000
vn 1.000000 0.000000 0.000000
vn 1.000000 0.000000 0.000000
vn 1.000000 0.000000 0.000000
vn -0.999991 0.000000 0.004144
vn -0.999991 0.000000 0.004144
vn -0.999991 0.000000 0.004144
vn -0.999991 0.000000 0.004144
vn 0.000000 0.000000 1.000000
vn 0.000000 0.000000 1.000000
vn 0.000000 0.000000 1.000000
vn 0.000000 0.000000 1.000000
vn 0.000000 1.000000 0.000000
vn 0.000000 1.000000 0.000000
vn 0.000000 1.000000 0.000000
vn 0.000000 1.000000 0.000000
vn 0.000000 0.000000 -1.000000
vn 0.000000 0.000000 -1.000000
vn 0.000000 0.000000 -1.000000
vn 0.000000 0.000000 -1.000000
vn 0.000000 -1.000000 0.000000
vn 0.000000 -1.000000 0.000000
vn 0.000000 -1.000000 0.000000
vn 0.000000 -1.000000 0.000000
vn 1.000000 0.000000 0.000000
vn 1.000000 0.000000 0.000000
vn 1.000000 0.000000 0.000000
vn 1.000000 0.000000 0.000000
vn -0.999991 0.000000 0.004144
vn -0.999991 0.000000 0.004144
vn -0.999991 0.000000 0.004144
vn -0.999991 0.000000 0.004144
vn -0.015492 0.000000 0.999880
vn -0.015492 0.000000 0.999880
vn -0.015492 0.000000 0.999880
vn -0.015492 0.000000 0.999880
vn 0.000000 1.000000 0.000000
vn 0.000000 1.000000 0.000000
vn 0.000000 1.000000 0.000000
vn 0.000000 1.000000 0.000000
vn 0.016243 0.000000 -0.999868
vn 0.016243 0.000000 -0.999868
vn 0.016243 0.000000 -0.999868
vn 0.016243 0.000000 -0.999868
vn 0.000000 -1.000000 0.000000
vn 0.000000 -1.000000 0.000000
vn 0.000000 -1.000000 0.000000
vn 0.000000 -1.000000 0.000000
vn 1.000000 0.000000 0.000083
vn 1.000000 0.000000 0.000083
vn 1.000000 0.000000 0.000083
vn 1.000000 0.000000 0.000083
vn -0.999988 0.000000 -0.004989
vn -0.999988 0.000000 -0.004989
vn -0.999988 0.000000 -0.004989
vn -0.999988 0.000000 -0.004989
vn 0.023982 0.000000 0.999712
vn 0.023982 0.000000 0.999712
vn 0.023982 0.000000 0.999712
vn 0.023982 0.000000 0.999712
vn 0.000000 1.000000 0.000000
vn 0.000000 1.000000 0.000000
vn 0.000000 1.000000 0.000000
vn 0.000000 1.000000 0.000000
vn -0.020695 0.000000 -0.999786
vn -0.020695 0.000000 -0.999786
vn -0.020695 0.000000 -0.999786
vn -0.020695 0.000000 -0.999786
vn 0.000000 -1.000000 0.000000
vn 0.000000 -1.000000 0.000000
vn 0.000000 -1.000000 0.000000
vn 0.000000 -1.000000 0.000000
vn 0.999981 0.000000 -0.006259
vn 0.999981 0.000000 -0.006259
vn 0.999981 0.000000 -0.006259
vn 0.999981 0.000000 -0.006259
vn -0.999803 0.000000 0.019854
vn -0.999803 0.000000 0.019854
vn -0.999803 0.000000 0.019854
vn -0.999803 0.000000 0.019854
vn 0.000000 0.000000 1.000000
vn 0.000000 0.000000 1.000000
vn 0.000000 0.000000 1.000000
vn 0.000000 0.000000 1.000000
vn 0.000000 1.000000 0.000000
vn 0.000000 1.000000 0.000000
vn 0.000000 1.000000 0.000000
vn 0.000000 1.000000 0.000000
vn 0.000000 0.000000 -1.000000
vn 0.000000 0.000000 -1.000000
vn 0.000000 0.000000 -1.000000
vn 0.000000 0.000000 -1.000000
vn 0.000000 -1.000000 0.000000
vn 0.000000 -1.000000 0.000000
vn 0.000000 -1.000000 0.000000
vn 0.000000 -1.000000 0.000000
vn 1.000000 0.000000 0.000000
vn 1.000000 0.000000 0.000000
vn 1.000000 0.000000 0.000000
vn 1.000000 0.000000 0.000000
vn -1.000000 0.000000 0.000042
vn -1.000000 0.000000 0.000042
vn -1.000000 0.000000 0.000042
vn -1.000000 0.000000 0.000042
vn 0.000000 0.000000 1.000000
vn 0.000000 0.000000 1.000000
vn 0.000000 0.000000 1.000000
vn 0.000000 0.000000 1.000000
vn 0.000000 1.000000 0.000000
vn 0.000000 1.000000 0.000000
vn 0.000000 1.000000 0.000000
vn 0.000000 1.000000 0.000000
vn 0.000000 0.000000 -1.000000
vn 0.000000 0.000000 -1.000000
vn 0.000000 0.000000 -1.000000
vn 0.000000 0.000000 -1.000000
vn 0.000000 -1.000000 0.000000
vn 0.000000 -1.000000 0.000000
vn 0.000000 -1.000000 0.000000
vn 0.000000 -1.000000 0.000000
vn 1.000000 0.000000 0.000000
vn 1.000000 0.000000 0.000000
vn 1.000000 0.000000 0.000000
vn 1.000000 0.000000 0.000000
vn -1.000000 0.000000 0.000042
vn -1.000000 0.000000 0.000042
vn -1.000000 0.000000 0.000042
vn -1.000000 0.000000 0.000042
vn 0.000000 0.999989 0.004785
vn 0.000000 0.999989 0.004785
vn 0.000000 0.999989 0.004785
vn 0.000000 0.999989 0.004785
vn 0.000000 0.709213 0.704995
vn 0.000000 0.709213 0.704995
vn 0.000000 0.709213 0.704995
vn 0.000000 0.709213 0.704995
vn 0.000000 0.000000 1.000000
vn 0.000000 0.000000 1.000000
vn 0.000000 0.000000 1.000000
vn 0.000000 0.000000 1.000000
vn 0.000000 -0.706862 -0.707352
vn 0.000000 -0.706862 -0.707352
vn 0.000000 -0.706862 -0.707352
vn 0.000000 -0.706862 -0.707352
vn 1.000000 0.000000 0.000000
vn 1.000000 0.000000 0.000000
vn 1.000000 0.000000 0.000000
vn 1.000000 0.000000 0.000000
vn -1.000000 0.000044 -0.000044
vn -1.000000 0.000044 -0.000044
vn -1.000000 0.000044 -0.000044
vn -1.000000 0.000044 -0.000044
vn 0.000000 0.999989 0.004785
vn 0.000000 0.999989 0.004785
vn 0.000000 0.999989 0.004785
vn 0.000000 0.999989 0.004785
vn 0.000000 0.709213 0.704995
vn 0.000000 0.709213 0.704995
vn 0.000000 0.709213 0.704995
vn 0.000000 0.709213 0.704995
vn 0.000000 0.000000 1.000000
vn 0.000000 0.000000 1.000000
vn 0.000000 0.000000 1.000000
vn 0.000000 0.000000 1.000000
vn 0.000000 -0.706862 -0.707351
vn 0.000000 -0.706862 -0.707352
vn 0.000000 -0.706862 -0.707351
vn 0.000000 -0.706862 -0.707351
vn 1.000000 0.000001 0.000000
vn 1.000000 0.000001 0.000000
vn 1.000000 0.000001 0.000000
vn 1.000000 0.000001 0.000000
vn -1.000000 0.000043 -0.000044
vn -1.000000 0.000043 -0.000044
vn -1.000000 0.000043 -0.000044
vn -1.000000 0.000043 -0.000044
vn 0.000000 0.999989 -0.004783
vn 0.000000 0.999989 -0.004783
vn 0.000000 0.999989 -0.004783
vn 0.000000 0.999989 -0.004783
vn 0.000000 0.709212 -0.704995
vn 0.000000 0.709212 -0.704995
vn 0.000000 0.709212 -0.704995
vn 0.000000 0.709212 -0.704995
vn 0.000000 0.000000 -1.000000
vn 0.000000 0.000000 -1.000000
vn 0.000000 0.000000 -1.000000
vn 0.000000 0.000000 -1.000000
vn 0.000000 -0.706862 0.707351
vn 0.000000 -0.706862 0.707351
vn 0.000000 -0.706862 0.707351
vn 0.000000 -0.706862 0.707351
vn 1.000000 0.000000 0.000000
vn 1.000000 0.000000 0.000000
vn 1.000000 0.000000 0.000000
vn 1.000000 0.000000 0.000000
vn -1.000000 0.000045 0.000045
vn -1.000000 0.000045 0.000045
vn -1.000000 0.000045 0.000045
vn -1.000000 0.000045 0.000045
s off
g Bridge_platformer bridge Bridge
f 1/18/1 2/2/2 4/16/3 3/19/4
f 3/3/5 4/17/6 6/6/7 5/23/8
f 5/5/9 6/24/10 8/8/11 7/21/12
f 7/7/13 8/22/14 2/10/15 1/9/16
f 2/15/17 8/11/18 6/12/19 4/4/20
f 7/13/21 1/1/22 3/20/23 5/14/24
f 9/25/25 10/26/26 12/27/27 11/28/28
f 11/29/29 12/30/30 14/31/31 13/32/32
f 13/33/33 14/34/34 16/35/35 15/36/36
f 15/37/37 16/38/38 10/39/39 9/40/40
f 10/41/41 16/42/42 14/43/43 12/44/44
f 15/45/45 9/46/46 11/47/47 13/48/48
f 17/49/49 18/50/50 20/51/51 19/52/52
f 19/53/53 20/54/54 22/55/55 21/56/56
f 21/57/57 22/58/58 24/59/59 23/60/60
f 23/61/61 24/62/62 18/63/63 17/64/64
f 18/65/65 24/66/66 22/67/67 20/68/68
f 23/69/69 17/70/70 19/71/71 21/72/72
f 25/73/73 26/74/74 28/75/75 27/76/76
f 27/77/77 28/78/78 30/79/79 29/80/80
f 29/81/81 30/82/82 32/83/83 31/84/84
f 31/85/85 32/86/86 26/87/87 25/88/88
f 26/89/89 32/90/90 30/91/91 28/92/92
f 31/93/93 25/94/94 27/95/95 29/96/96
f 33/97/97 34/98/98 36/99/99 35/100/100
f 35/101/101 36/102/102 38/103/103 37/104/104
f 37/105/105 38/106/106 40/107/107 39/108/108
f 39/109/109 40/110/110 34/111/111 33/112/112
f 34/113/113 40/114/114 38/115/115 36/116/116
f 39/117/117 33/118/118 35/119/119 37/120/120
f 41/121/121 42/122/122 44/123/123 43/124/124
f 43/125/125 44/126/126 46/127/127 45/128/128
f 45/129/129 46/130/130 48/131/131 47/132/132
f 47/133/133 48/134/134 42/135/135 41/136/136
f 42/137/137 48/138/138 46/139/139 44/140/140
f 47/141/141 41/142/142 43/143/143 45/144/144
f 49/145/145 50/146/146 52/147/147 51/148/148
f 51/149/149 52/150/150 54/151/151 53/152/152
f 53/153/153 54/154/154 56/155/155 55/156/156
f 55/157/157 56/158/158 50/159/159 49/160/160
f 50/161/161 56/162/162 54/163/163 52/164/164
f 55/165/165 49/166/166 51/167/167 53/168/168
f 57/169/169 58/170/170 60/171/171 59/172/172
f 59/173/173 60/174/174 62/175/175 61/176/176
f 61/177/177 62/178/178 64/179/179 63/180/180
f 63/181/181 64/182/182 58/183/183 57/184/184
f 58/185/185 64/186/186 62/187/187 60/188/188
f 63/189/189 57/190/190 59/191/191 61/192/192
f 65/193/193 67/194/194 68/195/195 66/196/196
f 67/197/197 69/198/198 70/199/199 68/200/200
f 69/201/201 71/202/202 72/203/203 70/204/204
f 71/205/205 65/206/206 66/207/207 72/208/208
f 66/209/209 68/210/210 70/211/211 72/212/212
f 71/213/213 69/214/214 67/215/215 65/216/216
f 73/217/217 75/218/218 76/219/219 74/220/220
f 75/221/221 77/222/222 78/223/223 76/224/224
f 77/225/225 79/226/226 80/227/227 78/228/228
f 79/229/229 73/230/230 74/231/231 80/232/232
f 74/233/233 76/234/234 78/235/235 80/236/236
f 79/237/237 77/238/238 75/239/239 73/240/240
f 81/241/241 82/242/242 84/243/243 83/244/244
f 83/245/245 84/246/246 86/247/247 85/248/248
f 85/249/249 86/250/250 88/251/251 87/252/252
f 87/253/253 88/254/254 82/255/255 81/256/256
f 82/257/257 88/258/258 86/259/259 84/260/260
f 87/261/261 81/262/262 83/263/263 85/264/264
