# This file uses centimeters as units for non-parametric coordinates.

g default
v 4.380000 0.000000 0.000000
v 4.380000 1.590400 0.000000
v 3.720000 1.420000 -0.245000
v 3.720000 0.000000 -0.245000
v 4.380000 0.198294 -0.239014
v 4.380000 0.000000 -1.890000
v 3.720000 0.000000 -1.645000
v 3.720000 1.420000 -1.645000
v 4.380000 1.590400 -1.890000
v 2.324580 0.308148 -1.614686
v 1.617984 0.308148 -1.599336
v 0.820000 0.000000 -1.582000
v 0.820000 1.278000 -1.582000
v -0.000000 0.000000 -1.741250
v -0.000000 1.405800 -1.741250
v -0.000000 0.175277 -1.539858
v -0.000000 0.175277 -0.350142
v -0.000000 0.000000 -0.148750
v -0.000000 1.230522 -0.350142
v -0.000000 1.405800 -0.148750
v 0.820000 1.278000 -0.308000
v 0.820000 0.000000 -0.308000
v 3.720000 0.177048 -0.422048
v 3.720000 1.242952 -0.422048
v 3.720000 1.242952 -1.467952
v 4.380000 1.392106 -1.650986
v 4.380000 1.392106 -0.239014
v 3.720000 0.177048 -1.467952
v 4.380000 0.198294 -1.650986
v 0.820000 0.159343 -0.469114
v 0.820000 1.118656 -0.469114
v 0.820000 0.159343 -1.420886
v 0.820000 1.118656 -1.420886
v -0.000000 1.230522 -1.539858
v 2.324580 0.948148 -1.614686
v 1.845792 0.410548 -2.350100
v 1.845792 0.845748 -2.350100
v 1.437888 0.410548 -2.341240
v 1.437888 0.845748 -2.341240
v 1.617984 0.948148 -1.599336
vt 0.434730 0.153750
vt 0.474988 0.153750
vt 0.470674 0.153237
vt 0.434730 0.153237
vt 0.414896 0.144776
vt 0.423779 0.146622
vt 0.414896 0.159584
vt 0.485139 0.144776
vt 0.468575 0.153774
vt 0.474777 0.154256
vt 0.426934 0.154256
vt 0.433136 0.153774
vt 0.429966 0.154334
vt 0.429966 0.153820
vt 0.465911 0.153820
vt 0.470224 0.154334
vt 0.430399 0.153787
vt 0.438199 0.152770
vt 0.466344 0.153787
vt 0.438199 0.152254
vt 0.430399 0.151672
vt 0.462749 0.151672
vt 0.435830 0.152518
vt 0.459672 0.152518
vt 0.457505 0.152315
vt 0.435830 0.152315
vt 0.414933 0.144959
vt 0.423569 0.146744
vt 0.414933 0.159275
vt 0.474592 0.146744
vt 0.483229 0.144959
vt 0.474592 0.157490
vt 0.483229 0.159275
vt 0.472839 0.154267
vt 0.468808 0.153662
vt 0.436559 0.153662
vt 0.432527 0.154267
vt 0.468498 0.152315
vt 0.468498 0.152518
vt 0.446823 0.152518
vt 0.444656 0.152315
vt 0.471011 0.151062
vt 0.466980 0.151660
vt 0.434731 0.151660
vt 0.430700 0.151062
vt 0.423457 0.146849
vt 0.414895 0.145024
vt 0.482596 0.145024
vt 0.414895 0.159661
vt 0.423457 0.157836
vt 0.482596 0.159661
vt 0.474035 0.157836
vt 0.464161 0.153771
vt 0.468794 0.154265
vt 0.433053 0.154265
vt 0.437686 0.153771
vt 0.439480 0.151590
vt 0.440018 0.151091
vt 0.470237 0.151091
vt 0.466462 0.151590
vt 0.464161 0.153777
vt 0.468794 0.154259
vt 0.433053 0.154259
vt 0.437686 0.153777
vt 0.434717 0.153827
vt 0.461698 0.153827
vt 0.465474 0.154327
vt 0.435254 0.154327
vt 0.433828 0.153744
vt 0.433242 0.151629
vt 0.465001 0.151629
vt 0.469115 0.153744
vt 0.440352 0.153745
vt 0.441543 0.151630
vt 0.465636 0.151630
vt 0.466827 0.153745
vt 0.461314 0.153728
vt 0.437031 0.153728
vt 0.437479 0.151613
vt 0.464461 0.151613
vt 0.442215 0.152997
vt 0.442215 0.152298
vt 0.463189 0.152216
vt 0.463189 0.152985
vt 0.423021 0.157890
vt 0.414629 0.159741
vt 0.423021 0.146747
vt 0.472597 0.157890
vt 0.480989 0.159741
vt 0.480989 0.144896
vt 0.472597 0.146747
vt 0.414629 0.144896
vt 0.467741 0.151026
vt 0.464729 0.151624
vt 0.440637 0.151624
vt 0.437625 0.151026
vt 0.463189 0.152997
vt 0.442215 0.152985
vt 0.442215 0.152216
vt 0.463189 0.152298
vt 0.467741 0.151024
vt 0.464729 0.151627
vt 0.440637 0.151627
vt 0.437625 0.151024
vt 0.441423 0.153780
vt 0.442614 0.151664
vt 0.466707 0.151664
vt 0.467898 0.153780
vt 0.423569 0.157490
vt 0.432997 0.151084
vt 0.432997 0.153199
vt 0.468942 0.153199
vt 0.465348 0.151084
vt 0.469714 0.151674
vt 0.471309 0.153791
vt 0.435870 0.153791
vt 0.437465 0.151674
vt 0.468643 0.151520
vt 0.474845 0.151023
vt 0.427003 0.151023
vt 0.433204 0.151520
vt 0.423779 0.157738
vt 0.485139 0.159584
vt 0.476256 0.157738
vt 0.476256 0.146622
vt 0.454400 0.152770
vt 0.463809 0.152840
vt 0.441595 0.152765
vt 0.441595 0.152448
vt 0.463809 0.152373
vt 0.441682 0.152332
vt 0.452010 0.152332
vt 0.463722 0.152881
vt 0.445832 0.152881
vt 0.447538 0.152765
vt 0.447538 0.152448
vt 0.457866 0.152448
vt 0.457866 0.152765
vt 0.443039 0.152373
vt 0.462365 0.152448
vt 0.462365 0.152765
vt 0.443039 0.152840
vt 0.441682 0.152881
vt 0.445832 0.152332
vt 0.463722 0.152332
vt 0.452010 0.152881
vt 0.454400 0.152254
vt 0.474035 0.146849
vn -0.348008 -0.000000 0.937492
vn -0.348008 -0.000000 0.937492
vn -0.348008 -0.000000 0.937492
vn -0.348008 -0.000000 0.937492
vn 1.000000 -0.000000 0.000000
vn 1.000000 -0.000000 0.000000
vn 1.000000 -0.000000 0.000000
vn 1.000000 -0.000000 0.000000
vn 1.000000 -0.000000 0.000000
vn 1.000000 -0.000000 0.000000
vn -0.000000 -1.000000 0.000000
vn -0.000000 -1.000000 0.000000
vn -0.000000 -1.000000 0.000000
vn -0.000000 -1.000000 0.000000
vn -0.348008 -0.000000 -0.937492
vn -0.348008 -0.000000 -0.937492
vn -0.348008 -0.000000 -0.937492
vn -0.348008 -0.000000 -0.937492
vn -0.021719 0.000000 -0.999764
vn -0.021719 0.000000 -0.999764
vn -0.021719 0.000000 -0.999764
vn -0.021719 0.000000 -0.999764
vn -0.021719 0.000000 -0.999764
vn -0.021719 0.000000 -0.999764
vn -0.021719 0.000000 -0.999764
vn -0.021719 0.000000 -0.999764
vn -0.021719 0.000000 -0.999764
vn -0.021719 0.000000 -0.999764
vn -0.021719 0.000000 -0.999764
vn -0.021719 0.000000 -0.999764
vn 0.190645 0.000000 -0.981659
vn 0.190645 0.000000 -0.981659
vn 0.190645 0.000000 -0.981659
vn 0.190645 0.000000 -0.981659
vn -1.000000 -0.000000 0.000000
vn -1.000000 -0.000000 0.000000
vn -1.000000 -0.000000 0.000000
vn -1.000000 -0.000000 0.000000
vn -1.000000 -0.000000 0.000000
vn -1.000000 -0.000000 0.000000
vn -1.000000 -0.000000 0.000000
vn -1.000000 -0.000000 0.000000
vn -1.000000 -0.000000 0.000000
vn -1.000000 -0.000000 0.000000
vn -1.000000 -0.000000 0.000000
vn -1.000000 -0.000000 0.000000
vn -1.000000 -0.000000 0.000000
vn -1.000000 -0.000000 0.000000
vn -1.000000 -0.000000 0.000000
vn -1.000000 -0.000000 0.000000
vn -1.000000 -0.000000 0.000000
vn -1.000000 -0.000000 0.000000
vn 0.153995 0.988072 0.000000
vn 0.153995 0.988072 0.000000
vn 0.153995 0.988072 0.000000
vn 0.153995 0.988072 0.000000
vn 0.190645 0.000000 0.981659
vn 0.190645 0.000000 0.981659
vn 0.190645 0.000000 0.981659
vn 0.190645 0.000000 0.981659
vn 0.000000 -1.000000 0.000000
vn 0.000000 -1.000000 0.000000
vn 0.000000 -1.000000 0.000000
vn 0.000000 -1.000000 0.000000
vn 0.000000 -1.000000 0.000000
vn 0.000000 -1.000000 0.000000
vn 0.000000 -1.000000 0.000000
vn 0.000000 -1.000000 0.000000
vn 1.000000 0.000000 0.000000
vn 1.000000 0.000000 0.000000
vn 1.000000 0.000000 0.000000
vn 1.000000 0.000000 0.000000
vn 1.000000 0.000000 0.000000
vn 1.000000 0.000000 0.000000
vn 1.000000 0.000000 0.000000
vn 1.000000 0.000000 0.000000
vn 1.000000 0.000000 0.000000
vn 1.000000 0.000000 0.000000
vn 1.000000 0.000000 0.000000
vn 1.000000 0.000000 0.000000
vn 1.000000 0.000000 0.000000
vn 1.000000 0.000000 0.000000
vn 1.000000 0.000000 0.000000
vn 0.220432 -0.975402 -0.000000
vn 0.220432 -0.975402 -0.000000
vn 0.220432 -0.975402 -0.000000
vn 0.220432 -0.975402 -0.000000
vn 0.267237 0.000000 0.963631
vn 0.267237 0.000000 0.963631
vn 0.267237 0.000000 0.963631
vn 0.267237 0.000000 0.963631
vn -0.032174 0.999482 0.000000
vn -0.032174 0.999482 0.000000
vn -0.032174 0.999482 0.000000
vn -0.032174 0.999482 0.000000
vn 0.267237 0.000000 -0.963631
vn 0.267237 0.000000 -0.963631
vn 0.267237 0.000000 -0.963631
vn 0.267237 0.000000 -0.963631
vn 0.016227 -0.000000 -0.999868
vn 0.016227 -0.000000 -0.999868
vn 0.016227 -0.000000 -0.999868
vn 0.016227 -0.000000 -0.999868
vn -0.006105 0.999981 -0.000000
vn -0.006105 0.999981 -0.000000
vn -0.006105 0.999981 -0.000000
vn -0.006105 0.999981 -0.000000
vn 0.016227 -0.000000 0.999868
vn 0.016227 -0.000000 0.999868
vn 0.016227 -0.000000 0.999868
vn 0.016227 -0.000000 0.999868
vn -0.143584 0.000000 0.989638
vn -0.143584 0.000000 0.989638
vn -0.143584 0.000000 0.989638
vn -0.143584 0.000000 0.989638
vn -1.000000 -0.000000 0.000000
vn -1.000000 -0.000000 0.000000
vn -1.000000 -0.000000 0.000000
vn -1.000000 -0.000000 0.000000
vn -1.000000 -0.000000 0.000000
vn -1.000000 -0.000000 0.000000
vn -1.000000 -0.000000 0.000000
vn -1.000000 -0.000000 0.000000
vn -1.000000 -0.000000 0.000000
vn -1.000000 -0.000000 0.000000
vn -1.000000 -0.000000 0.000000
vn -1.000000 -0.000000 0.000000
vn -1.000000 -0.000000 0.000000
vn -1.000000 -0.000000 0.000000
vn -1.000000 -0.000000 0.000000
vn -1.000000 -0.000000 0.000000
vn -1.000000 -0.000000 0.000000
vn -1.000000 -0.000000 0.000000
vn -1.000000 -0.000000 0.000000
vn -1.000000 -0.000000 0.000000
vn -1.000000 -0.000000 0.000000
vn 0.019428 0.999811 0.000000
vn 0.019428 0.999811 0.000000
vn 0.019428 0.999811 0.000000
vn 0.019428 0.999811 0.000000
vn -0.143584 0.000000 -0.989638
vn -0.143584 0.000000 -0.989638
vn -0.143584 0.000000 -0.989638
vn -0.143584 0.000000 -0.989638
vn -0.135170 -0.990822 -0.000000
vn -0.135170 -0.990822 -0.000000
vn -0.135170 -0.990822 -0.000000
vn -0.135170 -0.990822 -0.000000
vn 0.042821 -0.999083 0.000000
vn 0.042821 -0.999083 0.000000
vn 0.042821 -0.999083 0.000000
vn 0.042821 -0.999083 0.000000
vn -1.000000 -0.000000 0.000000
vn -1.000000 -0.000000 0.000000
vn -1.000000 -0.000000 0.000000
vn -1.000000 -0.000000 0.000000
vn -1.000000 -0.000000 0.000000
vn -1.000000 -0.000000 0.000000
vn -1.000000 -0.000000 0.000000
vn -1.000000 -0.000000 0.000000
vn -1.000000 -0.000000 0.000000
vn -0.021719 -0.000000 0.999764
vn -0.021719 -0.000000 0.999764
vn -0.021719 -0.000000 0.999764
vn -0.021719 -0.000000 0.999764
vn -0.048907 0.998803 -0.000000
vn -0.048907 0.998803 -0.000000
vn -0.048907 0.998803 -0.000000
vn -0.048907 0.998803 -0.000000
vn -0.249985 0.968250 -0.000000
vn -0.249985 0.968250 -0.000000
vn -0.249985 0.968250 -0.000000
vn -0.249985 0.968250 -0.000000
vn 1.000000 -0.000000 0.000000
vn 1.000000 -0.000000 0.000000
vn 1.000000 -0.000000 0.000000
vn 1.000000 -0.000000 0.000000
vn 1.000000 -0.000000 0.000000
vn 1.000000 -0.000000 0.000000
vn 1.000000 -0.000000 0.000000
vn 1.000000 -0.000000 0.000000
vn 1.000000 -0.000000 0.000000
vn 1.000000 -0.000000 0.000000
vn 1.000000 -0.000000 0.000000
vn 1.000000 -0.000000 0.000000
vn 1.000000 -0.000000 0.000000
vn 1.000000 -0.000000 0.000000
vn 1.000000 -0.000000 0.000000
vn 1.000000 -0.000000 0.000000
vn 1.000000 -0.000000 0.000000
vn 1.000000 -0.000000 0.000000
vn -0.021719 0.000000 -0.999764
vn -0.021719 0.000000 -0.999764
vn -0.021719 0.000000 -0.999764
vn -0.021719 0.000000 -0.999764
vn -0.021719 0.000000 -0.999764
vn -0.021719 0.000000 -0.999764
vn 0.838049 -0.000000 -0.545594
vn 0.838049 -0.000000 -0.545594
vn 0.838049 -0.000000 -0.545594
vn 0.838049 -0.000000 -0.545594
vn -0.002955 -0.990702 -0.136021
vn -0.002955 -0.990702 -0.136021
vn -0.002955 -0.990702 -0.136021
vn -0.002955 -0.990702 -0.136021
vn -0.021719 0.000000 -0.999764
vn -0.021719 0.000000 -0.999764
vn -0.021719 0.000000 -0.999764
vn -0.021719 0.000000 -0.999764
vn -0.971779 -0.000000 0.235894
vn -0.971779 -0.000000 0.235894
vn -0.971779 -0.000000 0.235894
vn -0.971779 -0.000000 0.235894
vn -0.002955 0.990702 -0.136021
vn -0.002955 0.990702 -0.136021
vn -0.002955 0.990702 -0.136021
vn -0.002955 0.990702 -0.136021
vn -0.021719 0.000000 -0.999764
vn -0.021719 0.000000 -0.999764
vn -0.021719 0.000000 -0.999764
vn -0.021719 0.000000 -0.999764
vn -0.021719 0.000000 -0.999764
vn -0.021719 0.000000 -0.999764
vn 1.000000 0.000000 0.000000
vn 1.000000 0.000000 0.000000
vn 1.000000 0.000000 0.000000
vn 1.000000 0.000000 0.000000
vn 1.000000 0.000000 0.000000
vn 1.000000 0.000000 0.000000
vn 1.000000 0.000000 0.000000
vn 1.000000 0.000000 0.000000
vn 1.000000 0.000000 0.000000
s off
g Fallen_Trunk_01:Mesh1Fallen_TrunkModel landscape_pack
f 1/1/1 2/2/2 3/3/3 4/4/4
f 1/5/5 5/6/6 2/7/7
f 5/6/8 1/5/9 6/8/10
f 7/9/11 6/10/12 1/11/13 4/12/14
f 6/13/15 7/14/16 8/15/17 9/16/18
f 7/17/19 10/18/20 8/19/21
f 10/18/22 7/17/23 11/20/24
f 12/21/25 11/20/26 7/17/27
f 11/20/28 12/21/29 13/22/30
f 14/23/31 15/24/32 13/25/33 12/26/34
f 14/27/35 16/28/36 15/29/37
f 14/27/38 17/30/39 16/28/40
f 18/31/41 17/30/42 14/27/43
f 17/30/44 18/31/45 19/32/46
f 20/33/47 19/32/48 18/31/49
f 19/32/50 20/33/51 15/29/52
f 20/34/53 21/35/54 13/36/55 15/37/56
f 18/38/57 22/39/58 21/40/59 20/41/60
f 14/42/61 12/43/62 22/44/63 18/45/64
f 12/43/65 7/9/66 4/12/67 22/44/68
f 23/46/69 4/47/70 7/48/71
f 4/47/72 23/46/73 3/49/74
f 24/50/75 3/49/76 23/46/77
f 3/49/78 24/50/79 8/51/80
f 8/51/81 24/50/82 25/52/83
f 25/53/84 26/54/85 27/55/86 24/56/87
f 28/57/88 29/58/89 26/59/90 25/60/91
f 23/61/92 5/62/93 29/63/94 28/64/95
f 23/65/96 24/66/97 27/67/98 5/68/99
f 23/69/100 30/70/101 31/71/102 24/72/103
f 28/73/104 32/74/105 30/75/106 23/76/107
f 33/77/108 32/78/109 28/79/110 25/80/111
f 32/81/112 33/82/113 34/83/114 16/84/115
f 33/85/116 13/86/117 32/87/118
f 31/88/119 13/86/120 33/85/121
f 31/88/122 21/89/123 13/86/124
f 21/89/125 31/88/126 22/90/127
f 30/91/128 22/90/129 31/88/130
f 22/90/131 30/91/132 12/92/133
f 12/92/134 30/91/135 32/87/136
f 17/93/137 30/94/138 32/95/139 16/96/140
f 30/97/141 17/98/142 19/99/143 31/100/144
f 34/101/145 33/102/146 31/103/147 19/104/148
f 24/105/149 31/106/150 33/107/151 25/108/152
f 19/32/153 15/29/154 34/109/155
f 34/109/156 15/29/157 16/28/158
f 12/92/159 32/87/160 13/86/161
f 22/110/162 4/111/163 3/112/164 21/113/165
f 21/114/166 3/115/167 8/116/168 13/117/169
f 3/118/170 2/119/171 9/120/172 8/121/173
f 2/7/174 27/122/175 9/123/176
f 27/122/177 2/7/178 5/6/179
f 9/123/180 27/122/181 26/124/182
f 9/123/183 26/124/184 6/8/185
f 29/125/186 6/8/187 26/124/188
f 5/6/189 6/8/190 29/125/191
f 8/19/192 35/126/193 13/22/194
f 8/19/195 10/18/196 35/126/197
f 10/127/198 36/128/199 37/129/200 35/130/201
f 38/131/202 36/132/203 10/133/204 11/134/205
f 38/135/206 39/136/207 37/137/208 36/138/209
f 40/139/210 39/140/211 38/141/212 11/142/213
f 39/143/214 40/144/215 35/145/216 37/146/217
f 40/147/218 13/22/219 35/126/220
f 11/20/221 13/22/222 40/147/223
f 28/148/224 7/48/225 25/52/226
f 23/46/227 7/48/228 28/148/229
f 8/51/230 25/52/231 7/48/232
